<svg width="283" height="280" viewBox="0 0 283 280" fill="none" xmlns="http://www.w3.org/2000/svg">
<path fill-rule="evenodd" clip-rule="evenodd" d="M25.5198 129.782C25.5198 63.1893 79.5039 9.20557 146.096 9.20557C212.689 9.20557 266.671 63.1893 266.671 129.782C266.671 196.374 212.689 250.358 146.096 250.358C79.5039 250.358 25.5198 196.374 25.5198 129.782ZM146.096 10.3971C80.1619 10.3971 26.7113 63.8474 26.7113 129.782C26.7113 195.716 80.1619 249.167 146.096 249.167C212.031 249.167 265.48 195.716 265.48 129.782C265.48 63.8473 212.031 10.3971 146.096 10.3971Z" fill="#D1E8F7"/>
<path d="M48.4887 63.5602C50.8226 63.5602 52.7147 61.6681 52.7147 59.3341C52.7147 57.0001 50.8226 55.1084 48.4887 55.1084C46.155 55.1084 44.2629 57.0001 44.2629 59.3341C44.2629 61.6681 46.155 63.5602 48.4887 63.5602Z" fill="#BFC9E0"/>
<path d="M266.073 138.578C268.408 138.578 270.301 136.686 270.301 134.352C270.301 132.018 268.408 130.126 266.073 130.126C263.741 130.126 261.848 132.018 261.848 134.352C261.848 136.686 263.741 138.578 266.073 138.578Z" fill="#6C57DF"/>
<path d="M151.018 253.99C153.351 253.99 155.244 252.098 155.244 249.764C155.244 247.43 153.351 245.538 151.018 245.538C148.684 245.538 146.792 247.43 146.792 249.764C146.792 252.098 148.684 253.99 151.018 253.99Z" fill="#6C57DF"/>
<path fill-rule="evenodd" clip-rule="evenodd" d="M58.7778 130.573C58.7778 80.8133 99.116 40.4751 148.876 40.4751C198.636 40.4751 238.974 80.8133 238.974 130.573C238.974 180.333 198.636 220.671 148.876 220.671C99.116 220.671 58.7778 180.333 58.7778 130.573ZM148.876 41.6666C99.774 41.6666 59.9693 81.4713 59.9693 130.573C59.9693 179.675 99.774 219.48 148.876 219.48C197.978 219.48 237.783 179.675 237.783 130.573C237.783 81.4713 197.978 41.6666 148.876 41.6666Z" fill="#D1E8F7"/>
<path d="M236.843 151.755C238.584 151.755 239.995 150.344 239.995 148.603C239.995 146.862 238.584 145.451 236.843 145.451C235.102 145.451 233.69 146.862 233.69 148.603C233.69 150.344 235.102 151.755 236.843 151.755Z" fill="#BFC9E0"/>
<path d="M65.8624 167.363C67.6036 167.363 69.015 165.952 69.015 164.211C69.015 162.47 67.6036 161.059 65.8624 161.059C64.1216 161.059 62.7102 162.47 62.7102 164.211C62.7102 165.952 64.1216 167.363 65.8624 167.363Z" fill="#5661AE"/>
<path d="M108.784 53.6217C110.525 53.6217 111.936 52.2103 111.936 50.4691C111.936 48.7283 110.525 47.3169 108.784 47.3169C107.043 47.3169 105.631 48.7283 105.631 50.4691C105.631 52.2103 107.043 53.6217 108.784 53.6217Z" fill="#6C57DF"/>
<path d="M195.458 229.685H92.0963C87.612 229.685 84.3263 226.05 84.7575 221.566L102.402 38.0136C102.833 33.5293 106.817 29.894 111.302 29.894H214.663C219.147 29.894 222.433 33.5293 222.002 38.0136L204.357 221.566C203.926 226.05 199.942 229.685 195.458 229.685Z" fill="#3B2C8F"/>
<path d="M188.173 229.685H84.8113C80.3274 229.685 77.0417 226.05 77.4725 221.566L95.1171 38.0136C95.5483 33.5293 99.5328 29.894 104.017 29.894H207.378C211.862 29.894 215.148 33.5293 214.717 38.0136L197.073 221.566C196.641 226.05 192.657 229.685 188.173 229.685Z" fill="url(#paint0_linear)"/>
<path d="M184.255 223.584H89.9007C85.7449 223.584 82.6997 220.216 83.0992 216.06L99.6849 43.5215C100.085 39.3657 103.777 35.9971 107.933 35.9971H202.287C206.443 35.9971 209.488 39.3657 209.088 43.5215L192.503 216.06C192.103 220.216 188.41 223.584 184.255 223.584Z" fill="white"/>
<path d="M191.822 114.487L90.6047 114.397C90.1912 114.408 89.7801 114.331 89.3987 114.171C89.0177 114.01 88.6748 113.771 88.3938 113.467C88.1125 113.164 87.8994 112.804 87.7683 112.412C87.6371 112.02 87.5913 111.604 87.6338 111.192L93.0906 50.6001C93.1892 49.7256 93.6047 48.9178 94.2584 48.3287C94.9117 47.7392 95.7581 47.4097 96.6379 47.4014L197.855 47.4914C198.269 47.4803 198.68 47.5573 199.061 47.7175C199.442 47.8781 199.785 48.1176 200.066 48.421C200.348 48.7244 200.561 49.084 200.692 49.4764C200.823 49.8685 200.869 50.2843 200.826 50.6958L195.37 111.288C195.271 112.162 194.855 112.97 194.202 113.56C193.548 114.149 192.702 114.479 191.822 114.487Z" fill="url(#paint1_linear)"/>
<path d="M188.634 179.777H145.854C145.538 179.783 145.225 179.721 144.935 179.596C144.645 179.471 144.386 179.285 144.174 179.051C143.963 178.816 143.804 178.54 143.709 178.239C143.613 177.938 143.584 177.62 143.621 177.307L148.816 123.269C148.891 122.599 149.207 121.979 149.705 121.525C150.203 121.071 150.849 120.813 151.523 120.8H194.304C194.619 120.793 194.932 120.855 195.222 120.98C195.512 121.106 195.771 121.292 195.983 121.526C196.195 121.76 196.354 122.037 196.449 122.337C196.544 122.638 196.574 122.956 196.536 123.269L191.341 177.307C191.266 177.977 190.951 178.597 190.452 179.051C189.955 179.505 189.308 179.763 188.634 179.777Z" fill="#8875F1"/>
<path fill-rule="evenodd" clip-rule="evenodd" d="M162.9 133.665C167.922 128.878 175.6 128.636 180.041 133.294C184.481 137.953 183.871 145.611 178.848 150.398C173.825 155.185 166.147 155.427 161.707 150.768C157.266 146.109 157.877 138.452 162.9 133.665L162.9 133.665ZM179.178 134.116C175.264 130.01 168.348 130.118 163.722 134.527C159.095 138.937 158.655 145.84 162.569 149.946L162.569 149.946C166.483 154.052 173.399 153.945 178.026 149.535L178.026 149.535C182.652 145.126 183.092 138.223 179.178 134.116Z" fill="#4A38AE"/>
<path fill-rule="evenodd" clip-rule="evenodd" d="M171.979 131.125C165.936 131.125 160.546 136.039 159.965 142.088C159.529 146.628 161.926 150.49 165.686 152.114C165.989 152.244 166.128 152.595 165.997 152.897C165.867 153.199 165.516 153.338 165.214 153.207C160.97 151.375 158.294 147.02 158.779 141.974C159.419 135.318 165.318 129.934 171.979 129.934C172.308 129.934 172.575 130.2 172.575 130.529C172.575 130.858 172.308 131.125 171.979 131.125Z" fill="white"/>
<path fill-rule="evenodd" clip-rule="evenodd" d="M163.909 162.549C163.909 162.22 164.176 161.953 164.505 161.953H173.306C173.635 161.953 173.902 162.22 173.902 162.549C173.902 162.878 173.635 163.145 173.306 163.145H164.505C164.176 163.145 163.909 162.878 163.909 162.549Z" fill="white"/>
<path fill-rule="evenodd" clip-rule="evenodd" d="M162.945 172.514C162.945 172.185 163.212 171.918 163.541 171.918H172.343C172.672 171.918 172.938 172.185 172.938 172.514C172.938 172.843 172.672 173.109 172.343 173.109H163.541C163.212 173.109 162.945 172.843 162.945 172.514Z" fill="white"/>
<path opacity="0.4" fill-rule="evenodd" clip-rule="evenodd" d="M158.738 167.475C158.738 167.146 159.005 166.879 159.334 166.879H177.524C177.853 166.879 178.119 167.146 178.119 167.475C178.119 167.804 177.853 168.071 177.524 168.071H159.334C159.005 168.071 158.738 167.804 158.738 167.475Z" fill="white"/>
<path d="M136.317 179.777H93.5358C93.2204 179.783 92.9069 179.721 92.6172 179.596C92.3279 179.471 92.0683 179.285 91.8565 179.051C91.6451 178.816 91.4862 178.54 91.3909 178.239C91.2952 177.938 91.2658 177.62 91.3036 177.307L96.4981 123.269C96.573 122.599 96.8888 121.979 97.3869 121.525C97.885 121.071 98.531 120.813 99.205 120.8H141.986C142.302 120.793 142.615 120.855 142.904 120.98C143.194 121.106 143.453 121.292 143.665 121.526C143.877 121.76 144.036 122.037 144.131 122.337C144.226 122.638 144.256 122.956 144.218 123.269L139.024 177.307C138.949 177.977 138.633 178.597 138.135 179.051C137.637 179.505 136.991 179.763 136.317 179.777Z" fill="#E0E7F6"/>
<path fill-rule="evenodd" clip-rule="evenodd" d="M110.579 133.665C115.602 128.878 123.28 128.636 127.72 133.294C132.16 137.953 131.55 145.611 126.527 150.398C121.504 155.185 113.826 155.427 109.386 150.768C104.946 146.109 105.556 138.452 110.579 133.665L110.579 133.665ZM126.857 134.116C122.944 130.01 116.027 130.118 111.401 134.527C106.775 138.937 106.335 145.84 110.249 149.946C114.162 154.052 121.079 153.945 125.705 149.535L125.705 149.535C130.331 145.126 130.771 138.223 126.857 134.116L126.857 134.116Z" fill="#4A38AE"/>
<path fill-rule="evenodd" clip-rule="evenodd" d="M119.659 131.125C113.616 131.125 108.226 136.039 107.645 142.088L107.645 142.088C107.067 148.093 111.45 152.937 117.448 152.937C123.491 152.937 128.88 148.023 129.462 141.974C129.493 141.646 129.784 141.406 130.112 141.438C130.439 141.469 130.679 141.76 130.648 142.088C130.008 148.744 124.109 154.128 117.448 154.128C110.741 154.128 105.814 148.673 106.458 141.974C107.098 135.318 112.997 129.934 119.659 129.934C119.988 129.934 120.254 130.2 120.254 130.529C120.254 130.858 119.988 131.125 119.659 131.125Z" fill="white"/>
<path fill-rule="evenodd" clip-rule="evenodd" d="M111.587 162.549C111.587 162.22 111.854 161.953 112.183 161.953H120.984C121.313 161.953 121.58 162.22 121.58 162.549C121.58 162.878 121.313 163.145 120.984 163.145H112.183C111.854 163.145 111.587 162.878 111.587 162.549Z" fill="white"/>
<path fill-rule="evenodd" clip-rule="evenodd" d="M110.629 172.514C110.629 172.185 110.896 171.918 111.225 171.918H120.027C120.356 171.918 120.623 172.185 120.623 172.514C120.623 172.843 120.356 173.109 120.027 173.109H111.225C110.896 173.109 110.629 172.843 110.629 172.514Z" fill="white"/>
<path opacity="0.4" fill-rule="evenodd" clip-rule="evenodd" d="M106.418 167.475C106.418 167.146 106.685 166.879 107.014 166.879H125.203C125.532 166.879 125.799 167.146 125.799 167.475C125.799 167.804 125.532 168.071 125.203 168.071H107.014C106.685 168.071 106.418 167.804 106.418 167.475Z" fill="white"/>
<path d="M185.049 218.426H89.6916C89.3926 218.432 89.0959 218.374 88.8215 218.255C88.5469 218.136 88.301 217.96 88.1003 217.738C87.8999 217.516 87.7494 217.254 87.6587 216.969C87.5684 216.684 87.5403 216.383 87.5761 216.085L90.4219 186.485C90.4928 185.85 90.7922 185.262 91.2642 184.831C91.7363 184.401 92.3484 184.157 92.9874 184.144H188.345C188.644 184.138 188.941 184.197 189.215 184.315C189.49 184.434 189.735 184.61 189.936 184.832C190.136 185.054 190.287 185.316 190.378 185.601C190.468 185.887 190.496 186.188 190.46 186.485L187.615 216.085C187.544 216.72 187.245 217.308 186.773 217.738C186.301 218.169 185.688 218.413 185.049 218.426Z" fill="#E0E7F7"/>
<path fill-rule="evenodd" clip-rule="evenodd" d="M97.7338 196.975C98.0613 197.007 98.3012 197.298 98.2698 197.625L96.9246 211.619C96.8932 211.947 96.6021 212.187 96.2746 212.155C95.9471 212.124 95.7071 211.833 95.7386 211.505L97.0837 197.511C97.1152 197.184 97.4062 196.944 97.7338 196.975Z" fill="white"/>
<path fill-rule="evenodd" clip-rule="evenodd" d="M106.259 201.167C106.586 201.199 106.826 201.49 106.795 201.817L105.852 211.62C105.821 211.948 105.53 212.188 105.202 212.156C104.875 212.125 104.635 211.834 104.666 211.506L105.609 201.703C105.64 201.376 105.931 201.136 106.259 201.167Z" fill="white"/>
<path fill-rule="evenodd" clip-rule="evenodd" d="M114.865 204.517C115.193 204.548 115.433 204.839 115.401 205.167L114.781 211.622C114.749 211.949 114.458 212.189 114.131 212.158C113.803 212.126 113.563 211.835 113.595 211.508L114.215 205.053C114.247 204.725 114.538 204.485 114.865 204.517Z" fill="white"/>
<path fill-rule="evenodd" clip-rule="evenodd" d="M124.867 193.341C125.195 193.372 125.435 193.663 125.403 193.991L123.709 211.621C123.677 211.949 123.386 212.189 123.059 212.157C122.731 212.126 122.491 211.835 122.523 211.507L124.217 193.877C124.249 193.549 124.54 193.309 124.867 193.341Z" fill="white"/>
<path fill-rule="evenodd" clip-rule="evenodd" d="M132.722 204.517C133.049 204.548 133.289 204.839 133.258 205.167L132.637 211.622C132.606 211.949 132.315 212.189 131.987 212.158C131.66 212.126 131.42 211.835 131.451 211.508L132.072 205.053C132.103 204.725 132.394 204.485 132.722 204.517Z" fill="white"/>
<path fill-rule="evenodd" clip-rule="evenodd" d="M142.649 194.119C142.976 194.15 143.216 194.441 143.185 194.769L141.565 211.621C141.533 211.948 141.242 212.188 140.915 212.157C140.587 212.125 140.347 211.834 140.379 211.507L141.999 194.655C142.03 194.327 142.321 194.088 142.649 194.119Z" fill="white"/>
<path fill-rule="evenodd" clip-rule="evenodd" d="M150.631 203.972C150.958 204.004 151.198 204.295 151.167 204.622L150.494 211.619C150.463 211.946 150.172 212.186 149.844 212.155C149.517 212.123 149.277 211.832 149.308 211.505L149.981 204.508C150.012 204.18 150.303 203.941 150.631 203.972Z" fill="white"/>
<path fill-rule="evenodd" clip-rule="evenodd" d="M159.245 207.243C159.572 207.274 159.812 207.566 159.781 207.893L159.423 211.62C159.391 211.948 159.1 212.188 158.773 212.156C158.445 212.125 158.205 211.834 158.237 211.506L158.595 207.779C158.626 207.452 158.917 207.212 159.245 207.243Z" fill="white"/>
<path fill-rule="evenodd" clip-rule="evenodd" d="M169.156 196.975C169.483 197.007 169.723 197.298 169.692 197.625L168.346 211.619C168.315 211.947 168.024 212.187 167.696 212.155C167.369 212.124 167.129 211.833 167.16 211.505L168.505 197.511C168.537 197.184 168.828 196.944 169.156 196.975Z" fill="white"/>
<path fill-rule="evenodd" clip-rule="evenodd" d="M178.597 191.648C178.925 191.679 179.165 191.97 179.133 192.298L177.276 211.62C177.244 211.947 176.953 212.187 176.626 212.156C176.298 212.125 176.058 211.833 176.09 211.506L177.947 192.184C177.979 191.856 178.27 191.616 178.597 191.648Z" fill="white"/>
<path d="M98.8019 105.197L104.161 113.592C104.403 113.971 104.485 114.43 104.39 114.869C104.295 115.309 104.03 115.693 103.653 115.938L102.787 116.501C101.337 117.443 99.5947 117.826 97.8833 117.58C96.1719 117.334 94.608 116.475 93.4823 115.162L86.3706 106.869L98.8019 105.197Z" fill="#FFCCB3"/>
<path d="M94.7146 108.425C94.7146 108.425 96.699 115.238 100.686 117.424C101.721 117.023 102.715 116.525 103.655 115.935L99.1849 108.425" fill="#FCBA9F"/>
<path d="M3.0332 139.065L24.0832 128.978C26.0666 128.027 27.7436 126.539 28.9238 124.683L49.2589 92.6949C50.5247 90.7034 52.3609 89.1389 54.5283 88.2052L83.817 75.5869L77.5467 123.006L77.4363 124.757C77.4363 124.757 69.6897 144.821 50.7027 152.11L20.3462 170.677L3.0332 139.065Z" fill="#FFCCB3"/>
<path d="M25.9369 127.866C25.9369 127.866 35.8944 152.72 50.6985 152.111L41.2465 157.892C41.2465 157.892 9.16451 151.941 21.1736 130.322L25.9369 127.866Z" fill="#FCBA9F"/>
<path d="M79.2832 84.3652C79.2832 84.3652 68.9276 90.6403 69.4769 105.196L81.9129 100.549L79.2832 84.3652Z" fill="#FCBA9F"/>
<path d="M105.296 105.197L110.655 113.592C110.897 113.971 110.979 114.43 110.884 114.869C110.789 115.309 110.524 115.693 110.147 115.938L109.281 116.501C107.832 117.443 106.089 117.826 104.378 117.58C102.666 117.334 101.102 116.475 99.9766 115.162L92.8652 106.869L105.296 105.197Z" fill="#FFCCB3"/>
<path d="M184.523 108.506L83.3054 108.416C82.8919 108.427 82.4808 108.35 82.0997 108.19C81.7184 108.029 81.3758 107.79 81.0945 107.486C80.8132 107.183 80.6001 106.823 80.4689 106.431C80.3378 106.039 80.292 105.623 80.3345 105.212L85.7912 44.6191C85.8902 43.7447 86.3054 42.9368 86.9591 42.3477C87.6124 41.7586 88.4587 41.4288 89.3389 41.4204L190.556 41.5107C190.97 41.4994 191.381 41.5766 191.762 41.7369C192.143 41.8971 192.486 42.137 192.767 42.44C193.048 42.7435 193.261 43.1034 193.393 43.4955C193.524 43.8879 193.57 44.3037 193.527 44.7148L188.071 105.307C187.972 106.182 187.556 106.99 186.903 107.579C186.249 108.168 185.403 108.498 184.523 108.506Z" fill="#6C57DF"/>
<path fill-rule="evenodd" clip-rule="evenodd" d="M115.364 90.2418C114.544 90.9554 113.655 91.4679 112.693 91.6205C110.931 91.9 109.44 91.5671 108.17 90.8255C106.915 90.0922 105.905 88.9773 105.055 87.7354C104.205 86.4929 103.493 85.0899 102.848 83.7527C102.705 83.456 102.566 83.1636 102.429 82.8768C101.942 81.8545 101.49 80.904 101.023 80.0908C100.505 79.1875 99.6186 78.5752 98.5062 78.1777C97.3918 77.7794 96.0956 77.6139 94.8405 77.5781C93.5898 77.5424 92.4083 77.6361 91.537 77.7395C91.1023 77.7911 90.7469 77.8449 90.5014 77.8855C90.3787 77.9058 90.2836 77.9228 90.2199 77.9346C90.1881 77.9405 90.1641 77.9451 90.1485 77.9481L90.1313 77.9515L90.1275 77.9522L90.1269 77.9524C89.8045 78.0175 89.4902 77.8089 89.425 77.4865C89.3598 77.164 89.5684 76.8497 89.8909 76.7845L90.0054 77.351C89.8909 76.7845 89.8906 76.7845 89.8909 76.7845L89.8937 76.7839L89.8998 76.7827L89.9217 76.7784C89.9406 76.7747 89.9679 76.7695 90.0032 76.763C90.0738 76.7499 90.1763 76.7316 90.3068 76.71C90.5678 76.6668 90.9413 76.6104 91.3966 76.5563C92.3052 76.4484 93.548 76.3492 94.8745 76.3871C96.1965 76.4248 97.6302 76.5993 98.9071 77.0557C100.186 77.5127 101.352 78.2695 102.057 79.498C102.548 80.3546 103.027 81.3612 103.517 82.3905C103.651 82.6712 103.786 82.9537 103.921 83.2352C104.563 84.566 105.243 85.8995 106.039 87.0625C106.835 88.2261 107.725 89.1858 108.771 89.7966C109.803 90.3993 111.015 90.6802 112.506 90.4437C113.171 90.3382 113.86 89.9707 114.582 89.3427C115.303 88.7157 116.025 87.8566 116.752 86.8246C118.147 84.8428 119.503 82.3085 120.877 79.741C120.937 79.6291 120.996 79.5172 121.056 79.4052C122.48 76.7461 123.927 74.0718 125.428 72.0765C126.179 71.0773 126.964 70.2202 127.792 69.6156C128.622 69.0088 129.527 68.6337 130.499 68.6627C132.368 68.7185 133.584 69.7845 134.445 71.205C135.246 72.5267 135.788 74.2354 136.308 75.8723C136.335 75.9562 136.362 76.0399 136.388 76.1233C136.946 77.8777 137.495 79.5323 138.309 80.7663C139.101 81.9667 140.105 82.7134 141.6 82.7545C143.217 82.799 144.31 82.3798 145.129 81.762C145.966 81.1303 146.561 80.2599 147.125 79.3149C147.228 79.1424 147.331 78.965 147.435 78.7857C147.879 78.0217 148.344 77.2215 148.911 76.6048C149.652 75.798 150.607 75.2513 151.975 75.3158C153.737 75.3988 154.8 76.75 155.531 78.3626C156.167 79.7662 156.634 81.5495 157.098 83.3188C157.171 83.5954 157.243 83.8717 157.316 84.1462C157.867 86.2168 158.451 88.1976 159.326 89.6721C160.187 91.1229 161.273 91.9962 162.832 92.0369C164.332 92.0761 165.622 91.0076 166.922 89.0346C167.941 87.4884 168.878 85.5277 169.877 83.4366C170.142 82.8815 170.411 82.3173 170.688 81.7492C171.989 79.0759 173.44 76.3381 175.29 74.2932C177.154 72.232 179.466 70.8307 182.467 70.9335C182.796 70.9448 183.054 71.2205 183.042 71.5493C183.031 71.8782 182.755 72.1356 182.427 72.1243C179.881 72.037 177.883 73.2025 176.173 75.0925C174.449 76.9988 173.061 79.5966 171.759 82.2707C171.495 82.8139 171.233 83.3614 170.973 83.9061C169.97 86.0076 168.986 88.0687 167.917 89.6902C166.582 91.7156 164.97 93.2846 162.801 93.228C160.691 93.1729 159.287 91.9412 158.301 90.2802C157.33 88.6429 156.71 86.505 156.165 84.4524C156.089 84.1693 156.016 83.888 155.942 83.6094C155.475 81.8277 155.036 80.1579 154.445 78.8545C153.757 77.3369 152.972 76.5556 151.919 76.506C150.967 76.4611 150.337 76.8135 149.788 77.411C149.318 77.9228 148.936 78.5776 148.498 79.33C148.386 79.5224 148.27 79.7211 148.148 79.9255C147.571 80.8915 146.88 81.9339 145.846 82.7133C144.795 83.5066 143.432 83.9968 141.568 83.9456C139.582 83.891 138.258 82.8523 137.314 81.4224C136.393 80.026 135.8 78.2055 135.253 76.4847C135.233 76.4216 135.213 76.3587 135.193 76.296C134.655 74.6032 134.151 73.0188 133.426 71.8224C132.693 70.6127 131.793 69.8934 130.463 69.8537C129.836 69.8349 129.186 70.0722 128.495 70.5776C127.8 71.0852 127.096 71.8402 126.38 72.7927C124.945 74.7008 123.541 77.2883 122.107 79.9675C122.042 80.0889 121.977 80.2104 121.912 80.332C120.552 82.8739 119.164 85.4671 117.726 87.5105C116.971 88.583 116.186 89.5272 115.364 90.2418Z" fill="white"/>
<path fill-rule="evenodd" clip-rule="evenodd" d="M94.5784 51.5703C94.5787 51.2413 94.8456 50.9748 95.1746 50.9751L112.982 50.9908C113.311 50.9911 113.578 51.2581 113.578 51.5871C113.577 51.9161 113.31 52.1826 112.981 52.1823L95.1736 52.1666C94.8446 52.1663 94.5781 51.8993 94.5784 51.5703Z" fill="white"/>
<path opacity="0.4" fill-rule="evenodd" clip-rule="evenodd" d="M93.8455 59.7319C93.8458 59.4029 94.1127 59.1364 94.4417 59.1367L131.243 59.1695C131.572 59.1698 131.838 59.4368 131.838 59.7658C131.838 60.0948 131.571 60.3613 131.242 60.361L94.4407 60.3282C94.1117 60.3279 93.8452 60.061 93.8455 59.7319Z" fill="white"/>
<path d="M59.9851 108.204L72.9694 102.485L86.2477 93.4211C89.7398 91.0377 97.0324 89.9638 99.6578 93.2776C102.328 96.6483 99.3286 103.316 96.0897 106.144L83.8183 116.86L77.4373 124.758L59.9851 108.204Z" fill="#FFCCB3"/>
<path d="M24.882 128.143C24.882 128.143 22.3657 146.138 44.263 156.443C44.263 156.443 28.533 170.872 22.4684 173.298C16.4041 175.724 -6.38142 150.93 1.72279 136.858C3.99555 132.911 24.882 128.143 24.882 128.143Z" fill="#6C57DF"/>
<path d="M107.851 109.197C107.851 109.197 99.3167 109.37 96.3457 110.925L94.2014 108.425L107.359 108.425L107.851 109.197Z" fill="#FCBA9F"/>
<path d="M264.999 108.506H204.315C199.743 108.506 196.366 104.8 196.771 100.229L204.913 8.27682C205.317 3.70587 209.351 0 213.922 0H274.607C279.18 0 282.555 3.70587 282.15 8.27682L274.008 100.229C273.603 104.8 269.569 108.506 264.999 108.506Z" fill="#BFC9E0"/>
<path d="M256.307 51.9217C265.918 42.7287 266.884 28.1464 258.471 19.3514C250.057 10.5564 235.446 10.8788 225.837 20.0719C216.228 29.265 215.259 43.8473 223.674 52.6423C232.088 61.4376 246.699 61.1148 256.307 51.9217Z" fill="white"/>
<path d="M242.359 36.7119L257.592 50.6054C257.592 50.6054 261.057 46.8805 262.091 44.2183L242.359 36.7119Z" fill="#3B2C8F"/>
<path d="M243.374 10.0215L241.209 34.4676C241.161 34.9128 241.245 35.3624 241.449 35.7612C241.653 36.1596 241.97 36.4894 242.36 36.7102L263.029 48.2172C263.029 48.2172 275.303 13.9756 243.374 10.0215Z" fill="#6C57DF"/>
<path fill-rule="evenodd" clip-rule="evenodd" d="M210.426 75.961C210.426 75.632 210.692 75.3652 211.021 75.3652H236.162C236.491 75.3652 236.757 75.632 236.757 75.961C236.757 76.29 236.491 76.5567 236.162 76.5567H211.021C210.692 76.5567 210.426 76.29 210.426 75.961Z" fill="white"/>
<path fill-rule="evenodd" clip-rule="evenodd" d="M208.588 96.7432C208.588 96.4142 208.854 96.1475 209.183 96.1475H234.324C234.653 96.1475 234.919 96.4142 234.919 96.7432C234.919 97.0722 234.653 97.3389 234.324 97.3389H209.183C208.854 97.3389 208.588 97.0722 208.588 96.7432Z" fill="white"/>
<path opacity="0.4" fill-rule="evenodd" clip-rule="evenodd" d="M209.519 86.2344C209.519 85.9054 209.786 85.6387 210.115 85.6387H262.068C262.397 85.6387 262.664 85.9054 262.664 86.2344C262.664 86.5634 262.397 86.8302 262.068 86.8302H210.115C209.786 86.8302 209.519 86.5634 209.519 86.2344Z" fill="white"/>
<path d="M190.368 176.246C190.368 176.246 198.472 174.085 202.785 178.729C202.785 178.729 210.537 177.322 213.689 181.634C213.689 181.634 220.562 182.032 222.552 184.836C224.208 185.064 225.773 185.727 227.089 186.757C228.404 187.787 229.424 189.147 230.043 190.699C231.922 195.128 230.328 220.736 228.46 229.913C227.993 232.208 228.153 234.586 228.924 236.798L233.675 250.453L200.799 264.196L192.994 243.839C192.994 243.839 183.493 228.571 182.136 225.856C180.779 223.142 183.079 200.617 178.446 186.546L190.368 176.246Z" fill="#FFCCB3"/>
<path d="M197.234 254.899L196.286 252.426C196.286 252.426 213.345 251.335 228.923 236.799L230.413 241.081C230.413 241.081 228.489 249.926 219.729 254.094C210.968 258.263 197.234 254.899 197.234 254.899Z" fill="#FCBA9F"/>
<path d="M197.234 254.899C197.234 254.899 217.883 256.78 230.413 241.081C230.413 241.081 235.039 243.506 242.143 261.263C244.325 266.717 207.892 286.135 202.001 278.063C202.001 278.063 196.916 267.306 197.234 254.899Z" fill="#7760F5"/>
<path d="M180.465 195.039C180.465 195.039 179.753 198.817 176.386 198.818C174.188 198.818 164.665 195.94 158.308 193.94C156.579 193.396 154.723 193.396 152.994 193.94C151.264 194.484 149.744 195.547 148.638 196.983L148.251 197.485C148.059 197.733 147.92 198.018 147.842 198.323C147.763 198.627 147.747 198.944 147.795 199.254C147.842 199.565 147.952 199.862 148.118 200.129C148.284 200.396 148.503 200.626 148.76 200.806C154.142 204.563 168.674 214.76 170.532 216.618C172.82 218.906 185.557 231.729 185.557 231.729L180.465 195.039Z" fill="#FFCCB3"/>
<path d="M179.691 191.253C179.691 191.253 186.575 200.57 185.556 202.61C184.537 204.649 173.863 198.413 173.863 198.413C173.863 198.413 182.476 200.629 179.691 191.253Z" fill="#FCBA9F"/>
<path d="M178.443 186.544L166.86 151.37C166.463 150.163 166.312 148.889 166.416 147.623C166.521 146.357 166.878 145.125 167.468 144C168.057 142.874 168.867 141.879 169.848 141.072C170.829 140.266 171.963 139.664 173.181 139.304C174.178 139.009 175.248 139.089 176.19 139.528C177.133 139.968 177.882 140.737 178.296 141.69L194.546 179.043L178.443 186.544Z" fill="#FFCCB3"/>
<path fill-rule="evenodd" clip-rule="evenodd" d="M193.402 176.156C193.702 176.02 194.055 176.153 194.191 176.453L198.184 185.249C198.32 185.549 198.187 185.902 197.888 186.038C197.588 186.174 197.235 186.041 197.099 185.742L193.106 176.945C192.97 176.646 193.102 176.292 193.402 176.156Z" fill="#FCBA9F"/>
<path fill-rule="evenodd" clip-rule="evenodd" d="M202.885 179.157C203.155 178.969 203.526 179.035 203.715 179.305C205.814 182.314 206.939 185.895 206.938 189.564C206.937 189.893 206.671 190.16 206.342 190.16C206.013 190.16 205.746 189.893 205.746 189.564C205.747 186.138 204.697 182.795 202.737 179.986C202.549 179.717 202.615 179.345 202.885 179.157Z" fill="#FCBA9F"/>
<path fill-rule="evenodd" clip-rule="evenodd" d="M214.043 182.05C214.344 181.919 214.696 182.057 214.827 182.358L214.281 182.596C214.827 182.358 214.827 182.358 214.827 182.358L214.829 182.363L214.834 182.374L214.852 182.416C214.867 182.452 214.889 182.505 214.918 182.573C214.975 182.71 215.055 182.908 215.153 183.157C215.347 183.654 215.607 184.356 215.873 185.173C216.402 186.796 216.966 188.921 217.052 190.825C217.067 191.154 216.813 191.432 216.484 191.447C216.155 191.462 215.877 191.208 215.862 190.879C215.783 189.137 215.259 187.134 214.74 185.541C214.483 184.75 214.231 184.071 214.043 183.59C213.949 183.35 213.871 183.16 213.817 183.03C213.791 182.965 213.77 182.916 213.755 182.883L213.74 182.846L213.736 182.837L213.735 182.835C213.604 182.533 213.741 182.182 214.043 182.05Z" fill="#FCBA9F"/>
<path fill-rule="evenodd" clip-rule="evenodd" d="M222.898 184.991C223.202 184.867 223.55 185.014 223.674 185.319C224.502 187.353 224.824 189.559 224.61 191.746C224.578 192.073 224.286 192.313 223.959 192.281C223.631 192.249 223.392 191.957 223.424 191.63C223.619 189.635 223.326 187.624 222.57 185.768C222.446 185.463 222.593 185.115 222.898 184.991Z" fill="#FCBA9F"/>
<path d="M116.361 241.941H43.8981C43.5991 241.946 43.3024 241.888 43.0277 241.769C42.7531 241.651 42.5072 241.474 42.3068 241.253C42.1061 241.031 41.9556 240.768 41.8652 240.483C41.7746 240.198 41.7465 239.897 41.7826 239.6L44.6281 209.999C44.699 209.364 44.9984 208.777 45.4704 208.346C45.9424 207.916 46.5546 207.671 47.1936 207.659H119.657C119.956 207.653 120.253 207.711 120.527 207.83C120.802 207.948 121.048 208.125 121.248 208.346C121.449 208.569 121.599 208.831 121.69 209.116C121.78 209.401 121.808 209.702 121.773 209.999L118.927 239.6C118.856 240.235 118.556 240.822 118.084 241.253C117.613 241.683 117 241.928 116.361 241.941Z" fill="#8875F1"/>
<path fill-rule="evenodd" clip-rule="evenodd" d="M50.1086 215.377C50.1086 215.048 50.3754 214.782 50.7044 214.782H95.4247C95.7537 214.782 96.0205 215.048 96.0205 215.377C96.0205 215.707 95.7537 215.973 95.4247 215.973H50.7044C50.3754 215.973 50.1086 215.707 50.1086 215.377Z" fill="#4A38AE"/>
<path fill-rule="evenodd" clip-rule="evenodd" d="M50.1086 215.377C50.1086 215.048 50.3754 214.782 50.7044 214.782H81.7808C82.1098 214.782 82.3765 215.048 82.3765 215.377C82.3765 215.707 82.1098 215.973 81.7808 215.973H50.7044C50.3754 215.973 50.1086 215.707 50.1086 215.377Z" fill="white"/>
<path fill-rule="evenodd" clip-rule="evenodd" d="M49.4358 224.798C49.4358 224.469 49.7025 224.203 50.0315 224.203H94.7519C95.0809 224.203 95.3476 224.469 95.3476 224.798C95.3476 225.127 95.0809 225.394 94.7519 225.394H50.0315C49.7025 225.394 49.4358 225.127 49.4358 224.798Z" fill="#4A38AE"/>
<path fill-rule="evenodd" clip-rule="evenodd" d="M49.4358 224.798C49.4358 224.469 49.7025 224.203 50.0315 224.203H68.6111C68.9401 224.203 69.2068 224.469 69.2068 224.798C69.2068 225.127 68.9401 225.394 68.6111 225.394H50.0315C49.7025 225.394 49.4358 225.127 49.4358 224.798Z" fill="white"/>
<path fill-rule="evenodd" clip-rule="evenodd" d="M47.9746 234.22C47.9746 233.891 48.2413 233.625 48.5704 233.625H93.2907C93.6197 233.625 93.8864 233.891 93.8864 234.22C93.8864 234.549 93.6197 234.816 93.2907 234.816H48.5704C48.2413 234.816 47.9746 234.549 47.9746 234.22Z" fill="#4A38AE"/>
<path fill-rule="evenodd" clip-rule="evenodd" d="M47.9746 234.22C47.9746 233.891 48.2413 233.625 48.5704 233.625H59.9325C60.2615 233.625 60.5283 233.891 60.5283 234.22C60.5283 234.549 60.2615 234.816 59.9325 234.816H48.5704C48.2413 234.816 47.9746 234.549 47.9746 234.22Z" fill="white"/>
<path d="M111.254 218.049C112.73 218.049 113.926 216.853 113.926 215.377C113.926 213.901 112.73 212.705 111.254 212.705C109.778 212.705 108.582 213.901 108.582 215.377C108.582 216.853 109.778 218.049 111.254 218.049Z" fill="white"/>
<path d="M110.384 227.058C111.86 227.058 113.056 225.862 113.056 224.387C113.056 222.911 111.86 221.714 110.384 221.714C108.908 221.714 107.712 222.911 107.712 224.387C107.712 225.862 108.908 227.058 110.384 227.058Z" fill="white"/>
<path d="M109.419 236.895C110.895 236.895 112.091 235.699 112.091 234.223C112.091 232.747 110.895 231.551 109.419 231.551C107.943 231.551 106.747 232.747 106.747 234.223C106.747 235.699 107.943 236.895 109.419 236.895Z" fill="white"/>
<defs>
<linearGradient id="paint0_linear" x1="130.198" y1="-33.6749" x2="225.148" y2="442.148" gradientUnits="userSpaceOnUse">
<stop stop-color="white"/>
<stop offset="1" stop-color="#94B9FF"/>
</linearGradient>
<linearGradient id="paint1_linear" x1="141.411" y1="47.2418" x2="150.618" y2="190.558" gradientUnits="userSpaceOnUse">
<stop stop-color="white"/>
<stop offset="1" stop-color="#94B9FF"/>
</linearGradient>
</defs>
</svg>
