<svg width="66" height="85" viewBox="0 0 66 85" fill="none" xmlns="http://www.w3.org/2000/svg">
<rect opacity="0.6" width="53" height="53" transform="matrix(0.866025 -0.5 2.20305e-08 1 0 26.5)" fill="url(#paint0_linear_981_254)"/>
<rect opacity="0.6" width="53" height="53" transform="matrix(0.866025 -0.5 2.20305e-08 1 9 31)" fill="url(#paint1_linear_981_254)"/>
<path d="M37.4579 35V67.3967M37.4579 67.3967L65.6495 83.5056M37.4579 67.3967L9 84" stroke="url(#paint2_linear_981_254)" stroke-width="0.453897" stroke-dasharray="1.82 1.82"/>
<path fill-rule="evenodd" clip-rule="evenodd" d="M40.725 25.0903L39.4038 24.7551C39.1802 24.6984 38.8787 24.8724 38.655 25.1874L37.3339 27.0481C36.4347 28.3145 35.3121 29.2585 34.2212 29.6656L32.6183 30.2637C32.347 30.365 32.0754 30.6728 31.9437 31.0283L31.1659 33.1285C30.6366 34.5578 29.7363 35.9066 28.6698 36.8682L27.1027 38.2812C26.8374 38.5203 26.6494 38.901 26.6358 39.2267L26.5555 41.1503C26.5008 42.4596 26.0012 43.9459 25.1702 45.2717L23.9492 47.2196C23.7425 47.5493 23.6755 47.9274 23.7826 48.1587L24.4156 49.5248C24.8464 50.4546 24.8464 51.7842 24.4156 53.2115L23.7826 55.3085C23.6755 55.6635 23.7425 55.9642 23.9492 56.0553L25.1702 56.5933C26.0012 56.9595 26.5008 57.869 26.5555 59.1151L26.6358 60.9459C26.6494 61.2559 26.8374 61.4195 27.1027 61.3524L28.6698 60.9558C29.7364 60.6859 30.6366 60.9951 31.1659 61.8132L31.9437 63.0153C32.0754 63.2187 32.347 63.2129 32.6183 63.0009L34.2212 61.7482C35.3121 60.8956 36.4347 60.5433 37.3339 60.7715L38.655 61.1066C38.8787 61.1633 39.1802 60.9893 39.4038 60.6743L40.725 58.8136C41.6241 57.5472 42.7467 56.6032 43.8376 56.1961L45.4405 55.598C45.7118 55.4968 45.9835 55.1889 46.1151 54.8334L46.8929 52.7333C47.4222 51.3039 48.3225 49.9551 49.3891 48.9935L50.9562 47.5805C51.2215 47.3414 51.4094 46.9607 51.423 46.635L51.5034 44.7114C51.5581 43.4022 52.0576 41.9158 52.8887 40.59L54.1096 38.6421C54.3163 38.3124 54.3834 37.9343 54.2762 37.703L53.6432 36.3369C53.2124 35.4071 53.2124 34.0775 53.6432 32.6502L54.2762 30.5532C54.3834 30.1982 54.3163 29.8975 54.1096 29.8065L52.8886 29.2684C52.0576 28.9022 51.5581 27.9927 51.5034 26.7466L51.423 24.9158C51.4094 24.6058 51.2215 24.4422 50.9562 24.5093L49.3891 24.9059C48.3225 25.1758 47.4222 24.8666 46.8929 24.0485L46.1151 22.8465C45.9835 22.643 45.7118 22.6488 45.4405 22.8608L43.8376 24.1135C42.7467 24.9661 41.6241 25.3184 40.725 25.0903ZM40.4156 22.5477C39.5875 22.3376 38.4713 22.9821 37.6433 24.1482L36.3221 26.0089C35.8023 26.741 35.1534 27.2867 34.5228 27.522L32.9199 28.1201C31.9153 28.495 30.9097 29.6349 30.4222 30.9511L29.6444 33.0513C29.3384 33.8775 28.818 34.6572 28.2015 35.2131L26.6344 36.626C25.6522 37.5116 24.9562 38.9211 24.9059 40.1267L24.8255 42.0504C24.7939 42.8072 24.5051 43.6664 24.0247 44.4328L22.8038 46.3807C22.0386 47.6015 21.7902 49.0015 22.1869 49.8577L22.8199 51.2239C23.0689 51.7614 23.0689 52.5299 22.8199 53.355L22.1869 55.4521C21.7902 56.7664 22.0386 57.8796 22.8038 58.2168L24.0247 58.7548C24.5051 58.9665 24.7939 59.4923 24.8255 60.2126L24.9059 62.0434C24.9562 63.1909 25.6522 63.7968 26.6344 63.5483L28.2015 63.1517C28.818 62.9956 29.3384 63.1744 29.6444 63.6473L30.4222 64.8494C30.9097 65.6027 31.9154 65.5813 32.9199 64.7962L34.5228 63.5435C35.1534 63.0507 35.8023 62.847 36.3221 62.9789L37.6433 63.314C38.4713 63.5241 39.5875 62.8796 40.4156 61.7135L41.7367 59.8528C42.2565 59.1207 42.9054 58.575 43.536 58.3397L45.1389 57.7416C46.1435 57.3667 47.1492 56.2268 47.6366 54.9106L48.4144 52.8105C48.7204 51.9842 49.2408 51.2045 49.8574 50.6486L51.4245 49.2357C52.4067 48.3501 53.1026 46.9406 53.153 45.735L53.2333 43.8113C53.2649 43.0545 53.5537 42.1953 54.0341 41.4289L55.2551 39.481C56.0203 38.2602 56.2687 36.8602 55.8719 36.004L55.2389 34.6378C54.9899 34.1004 54.9899 33.3318 55.2389 32.5067L55.8719 30.4097C56.2687 29.0953 56.0203 27.9822 55.2551 27.6449L54.0341 27.1069C53.5537 26.8952 53.2649 26.3695 53.2333 25.6491L53.153 23.8183C53.1026 22.6708 52.4067 22.0649 51.4245 22.3134L49.8574 22.71C49.2408 22.8661 48.7204 22.6873 48.4144 22.2144L47.6366 21.0124C47.1492 20.259 46.1435 20.2804 45.1389 21.0655L43.536 22.3182C42.9054 22.811 42.2565 23.0147 41.7367 22.8828L40.4156 22.5477ZM39.2365 56.303C45.5754 52.6433 50.7141 43.7428 50.7141 36.4232C50.7141 29.1037 45.5754 26.1369 39.2365 29.7966C32.8976 33.4564 27.7589 42.3569 27.7589 49.6764C27.7589 56.996 32.8976 59.9628 39.2365 56.303ZM39.2365 58.303C46.532 54.091 52.4462 43.8473 52.4462 35.4232C52.4462 26.9991 46.532 23.5846 39.2365 27.7966C31.941 32.0087 26.0269 42.2523 26.0269 50.6764C26.0269 59.1005 31.941 62.5151 39.2365 58.303ZM39.8326 34.5762C39.6801 34.269 39.1942 34.5495 39.0416 35.0329L37.4007 40.2309C37.3378 40.4303 37.2044 40.6192 37.0507 40.7267L33.0426 43.5292C32.6699 43.7898 32.5198 44.4101 32.7981 44.539L35.7921 45.926C35.9069 45.9792 35.9579 46.1309 35.9258 46.324L35.0896 51.3594C35.0118 51.8276 35.4049 51.9304 35.7295 51.5268L39.2208 47.1859C39.3547 47.0194 39.5196 46.9242 39.6535 46.9361L43.1448 47.2456C43.4694 47.2744 43.8624 46.7177 43.7847 46.3393L42.9484 42.2695C42.9164 42.1134 42.9673 41.9029 43.0821 41.7171L46.0761 36.873C46.3545 36.4226 46.2044 35.9757 45.8317 36.1455L41.8236 37.9711C41.6699 38.0411 41.5365 38.0062 41.4735 37.8795L39.8326 34.5762Z" fill="#15D378"/>
<defs>
<linearGradient id="paint0_linear_981_254" x1="58.3" y1="-6.5828" x2="1.79352" y2="82.7823" gradientUnits="userSpaceOnUse">
<stop stop-color="#15D378"/>
<stop offset="1" stop-color="white" stop-opacity="0"/>
</linearGradient>
<linearGradient id="paint1_linear_981_254" x1="42.19" y1="-7.65967" x2="-4.81818" y2="49.0466" gradientUnits="userSpaceOnUse">
<stop stop-color="#360F8C"/>
<stop offset="1" stop-color="#15D378"/>
</linearGradient>
<linearGradient id="paint2_linear_981_254" x1="9" y1="35" x2="65.6495" y2="35" gradientUnits="userSpaceOnUse">
<stop stop-color="#37108C"/>
<stop offset="1" stop-color="#20997F"/>
</linearGradient>
</defs>
</svg>
