<svg width="66" height="85" viewBox="0 0 66 85" fill="none" xmlns="http://www.w3.org/2000/svg">
<rect opacity="0.6" width="53" height="53" transform="matrix(0.866025 -0.5 2.20305e-08 1 0 26.5)" fill="url(#paint0_linear_1207_221)"/>
<rect opacity="0.6" width="53" height="53" transform="matrix(0.866025 -0.5 2.20305e-08 1 9 31)" fill="url(#paint1_linear_1207_221)"/>
<path d="M37.4579 35V67.3967M37.4579 67.3967L65.6495 83.5056M37.4579 67.3967L9 84" stroke="url(#paint2_linear_1207_221)" stroke-width="0.453897" stroke-dasharray="1.82 1.82"/>
<circle r="16.0883" transform="matrix(0.866025 -0.5 2.20305e-08 1 39.9993 41.4448)" stroke="#15D378" stroke-width="2"/>
<circle r="19.1299" transform="matrix(0.866025 -0.5 2.20305e-08 1 40 41.4448)" stroke="#15D378"/>
<path fill-rule="evenodd" clip-rule="evenodd" d="M39.9133 48.9225C37.2413 50.4231 34.8458 49.7628 34.0636 47.2013C33.8487 47.2253 33.6805 47.1033 33.6319 46.8493C33.5553 46.449 33.8054 45.8727 34.1904 45.5619C34.5754 45.2512 34.9496 45.3239 35.0261 45.7243C35.0697 45.9526 35.0073 46.2377 34.8741 46.4986C35.5613 48.6813 37.6184 49.2412 39.9133 47.9584C40.2292 47.7695 40.5491 47.5458 40.8699 47.287C43.136 45.4584 44.7828 42.411 45.1258 39.724C45.133 39.6677 45.1395 39.6114 45.1457 39.5552C45.2239 38.8233 46.0451 38.4759 45.9841 39.1052C45.6747 42.2792 43.7343 45.9584 41.0327 48.1384C40.6571 48.4414 40.2831 48.7022 39.9133 48.9225ZM45.7037 42.8608C46.4672 41.9539 47.2133 40.9621 47.9347 39.8882C48.7049 38.7417 49.3282 37.7241 49.9803 36.5008C50.3845 35.7424 50.3845 35.6062 49.9803 35.3145C49.3283 34.8442 48.7049 34.5463 47.9347 34.2891C47.1909 34.0408 46.421 33.9101 45.6328 33.8906C45.2435 33.4537 44.7716 33.1345 44.2349 32.9417C45.6972 32.6961 47.1179 32.7832 48.4541 33.2293C49.2163 33.4838 49.8794 33.8201 50.5009 34.2496C51.5848 34.9982 51.5848 34.9642 50.5009 36.9644C49.8793 38.1115 49.2163 39.2133 48.4541 40.348C47.163 42.2698 45.793 43.9476 44.3829 45.3604C44.8911 44.5641 45.3364 43.7221 45.7037 42.8608ZM34.1231 49.5469C33.3597 49.5215 32.6135 49.3913 31.8921 49.1504C31.1219 48.8933 30.4986 48.5953 29.8465 48.1251C29.4422 47.8335 29.4422 47.6972 29.8465 46.9388C30.4985 45.7155 31.1218 44.6978 31.8921 43.5513C32.6359 42.4442 33.4058 41.4244 34.194 40.4948C34.5833 39.6083 35.0552 38.7443 35.5919 37.9317C34.1296 39.3746 32.7089 41.1023 31.3728 43.0912C30.6105 44.2259 29.9475 45.3278 29.3259 46.4749C28.2421 48.4751 28.2421 48.4411 29.3259 49.1897C29.9476 49.6191 30.6105 49.9554 31.3728 50.2099C32.6638 50.641 34.0338 50.7368 35.4439 50.5214C34.9356 50.3119 34.4903 49.9841 34.1231 49.5469ZM39.9133 45.0508C38.5143 45.8584 38.5726 45.9438 38.6959 45.1382L39.1391 42.2396C38.6947 42.1792 38.3986 41.7826 38.3986 41.1353C38.3986 40.1583 39.0729 38.974 39.9134 38.462C40.754 38.0034 41.4282 38.4091 41.4282 39.3861C41.4282 40.0334 41.1321 40.7719 40.6877 41.3454L41.1308 43.7323C41.2541 44.3956 41.3123 44.2431 39.9133 45.0508ZM39.9133 36.7706C42.3 35.3926 44.2349 36.5093 44.2349 39.2649C44.2349 42.0205 42.3001 45.3714 39.9133 46.7494C37.5266 48.1274 35.5917 47.0106 35.5917 44.255C35.5917 41.4994 37.5267 38.1485 39.9133 36.7706ZM39.9133 34.5975C42.5854 33.0968 44.9809 33.757 45.7631 36.3185C45.978 36.2945 46.1462 36.4166 46.1947 36.6706C46.2713 37.0709 46.0212 37.6473 45.6362 37.9579C45.2512 38.2686 44.877 38.1959 44.8005 37.7956C44.7569 37.5674 44.8194 37.2821 44.9524 37.0213C44.2653 34.8385 42.2081 34.2787 39.9133 35.5615C39.5974 35.7504 39.2776 35.974 38.9567 36.2329C36.6906 38.0615 35.0439 41.1089 34.7008 43.7959C34.6936 43.8523 34.687 43.9086 34.6809 43.9647C34.6026 44.6967 33.7814 45.0441 33.8425 44.4148C34.152 41.2407 36.0923 37.5616 38.7938 35.3817C39.1695 35.0785 39.5437 34.8176 39.9133 34.5975Z" fill="#15D378"/>
<defs>
<linearGradient id="paint0_linear_1207_221" x1="58.3" y1="-6.5828" x2="1.79352" y2="82.7823" gradientUnits="userSpaceOnUse">
<stop stop-color="#15D378"/>
<stop offset="1" stop-color="white" stop-opacity="0"/>
</linearGradient>
<linearGradient id="paint1_linear_1207_221" x1="42.19" y1="-7.65967" x2="-4.81818" y2="49.0466" gradientUnits="userSpaceOnUse">
<stop stop-color="#360F8C"/>
<stop offset="1" stop-color="#15D378"/>
</linearGradient>
<linearGradient id="paint2_linear_1207_221" x1="9" y1="35" x2="65.6495" y2="35" gradientUnits="userSpaceOnUse">
<stop stop-color="#37108C"/>
<stop offset="1" stop-color="#20997F"/>
</linearGradient>
</defs>
</svg>
