<svg width="66" height="85" viewBox="0 0 66 85" fill="none" xmlns="http://www.w3.org/2000/svg">
<rect opacity="0.6" width="53" height="53" transform="matrix(0.866025 -0.5 2.20305e-08 1 0 26.5)" fill="url(#paint0_linear_981_241)"/>
<rect opacity="0.6" width="53" height="53" transform="matrix(0.866025 -0.5 2.20305e-08 1 9 31)" fill="url(#paint1_linear_981_241)"/>
<path d="M37.4579 35V67.3967M37.4579 67.3967L65.6495 83.5056M37.4579 67.3967L9 84" stroke="url(#paint2_linear_981_241)" stroke-width="0.453897" stroke-dasharray="1.82 1.82"/>
<path fill-rule="evenodd" clip-rule="evenodd" d="M50.0966 47.7455C56.1887 43.9021 60.5799 35.9682 60.5799 28.8117C60.5799 21.4276 55.3958 18.4346 49.001 22.1267C41.8311 26.2662 39.4426 33.7343 38.2129 37.579C38.0713 38.0217 37.9451 38.4165 37.8287 38.7525C37.3986 39.9941 36.9671 41.2042 36.5985 42.2381C36.0012 43.9137 35.5688 45.1264 35.5746 45.2599L44.6649 33.2452C45.7338 31.2613 47.2805 29.5093 49.001 28.5159C52.2267 26.6536 54.8417 28.1633 54.8417 31.8881C54.8417 35.1804 52.7986 39.1013 50.0966 41.2534L50.0966 37.8422L42.9519 48.4624L50.0966 50.8326L50.0966 47.7455Z" fill="#15D378"/>
<path fill-rule="evenodd" clip-rule="evenodd" d="M30.6084 34.0449C24.4514 37.8581 20 45.8516 20 53.0569C20 60.441 25.184 63.434 31.5788 59.742C38.7487 55.6024 41.1373 48.1343 42.3669 44.2897C42.5085 43.8469 42.6348 43.4522 42.7512 43.1161C43.1813 41.8745 43.6127 40.6644 43.9813 39.6305C44.5787 37.9549 45.011 36.7422 45.0052 36.6087L35.915 48.6235C34.8461 50.6074 33.2993 52.3594 31.5788 53.3527C28.3531 55.2151 25.7382 53.7053 25.7382 49.9806C25.7382 46.6376 27.8446 42.6466 30.6084 40.5172L30.6084 44.2943L37.7531 33.6741L30.6084 31.3039L30.6084 34.0449Z" fill="#15D378"/>
<defs>
<linearGradient id="paint0_linear_981_241" x1="58.3" y1="-6.5828" x2="1.79352" y2="82.7823" gradientUnits="userSpaceOnUse">
<stop stop-color="#15D378"/>
<stop offset="1" stop-color="white" stop-opacity="0"/>
</linearGradient>
<linearGradient id="paint1_linear_981_241" x1="42.19" y1="-7.65967" x2="-4.81818" y2="49.0466" gradientUnits="userSpaceOnUse">
<stop stop-color="#360F8C"/>
<stop offset="1" stop-color="#15D378"/>
</linearGradient>
<linearGradient id="paint2_linear_981_241" x1="9" y1="35" x2="65.6495" y2="35" gradientUnits="userSpaceOnUse">
<stop stop-color="#37108C"/>
<stop offset="1" stop-color="#20997F"/>
</linearGradient>
</defs>
</svg>
