<svg width="63" height="86" viewBox="0 0 63 86" fill="none" xmlns="http://www.w3.org/2000/svg">
<rect opacity="0.4" width="53" height="53" transform="matrix(0.866025 -0.5 2.20305e-08 1 0 26.5)" fill="url(#paint0_linear_981_207)"/>
<rect opacity="0.6" width="53" height="53" transform="matrix(0.866025 -0.5 2.20305e-08 1 8 31.5)" fill="url(#paint1_linear_981_207)"/>
<path d="M34.4579 37V69.3967M34.4579 69.3967L62.6495 85.5056M34.4579 69.3967L6.5 85.5" stroke="url(#paint2_linear_981_207)" stroke-width="0.453897" stroke-dasharray="1.82 1.82"/>
<path fill-rule="evenodd" clip-rule="evenodd" d="M33.7846 28C33.7846 26.4145 32.8716 25.6023 31.6195 25.8949L31.6195 20.75L29.8875 21.75L29.8875 26.8949C28.6354 28.0481 27.7224 29.9145 27.7224 31.5C27.7224 33.433 29.0795 34.2165 30.7535 33.25C32.4275 32.2835 33.7846 29.933 33.7846 28ZM35.0836 29.8949C33.8316 31.0481 32.9186 32.9145 32.9186 34.5C32.9186 36.433 34.2756 37.2165 35.9497 36.25C37.6237 35.2835 38.9808 32.933 38.9808 31C38.9808 29.4145 38.0677 28.6023 36.8157 28.8949L36.8157 17.75L35.0836 18.75L35.0836 29.8949ZM44.1769 22C44.1769 20.4145 43.2639 19.6023 42.0119 19.8949L42.0119 14.75L40.2798 15.75L40.2798 20.8949C39.0277 22.0481 38.1147 23.9145 38.1147 25.5C38.1147 27.433 39.4718 28.2165 41.1458 27.25C42.8198 26.2835 44.1769 23.933 44.1769 22ZM30.7535 28.25C30.0361 28.6642 29.4545 29.6716 29.4545 30.5C29.4545 31.3284 30.0361 31.6642 30.7535 31.25C31.471 30.8358 32.0526 29.8284 32.0526 29C32.0526 28.1716 31.471 27.8358 30.7535 28.25ZM34.6506 33.5C34.6506 32.6716 35.2322 31.6642 35.9497 31.25C36.6671 30.8358 37.2487 31.1716 37.2487 32C37.2487 32.8284 36.6671 33.8358 35.9497 34.25C35.2322 34.6642 34.6506 34.3284 34.6506 33.5ZM41.1458 22.25C40.4284 22.6642 39.8468 23.6716 39.8468 24.5C39.8468 25.3284 40.4284 25.6642 41.1458 25.25C41.8633 24.8358 42.4449 23.8284 42.4449 23C42.4449 22.1716 41.8633 21.8358 41.1458 22.25ZM38.1147 61.5C38.1147 63.0855 39.0278 63.8977 40.2798 63.6051L40.2798 68.75L42.0119 67.75L42.0119 62.6051C43.2639 61.4519 44.1769 59.5855 44.1769 58C44.1769 56.067 42.8199 55.2835 41.1458 56.25C39.4718 57.2165 38.1147 59.567 38.1147 61.5ZM36.8157 59.6051C38.0678 58.4519 38.9808 56.5855 38.9808 55C38.9808 53.067 37.6237 52.2835 35.9497 53.25C34.2757 54.2165 32.9186 56.567 32.9186 58.5C32.9186 60.0855 33.8316 60.8977 35.0836 60.6051L35.0836 71.75L36.8157 70.75L36.8157 59.6051ZM27.7224 67.5C27.7224 69.0855 28.6354 69.8977 29.8875 69.6051L29.8875 74.75L31.6195 73.75L31.6195 68.6051C32.8716 67.4519 33.7846 65.5855 33.7846 64C33.7846 62.067 32.4275 61.2835 30.7535 62.25C29.0795 63.2165 27.7224 65.567 27.7224 67.5ZM41.1458 61.25C41.8633 60.8358 42.4449 59.8284 42.4449 59C42.4449 58.1716 41.8633 57.8358 41.1458 58.25C40.4284 58.6642 39.8468 59.6716 39.8468 60.5C39.8468 61.3284 40.4284 61.6642 41.1458 61.25ZM37.2487 56C37.2487 56.8284 36.6671 57.8358 35.9497 58.25C35.2322 58.6642 34.6506 58.3284 34.6506 57.5C34.6506 56.6716 35.2322 55.6642 35.9497 55.25C36.6671 54.8358 37.2487 55.1716 37.2487 56ZM30.7535 67.25C31.471 66.8358 32.0526 65.8284 32.0526 65C32.0526 64.1716 31.471 63.8358 30.7535 64.25C30.0361 64.6642 29.4545 65.6716 29.4545 66.5C29.4545 67.3284 30.0361 67.6642 30.7535 67.25ZM17.4556 60.4275C17.8283 58.7666 18.9881 57.0428 20.3612 56.25C22.0352 55.2835 23.3923 56.067 23.3923 58C23.3923 59.933 22.0352 62.2835 20.3612 63.25C18.9881 64.0428 17.8283 63.6581 17.4556 62.4275L13 65L13 63L17.4556 60.4275ZM25.5574 54.25C24.1843 55.0428 23.0244 54.6581 22.6518 53.4275L13 59L13 57L22.6518 51.4275C23.0244 49.7666 24.1843 48.0428 25.5574 47.25C27.2314 46.2835 28.5885 47.067 28.5885 49C28.5885 50.933 27.2314 53.2835 25.5574 54.25ZM17.4556 48.4275C17.8283 46.7666 18.9881 45.0428 20.3612 44.25C22.0352 43.2835 23.3923 44.067 23.3923 46C23.3923 47.933 22.0352 50.2835 20.3612 51.25C18.9881 52.0428 17.8283 51.6581 17.4556 50.4275L13 53L13 51L17.4556 48.4275ZM20.3612 61.25C19.6438 61.6642 19.0622 61.3284 19.0622 60.5C19.0622 59.6716 19.6438 58.6642 20.3612 58.25C21.0787 57.8358 21.6603 58.1716 21.6603 59C21.6603 59.8284 21.0787 60.8358 20.3612 61.25ZM24.2583 51.5C24.2583 52.3284 24.8399 52.6642 25.5574 52.25C26.2748 51.8358 26.8564 50.8284 26.8564 50C26.8564 49.1716 26.2748 48.8358 25.5574 49.25C24.8399 49.6642 24.2583 50.6716 24.2583 51.5ZM20.3612 49.25C19.6438 49.6642 19.0622 49.3284 19.0622 48.5C19.0622 47.6716 19.6438 46.6642 20.3612 46.25C21.0787 45.8358 21.6603 46.1716 21.6603 47C21.6603 47.8284 21.0787 48.8358 20.3612 49.25ZM51.5381 33.25C52.9112 32.4572 54.0711 30.7334 54.4437 29.0725L58.8993 26.5L58.8993 24.5L54.4437 27.0725C54.0711 25.8419 52.9112 25.4572 51.5381 26.25C49.8641 27.2165 48.507 29.567 48.507 31.5C48.507 33.433 49.8641 34.2165 51.5381 33.25ZM49.2475 36.0725C48.8749 34.8419 47.7151 34.4572 46.342 35.25C44.668 36.2165 43.3109 38.567 43.3109 40.5C43.3109 42.433 44.668 43.2165 46.342 42.25C47.7151 41.4572 48.8749 39.7334 49.2475 38.0725L58.8993 32.5L58.8993 30.5L49.2475 36.0725ZM51.5381 45.25C52.9112 44.4572 54.0711 42.7334 54.4437 41.0725L58.8993 38.5L58.8993 36.5L54.4437 39.0725C54.0711 37.8419 52.9112 37.4572 51.5381 38.25C49.8641 39.2165 48.507 41.567 48.507 43.5C48.507 45.433 49.8641 46.2165 51.5381 45.25ZM52.8372 29C52.8372 28.1716 52.2556 27.8358 51.5381 28.25C50.8207 28.6642 50.2391 29.6716 50.2391 30.5C50.2391 31.3284 50.8207 31.6642 51.5381 31.25C52.2556 30.8358 52.8372 29.8284 52.8372 29ZM46.342 37.25C47.0594 36.8358 47.641 37.1716 47.641 38C47.641 38.8284 47.0594 39.8358 46.342 40.25C45.6245 40.6642 45.0429 40.3284 45.0429 39.5C45.0429 38.6716 45.6245 37.6642 46.342 37.25ZM52.8372 41C52.8372 40.1716 52.2556 39.8358 51.5381 40.25C50.8207 40.6642 50.2391 41.6716 50.2391 42.5C50.2391 43.3284 50.8207 43.6642 51.5381 43.25C52.2556 42.8358 52.8372 41.8284 52.8372 41Z" fill="#15D378"/>
<defs>
<linearGradient id="paint0_linear_981_207" x1="58.3" y1="-6.5828" x2="1.79352" y2="82.7823" gradientUnits="userSpaceOnUse">
<stop stop-color="#15D378"/>
<stop offset="1" stop-color="white" stop-opacity="0"/>
</linearGradient>
<linearGradient id="paint1_linear_981_207" x1="42.19" y1="-7.65967" x2="-4.81818" y2="49.0466" gradientUnits="userSpaceOnUse">
<stop stop-color="#360F8C"/>
<stop offset="1" stop-color="#15D378"/>
</linearGradient>
<linearGradient id="paint2_linear_981_207" x1="6.5" y1="37" x2="62.6495" y2="37" gradientUnits="userSpaceOnUse">
<stop stop-color="#37108C"/>
<stop offset="1" stop-color="#20997F"/>
</linearGradient>
</defs>
</svg>
