<svg width="36" height="10" viewBox="0 0 36 10" fill="none" xmlns="http://www.w3.org/2000/svg">
    <path d="M10.5 9.79V10H9.072L7.98 7.676H2.8L1.708 10H0.28V9.79L4.62 0.816H6.16L10.5 9.79ZM7.378 6.416L5.39 2.202L3.402 6.416H7.378ZM23.8914 10H22.5054V2.608L18.6974 10H17.2554L13.4474 2.594V10H12.0614V0.816H14.0214L17.9834 8.432L21.9454 0.816H23.8914V10ZM33.7796 5.296C34.2649 5.48267 34.6336 5.74867 34.8856 6.094C35.1469 6.43 35.2776 6.836 35.2776 7.312V7.466C35.2776 8.24067 34.9789 8.85667 34.3816 9.314C33.7936 9.77133 33.0049 10 32.0156 10H26.4716V0.816H31.7216C32.7483 0.816 33.5463 1.02133 34.1156 1.432C34.6943 1.83333 34.9836 2.40267 34.9836 3.14V3.308C34.9836 3.74667 34.8809 4.134 34.6756 4.47C34.4703 4.806 34.1716 5.08133 33.7796 5.296ZM27.8716 2.062V4.736H31.7076C32.9489 4.736 33.5696 4.316 33.5696 3.476V3.308C33.5696 2.90667 33.4109 2.59867 33.0936 2.384C32.7763 2.16933 32.3189 2.062 31.7216 2.062H27.8716ZM33.8636 7.27C33.8636 6.42067 33.2383 5.996 31.9876 5.996H27.8716V8.754H31.9876C32.5756 8.754 33.0329 8.63733 33.3596 8.404C33.6956 8.16133 33.8636 7.83467 33.8636 7.424V7.27Z" fill="#696969"/>
</svg>
