<svg width="31" height="10" viewBox="0 0 31 10" fill="none" xmlns="http://www.w3.org/2000/svg">
<path d="M0.49 10C0.406 10 0.336 9.972 0.28 9.916C0.224 9.86 0.196 9.79 0.196 9.706L0.224 9.58L3.584 0.55C3.67733 0.316666 3.84533 0.199999 4.088 0.199999H5.628C5.87067 0.199999 6.03867 0.316666 6.132 0.55L9.492 9.58L9.52 9.706C9.52 9.79 9.48733 9.86 9.422 9.916C9.366 9.972 9.30067 10 9.226 10H7.98C7.784 10 7.64867 9.91133 7.574 9.734L6.93 8.04H2.786L2.142 9.734C2.06733 9.91133 1.932 10 1.736 10H0.49ZM3.276 6.416H6.44L4.858 2.104L3.276 6.416ZM11.1487 10C11.0554 10 10.976 9.96733 10.9107 9.902C10.8454 9.83667 10.8127 9.75733 10.8127 9.664V0.55C10.8127 0.447333 10.8407 0.363333 10.8967 0.298C10.962 0.232666 11.046 0.199999 11.1487 0.199999H12.2827C12.46 0.199999 12.6 0.288666 12.7027 0.465999L15.4047 5.478L18.1067 0.465999C18.2094 0.288666 18.3494 0.199999 18.5267 0.199999H19.6467C19.7494 0.199999 19.8334 0.232666 19.8987 0.298C19.964 0.363333 19.9967 0.447333 19.9967 0.55V9.664C19.9967 9.76667 19.964 9.85067 19.8987 9.916C19.8334 9.972 19.7494 10 19.6467 10H18.4427C18.3494 10 18.27 9.96733 18.2047 9.902C18.1394 9.83667 18.1067 9.75733 18.1067 9.664V3.644L16.1607 7.34C16.058 7.54533 15.904 7.648 15.6987 7.648H15.1107C14.9147 7.648 14.756 7.54533 14.6347 7.34L12.6887 3.644V9.664C12.6887 9.75733 12.656 9.83667 12.5907 9.902C12.5347 9.96733 12.4554 10 12.3527 10H11.1487ZM22.51 10C22.4167 10 22.3374 9.96733 22.272 9.902C22.2067 9.83667 22.174 9.75733 22.174 9.664V0.55C22.174 0.447333 22.202 0.363333 22.258 0.298C22.3234 0.232666 22.4074 0.199999 22.51 0.199999H26.57C27.662 0.199999 28.4787 0.442666 29.02 0.928C29.5614 1.404 29.832 2.05733 29.832 2.888C29.832 3.37333 29.7107 3.78867 29.468 4.134C29.2347 4.47 28.9594 4.71267 28.642 4.862C29.034 5.03933 29.3654 5.32867 29.636 5.73C29.9067 6.13133 30.042 6.58867 30.042 7.102C30.042 7.97 29.748 8.67 29.16 9.202C28.572 9.734 27.7507 10 26.696 10H22.51ZM26.318 4.218C26.794 4.218 27.158 4.10133 27.41 3.868C27.6714 3.63467 27.802 3.322 27.802 2.93C27.802 2.538 27.676 2.23467 27.424 2.02C27.172 1.80533 26.8034 1.698 26.318 1.698H24.148V4.218H26.318ZM26.458 8.502C26.9434 8.502 27.3214 8.37133 27.592 8.11C27.8627 7.83933 27.998 7.49867 27.998 7.088C27.998 6.67733 27.858 6.34133 27.578 6.08C27.3074 5.80933 26.934 5.674 26.458 5.674H24.148V8.502H26.458Z" fill="#9198BB"/>
</svg>
