<svg width="24" height="25" viewBox="0 0 24 25" fill="none" xmlns="http://www.w3.org/2000/svg">
<path d="M7.5 5.51196H16.5V4.01196H7.5V5.51196ZM17.25 6.26196V18.762H18.75V6.26196H17.25ZM6.75 15.762V6.26196H5.25V15.762H6.75ZM5.25 15.762V17.762H6.75V15.762H5.25ZM7.5 20.012H17.5V18.512H7.5V20.012ZM5.25 17.762C5.25 19.0046 6.25736 20.012 7.5 20.012V18.512C7.08579 18.512 6.75 18.1762 6.75 17.762H5.25ZM17.25 18.762C17.25 18.6239 17.3619 18.512 17.5 18.512V20.012C18.1904 20.012 18.75 19.4523 18.75 18.762H17.25ZM16.5 5.51196C16.9142 5.51196 17.25 5.84775 17.25 6.26196H18.75C18.75 5.01932 17.7426 4.01196 16.5 4.01196V5.51196ZM7.5 4.01196C6.25736 4.01196 5.25 5.01932 5.25 6.26196H6.75C6.75 5.84775 7.08579 5.51196 7.5 5.51196V4.01196Z" fill="#A2B2D8"/>
<path d="M9.75 7.51196C9.33579 7.51196 9 7.84775 9 8.26196C9 8.67618 9.33579 9.01196 9.75 9.01196V7.51196ZM14.25 9.01196C14.6642 9.01196 15 8.67618 15 8.26196C15 7.84775 14.6642 7.51196 14.25 7.51196V9.01196ZM9.75 9.01196H14.25V7.51196H9.75V9.01196Z" fill="#A2B2D8"/>
<path d="M18 17.012C18.4142 17.012 18.75 16.6762 18.75 16.262C18.75 15.8477 18.4142 15.512 18 15.512V17.012ZM5.25 17.762C5.25 18.1762 5.58579 18.512 6 18.512C6.41421 18.512 6.75 18.1762 6.75 17.762H5.25ZM18 15.512H7.5V17.012H18V15.512ZM7.5 15.512C6.25736 15.512 5.25 16.5193 5.25 17.762H6.75C6.75 17.3477 7.08579 17.012 7.5 17.012V15.512Z" fill="#A2B2D8"/>
</svg>
