<svg width="21" height="14" viewBox="0 0 21 14" fill="none" xmlns="http://www.w3.org/2000/svg">
<path d="M11.7171 7.06289C11.7171 10.0426 9.318 12.4583 6.35847 12.4583C3.39893 12.4583 1 10.0433 1 7.06289C1 4.08242 3.39911 1.66766 6.35847 1.66766C9.31782 1.66766 11.7171 4.08315 11.7171 7.06289ZM17.5956 7.06289C17.5956 9.86794 16.396 12.1417 14.9163 12.1417C13.4366 12.1417 12.237 9.86721 12.237 7.06289C12.237 4.25856 13.4366 1.98409 14.9163 1.98409C16.396 1.98409 17.5956 4.25856 17.5956 7.06289ZM20 7.06289C20 9.57608 19.578 11.6133 19.0576 11.6133C18.5372 11.6133 18.1153 9.57535 18.1153 7.06289C18.1153 4.55042 18.5372 2.51249 19.0578 2.51249C19.5784 2.51249 20 4.54987 20 7.06289Z" stroke="#1D1D1D" stroke-width="1.5" stroke-linejoin="round"/>
</svg>
