<svg width="24" height="24" viewBox="0 0 24 24" fill="none" xmlns="http://www.w3.org/2000/svg">
<rect width="24" height="24" rx="8" fill="#BFC9E0"/>
<path d="M16.2 7.80616C15.94 7.54616 15.52 7.54616 15.26 7.80616L12 11.0595L8.73998 7.79949C8.47998 7.53949 8.05998 7.53949 7.79998 7.79949C7.53998 8.05949 7.53998 8.47949 7.79998 8.73949L11.06 11.9995L7.79998 15.2595C7.53998 15.5195 7.53998 15.9395 7.79998 16.1995C8.05998 16.4595 8.47998 16.4595 8.73998 16.1995L12 12.9395L15.26 16.1995C15.52 16.4595 15.94 16.4595 16.2 16.1995C16.46 15.9395 16.46 15.5195 16.2 15.2595L12.94 11.9995L16.2 8.73949C16.4533 8.48616 16.4533 8.05949 16.2 7.80616Z" fill="white"/>
</svg>
