<svg width="20" height="20" viewBox="0 0 20 20" fill="#fff" xmlns="http://www.w3.org/2000/svg">
<path d="M10 14.1668C9.54167 14.1668 9.16667 13.7918 9.16667 13.3335L9.16667 10.0002C9.16667 9.54183 9.54167 9.16683 10 9.16683C10.4583 9.16683 10.8333 9.54183 10.8333 10.0002L10.8333 13.3335C10.8333 13.7918 10.4583 14.1668 10 14.1668ZM10.0083 18.3335C14.6083 18.3335 18.3333 14.6002 18.3333 10.0002C18.3333 5.40016 14.6083 1.66683 10.0083 1.66683C5.4 1.66683 1.66667 5.40016 1.66667 10.0002C1.66667 14.6002 5.4 18.3335 10.0083 18.3335ZM10 3.33349C13.6833 3.33349 16.6667 6.31683 16.6667 10.0002C16.6667 13.6835 13.6833 16.6668 10 16.6668C6.31667 16.6668 3.33334 13.6835 3.33334 10.0002C3.33334 6.31683 6.31667 3.33349 10 3.33349ZM9.16667 6.66683C9.16667 6.20659 9.53977 5.83349 10 5.83349C10.4602 5.83349 10.8333 6.20659 10.8333 6.66683C10.8333 7.12707 10.4602 7.50016 10 7.50016C9.53977 7.50016 9.16667 7.12707 9.16667 6.66683Z" fill="#fff"/>
</svg>
