<svg width="155" height="18" viewBox="0 0 155 18" fill="none" xmlns="http://www.w3.org/2000/svg">
<path d="M50.5076 13.6279H52.2942L48.3984 4.93115H46.6118L42.7165 13.6279H44.4907C45.5256 11.3509 46.507 9.05252 47.5055 6.75902C48.5027 9.05036 49.4878 11.3466 50.5076 13.6279Z" fill="#565656"/>
<path d="M66.2079 13.6284H67.8456V4.95637H65.9721L63.2552 8.68452L60.5382 4.95637H58.6523V13.6284H60.2899V7.32384L63.0567 11.1018H63.3792L66.2079 7.33623V13.6284Z" fill="#565656"/>
<path d="M79.191 4.93115C77.814 4.93115 76.4368 4.93115 75.0722 4.93115V13.6279C76.4492 13.6279 77.814 13.6279 79.191 13.6279C80.99 13.6279 82.4415 13.0079 82.4415 11.0722C82.4415 10.5265 82.0693 9.44713 81.0519 9.13691C81.8583 8.77712 82.1809 8.12993 82.1809 7.45579C82.1809 5.7003 80.903 4.93115 79.191 4.93115ZM76.6849 6.41989H79.191C80.2332 6.41989 80.5558 7.09383 80.5558 7.49297C80.5558 7.99341 80.2208 8.42972 79.191 8.42972H76.6849V6.41989ZM76.6849 9.86869H79.191C79.861 9.86869 80.8163 10.2781 80.8163 11.0598C80.8163 11.8787 79.861 12.102 79.191 12.102H76.6849V9.86869Z" fill="#565656"/>
<path d="M93.4772 6.45687C94.5068 6.45687 94.966 7.15363 94.966 7.85276C94.966 8.55169 94.5192 9.24845 93.4772 9.24845H90.9835V6.45706H93.4772V6.45687ZM97.0378 13.5162L94.4077 10.5511C96.0577 10.2163 96.6036 9.01279 96.6036 7.81558C96.6036 6.30815 95.5242 4.94334 93.4772 4.93115C92.1002 4.94354 90.723 4.93115 89.3458 4.93115V13.6279H90.9835V10.725H92.5592L95.0901 13.6279H97.0378V13.5162Z" fill="#565656"/>
<path d="M107.527 6.25878C109.574 6.25878 110.393 7.89643 110.368 9.36058C110.343 10.7872 109.574 12.3255 107.527 12.3255C105.48 12.3255 104.711 10.7995 104.674 9.37278C104.636 7.90863 105.48 6.25878 107.527 6.25878ZM107.527 4.76984C104.525 4.76984 103.061 7.06511 103.061 9.34779C103.061 11.6305 104.475 13.8266 107.527 13.8266C110.579 13.8266 111.956 11.5811 111.981 9.3354C112.006 7.06511 110.517 4.76984 107.527 4.76984Z" fill="#565656"/>
<path d="M125.833 6.3704C125.175 5.03057 123.773 4.64599 122.421 4.64599C120.821 4.65839 119.059 5.39017 119.059 7.17673C119.059 9.12441 120.696 9.59613 122.471 9.80681C123.624 9.93094 124.48 10.2659 124.48 11.0847C124.48 12.0275 123.513 12.3873 122.483 12.3873C121.429 12.3873 120.424 11.9654 120.039 11.0103L118.674 11.7175C119.319 13.3056 120.684 13.8515 122.458 13.8515C124.393 13.8515 126.105 13.0201 126.105 11.0849C126.105 9.01307 124.418 8.54154 122.607 8.31827C121.565 8.19434 120.672 7.98346 120.672 7.2267C120.672 6.58147 121.255 6.07277 122.471 6.07277C123.413 6.07277 124.232 6.54409 124.53 7.0406L125.833 6.3704Z" fill="#565656"/>
<path d="M139.101 4.95637V9.93129C139.101 11.42 138.332 12.3257 136.98 12.3257C135.628 12.3257 134.734 11.4946 134.734 9.93129V4.95637H133.109V9.93129C133.109 12.5492 134.883 13.8144 136.967 13.8144C139.151 13.8144 140.726 12.4994 140.726 9.93129V4.95637H139.101Z" fill="#565656"/>
<path d="M154.727 6.3704C154.07 5.03057 152.668 4.64599 151.315 4.64599C149.715 4.65839 147.953 5.39017 147.953 7.17673C147.953 9.12441 149.591 9.59613 151.365 9.80681C152.519 9.93094 153.375 10.2659 153.375 11.0847C153.375 12.0275 152.407 12.3873 151.377 12.3873C150.323 12.3873 149.318 11.9654 148.934 11.0103L147.569 11.7175C148.214 13.3056 149.578 13.8515 151.353 13.8515C153.288 13.8515 155 13.0201 155 11.0849C155 9.01307 153.313 8.54154 151.501 8.31827C150.459 8.19434 149.566 7.98346 149.566 7.2267C149.566 6.58147 150.149 6.07277 151.365 6.07277C152.308 6.07277 153.127 6.54409 153.425 7.0406L154.727 6.3704Z" fill="#565656"/>
<path fill-rule="evenodd" clip-rule="evenodd" d="M16.4681 17.923C12.6083 17.8704 9.14783 15.3139 8.01802 11.5439C7.70761 11.4188 7.46458 11.1445 7.39436 10.7916C7.28372 10.2354 7.64504 9.69509 8.2012 9.58433C8.75724 9.47369 9.29785 9.83501 9.40836 10.3912C9.47132 10.7083 9.38116 11.02 9.18877 11.2502C10.1815 14.4776 13.153 16.664 16.4681 16.7168C16.9244 16.7086 17.3865 16.6599 17.8499 16.5678C21.1234 15.9168 23.5024 13.2936 23.9978 10.1795C24.0081 10.1142 24.0176 10.0485 24.0265 9.98269C24.1395 9.12338 25.3258 9.28195 25.2376 10.0252C24.7906 13.773 21.9876 16.9746 18.0852 17.7507C17.5426 17.8585 17.0023 17.9146 16.4681 17.923ZM24.8326 14.5217C25.9355 13.9384 27.0132 13.2365 28.0553 12.414C29.1679 11.5359 30.0683 10.7128 31.0104 9.65338C31.5943 8.99655 31.5943 8.82606 31.0104 8.16911C30.0684 7.10964 29.1679 6.2866 28.0553 5.4085C26.9809 4.56059 25.8687 3.8408 24.7301 3.24707C24.1677 2.41924 23.4862 1.67898 22.7108 1.05001C24.8231 1.79908 26.8755 2.93433 28.8057 4.45773C29.9067 5.32676 30.8645 6.22649 31.7623 7.21276C33.328 8.93242 33.328 8.88993 31.7623 10.6095C30.8644 11.5957 29.9067 12.4953 28.8057 13.3645C26.9406 14.8363 24.9616 15.9459 22.9247 16.695C23.6587 16.0658 24.302 15.3339 24.8326 14.5217ZM8.10391 14.5217C7.00117 13.9384 5.92331 13.2365 4.8812 12.414C3.76861 11.5359 2.86823 10.7128 1.92613 9.65338C1.34225 8.99655 1.34225 8.82606 1.92613 8.16911C2.8681 7.10964 3.76848 6.2866 4.8812 5.4085C5.95556 4.56059 7.06776 3.8408 8.20638 3.24707C8.76877 2.41924 9.45034 1.67898 10.2257 1.05001C8.11337 1.79908 6.06102 2.93433 4.13097 4.45773C3.02978 5.32676 2.07214 6.22649 1.17422 7.21276C-0.391406 8.93242 -0.391406 8.88993 1.17422 10.6095C2.07227 11.5957 3.02978 12.4953 4.13097 13.3645C5.99585 14.8363 7.97488 15.9459 10.0118 16.695C9.27764 16.0658 8.63442 15.3339 8.10391 14.5217ZM16.4681 13.0788C14.4473 13.0788 14.5315 13.2277 14.7095 12.3088L15.3497 9.00225C14.7078 8.6057 14.28 7.89563 14.28 7.08567C14.28 5.86336 15.2541 4.86866 16.4683 4.83524C17.6825 4.86866 18.6565 5.86336 18.6565 7.08567C18.6565 7.89563 18.2287 8.6057 17.5868 9.00225L18.2269 12.3088C18.4049 13.2277 18.489 13.0788 16.4681 13.0788ZM16.4681 2.71889C19.9159 2.71889 22.7108 5.5137 22.7108 8.96144C22.7108 12.4092 19.916 15.2041 16.4681 15.2041C13.0204 15.2041 10.2254 12.4092 10.2254 8.96144C10.2254 5.5137 13.0205 2.71889 16.4681 2.71889ZM16.4681 0C20.3281 0.0525978 23.7884 2.60903 24.9184 6.37897C25.2288 6.50412 25.4718 6.77838 25.5419 7.13127C25.6525 7.68744 25.2912 8.22792 24.735 8.33843C24.1789 8.44907 23.6384 8.08788 23.5279 7.53172C23.4649 7.2147 23.5552 6.90287 23.7473 6.67266C22.7547 3.44528 19.7831 1.25885 16.4681 1.20612C16.0118 1.21428 15.5499 1.26299 15.0863 1.35523C11.8128 2.0061 9.43401 4.62938 8.93848 7.74353C8.92798 7.80883 8.91853 7.87451 8.90972 7.94032C8.79662 8.79963 7.61032 8.64106 7.69854 7.89783C8.14563 4.15004 10.9485 0.948444 14.8509 0.172433C15.3936 0.0645165 15.9342 0.00842083 16.4681 0Z" fill="#565656"/>
</svg>
