<svg width="151" height="26" viewBox="0 0 151 26" fill="none" xmlns="http://www.w3.org/2000/svg">
<path fill-rule="evenodd" clip-rule="evenodd" d="M23.5311 25.9516C18.0158 25.8765 13.0713 22.2239 11.4569 16.8378C11.0133 16.659 10.6661 16.2672 10.5657 15.763C10.4076 14.9684 10.9239 14.1964 11.7186 14.0381C12.5131 13.8801 13.2856 14.3963 13.4435 15.1909C13.5335 15.644 13.4046 16.0893 13.1298 16.4182C14.5483 21.0292 18.7943 24.1529 23.5311 24.2282C24.1831 24.2166 24.8434 24.147 25.5056 24.0154C30.1831 23.0853 33.5823 19.3376 34.2902 14.8884C34.305 14.7951 34.3185 14.7013 34.3313 14.6073C34.4927 13.3796 36.1878 13.6061 36.0617 14.668C35.4231 20.0224 31.4179 24.5966 25.8417 25.7055C25.0665 25.8594 24.2944 25.9396 23.5311 25.9516ZM35.4831 21.0921C37.0589 20.2588 38.5989 19.256 40.088 18.0809C41.6777 16.8263 42.9643 15.6504 44.3104 14.1368C45.1447 13.1984 45.1447 12.9548 44.3104 12.0162C42.9645 10.5025 41.6777 9.32665 40.088 8.07211C38.5528 6.8607 36.9636 5.83233 35.3366 4.98407C34.5331 3.80134 33.5592 2.74374 32.4513 1.84513C35.4696 2.91532 38.4021 4.53726 41.1602 6.71373C42.7334 7.95532 44.102 9.24077 45.3848 10.6499C47.6221 13.1067 47.6221 13.046 45.3848 15.5027C44.1018 16.9118 42.7334 18.1971 41.1602 19.4389C38.4952 21.5417 35.6674 23.127 32.7569 24.1972C33.8057 23.2982 34.7248 22.2526 35.4831 21.0921ZM11.5796 21.0921C10.0039 20.2588 8.46376 19.256 6.9747 18.0809C5.38493 16.8263 4.09839 15.6504 2.75224 14.1368C1.91792 13.1984 1.91792 12.9548 2.75224 12.0162C4.0982 10.5025 5.38475 9.32665 6.9747 8.07211C8.50985 6.8607 10.0991 5.83233 11.726 4.98407C12.5296 3.80134 13.5035 2.74374 14.6114 1.84513C11.5931 2.91532 8.66053 4.53726 5.9027 6.71373C4.32923 7.95532 2.96086 9.24077 1.67783 10.6499C-0.559277 13.1067 -0.559277 13.046 1.67783 15.5027C2.96104 16.9118 4.32923 18.1971 5.9027 19.4389C8.56742 21.5417 11.3952 23.127 14.3058 24.1972C13.2567 23.2982 12.3376 22.2526 11.5796 21.0921ZM23.5311 19.0307C20.6435 19.0307 20.7639 19.2434 21.0182 17.9306L21.9331 13.2065C21.0158 12.6399 20.4046 11.6255 20.4046 10.4683C20.4046 8.72196 21.7964 7.30084 23.5313 7.25309C25.2664 7.30084 26.6581 8.72196 26.6581 10.4683C26.6581 11.6255 26.0469 12.6399 25.1296 13.2065L26.0443 17.9306C26.2986 19.2434 26.4187 19.0307 23.5311 19.0307ZM23.5311 4.22946C28.4576 4.22946 32.4513 8.2224 32.4513 13.1482C32.4513 18.074 28.4578 22.0671 23.5311 22.0671C18.6047 22.0671 14.611 18.074 14.611 13.1482C14.611 8.2224 18.6049 4.22946 23.5311 4.22946ZM23.5311 0.344971C29.0466 0.420117 33.991 4.0725 35.6056 9.45862C36.0491 9.63742 36.3964 10.0293 36.4966 10.5334C36.6547 11.328 36.1384 12.1002 35.3437 12.2581C34.549 12.4162 33.7767 11.9001 33.6188 11.1055C33.5288 10.6526 33.6578 10.2071 33.9324 9.87822C32.514 5.26726 28.2679 2.14349 23.5311 2.06816C22.8792 2.07982 22.2191 2.14941 21.5567 2.2812C16.8792 3.21109 13.4802 6.95898 12.7721 11.4082C12.7571 11.5015 12.7436 11.5953 12.731 11.6893C12.5694 12.917 10.8743 12.6905 11.0004 11.6286C11.6392 6.27415 15.6442 1.70001 21.2204 0.591326C21.9958 0.437146 22.7683 0.357002 23.5311 0.344971Z" fill="#565656"/>
<path fill-rule="evenodd" clip-rule="evenodd" d="M95.3757 7.25145C94.5176 8.18205 93.5145 8.75008 91.9434 8.75008C89.4779 8.75008 87.6408 6.82844 87.6408 4.39921V4.37504C87.6408 1.96998 89.4416 0 91.9917 0C93.5629 0 94.5055 0.543858 95.3153 1.31735L94.3605 2.41715C93.6716 1.78869 92.9586 1.37777 91.9796 1.37777C90.3843 1.37777 89.1999 2.69512 89.1999 4.35087V4.37504C89.1999 6.03079 90.3722 7.3723 91.9917 7.3723C93.019 7.3723 93.6958 6.96139 94.4209 6.28459L95.3757 7.25145ZM57.5269 8.60505H59.0497L59.7855 6.8778H59.7784L60.4912 5.16709H60.4972L61.914 1.8612L63.3764 5.24521H63.3749L64.0552 6.8778H64.0527L64.7783 8.60505H66.3494L62.627 0.0845998H61.2493L57.5269 8.60505ZM73.5409 8.60505H75.0275V5.65613H76.8887L78.9674 8.60505H80.732L78.4478 5.40233C79.6201 5.06393 80.454 4.23001 80.454 2.84015V2.81598C80.454 2.07875 80.2002 1.46237 79.753 0.99103C79.2092 0.459258 78.3752 0.145029 77.3117 0.145029H73.5409V8.60505ZM75.0275 4.33878V1.49863H77.1908C78.3027 1.49863 78.9433 1.98206 78.9433 2.90058V2.92475C78.9433 3.79492 78.2665 4.33878 77.2029 4.33878H75.0275ZM101.954 8.60505H103.477L104.347 6.56256H108.347L109.205 8.60505H110.776L107.054 0.0845998H105.676L101.954 8.60505ZM104.891 5.24521L106.341 1.8612L107.803 5.24521H104.891ZM121.122 8.60505H117.968V0.145029H121.122C123.781 0.145029 125.618 1.96998 125.618 4.35087V4.37504C125.618 6.75593 123.781 8.60505 121.122 8.60505ZM124.059 4.37504C124.059 2.71929 122.899 1.49863 121.122 1.49863H119.454V7.25145H121.122C122.899 7.25145 124.059 6.05496 124.059 4.39921V4.37504ZM133.247 8.60505H134.734V0.145029H133.247V8.60505ZM143.537 8.60505H142.014L145.736 0.0845998H147.114L150.836 8.60505H149.265L148.407 6.56256H146.407H144.407L143.537 8.60505ZM146.401 1.8612L144.951 5.24521H147.863L146.401 1.8612Z" fill="#565656"/>
<path d="M61.7896 23.143C63.6152 23.143 64.8943 22.1868 64.8943 20.5475V20.5227C64.8943 19.0697 63.938 18.4488 62.1125 17.9769C60.436 17.5795 60.0386 17.2815 60.0386 16.6109V16.5861C60.0386 16.0024 60.5602 15.5553 61.4543 15.5553C62.2491 15.5553 63.0191 15.8658 63.8138 16.4495L64.6335 15.2945C63.7393 14.5867 62.7583 14.2017 61.4792 14.2017C59.753 14.2017 58.5112 15.2324 58.5112 16.7227V16.7475C58.5112 18.3371 59.5543 18.9083 61.4047 19.343C63.0191 19.7031 63.3668 20.0632 63.3668 20.6717V20.6966C63.3668 21.3423 62.7707 21.7894 61.8269 21.7894C60.7465 21.7894 59.9269 21.392 59.0824 20.6593L58.1635 21.7521C59.2066 22.6959 60.4484 23.143 61.7896 23.143Z" fill="#565656"/>
<path d="M74.8536 23.0188H76.381V15.7416H79.1503V14.3259H72.0842V15.7416H74.8536V23.0188Z" fill="#565656"/>
<path d="M85.0946 23.0188H86.6593L87.5535 20.9201H91.664L92.5457 23.0188H94.1601L90.3352 14.2638H88.9195L85.0946 23.0188ZM88.1123 19.5665L89.6025 16.0893L91.1051 19.5665H88.1123Z" fill="#565656"/>
<path d="M101.86 23.0188H103.387V20.4979L104.741 19.107L107.709 23.0188H109.572L105.784 18.0639L109.41 14.3259H107.51L103.387 18.6972V14.3259H101.86V23.0188Z" fill="#565656"/>
<path d="M117.167 23.0188H118.694V14.3259H117.167V23.0188Z" fill="#565656"/>
<path d="M127.231 23.0188H128.733V16.8344L133.527 23.0188H134.806V14.3259H133.303V20.3364L128.646 14.3259H127.231V23.0188Z" fill="#565656"/>
<path d="M147.374 23.1678C148.914 23.1678 150.131 22.5469 151 21.8142V18.1632H147.299V19.5044H149.522V21.1188C148.988 21.5162 148.255 21.777 147.423 21.777C145.648 21.777 144.468 20.4606 144.468 18.6724V18.6475C144.468 16.9834 145.697 15.5926 147.287 15.5926C148.38 15.5926 149.05 15.9403 149.721 16.5115L150.689 15.3566C149.795 14.5991 148.852 14.1769 147.349 14.1769C144.716 14.1769 142.866 16.2383 142.866 18.6724V18.6972C142.866 21.2306 144.654 23.1678 147.374 23.1678Z" fill="#565656"/>
</svg>
