<svg width="234" height="28" viewBox="0 0 234 28" fill="none" xmlns="http://www.w3.org/2000/svg">
<path d="M76.0986 20.533H78.7904L72.9207 7.42969H70.2289L64.3599 20.533H67.033C68.5923 17.1023 70.071 13.6393 71.5754 10.1837C73.0778 13.6361 74.5621 17.0958 76.0986 20.533Z" fill="white"/>
<path d="M99.7546 20.5328H102.222V7.4668H99.3992L95.3058 13.0839L91.2121 7.4668H88.3706V20.5328H90.838V11.0338L95.0067 16.726H95.4925L99.7546 11.0525V20.5328Z" fill="white"/>
<path d="M119.316 7.42969C117.241 7.42969 115.166 7.42969 113.11 7.42969V20.533C115.185 20.533 117.241 20.533 119.316 20.533C122.026 20.533 124.213 19.5988 124.213 16.6823C124.213 15.8601 123.652 14.2339 122.119 13.7665C123.334 13.2244 123.82 12.2492 123.82 11.2335C123.82 8.58856 121.895 7.42969 119.316 7.42969ZM115.54 9.67275H119.316C120.886 9.67275 121.372 10.6882 121.372 11.2895C121.372 12.0436 120.867 12.7009 119.316 12.7009H115.54V9.67275ZM115.54 14.869H119.316C120.325 14.869 121.764 15.4858 121.764 16.6636C121.764 17.8975 120.325 18.2339 119.316 18.2339H115.54V14.869Z" fill="white"/>
<path d="M140.84 9.72848C142.392 9.72848 143.084 10.7783 143.084 11.8316C143.084 12.8847 142.41 13.9345 140.84 13.9345H137.083V9.72877H140.84V9.72848ZM146.205 20.3646L142.242 15.8972C144.728 15.3927 145.551 13.5794 145.551 11.7756C145.551 9.50441 143.925 7.44806 140.84 7.42969C138.766 7.44836 136.691 7.42969 134.616 7.42969V20.533H137.083V16.1592H139.457L143.271 20.533H146.205V20.3646Z" fill="white"/>
<path d="M162.009 9.43086C165.093 9.43086 166.327 11.8983 166.29 14.1043C166.252 16.2537 165.093 18.5715 162.009 18.5715C158.925 18.5715 157.766 16.2724 157.71 14.1227C157.654 11.9167 158.925 9.43086 162.009 9.43086ZM162.009 7.1875C157.486 7.1875 155.28 10.6458 155.28 14.085C155.28 17.5243 157.411 20.8332 162.009 20.8332C166.608 20.8332 168.682 17.4499 168.72 14.0664C168.757 10.6458 166.514 7.1875 162.009 7.1875Z" fill="white"/>
<path d="M189.59 9.59813C188.599 7.57944 186.487 7 184.449 7C182.038 7.01867 179.384 8.12123 179.384 10.813C179.384 13.7476 181.851 14.4583 184.524 14.7757C186.262 14.9628 187.552 15.4675 187.552 16.7011C187.552 18.1217 186.094 18.6637 184.543 18.6637C182.954 18.6637 181.44 18.028 180.861 16.589L178.804 17.6545C179.776 20.0473 181.832 20.8698 184.505 20.8698C187.421 20.8698 190.001 19.6172 190.001 16.7014C190.001 13.5798 187.459 12.8694 184.73 12.533C183.159 12.3462 181.814 12.0285 181.814 10.8883C181.814 9.91616 182.692 9.1497 184.524 9.1497C185.945 9.1497 187.178 9.85984 187.627 10.6079L189.59 9.59813Z" fill="white"/>
<path d="M209.582 7.4668V14.9624C209.582 17.2055 208.423 18.5701 206.385 18.5701C204.348 18.5701 203.002 17.3178 203.002 14.9624V7.4668H200.553V14.9624C200.553 18.9068 203.226 20.8131 206.367 20.8131C209.656 20.8131 212.03 18.8318 212.03 14.9624V7.4668H209.582Z" fill="white"/>
<path d="M233.125 9.59813C232.134 7.57944 230.022 7 227.984 7C225.573 7.01867 222.919 8.12123 222.919 10.813C222.919 13.7476 225.386 14.4583 228.059 14.7757C229.798 14.9628 231.087 15.4675 231.087 16.7011C231.087 18.1217 229.63 18.6637 228.078 18.6637C226.489 18.6637 224.975 18.028 224.396 16.589L222.339 17.6545C223.311 20.0473 225.367 20.8698 228.04 20.8698C230.957 20.8698 233.536 19.6172 233.536 16.7014C233.536 13.5798 230.994 12.8694 228.265 12.533C226.694 12.3462 225.349 12.0285 225.349 10.8883C225.349 9.91616 226.227 9.1497 228.059 9.1497C229.48 9.1497 230.713 9.85984 231.162 10.6079L233.125 9.59813Z" fill="white"/>
<path fill-rule="evenodd" clip-rule="evenodd" d="M24.8118 27.0044C18.9962 26.9251 13.7824 23.0732 12.0802 17.3931C11.6125 17.2045 11.2463 16.7913 11.1405 16.2596C10.9738 15.4216 11.5182 14.6075 12.3562 14.4406C13.1939 14.2739 14.0085 14.8183 14.175 15.6562C14.2698 16.1341 14.134 16.6037 13.8441 16.9506C15.3399 21.8132 19.817 25.1075 24.8118 25.1869C25.4993 25.1746 26.1955 25.1012 26.8937 24.9625C31.8259 23.9816 35.4102 20.0293 36.1566 15.3373C36.1722 15.2389 36.1865 15.14 36.2 15.0408C36.3702 13.7461 38.1575 13.985 38.0246 15.1048C37.3512 20.7516 33.128 25.5754 27.2482 26.7448C26.4307 26.9072 25.6166 26.9917 24.8118 27.0044ZM37.4144 21.8796C39.0761 21.0008 40.6999 19.9433 42.2701 18.704C43.9464 17.381 45.303 16.1409 46.7224 14.5446C47.6022 13.555 47.6022 13.2981 46.7224 12.3083C45.3032 10.712 43.9464 9.47194 42.2701 8.14892C40.6513 6.87138 38.9756 5.78689 37.2601 4.89232C36.4127 3.64503 35.3858 2.5297 34.2176 1.58204C37.4002 2.71065 40.4924 4.42112 43.4006 6.7164C45.0596 8.02575 46.5026 9.38137 47.8553 10.8674C50.2144 13.4584 50.2144 13.3943 47.8553 15.9851C46.5024 17.4711 45.0596 18.8266 43.4006 20.1361C40.5906 22.3537 37.6089 24.0255 34.5398 25.1541C35.6458 24.2061 36.6149 23.1034 37.4144 21.8796ZM12.2096 21.8796C10.5481 21.0008 8.92408 19.9433 7.35394 18.704C5.67763 17.381 4.32104 16.1409 2.90159 14.5446C2.02186 13.555 2.02186 13.2981 2.90159 12.3083C4.32084 10.712 5.67743 9.47194 7.35394 8.14892C8.97268 6.87138 10.6484 5.78689 12.364 4.89232C13.2113 3.64503 14.2382 2.5297 15.4064 1.58204C12.2238 2.71065 9.13157 4.42112 6.22358 6.7164C4.56444 8.02575 3.12157 9.38137 1.76869 10.8674C-0.590215 13.4584 -0.590215 13.3943 1.76869 15.9851C3.12177 17.4711 4.56444 18.8266 6.22358 20.1361C9.03338 22.3537 12.0152 24.0255 15.0842 25.1541C13.978 24.2061 13.0089 23.1034 12.2096 21.8796ZM24.8118 19.7057C21.767 19.7057 21.8939 19.93 22.1621 18.5455L23.1267 13.5636C22.1595 12.9661 21.515 11.8962 21.515 10.6759C21.515 8.83424 22.9827 7.33555 24.812 7.28519C26.6416 7.33555 28.109 8.83424 28.109 10.6759C28.109 11.8962 27.4645 12.9661 26.4973 13.5636L27.4617 18.5455C27.7299 19.93 27.8566 19.7057 24.8118 19.7057ZM24.8118 4.09652C30.0065 4.09652 34.2176 8.30741 34.2176 13.5021C34.2176 18.6968 30.0067 22.9079 24.8118 22.9079C19.6171 22.9079 15.406 18.6968 15.406 13.5021C15.406 8.30741 19.6173 4.09652 24.8118 4.09652ZM24.8118 0C30.6276 0.0792484 35.8412 3.93099 37.5437 9.61111C38.0113 9.79966 38.3775 10.2129 38.4831 10.7446C38.6498 11.5826 38.1054 12.3969 37.2675 12.5634C36.4295 12.7301 35.6152 12.1859 35.4487 11.3479C35.3538 10.8703 35.4898 10.4005 35.7793 10.0536C34.2837 5.19096 29.8064 1.89669 24.8118 1.81725C24.1243 1.82954 23.4283 1.90294 22.7299 2.04191C17.7977 3.02256 14.2136 6.97503 13.467 11.6671C13.4512 11.7655 13.4369 11.8644 13.4237 11.9636C13.2533 13.2583 11.4659 13.0194 11.5988 11.8996C12.2724 6.25281 16.4954 1.42901 22.3752 0.259802C23.1929 0.0972061 24.0074 0.0126875 24.8118 0Z" fill="white"/>
</svg>
