<svg width="100" height="28" viewBox="0 0 100 28" fill="none" xmlns="http://www.w3.org/2000/svg">
<path d="M32.3904 9.26331H28.0002V13.7824C28.0002 13.8897 27.968 13.9756 27.8929 14.04C27.8177 14.1044 27.7319 14.1366 27.646 14.1366H26.798C26.6907 14.1366 26.6048 14.1044 26.5296 14.0292C26.4545 13.9541 26.4223 13.8682 26.4223 13.7824V3.93921C26.4223 3.28444 26.8839 2.57599 27.8177 1.83534C28.7409 1.08395 29.5352 0.718994 30.2007 0.718994C30.8555 0.718994 31.6498 1.09469 32.5837 1.83534C33.5068 2.57599 33.9791 3.28444 33.9791 3.93921V13.7824C33.9791 13.879 33.9469 13.9648 33.8717 14.0292C33.7966 14.1044 33.7107 14.1366 33.6034 14.1366H32.7769C32.6803 14.1366 32.5944 14.1044 32.53 14.0292C32.4548 13.9541 32.4226 13.8682 32.4226 13.7824V9.26331H32.3904ZM27.9895 4.14316V7.87862H32.3797V4.14316C32.3797 3.75674 32.1114 3.32737 31.5747 2.87654C31.038 2.41498 30.5764 2.18956 30.1792 2.18956C29.8035 2.18956 29.342 2.41498 28.7945 2.87654C28.2686 3.32737 27.9895 3.75674 27.9895 4.14316Z" fill="#4A38AE"/>
<path d="M41.805 13.7826V6.82689C41.805 6.50487 41.5903 6.17212 41.1717 5.82863C40.7531 5.48514 40.3988 5.31339 40.109 5.31339C39.8299 5.31339 39.4757 5.48514 39.0463 5.82863C38.6277 6.17212 38.413 6.50487 38.413 6.82689V13.7826C38.413 13.8899 38.3808 13.9758 38.3164 14.0402C38.252 14.1046 38.1661 14.1368 38.0588 14.1368H37.2538C37.0069 14.1368 36.8888 14.0187 36.8888 13.7718V6.60148C36.8888 6.02184 37.2752 5.43146 38.0588 4.81962C38.8424 4.20778 39.5186 3.90723 40.0983 3.90723C40.474 3.90723 40.9033 4.0575 41.3756 4.35806C41.8479 4.65861 42.2558 5.0021 42.5778 5.37779C42.8999 5.0021 43.3078 4.65861 43.7908 4.35806C44.2738 4.0575 44.7032 3.90723 45.0574 3.90723C45.6478 3.90723 46.3348 4.20778 47.1183 4.81962C47.9019 5.43146 48.2884 6.02184 48.2884 6.60148V13.7826C48.2884 13.8899 48.2562 13.9758 48.181 14.0402C48.1059 14.1046 48.02 14.1368 47.9341 14.1368H47.1291C46.8822 14.1368 46.7641 14.0187 46.7641 13.7718V6.82689C46.7641 6.50487 46.5494 6.17212 46.1308 5.82863C45.7122 5.48514 45.3472 5.31339 45.0467 5.31339C44.7676 5.31339 44.4134 5.48514 43.984 5.82863C43.5654 6.17212 43.3507 6.50487 43.3507 6.82689V13.7826C43.3507 14.0295 43.2326 14.1475 42.9857 14.1475H42.1807C42.0733 14.1475 41.9875 14.1153 41.9231 14.0509C41.8372 13.9758 41.805 13.8899 41.805 13.7826Z" fill="#4A38AE"/>
<path d="M52.6355 0.354224V4.9484C52.8931 4.66932 53.2151 4.42243 53.6016 4.20775C53.988 4.00381 54.3422 3.89646 54.675 3.89646C55.2439 3.89646 55.9094 4.19702 56.693 4.80886C57.4766 5.4207 57.863 6.03254 57.863 6.65512V11.5177C57.863 12.1188 57.4551 12.7413 56.6286 13.3639C55.8128 13.9865 55.0936 14.2978 54.471 14.2978C53.8377 14.2978 53.1185 13.9865 52.3135 13.3746C51.5084 12.7521 51.1005 12.1402 51.1005 11.5391V0.354224C51.1005 0.246883 51.1327 0.161011 51.1971 0.0966065C51.2615 0.0322021 51.3474 0 51.4547 0H52.2598C52.3671 0 52.453 0.0322021 52.5174 0.0966065C52.6033 0.161011 52.6355 0.246883 52.6355 0.354224ZM56.3173 6.88054C56.3173 6.54778 56.0919 6.19355 55.6518 5.83933C55.2117 5.48511 54.8145 5.30263 54.4818 5.30263C54.1597 5.30263 53.7733 5.48511 53.3117 5.83933C52.8502 6.19355 52.6248 6.53704 52.6248 6.85907V11.3137C52.6248 11.6357 52.8394 11.9792 53.2795 12.3442C53.7196 12.7091 54.1061 12.8916 54.4603 12.8916C54.8145 12.8916 55.2009 12.7091 55.6518 12.3549C56.0919 12.0007 56.3173 11.6572 56.3173 11.3137V6.88054Z" fill="#4A38AE"/>
<path d="M64.9696 4.54055L64.873 5.14166C64.8301 5.35634 64.6798 5.44221 64.4114 5.39928C64.1431 5.34561 63.9177 5.31341 63.7245 5.31341C63.4454 5.31341 63.0911 5.49589 62.6618 5.87158C62.2431 6.23654 62.0285 6.58003 62.0285 6.89131V13.7719C62.0285 14.0187 61.9104 14.1368 61.6635 14.1368H60.8584C60.7511 14.1368 60.6652 14.1046 60.6008 14.0402C60.5364 13.9758 60.5042 13.8899 60.5042 13.7826V6.68737C60.5042 6.09699 60.8906 5.48515 61.6528 4.86257C62.4149 4.24 63.0911 3.92871 63.6708 3.92871C64.0357 3.92871 64.3792 3.98238 64.7013 4.08972C64.9374 4.14339 65.0233 4.3044 64.9696 4.54055Z" fill="#4A38AE"/>
<path d="M67.7265 4.84109C68.5423 4.21852 69.2507 3.90723 69.8733 3.90723C70.4959 3.90723 71.2043 4.21851 72.0201 4.83036C72.8359 5.45293 73.2438 6.07551 73.2438 6.70882V11.5069C73.2438 12.1081 72.8359 12.7306 72.0094 13.3639C71.1936 13.9973 70.4744 14.3085 69.8733 14.3085C69.2507 14.3085 68.5423 13.9973 67.7265 13.3747C66.9107 12.7521 66.5028 12.1295 66.5028 11.5069V6.69809C66.5028 6.08624 66.9107 5.46367 67.7265 4.84109ZM71.7088 11.303V6.90203C71.7088 6.54781 71.4834 6.20432 71.0433 5.83936C70.6032 5.48513 70.2061 5.30266 69.8733 5.30266C69.5405 5.30266 69.1434 5.48513 68.7033 5.83936C68.2632 6.19358 68.0378 6.54781 68.0378 6.90203V11.2923C68.0378 11.6465 68.2525 11.99 68.6926 12.3549C69.1327 12.7092 69.5191 12.8916 69.8733 12.8916C70.2061 12.8916 70.6032 12.7092 71.0433 12.3549C71.4834 12.0007 71.7088 11.6465 71.7088 11.303Z" fill="#4A38AE"/>
<path d="M78.8582 5.31338C78.5898 5.31338 78.2356 5.47439 77.7955 5.80715C77.3554 6.1399 77.1407 6.42972 77.1407 6.69808V7.13817C77.1407 7.48166 77.4413 7.78222 78.0531 8.01837L80.3717 8.88783C81.3914 9.29572 81.9066 9.9183 81.9066 10.7663V11.7538C81.9066 12.2691 81.5202 12.8165 80.7474 13.4069C79.9745 13.9972 79.2875 14.2978 78.6972 14.2978C78.0746 14.2978 77.1622 13.9865 75.96 13.3747C75.6916 13.2244 75.6165 13.0204 75.7346 12.7736L75.96 12.2476C76.0673 12.0007 76.2713 11.947 76.5826 12.0866C77.656 12.6233 78.3644 12.8916 78.6972 12.8916C78.9762 12.8916 79.3305 12.7306 79.7598 12.4086C80.1785 12.0866 80.3931 11.7968 80.3931 11.5606V10.9702C80.3931 10.7448 80.3073 10.5516 80.1463 10.4013C79.9745 10.2511 79.7384 10.1115 79.4163 9.97197L77.1944 9.12397C76.1747 8.73755 75.6594 8.14717 75.6594 7.37432V6.50486C75.6594 5.96816 76.0566 5.39925 76.8616 4.79815C77.656 4.19704 78.3322 3.89648 78.8689 3.89648C79.47 3.89648 80.3502 4.1863 81.5095 4.76594C81.6061 4.80888 81.6705 4.87328 81.7134 4.98062C81.7564 5.07723 81.7456 5.18457 81.692 5.29191L81.488 5.83935C81.3699 6.09697 81.166 6.15064 80.8869 6.00036C79.8135 5.5388 79.148 5.31338 78.8582 5.31338Z" fill="#4A38AE"/>
<path d="M85.6739 4.42258V11.2816C85.6739 11.6466 85.8886 12.0008 86.3287 12.355C86.7688 12.7093 87.1552 12.8918 87.4879 12.8918C87.81 12.8918 88.1964 12.7093 88.6365 12.355C89.0766 12.0008 89.302 11.6359 89.302 11.2816V4.42258C89.302 4.17569 89.4201 4.05762 89.667 4.05762H90.472C90.5794 4.05762 90.6652 4.08982 90.7296 4.15422C90.794 4.21863 90.8262 4.3045 90.8262 4.41184V11.4856C90.8262 12.1189 90.4183 12.7415 89.6133 13.364C88.8082 13.9866 88.089 14.2872 87.4772 14.2872C86.8439 14.2872 86.1247 13.9759 85.3304 13.364C84.5253 12.7415 84.1282 12.1189 84.1282 11.4856V4.42258C84.1282 4.31523 84.1604 4.22936 84.2248 4.16496C84.2892 4.10055 84.3751 4.06835 84.4824 4.06835H85.2875C85.3948 4.06835 85.4807 4.10055 85.5451 4.16496C85.6417 4.22936 85.6739 4.31523 85.6739 4.42258Z" fill="#4A38AE"/>
<path d="M96.57 5.31338C96.3016 5.31338 95.9474 5.47439 95.5073 5.80715C95.0672 6.1399 94.8525 6.42972 94.8525 6.69808V7.13817C94.8525 7.48166 95.1531 7.78222 95.7649 8.01837L98.0835 8.88783C99.1032 9.29572 99.6184 9.9183 99.6184 10.7663V11.7538C99.6184 12.2691 99.232 12.8165 98.4592 13.4069C97.6863 13.9972 96.9993 14.2978 96.409 14.2978C95.7864 14.2978 94.874 13.9865 93.6718 13.3747C93.4034 13.2244 93.3283 13.0204 93.4464 12.7736L93.6718 12.2476C93.7791 12.0007 93.9831 11.947 94.2943 12.0866C95.3677 12.6233 96.0762 12.8916 96.409 12.8916C96.688 12.8916 97.0423 12.7306 97.4716 12.4086C97.8903 12.0866 98.1049 11.7968 98.1049 11.5606V10.9702C98.1049 10.7448 98.0191 10.5516 97.8581 10.4013C97.6863 10.2511 97.4502 10.1115 97.1281 9.97197L94.9062 9.12397C93.8864 8.73755 93.3712 8.14717 93.3712 7.37432V6.50486C93.3712 5.96816 93.7684 5.39925 94.5734 4.79815C95.3678 4.19704 96.044 3.89648 96.5807 3.89648C97.1818 3.89648 98.062 4.1863 99.2213 4.76594C99.3179 4.80888 99.3823 4.87328 99.4252 4.98062C99.4682 5.07723 99.4574 5.18457 99.4038 5.29191L99.1998 5.83935C99.0817 6.09697 98.8778 6.15064 98.5987 6.00036C97.5253 5.5388 96.849 5.31338 96.57 5.31338Z" fill="#4A38AE"/>
<path d="M70.6687 1.93215C70.6687 1.84627 70.6365 1.77113 70.5721 1.71746C70.5077 1.66379 70.4219 1.63159 70.3145 1.63159H69.5309C69.4236 1.63159 69.3377 1.66379 69.2733 1.71746C69.2089 1.77113 69.1767 1.84627 69.1767 1.93215V4.93768H70.6687V1.93215Z" fill="#4A38AE"/>
<path d="M69.1866 16.2406C69.1866 16.3265 69.2188 16.4017 69.2832 16.4553C69.3477 16.509 69.4335 16.5412 69.5409 16.5412H70.3245C70.4318 16.5412 70.5177 16.509 70.5821 16.4553C70.6465 16.4017 70.6787 16.3265 70.6787 16.2406V13.2351H69.1866V16.2406Z" fill="#4A38AE"/>
<path d="M15.9687 7.99691C15.8399 7.99691 15.7326 7.9003 15.7111 7.77149C15.3784 5.48514 13.5428 3.68181 11.2457 3.38126C11.1062 3.35979 10.9989 3.23098 11.0203 3.09144C11.0418 2.9519 11.1706 2.84456 11.3101 2.86602C13.8326 3.19878 15.8507 5.18458 16.2263 7.70709C16.2478 7.84663 16.1512 7.98618 16.0009 8.00764C16.0009 7.99691 15.9902 7.99691 15.9687 7.99691Z" fill="#4A38AE"/>
<path d="M14.6151 12.4729C14.5507 12.4729 14.4863 12.4515 14.4433 12.4085C14.336 12.3119 14.3253 12.1509 14.4219 12.0436C15.1625 11.2278 15.6134 10.2295 15.7422 9.14539C15.7636 9.00585 15.8924 8.89851 16.032 8.91998C16.1715 8.94145 16.2789 9.07025 16.2574 9.2098C16.1179 10.4013 15.6134 11.5069 14.8083 12.3978C14.7546 12.4515 14.6795 12.4729 14.6151 12.4729Z" fill="#4A38AE"/>
<path d="M11.287 14.2225C11.1582 14.2225 11.0508 14.1259 11.0294 13.9971C11.0079 13.8575 11.1152 13.718 11.2548 13.7073C12.1242 13.5892 12.9615 13.2564 13.6699 12.7305C13.788 12.6446 13.949 12.6661 14.0349 12.7841C14.1208 12.9022 14.0993 13.0632 13.9812 13.1491C13.1976 13.7287 12.2852 14.1044 11.3192 14.2332C11.3084 14.2225 11.2977 14.2225 11.287 14.2225Z" fill="#4A38AE"/>
<path d="M9.84859 14.2226C9.83785 14.2226 9.82712 14.2226 9.81639 14.2226C7.20801 13.8791 5.17927 11.8182 4.87872 9.2098C4.85725 9.07026 4.96459 8.94145 5.10413 8.91998C5.24368 8.89851 5.37249 9.00585 5.39395 9.14539C5.67304 11.5176 7.50856 13.3961 9.88079 13.7074C10.0203 13.7288 10.1277 13.8577 10.1062 13.9972C10.0955 14.126 9.9774 14.2226 9.84859 14.2226Z" fill="#4A38AE"/>
<path d="M5.15747 7.99681C5.14674 7.99681 5.136 7.99681 5.11453 7.99681C4.97499 7.97535 4.87838 7.84654 4.88912 7.69626C5.06086 6.53698 5.5761 5.46357 6.39189 4.60485C6.4885 4.49751 6.66024 4.49751 6.75685 4.59412C6.86419 4.69072 6.86419 4.86247 6.76758 4.95907C6.02693 5.74266 5.55463 6.70873 5.40435 7.7714C5.39362 7.90021 5.28628 7.99681 5.15747 7.99681Z" fill="#4A38AE"/>
<path d="M7.39162 4.34732C7.30574 4.34732 7.2306 4.30439 7.17693 4.23998C7.09106 4.12191 7.12326 3.9609 7.24134 3.87502C8.00346 3.33832 8.88366 2.9841 9.80679 2.86602C9.94633 2.84456 10.0859 2.9519 10.0966 3.09144C10.1181 3.23098 10.0107 3.37052 9.8712 3.38126C9.03394 3.4886 8.22888 3.81062 7.54189 4.30439C7.49896 4.33659 7.44529 4.34732 7.39162 4.34732Z" fill="#4A38AE"/>
<path d="M10.5689 13.171C8.01424 13.171 5.94257 11.0886 5.94257 8.54459C5.94257 5.98989 8.02497 3.91821 10.5689 3.91821C13.1236 3.91821 15.1953 6.00062 15.1953 8.54459C15.1953 11.0993 13.1236 13.171 10.5689 13.171ZM10.5689 4.43345C8.30406 4.43345 6.4578 6.27971 6.4578 8.54459C6.4578 10.8095 8.30406 12.6557 10.5689 12.6557C12.8338 12.6557 14.6801 10.8095 14.6801 8.54459C14.6694 6.27971 12.8338 4.43345 10.5689 4.43345Z" fill="#4A38AE"/>
<path d="M5.13794 9.6715C5.45213 9.6715 5.70684 9.4168 5.70684 9.1026C5.70684 8.7884 5.45213 8.53369 5.13794 8.53369C4.82374 8.53369 4.56903 8.7884 4.56903 9.1026C4.56903 9.4168 4.82374 9.6715 5.13794 9.6715Z" fill="#4A38AE"/>
<path d="M16.0211 8.37267C16.3353 8.37267 16.59 8.11796 16.59 7.80376C16.59 7.48957 16.3353 7.23486 16.0211 7.23486C15.7069 7.23486 15.4522 7.48957 15.4522 7.80376C15.4522 8.11796 15.7069 8.37267 16.0211 8.37267Z" fill="#4A38AE"/>
<path d="M12.0826 7.26719C12.0826 6.4514 11.4171 5.78589 10.6014 5.78589C9.78557 5.78589 9.12006 6.4514 9.12006 7.26719C9.12006 7.78243 9.37767 8.23326 9.78557 8.50161L9.80703 8.39427C9.83924 8.20106 10.0324 8.04005 10.2257 8.04005H10.977C11.181 8.04005 11.3635 8.20106 11.3957 8.39427L11.4171 8.50161C11.8143 8.23326 12.0826 7.78243 12.0826 7.26719Z" fill="#4A38AE"/>
<path d="M9.78484 8.50098L9.37695 10.9913C9.34474 11.1845 9.48429 11.3455 9.6775 11.3455H11.5238C11.7277 11.3455 11.8565 11.1845 11.8243 10.9913L11.4164 8.50098C11.1803 8.65125 10.9012 8.74786 10.6006 8.74786C10.3001 8.74786 10.021 8.65125 9.78484 8.50098Z" fill="#4A38AE"/>
<path d="M10.9771 8.02881H10.2257C10.0218 8.02881 9.83932 8.18982 9.80711 8.38303L9.78564 8.49037C10.0218 8.64065 10.3009 8.73726 10.6014 8.73726C10.902 8.73726 11.1811 8.65138 11.4172 8.49037L11.3958 8.38303C11.3636 8.18982 11.1811 8.02881 10.9771 8.02881Z" fill="#4A38AE"/>
<path d="M20.6478 9.01646C20.476 9.01646 20.3043 8.93059 20.2184 8.76958C20.1862 8.71591 17.127 3.35961 10.5685 3.35961C4.00997 3.35961 0.950759 8.71591 0.918557 8.76958C0.789748 9.00573 0.489195 9.0916 0.253045 8.96279C0.0168957 8.83398 -0.0689767 8.53343 0.0598321 8.29728C0.188641 8.06113 3.40886 2.38281 10.5685 2.38281C17.7174 2.38281 20.9376 8.06113 21.0771 8.29728C21.2059 8.53343 21.1201 8.83398 20.8839 8.96279C20.8088 8.995 20.7229 9.01646 20.6478 9.01646Z" fill="#4A38AE"/>
<path d="M10.5685 14.6733C3.41959 14.6733 0.199375 8.99494 0.0598321 8.75879C-0.0689767 8.52264 0.0168957 8.22209 0.253045 8.09328C0.489195 7.96447 0.789748 8.05034 0.918557 8.28649C0.950759 8.34016 4.00997 13.6965 10.5685 13.6965C17.127 13.6965 20.1862 8.34016 20.2184 8.28649C20.3472 8.05034 20.6478 7.96447 20.8839 8.09328C21.1201 8.22209 21.2059 8.52264 21.0771 8.75879C20.9376 9.00568 17.7174 14.6733 10.5685 14.6733Z" fill="#4A38AE"/>
<path d="M68.9648 21.2698C68.7404 21.2698 68.4582 21.4036 68.1181 21.6714C67.778 21.9319 67.6079 22.1744 67.6079 22.3987V22.9089C67.6079 23.2345 67.8539 23.4987 68.346 23.7013L69.92 24.3743C70.5134 24.6349 70.8101 25.0582 70.8101 25.6444V26.3825C70.8101 26.6792 70.5713 27.023 70.0937 27.4138C69.6161 27.8046 69.2108 27.9999 68.8779 27.9999C68.545 27.9999 67.9625 27.7792 67.1303 27.3378C67.0217 27.2799 66.9964 27.193 67.0543 27.0773L67.152 26.8819C67.2099 26.7806 67.2931 26.7588 67.4016 26.8167C68.0964 27.2148 68.5885 27.4138 68.8779 27.4138C69.095 27.4138 69.37 27.2799 69.7029 27.0121C70.0358 26.7371 70.2023 26.4983 70.2023 26.2957V25.7204C70.2023 25.3223 69.9707 25.0293 69.5075 24.8411L67.9878 24.1898C67.3293 23.8931 67 23.4915 67 22.9849V22.3227C67 21.9971 67.2424 21.6425 67.7273 21.2589C68.2194 20.8754 68.6319 20.6836 68.9648 20.6836C69.3411 20.6836 69.8875 20.8826 70.6039 21.2806C70.7197 21.3385 70.7486 21.4217 70.6907 21.5303L70.6039 21.7257C70.5532 21.827 70.4664 21.8451 70.3434 21.78C69.6776 21.4398 69.2181 21.2698 68.9648 21.2698Z" fill="#4A38AE"/>
<path d="M71.7322 20.7704H75.6291C75.7305 20.7704 75.7811 20.8211 75.7811 20.9224V21.1829C75.7811 21.2842 75.7305 21.3349 75.6291 21.3349H73.99V27.7611C73.99 27.8624 73.9357 27.9131 73.8272 27.9131H73.5233C73.4219 27.9131 73.3713 27.8624 73.3713 27.7611V21.3349H71.7322C71.6236 21.3349 71.5693 21.2842 71.5693 21.1829V20.9224C71.5693 20.8211 71.6236 20.7704 71.7322 20.7704Z" fill="#4A38AE"/>
<path d="M80.036 25.1776H77.3765V27.7611C77.3765 27.8046 77.3584 27.8407 77.3222 27.8697C77.2933 27.8986 77.2607 27.9131 77.2245 27.9131H76.9097C76.8084 27.9131 76.7577 27.8624 76.7577 27.7611V22.3661C76.7577 22.026 77.0002 21.6606 77.485 21.2698C77.9699 20.879 78.3788 20.6836 78.7117 20.6836C79.0518 20.6836 79.4607 20.879 79.9383 21.2698C80.4159 21.6606 80.6547 22.026 80.6547 22.3661V27.7611C80.6547 27.8624 80.6005 27.9131 80.4919 27.9131H80.188C80.1518 27.9131 80.1156 27.8986 80.0794 27.8697C80.0505 27.8407 80.036 27.8046 80.036 27.7611V25.1776ZM77.3765 22.4421V24.624H80.036V22.4421C80.036 22.2105 79.8732 21.9573 79.5475 21.6823C79.2219 21.4073 78.9432 21.2698 78.7117 21.2698C78.4801 21.2698 78.1979 21.4073 77.865 21.6823C77.5393 21.9573 77.3765 22.2105 77.3765 22.4421Z" fill="#4A38AE"/>
<path d="M83.0597 24.1355L85.5781 20.9007C85.636 20.8139 85.7156 20.7704 85.8169 20.7704H86.1317C86.1969 20.7704 86.2367 20.7958 86.2511 20.8464C86.2728 20.8971 86.262 20.955 86.2186 21.0201L83.7653 24.1572L86.186 27.6526C86.2222 27.7105 86.233 27.7684 86.2186 27.8263C86.2113 27.8842 86.1752 27.9131 86.11 27.9131H85.7627C85.6686 27.9131 85.5854 27.8661 85.513 27.772L83.3854 24.6457L83.0597 25.0474V27.7503C83.0597 27.8588 83.0018 27.9131 82.886 27.9131H82.6147C82.4989 27.9131 82.441 27.8588 82.441 27.7503V20.9333C82.441 20.8247 82.4989 20.7704 82.6147 20.7704H82.886C83.0018 20.7704 83.0597 20.8247 83.0597 20.9333V24.1355Z" fill="#4A38AE"/>
<path d="M88.1481 20.9224V27.7611C88.1481 27.8624 88.0974 27.9131 87.9961 27.9131H87.6813C87.58 27.9131 87.5293 27.8624 87.5293 27.7611V20.9224C87.5293 20.8211 87.58 20.7704 87.6813 20.7704H87.9961C88.0974 20.7704 88.1481 20.8211 88.1481 20.9224Z" fill="#4A38AE"/>
<path d="M93.3538 27.7611L90.5966 22.1925V27.7611C90.5966 27.8624 90.5459 27.9131 90.4446 27.9131H90.1407C90.1045 27.9131 90.0683 27.8986 90.0321 27.8697C90.0032 27.8407 89.9887 27.8046 89.9887 27.7611V20.9224C89.9887 20.8211 90.0393 20.7704 90.1407 20.7704H90.3795C90.4736 20.7704 90.5423 20.8211 90.5857 20.9224L93.3429 26.5128V20.9224C93.3429 20.8211 93.3936 20.7704 93.4949 20.7704H93.788C93.8965 20.7704 93.9508 20.8211 93.9508 20.9224V27.7611C93.9508 27.8624 93.8965 27.9131 93.788 27.9131H93.56C93.4732 27.9131 93.4044 27.8624 93.3538 27.7611Z" fill="#4A38AE"/>
<path d="M97.9689 24.4069V24.1572C97.9689 24.0559 98.0196 24.0053 98.1209 24.0053H99.3801C99.4235 24.0053 99.4705 24.0342 99.5212 24.0921C99.5791 24.1428 99.608 24.1898 99.608 24.2332V26.3283C99.608 26.6684 99.3692 27.0338 98.8916 27.4246C98.414 27.8082 98.0015 27.9999 97.6541 27.9999C97.3067 27.9999 96.8906 27.8082 96.4058 27.4246C95.9281 27.0338 95.6893 26.6684 95.6893 26.3283V22.3553C95.6893 22.0152 95.9281 21.6533 96.4058 21.2698C96.8906 20.879 97.3067 20.6836 97.6541 20.6836C98.0232 20.6836 98.5659 20.9079 99.2824 21.3566C99.3764 21.4145 99.3982 21.4905 99.3475 21.5846L99.2498 21.78C99.1919 21.874 99.1087 21.8921 99.0001 21.8342C98.3778 21.4579 97.9291 21.2698 97.6541 21.2698C97.4225 21.2698 97.1403 21.4073 96.8074 21.6823C96.4745 21.95 96.3081 22.1997 96.3081 22.4313V26.2523C96.3081 26.4911 96.4709 26.7444 96.7965 27.0121C97.1294 27.2799 97.4153 27.4138 97.6541 27.4138C97.8857 27.4138 98.1643 27.2799 98.4899 27.0121C98.8228 26.7371 98.9893 26.4838 98.9893 26.2523V24.5589H98.1209C98.0196 24.5589 97.9689 24.5082 97.9689 24.4069Z" fill="#4A38AE"/>
</svg>
