<svg width="132" height="23" viewBox="0 0 132 23" fill="none" xmlns="http://www.w3.org/2000/svg">
<path fill-rule="evenodd" clip-rule="evenodd" d="M20.5703 22.6854C15.7489 22.6197 11.4265 19.4267 10.0153 14.7183C9.62755 14.562 9.32397 14.2195 9.23626 13.7788C9.09807 13.0842 9.54939 12.4093 10.2441 12.2709C10.9386 12.1328 11.6139 12.584 11.7519 13.2786C11.8306 13.6747 11.718 14.064 11.4777 14.3515C12.7177 18.3823 16.4294 21.113 20.5703 21.1789C21.1402 21.1687 21.7174 21.1078 22.2963 20.9928C26.3852 20.1798 29.3567 16.9036 29.9755 13.0143C29.9885 12.9327 30.0003 12.8507 30.0114 12.7685C30.1525 11.6953 31.6343 11.8933 31.5241 12.8215C30.9659 17.5023 27.4647 21.5009 22.5901 22.4702C21.9124 22.6048 21.2375 22.6749 20.5703 22.6854ZM31.0183 18.4373C32.3959 17.7089 33.7421 16.8323 35.0438 15.805C36.4335 14.7083 37.5582 13.6804 38.7349 12.3572C39.4643 11.5369 39.4643 11.3239 38.7349 10.5034C37.5583 9.18023 36.4335 8.15231 35.0438 7.05563C33.7018 5.99664 32.3125 5.09768 30.8903 4.35615C30.1878 3.32224 29.3365 2.39772 28.368 1.61217C31.0065 2.5477 33.5701 3.96556 35.981 5.86817C37.3564 6.95353 38.5527 8.07724 39.6741 9.30902C41.6299 11.4568 41.6299 11.4037 39.6741 13.5513C38.5526 14.7831 37.3564 15.9066 35.981 16.9921C33.6515 18.8303 31.1795 20.2162 28.6351 21.1517C29.552 20.3658 30.3555 19.4518 31.0183 18.4373ZM10.1226 18.4373C8.74513 17.7089 7.39878 16.8323 6.09708 15.805C4.70736 14.7083 3.5827 13.6804 2.40593 12.3572C1.6766 11.5369 1.6766 11.3239 2.40593 10.5034C3.58253 9.18023 4.70719 8.15231 6.09708 7.05563C7.43907 5.99664 8.82831 5.09768 10.2506 4.35615C10.953 3.32224 11.8044 2.39772 12.7729 1.61217C10.1344 2.5477 7.57079 3.96556 5.15997 5.86817C3.78449 6.95353 2.5883 8.07724 1.46671 9.30902C-0.488904 11.4568 -0.488904 11.4037 1.46671 13.5513C2.58846 14.7831 3.78449 15.9066 5.15997 16.9921C7.4894 18.8303 9.96139 20.2162 12.5057 21.1517C11.5887 20.3658 10.7852 19.4518 10.1226 18.4373ZM20.5703 16.6353C18.046 16.6353 18.1512 16.8213 18.3735 15.6736L19.1733 11.544C18.3714 11.0487 17.8371 10.1619 17.8371 9.1503C17.8371 7.62371 19.0538 6.38141 20.5704 6.33966C22.0872 6.38141 23.3038 7.62371 23.3038 9.1503C23.3038 10.1619 22.7694 11.0487 21.9676 11.544L22.7672 15.6736C22.9895 16.8213 23.0945 16.6353 20.5703 16.6353ZM20.5703 3.69649C24.8768 3.69649 28.368 7.18701 28.368 11.493C28.368 15.799 24.877 19.2897 20.5703 19.2897C16.2637 19.2897 12.7726 15.799 12.7726 11.493C12.7726 7.18701 16.2639 3.69649 20.5703 3.69649ZM20.5703 0.300781C25.3917 0.366472 29.714 3.55928 31.1254 8.26767C31.5131 8.42397 31.8167 8.76651 31.9043 9.20725C32.0425 9.90186 31.5911 10.5769 30.8964 10.7149C30.2017 10.8531 29.5266 10.402 29.3886 9.70738C29.3099 9.31145 29.4227 8.922 29.6627 8.63448C28.4228 4.6037 24.711 1.873 20.5703 1.80714C20.0003 1.81734 19.4233 1.87817 18.8443 1.99338C14.7554 2.80626 11.784 6.08256 11.165 9.97192C11.1519 10.0535 11.1401 10.1355 11.1291 10.2177C10.9878 11.2909 9.50602 11.0929 9.61622 10.1646C10.1747 5.4839 13.6757 1.48532 18.5502 0.516138C19.2281 0.381358 19.9034 0.311298 20.5703 0.300781Z" fill="white"/>
<path fill-rule="evenodd" clip-rule="evenodd" d="M83.375 6.33901C82.6249 7.15252 81.748 7.64907 80.3745 7.64907C78.2193 7.64907 76.6134 5.96923 76.6134 3.84567V3.82454C76.6134 1.7221 78.1876 0 80.4168 0C81.7902 0 82.6143 0.475425 83.3222 1.15159L82.4875 2.113C81.8853 1.56362 81.262 1.20441 80.4062 1.20441C79.0116 1.20441 77.9763 2.356 77.9763 3.80341V3.82454C77.9763 5.27194 79.0011 6.44466 80.4168 6.44466C81.3148 6.44466 81.9064 6.08545 82.5403 5.49381L83.375 6.33901ZM50.2886 7.52229H51.6198L52.2628 6.013H52.2567L52.8798 4.51755H52.8849L54.1237 1.62701L55.402 4.58522H55.4004L55.9953 6.013H55.9935L56.6276 7.52229H58.001L54.747 0.0739548H53.5426L50.2886 7.52229ZM64.2876 7.52229H65.5871V4.94443H67.2141L69.0313 7.52229H70.5738L68.577 4.72256C69.6018 4.42674 70.3308 3.69776 70.3308 2.48278V2.46165C70.3308 1.81718 70.109 1.27837 69.7181 0.866331C69.2426 0.40147 68.5136 0.12678 67.5839 0.12678H64.2876V7.52229ZM65.5871 3.79284V1.31006H67.4783C68.4502 1.31006 69.0102 1.73266 69.0102 2.5356V2.55673C69.0102 3.31741 68.4186 3.79284 67.4888 3.79284H65.5871ZM89.1253 7.52229H90.4565L91.2172 5.7368H94.7142L95.4643 7.52229H96.8378L93.5838 0.0739548H92.3793L89.1253 7.52229ZM91.6926 4.58522L92.9604 1.62701L94.2388 4.58522H91.6926ZM105.882 7.52229H103.124V0.12678H105.882C108.206 0.12678 109.812 1.7221 109.812 3.80341V3.82454C109.812 5.90584 108.206 7.52229 105.882 7.52229ZM108.449 3.82454C108.449 2.37713 107.435 1.31006 105.882 1.31006H104.424V6.33901H105.882C107.435 6.33901 108.449 5.29307 108.449 3.84567V3.82454ZM116.481 7.52229H117.78V0.12678H116.481V7.52229ZM125.476 7.52229H124.145L127.399 0.0739548H128.603L131.857 7.52229H130.484L129.734 5.7368H127.985H126.237L125.476 7.52229ZM127.98 1.62701L126.712 4.58522H129.258L127.98 1.62701Z" fill="white"/>
<path d="M54.0151 20.2305C55.6109 20.2305 56.7291 19.3946 56.7291 17.9616V17.9399C56.7291 16.6698 55.8932 16.127 54.2974 15.7145C52.8318 15.3671 52.4844 15.1065 52.4844 14.5203V14.4986C52.4844 13.9884 52.9404 13.5976 53.722 13.5976C54.4168 13.5976 55.0899 13.869 55.7846 14.3792L56.5011 13.3696C55.7195 12.7508 54.8619 12.4143 53.7437 12.4143C52.2348 12.4143 51.1492 13.3153 51.1492 14.618V14.6397C51.1492 16.0293 52.0611 16.5287 53.6786 16.9086C55.0899 17.2234 55.3938 17.5383 55.3938 18.0702V18.0919C55.3938 18.6564 54.8727 19.0472 54.0477 19.0472C53.1032 19.0472 52.3867 18.6998 51.6485 18.0593L50.8452 19.0147C51.7571 19.8397 52.8427 20.2305 54.0151 20.2305Z" fill="white"/>
<path d="M65.4352 20.122H66.7705V13.7604H69.1914V12.5228H63.0144V13.7604H65.4352V20.122Z" fill="white"/>
<path d="M74.3877 20.122H75.7555L76.5371 18.2873H80.1304L80.9012 20.122H82.3125L78.9688 12.4686H77.7313L74.3877 20.122ZM77.0256 17.104L78.3284 14.0644L79.6419 17.104H77.0256Z" fill="white"/>
<path d="M89.0435 20.122H90.3788V17.9182L91.5621 16.7024L94.1566 20.122H95.785L92.474 15.7905L95.6439 12.5228H93.9829L90.3788 16.3441V12.5228H89.0435V20.122Z" fill="white"/>
<path d="M102.424 20.122H103.76V12.5228H102.424V20.122Z" fill="white"/>
<path d="M111.222 20.122H112.535V14.7157L116.726 20.122H117.844V12.5228H116.53V17.7771L112.459 12.5228H111.222V20.122Z" fill="white"/>
<path d="M128.83 20.2522C130.176 20.2522 131.24 19.7094 132 19.0689V15.8773H128.765V17.0497H130.708V18.461C130.242 18.8084 129.601 19.0364 128.874 19.0364C127.321 19.0364 126.29 17.8856 126.29 16.3224V16.3007C126.29 14.846 127.365 13.6301 128.754 13.6301C129.71 13.6301 130.296 13.9341 130.882 14.4335L131.729 13.4239C130.947 12.7617 130.122 12.3926 128.809 12.3926C126.507 12.3926 124.89 14.1947 124.89 16.3224V16.3441C124.89 18.5587 126.453 20.2522 128.83 20.2522Z" fill="white"/>
</svg>
