<svg width="224" height="38" viewBox="0 0 224 38" fill="none" xmlns="http://www.w3.org/2000/svg">
<path fill-rule="evenodd" clip-rule="evenodd" d="M34.9071 38C26.7255 37.8885 19.3905 32.4681 16.9956 24.4752C16.3377 24.2098 15.8225 23.6284 15.6737 22.8801C15.4391 21.701 16.205 20.5553 17.3839 20.3205C18.5625 20.0859 19.7085 20.852 19.9427 22.0311C20.0762 22.7035 19.885 23.3644 19.4772 23.8525C21.5815 30.6951 27.8802 35.3307 34.9071 35.4425C35.8743 35.4252 36.8538 35.3219 37.8361 35.1267C44.7748 33.7464 49.8174 28.1849 50.8675 21.5823C50.8895 21.4439 50.9096 21.3046 50.9285 21.1651C51.168 19.3432 53.6825 19.6794 53.4955 21.2552C52.5481 29.2012 46.6067 35.9891 38.3348 37.6347C37.1847 37.8632 36.0393 37.9821 34.9071 38ZM52.6371 30.7885C54.9748 29.5519 57.2593 28.0638 59.4682 26.3199C61.8265 24.4581 63.7351 22.7131 65.732 20.4669C66.9697 19.0743 66.9697 18.7128 65.732 17.32C63.7353 15.0737 61.8265 13.3287 59.4682 11.467C57.1909 9.66927 54.8334 8.14319 52.4199 6.88437C51.2278 5.12922 49.7831 3.55974 48.1396 2.22621C52.6171 3.81436 56.9674 6.22131 61.0587 9.45118C63.3926 11.2937 65.4228 13.2013 67.3258 15.2923C70.6447 18.9383 70.6447 18.8482 67.3258 22.494C65.4225 24.585 63.3926 26.4924 61.0587 28.3351C57.1055 31.4557 52.9106 33.8082 48.593 35.3964C50.1489 34.0623 51.5123 32.5107 52.6371 30.7885ZM17.1777 30.7885C14.8402 29.5519 12.5555 28.0638 10.3466 26.3199C7.98824 24.4581 6.07972 22.7131 4.08278 20.4669C2.84513 19.0743 2.84513 18.7128 4.08278 17.32C6.07945 15.0737 7.98797 13.3287 10.3466 11.467C12.6239 9.66927 14.9814 8.14319 17.3949 6.88437C18.587 5.12922 20.0317 3.55974 21.6752 2.22621C17.1977 3.81436 12.8474 6.22131 8.75632 9.45118C6.42216 11.2937 4.39227 13.2013 2.48897 15.2923C-0.829656 18.9383 -0.829656 18.8482 2.48897 22.494C4.39254 24.585 6.42216 26.4924 8.75632 28.3351C12.7093 31.4557 16.9042 33.8082 21.2218 35.3964C19.6656 34.0623 18.3022 32.5107 17.1777 30.7885ZM34.9071 27.7295C30.6235 27.7295 30.802 28.0451 31.1793 26.0968L32.5364 19.0864C31.1758 18.2456 30.269 16.7401 30.269 15.0229C30.269 12.4314 32.3338 10.3224 34.9074 10.2516C37.4813 10.3224 39.5458 12.4314 39.5458 15.0229C39.5458 16.7401 38.639 18.2456 37.2783 19.0864L38.6352 26.0968C39.0125 28.0451 39.1907 27.7295 34.9071 27.7295ZM34.9071 5.76453C42.2152 5.76453 48.1396 11.69 48.1396 18.9999C48.1396 26.3097 42.2155 32.2355 34.9071 32.2355C27.599 32.2355 21.6746 26.3097 21.6746 18.9999C21.6746 11.69 27.5993 5.76453 34.9071 5.76453ZM34.9071 0C43.089 0.111517 50.4238 5.53161 52.8189 13.5246C53.4768 13.7899 53.992 14.3714 54.1406 15.1196C54.3751 16.2987 53.6092 17.4447 52.4303 17.679C51.2514 17.9135 50.1058 17.1478 49.8715 15.9686C49.7381 15.2965 49.9295 14.6353 50.3367 14.1472C48.2327 7.30462 41.9338 2.66898 34.9071 2.55719C33.9399 2.5745 32.9607 2.67777 31.9782 2.87334C25.0394 4.25329 19.9971 9.81512 18.9467 16.4177C18.9245 16.5561 18.9044 16.6954 18.8857 16.8349C18.646 18.6568 16.1314 18.3206 16.3184 16.7448C17.2661 8.79883 23.2072 2.01087 31.4792 0.365588C32.6295 0.136787 33.7755 0.0178537 34.9071 0Z" fill="white"/>
<path d="M91.6616 36.1689C94.3696 36.1689 96.2671 34.7499 96.2671 32.3173V32.2804C96.2671 30.1243 94.8486 29.2028 92.1406 28.5025C89.6536 27.9128 89.0641 27.4705 89.0641 26.4753V26.4385C89.0641 25.5723 89.8378 24.9089 91.1642 24.9089C92.3432 24.9089 93.4854 25.3696 94.6644 26.2358L95.8802 24.5219C94.5539 23.4714 93.0985 22.9001 91.201 22.9001C88.6404 22.9001 86.7982 24.4297 86.7982 26.6412V26.6781C86.7982 29.0369 88.3456 29.8847 91.0905 30.5297C93.4854 31.0641 94.0012 31.5986 94.0012 32.5016V32.5384C94.0012 33.4967 93.1169 34.1602 91.7169 34.1602C90.1141 34.1602 88.8983 33.5704 87.6456 32.4831L86.2823 34.1049C87.8298 35.5055 89.672 36.1689 91.6616 36.1689Z" fill="white"/>
<path d="M111.041 35.9846H113.307V25.1853H117.415V23.0844H106.933V25.1853H111.041V35.9846Z" fill="white"/>
<path d="M126.233 35.9846H128.554L129.881 32.8701H135.978L137.286 35.9846H139.681L134.007 22.9923H131.907L126.233 35.9846ZM130.71 30.8614L132.92 25.7013L135.149 30.8614H130.71Z" fill="white"/>
<path d="M151.104 35.9846H153.37V32.2436L155.378 30.1795L159.78 35.9846H162.544L156.925 28.6315L162.304 23.0844H159.486L153.37 29.5714V23.0844H151.104V35.9846Z" fill="white"/>
<path d="M173.81 35.9846H176.076V23.0844H173.81V35.9846Z" fill="white"/>
<path d="M188.739 35.9846H190.968V26.8071L198.079 35.9846H199.977V23.0844H197.748V32.004L190.84 23.0844H188.739V35.9846Z" fill="white"/>
<path d="M218.621 36.2058C220.905 36.2058 222.71 35.2843 224 34.197V28.7789H218.51V30.7693H221.808V33.165C221.016 33.7547 219.929 34.1417 218.694 34.1417C216.06 34.1417 214.31 32.1883 214.31 29.5345V29.4977C214.31 27.0282 216.134 24.9642 218.492 24.9642C220.113 24.9642 221.108 25.4802 222.102 26.3279L223.539 24.614C222.213 23.4899 220.813 22.8633 218.584 22.8633C214.678 22.8633 211.933 25.9225 211.933 29.5345V29.5714C211.933 33.3309 214.586 36.2058 218.621 36.2058Z" fill="white"/>
<path fill-rule="evenodd" clip-rule="evenodd" d="M141.58 10.7502C140.308 12.1298 138.822 12.9719 136.494 12.9719C132.84 12.9719 130.117 10.1231 130.117 6.52178V6.48595C130.117 2.92047 132.786 0 136.565 0C138.894 0 140.291 0.806263 141.491 1.95295L140.076 3.58339C139.055 2.65171 137.998 2.04253 136.547 2.04253C134.183 2.04253 132.428 3.99549 132.428 6.45011V6.48595C132.428 8.94057 134.165 10.9294 136.565 10.9294C138.088 10.9294 139.091 10.3202 140.165 9.31683L141.58 10.7502ZM85.4902 12.7569H87.7469L88.8375 10.1961H88.8269L89.8833 7.65996H89.8922L91.9917 2.75921L94.1589 7.77597H94.1569L95.1649 10.1961H95.161L96.2365 12.7569H98.5648L93.0484 0.125418H91.0066L85.4902 12.7569ZM109.222 12.7569H111.425V8.38514H114.183L117.264 12.7569H119.879L116.494 8.00889C118.231 7.50721 119.467 6.27094 119.467 4.21049V4.17465C119.467 3.08172 119.091 2.16795 118.428 1.46919C117.622 0.680845 116.386 0.215003 114.81 0.215003H109.222V12.7569ZM111.425 6.43219V2.22171H114.631C116.279 2.22171 117.228 2.93838 117.228 4.30007V4.33591C117.228 5.62593 116.225 6.43219 114.649 6.43219H111.425ZM151.328 12.7569H153.585L154.673 10.2019H154.668L155.724 7.66579H155.728L157.83 2.75921L159.997 7.77597H159.995L161.006 10.2019H161.002L162.075 12.7569H164.403L158.887 0.125418H156.845L151.328 12.7569ZM179.735 12.7569H175.06V0.215003H179.735C183.675 0.215003 186.398 2.92047 186.398 6.45011V6.48595C186.398 10.0156 183.675 12.7569 179.735 12.7569ZM184.087 6.48595C184.087 4.03132 182.368 2.22171 179.735 2.22171H177.263V10.7502H179.735C182.368 10.7502 184.087 8.97641 184.087 6.52178V6.48595ZM197.703 12.7569H199.906V0.215003H197.703V12.7569ZM212.952 12.7569H210.695L216.211 0.125418H218.253L223.77 12.7569H221.441L220.17 9.72892H220.169L219.355 7.77597H219.364L217.196 2.75921L215.047 7.77597H215.054L214.206 9.81124L212.952 12.7569Z" fill="white"/>
</svg>
