<svg width="171" height="48" viewBox="0 0 171 48" fill="none" xmlns="http://www.w3.org/2000/svg">
<path d="M55.5268 15.8801H48.0006V23.627C48.0006 23.811 47.9454 23.9582 47.8166 24.0686C47.6878 24.179 47.5406 24.2342 47.3934 24.2342H45.9397C45.7557 24.2342 45.6085 24.179 45.4797 24.0502C45.3509 23.9214 45.2957 23.7742 45.2957 23.627V6.75304C45.2957 5.63057 46.0869 4.41608 47.6878 3.1464C49.2703 1.85831 50.632 1.23267 51.7729 1.23267C52.8954 1.23267 54.2571 1.87671 55.858 3.1464C57.4405 4.41608 58.2501 5.63057 58.2501 6.75304V23.627C58.2501 23.7926 58.1949 23.9398 58.0661 24.0502C57.9373 24.179 57.7901 24.2342 57.6061 24.2342H56.1892C56.0236 24.2342 55.8764 24.179 55.766 24.0502C55.6372 23.9214 55.582 23.7742 55.582 23.627V15.8801H55.5268ZM47.9822 7.10267V13.5063H55.5083V7.10267C55.5083 6.44022 55.0483 5.70417 54.1283 4.93132C53.2082 4.14006 52.4169 3.75364 51.7361 3.75364C51.092 3.75364 50.3008 4.14006 49.3623 4.93132C48.4607 5.70417 47.9822 6.44022 47.9822 7.10267Z" fill="white"/>
<path d="M71.6656 23.6272V11.7031C71.6656 11.1511 71.2975 10.5807 70.5799 9.99182C69.8622 9.40298 69.255 9.10856 68.7582 9.10856C68.2797 9.10856 67.6725 9.40298 66.9364 9.99182C66.2188 10.5807 65.8508 11.1511 65.8508 11.7031V23.6272C65.8508 23.8112 65.7956 23.9584 65.6852 24.0688C65.5747 24.1792 65.4275 24.2344 65.2435 24.2344H63.8634C63.4402 24.2344 63.2378 24.032 63.2378 23.6088V11.3167C63.2378 10.323 63.9002 9.31098 65.2435 8.2621C66.5868 7.21323 67.7461 6.698 68.7398 6.698C69.3838 6.698 70.1199 6.95562 70.9295 7.47085C71.7392 7.98609 72.4384 8.57493 72.9904 9.21897C73.5425 8.57493 74.2417 7.98609 75.0698 7.47085C75.8978 6.95562 76.6339 6.698 77.2411 6.698C78.2532 6.698 79.4309 7.21323 80.7742 8.2621C82.1175 9.31098 82.7799 10.323 82.7799 11.3167V23.6272C82.7799 23.8112 82.7247 23.9584 82.5959 24.0688C82.4671 24.1792 82.3199 24.2344 82.1727 24.2344H80.7926C80.3693 24.2344 80.1669 24.032 80.1669 23.6088V11.7031C80.1669 11.1511 79.7989 10.5807 79.0813 9.99182C78.3636 9.40298 77.738 9.10856 77.2227 9.10856C76.7443 9.10856 76.1371 9.40298 75.401 9.99182C74.6834 10.5807 74.3153 11.1511 74.3153 11.7031V23.6272C74.3153 24.0504 74.1129 24.2528 73.6897 24.2528H72.3096C72.1256 24.2528 71.9784 24.1976 71.868 24.0872C71.7208 23.9584 71.6656 23.8112 71.6656 23.6272Z" fill="white"/>
<path d="M90.2322 0.607241V8.48298C90.6738 8.00454 91.2259 7.58131 91.8883 7.21329C92.5508 6.86366 93.158 6.67965 93.7284 6.67965C94.7037 6.67965 95.8446 7.19489 97.1879 8.24376C98.5312 9.29263 99.1936 10.3415 99.1936 11.4088V19.7445C99.1936 20.775 98.4944 21.8423 97.0775 22.9096C95.679 23.9768 94.4461 24.5105 93.3788 24.5105C92.2931 24.5105 91.0603 23.9768 89.6802 22.928C88.3001 21.8607 87.6008 20.8118 87.6008 19.7813V0.607241C87.6008 0.423229 87.656 0.276019 87.7664 0.165611C87.8768 0.0552037 88.0241 0 88.2081 0H89.5882C89.7722 0 89.9194 0.0552037 90.0298 0.165611C90.177 0.276019 90.2322 0.423229 90.2322 0.607241ZM96.5438 11.7952C96.5438 11.2248 96.1574 10.6175 95.4029 10.0103C94.6485 9.40304 93.9677 9.09021 93.3972 9.09021C92.8452 9.09021 92.1827 9.40304 91.3915 10.0103C90.6002 10.6175 90.2138 11.2064 90.2138 11.7584V19.3949C90.2138 19.947 90.5818 20.5358 91.3363 21.1614C92.0907 21.7871 92.7532 22.0999 93.3604 22.0999C93.9677 22.0999 94.6301 21.7871 95.4029 21.1798C96.1574 20.5726 96.5438 19.9838 96.5438 19.3949V11.7952Z" fill="white"/>
<path d="M111.376 7.78398L111.211 8.81445C111.137 9.18247 110.88 9.32968 110.42 9.25608C109.96 9.16407 109.573 9.10887 109.242 9.10887C108.763 9.10887 108.156 9.42169 107.42 10.0657C106.702 10.6914 106.334 11.2802 106.334 11.8139V23.6091C106.334 24.0323 106.132 24.2347 105.709 24.2347H104.329C104.145 24.2347 103.997 24.1795 103.887 24.0691C103.777 23.9587 103.721 23.8115 103.721 23.6275V11.4642C103.721 10.4522 104.384 9.40329 105.69 8.33602C106.997 7.26874 108.156 6.73511 109.15 6.73511C109.775 6.73511 110.364 6.82711 110.916 7.01113C111.321 7.10313 111.468 7.37915 111.376 7.78398Z" fill="white"/>
<path d="M116.103 8.29891C117.501 7.23164 118.716 6.698 119.783 6.698C120.85 6.698 122.065 7.23163 123.463 8.28051C124.862 9.34778 125.561 10.4151 125.561 11.5007V19.7261C125.561 20.7566 124.862 21.8238 123.445 22.9095C122.046 23.9952 120.813 24.5288 119.783 24.5288C118.716 24.5288 117.501 23.9952 116.103 22.9279C114.704 21.8606 114.005 20.7934 114.005 19.7261V11.4823C114.005 10.4335 114.704 9.36618 116.103 8.29891ZM122.929 19.3765V11.832C122.929 11.2247 122.543 10.6359 121.789 10.0102C121.034 9.40298 120.353 9.09016 119.783 9.09016C119.212 9.09016 118.532 9.40298 117.777 10.0102C117.023 10.6175 116.636 11.2247 116.636 11.832V19.3581C116.636 19.9653 117.004 20.5541 117.759 21.1798C118.513 21.787 119.176 22.0999 119.783 22.0999C120.353 22.0999 121.034 21.787 121.789 21.1798C122.543 20.5725 122.929 19.9653 122.929 19.3765Z" fill="white"/>
<path d="M135.185 9.10865C134.725 9.10865 134.118 9.38467 133.363 9.95511C132.609 10.5255 132.241 11.0224 132.241 11.4824V12.2369C132.241 12.8257 132.756 13.3409 133.805 13.7458L137.78 15.2363C139.528 15.9355 140.411 17.0028 140.411 18.4565V20.1494C140.411 21.0327 139.749 21.9711 138.424 22.9832C137.099 23.9953 135.921 24.5105 134.909 24.5105C133.842 24.5105 132.278 23.9769 130.217 22.928C129.757 22.6704 129.628 22.3208 129.83 21.8975L130.217 20.9959C130.401 20.5726 130.751 20.4806 131.284 20.7198C133.124 21.6399 134.339 22.0999 134.909 22.0999C135.388 22.0999 135.995 21.8239 136.731 21.2719C137.449 20.7198 137.817 20.223 137.817 19.8182V18.8061C137.817 18.4197 137.669 18.0885 137.393 17.8308C137.099 17.5732 136.694 17.334 136.142 17.0948L132.333 15.6411C130.585 14.9787 129.702 13.9666 129.702 12.6417V11.1512C129.702 10.2311 130.383 9.25586 131.763 8.22539C133.124 7.19492 134.284 6.67969 135.204 6.67969C136.234 6.67969 137.743 7.17652 139.73 8.17019C139.896 8.24379 140.006 8.3542 140.08 8.53821C140.154 8.70382 140.135 8.88784 140.043 9.07185L139.694 10.0103C139.491 10.4519 139.141 10.544 138.663 10.2863C136.823 9.49508 135.682 9.10865 135.185 9.10865Z" fill="white"/>
<path d="M146.87 7.5817V19.3401C146.87 19.9657 147.238 20.573 147.992 21.1802C148.746 21.7875 149.409 22.1003 149.979 22.1003C150.531 22.1003 151.194 21.7875 151.948 21.1802C152.703 20.573 153.089 19.9473 153.089 19.3401V7.5817C153.089 7.15847 153.292 6.95605 153.715 6.95605H155.095C155.279 6.95605 155.426 7.01126 155.536 7.12167C155.647 7.23207 155.702 7.37928 155.702 7.5633V19.6897C155.702 20.7754 155.003 21.8427 153.623 22.9099C152.243 23.9772 151.01 24.4924 149.961 24.4924C148.875 24.4924 147.642 23.9588 146.281 22.9099C144.901 21.8427 144.22 20.7754 144.22 19.6897V7.5817C144.22 7.39768 144.275 7.25047 144.385 7.14007C144.496 7.02966 144.643 6.97446 144.827 6.97446H146.207C146.391 6.97446 146.538 7.02966 146.649 7.14007C146.814 7.25047 146.87 7.39768 146.87 7.5817Z" fill="white"/>
<path d="M165.549 9.10865C165.088 9.10865 164.481 9.38467 163.727 9.95511C162.972 10.5255 162.604 11.0224 162.604 11.4824V12.2369C162.604 12.8257 163.12 13.3409 164.168 13.7458L168.143 15.2363C169.891 15.9355 170.774 17.0028 170.774 18.4565V20.1494C170.774 21.0327 170.112 21.9711 168.787 22.9832C167.462 23.9953 166.285 24.5105 165.272 24.5105C164.205 24.5105 162.641 23.9769 160.58 22.928C160.12 22.6704 159.991 22.3208 160.194 21.8975L160.58 20.9959C160.764 20.5726 161.114 20.4806 161.647 20.7198C163.488 21.6399 164.702 22.0999 165.272 22.0999C165.751 22.0999 166.358 21.8239 167.094 21.2719C167.812 20.7198 168.18 20.223 168.18 19.8182V18.8061C168.18 18.4197 168.033 18.0885 167.757 17.8308C167.462 17.5732 167.057 17.334 166.505 17.0948L162.696 15.6411C160.948 14.9787 160.065 13.9666 160.065 12.6417V11.1512C160.065 10.2311 160.746 9.25586 162.126 8.22539C163.488 7.19492 164.647 6.67969 165.567 6.67969C166.597 6.67969 168.106 7.17652 170.094 8.17019C170.259 8.24379 170.37 8.3542 170.443 8.53821C170.517 8.70382 170.498 8.88784 170.406 9.07185L170.057 10.0103C169.854 10.4519 169.505 10.544 169.026 10.2863C167.186 9.49508 166.027 9.10865 165.549 9.10865Z" fill="white"/>
<path d="M121.146 3.31235C121.146 3.16514 121.091 3.03634 120.981 2.94433C120.87 2.85232 120.723 2.79712 120.539 2.79712H119.196C119.012 2.79712 118.865 2.85232 118.754 2.94433C118.644 3.03634 118.589 3.16514 118.589 3.31235V8.4647H121.146V3.31235Z" fill="white"/>
<path d="M118.606 27.8411C118.606 27.9883 118.661 28.1171 118.771 28.2091C118.882 28.3011 119.029 28.3563 119.213 28.3563H120.556C120.74 28.3563 120.887 28.3011 120.998 28.2091C121.108 28.1171 121.163 27.9883 121.163 27.8411V22.6887H118.606V27.8411Z" fill="white"/>
<path d="M27.3749 13.7089C27.1541 13.7089 26.9701 13.5433 26.9333 13.3225C26.3628 9.40305 23.2162 6.31164 19.2783 5.79641C19.0391 5.75961 18.8551 5.53879 18.8919 5.29957C18.9287 5.06036 19.1495 4.87635 19.3887 4.91315C23.713 5.48359 27.1725 8.88782 27.8165 13.2121C27.8533 13.4513 27.6877 13.6905 27.4301 13.7274C27.4301 13.709 27.4117 13.7089 27.3749 13.7089Z" fill="white"/>
<path d="M25.0546 21.3821C24.9442 21.3821 24.8338 21.3453 24.7602 21.2717C24.5762 21.1061 24.5578 20.8301 24.7234 20.6461C25.9931 19.2476 26.7659 17.5363 26.9867 15.6777C27.0235 15.4385 27.2444 15.2545 27.4836 15.2913C27.7228 15.3281 27.9068 15.5489 27.87 15.7882C27.6308 17.8307 26.7659 19.726 25.3858 21.2533C25.2938 21.3453 25.165 21.3821 25.0546 21.3821Z" fill="white"/>
<path d="M19.3489 24.3812C19.1281 24.3812 18.9441 24.2156 18.9073 23.9948C18.8705 23.7556 19.0545 23.5163 19.2937 23.4979C20.7842 23.2955 22.2195 22.7251 23.434 21.8234C23.6364 21.6762 23.9124 21.713 24.0596 21.9154C24.2069 22.1178 24.17 22.3939 23.9676 22.5411C22.6243 23.5347 21.0602 24.1788 19.4041 24.3996C19.3857 24.3812 19.3673 24.3812 19.3489 24.3812Z" fill="white"/>
<path d="M16.8831 24.3815C16.8647 24.3815 16.8463 24.3815 16.8279 24.3815C12.3564 23.7927 8.87858 20.2597 8.36334 15.7882C8.32654 15.5489 8.51055 15.3281 8.74977 15.2913C8.98899 15.2545 9.2098 15.4385 9.2466 15.6777C9.72503 19.7444 12.8716 22.9646 16.9383 23.4983C17.1775 23.5351 17.3616 23.7559 17.3247 23.9951C17.3063 24.2159 17.1039 24.3815 16.8831 24.3815Z" fill="white"/>
<path d="M8.84155 13.7091C8.82315 13.7091 8.80475 13.7091 8.76795 13.7091C8.52873 13.6723 8.36312 13.4515 8.38152 13.1939C8.67594 11.2065 9.5592 9.36641 10.9577 7.89431C11.1233 7.71029 11.4177 7.71029 11.5833 7.87591C11.7674 8.04152 11.7674 8.33594 11.6017 8.50155C10.3321 9.84484 9.5224 11.501 9.26478 13.3227C9.24638 13.5435 9.06237 13.7091 8.84155 13.7091Z" fill="white"/>
<path d="M12.6714 7.45252C12.5242 7.45252 12.3954 7.37891 12.3034 7.26851C12.1562 7.06609 12.2114 6.79007 12.4138 6.64286C13.7203 5.7228 15.2292 5.11556 16.8117 4.91315C17.0509 4.87635 17.2901 5.06036 17.3085 5.29957C17.3453 5.53879 17.1613 5.77801 16.9221 5.79641C15.4868 5.98042 14.1067 6.53246 12.929 7.37891C12.8554 7.43412 12.7634 7.45252 12.6714 7.45252Z" fill="white"/>
<path d="M18.1184 22.5787C13.7389 22.5787 10.1875 19.0088 10.1875 14.6477C10.1875 10.2682 13.7573 6.7168 18.1184 6.7168C22.4979 6.7168 26.0494 10.2866 26.0494 14.6477C26.0494 19.0272 22.4979 22.5787 18.1184 22.5787ZM18.1184 7.60006C14.2358 7.60006 11.0708 10.7651 11.0708 14.6477C11.0708 18.5304 14.2358 21.6954 18.1184 21.6954C22.0011 21.6954 25.1661 18.5304 25.1661 14.6477C25.1477 10.7651 22.0011 7.60006 18.1184 7.60006Z" fill="white"/>
<path d="M8.80803 16.5794C9.34665 16.5794 9.7833 16.1428 9.7833 15.6042C9.7833 15.0655 9.34665 14.6289 8.80803 14.6289C8.2694 14.6289 7.83276 15.0655 7.83276 15.6042C7.83276 16.1428 8.2694 16.5794 8.80803 16.5794Z" fill="white"/>
<path d="M27.4645 14.3531C28.0032 14.3531 28.4398 13.9165 28.4398 13.3778C28.4398 12.8392 28.0032 12.4026 27.4645 12.4026C26.9259 12.4026 26.4893 12.8392 26.4893 13.3778C26.4893 13.9165 26.9259 14.3531 27.4645 14.3531Z" fill="white"/>
<path d="M20.7132 12.4581C20.7132 11.0596 19.5724 9.9187 18.1739 9.9187C16.7754 9.9187 15.6345 11.0596 15.6345 12.4581C15.6345 13.3413 16.0761 14.1142 16.7754 14.5742L16.8122 14.3902C16.8674 14.059 17.1986 13.783 17.5298 13.783H18.8179C19.1676 13.783 19.4804 14.059 19.5356 14.3902L19.5724 14.5742C20.2532 14.1142 20.7132 13.3413 20.7132 12.4581Z" fill="white"/>
<path d="M16.7741 14.5732L16.0748 18.8424C16.0196 19.1736 16.2588 19.4496 16.5901 19.4496H19.7551C20.1047 19.4496 20.3255 19.1736 20.2703 18.8424L19.5711 14.5732C19.1662 14.8309 18.6878 14.9965 18.1726 14.9965C17.6573 14.9965 17.1789 14.8309 16.7741 14.5732Z" fill="white"/>
<path d="M18.8179 13.7637H17.5298C17.1802 13.7637 16.8674 14.0397 16.8122 14.3709L16.7754 14.5549C17.1802 14.8125 17.6587 14.9782 18.1739 14.9782C18.6891 14.9782 19.1676 14.8309 19.5724 14.5549L19.5356 14.3709C19.4804 14.0397 19.1676 13.7637 18.8179 13.7637Z" fill="white"/>
<path d="M35.3962 15.4567C35.1017 15.4567 34.8073 15.3095 34.6601 15.0335C34.6049 14.9415 29.3606 5.75923 18.1174 5.75923C6.87423 5.75923 1.62987 14.9415 1.57467 15.0335C1.35385 15.4383 0.838619 15.5855 0.433792 15.3647C0.0289641 15.1439 -0.118246 14.6286 0.102569 14.2238C0.323384 13.819 5.84376 4.08472 18.1174 4.08472C30.3726 4.08472 35.893 13.819 36.1322 14.2238C36.353 14.6286 36.2058 15.1439 35.801 15.3647C35.6722 15.4199 35.525 15.4567 35.3962 15.4567Z" fill="white"/>
<path d="M18.1174 25.1543C5.86216 25.1543 0.341785 15.42 0.102569 15.0152C-0.118246 14.6103 0.0289641 14.0951 0.433792 13.8743C0.838619 13.6535 1.35385 13.8007 1.57467 14.2055C1.62987 14.2975 6.87423 23.4798 18.1174 23.4798C29.3606 23.4798 34.6049 14.2975 34.6601 14.2055C34.8809 13.8007 35.3962 13.6535 35.801 13.8743C36.2058 14.0951 36.353 14.6103 36.1322 15.0152C35.893 15.4384 30.3726 25.1543 18.1174 25.1543Z" fill="white"/>
<path d="M118.225 36.4626C117.841 36.4626 117.357 36.6921 116.774 37.1512C116.191 37.5978 115.899 38.0134 115.899 38.3979V39.2726C115.899 39.8308 116.321 40.2836 117.165 40.631L119.863 41.7847C120.88 42.2314 121.389 42.9571 121.389 43.962V45.2274C121.389 45.736 120.979 46.3253 120.161 46.9952C119.342 47.6651 118.647 48.0001 118.076 48.0001C117.506 48.0001 116.507 47.6217 115.08 46.8649C114.894 46.7657 114.851 46.6168 114.95 46.4183L115.118 46.0834C115.217 45.9097 115.36 45.8725 115.546 45.9717C116.737 46.654 117.58 46.9952 118.076 46.9952C118.449 46.9952 118.92 46.7657 119.491 46.3067C120.061 45.8353 120.347 45.4259 120.347 45.0785V44.0922C120.347 43.4099 119.95 42.9075 119.156 42.5849L116.551 41.4684C115.422 40.9598 114.857 40.2712 114.857 39.4028V38.2677C114.857 37.7094 115.273 37.1015 116.104 36.444C116.948 35.7865 117.655 35.4578 118.225 35.4578C118.87 35.4578 119.807 35.7989 121.035 36.4812C121.234 36.5805 121.283 36.7232 121.184 36.9092L121.035 37.2442C120.948 37.4179 120.8 37.4489 120.589 37.3373C119.447 36.7542 118.66 36.4626 118.225 36.4626Z" fill="white"/>
<path d="M122.969 35.6066H129.65C129.824 35.6066 129.911 35.6935 129.911 35.8672V36.3138C129.911 36.4874 129.824 36.5743 129.65 36.5743H126.84V47.5907C126.84 47.7644 126.747 47.8512 126.561 47.8512H126.04C125.866 47.8512 125.779 47.7644 125.779 47.5907V36.5743H122.969C122.783 36.5743 122.69 36.4874 122.69 36.3138V35.8672C122.69 35.6935 122.783 35.6066 122.969 35.6066Z" fill="white"/>
<path d="M137.205 43.1618H132.645V47.5907C132.645 47.6651 132.614 47.7271 132.552 47.7768C132.503 47.8264 132.447 47.8512 132.385 47.8512H131.845C131.672 47.8512 131.585 47.7644 131.585 47.5907V38.3421C131.585 37.759 132 37.1326 132.832 36.4626C133.663 35.7927 134.364 35.4578 134.934 35.4578C135.517 35.4578 136.218 35.7927 137.037 36.4626C137.856 37.1326 138.265 37.759 138.265 38.3421V47.5907C138.265 47.7644 138.172 47.8512 137.986 47.8512H137.465C137.403 47.8512 137.341 47.8264 137.279 47.7768C137.229 47.7271 137.205 47.6651 137.205 47.5907V43.1618ZM132.645 38.4724V42.2127H137.205V38.4724C137.205 38.0754 136.925 37.6412 136.367 37.1698C135.809 36.6983 135.331 36.4626 134.934 36.4626C134.537 36.4626 134.053 36.6983 133.483 37.1698C132.925 37.6412 132.645 38.0754 132.645 38.4724Z" fill="white"/>
<path d="M142.388 41.3754L146.705 35.8299C146.805 35.6811 146.941 35.6066 147.115 35.6066H147.654C147.766 35.6066 147.834 35.6501 147.859 35.7369C147.896 35.8237 147.878 35.923 147.803 36.0346L143.598 41.4126L147.747 47.4046C147.809 47.5038 147.828 47.6031 147.803 47.7023C147.791 47.8016 147.729 47.8512 147.617 47.8512H147.022C146.86 47.8512 146.718 47.7706 146.594 47.6093L142.946 42.25L142.388 42.9385V47.5721C142.388 47.7582 142.289 47.8512 142.09 47.8512H141.625C141.427 47.8512 141.327 47.7582 141.327 47.5721V35.8858C141.327 35.6997 141.427 35.6066 141.625 35.6066H142.09C142.289 35.6066 142.388 35.6997 142.388 35.8858V41.3754Z" fill="white"/>
<path d="M151.111 35.8672V47.5907C151.111 47.7644 151.024 47.8512 150.85 47.8512H150.311C150.137 47.8512 150.05 47.7644 150.05 47.5907V35.8672C150.05 35.6935 150.137 35.6066 150.311 35.6066H150.85C151.024 35.6066 151.111 35.6935 151.111 35.8672Z" fill="white"/>
<path d="M160.035 47.5907L155.308 38.0444V47.5907C155.308 47.7644 155.222 47.8512 155.048 47.8512H154.527C154.465 47.8512 154.403 47.8264 154.341 47.7768C154.291 47.7271 154.266 47.6651 154.266 47.5907V35.8672C154.266 35.6935 154.353 35.6066 154.527 35.6066H154.936C155.098 35.6066 155.215 35.6935 155.29 35.8672L160.016 45.4507V35.8672C160.016 35.6935 160.103 35.6066 160.277 35.6066H160.779C160.966 35.6066 161.059 35.6935 161.059 35.8672V47.5907C161.059 47.7644 160.966 47.8512 160.779 47.8512H160.389C160.24 47.8512 160.122 47.7644 160.035 47.5907Z" fill="white"/>
<path d="M167.947 41.8406V41.4126C167.947 41.2389 168.034 41.152 168.207 41.152H170.366C170.44 41.152 170.521 41.2017 170.608 41.3009C170.707 41.3878 170.757 41.4684 170.757 41.5428V45.1343C170.757 45.7174 170.347 46.3439 169.528 47.0138C168.71 47.6713 168.003 48.0001 167.407 48.0001C166.812 48.0001 166.098 47.6713 165.267 47.0138C164.448 46.3439 164.039 45.7174 164.039 45.1343V38.3235C164.039 37.7404 164.448 37.1201 165.267 36.4626C166.098 35.7927 166.812 35.4578 167.407 35.4578C168.04 35.4578 168.97 35.8423 170.198 36.6115C170.36 36.7108 170.397 36.841 170.31 37.0023L170.143 37.3373C170.043 37.4985 169.901 37.5295 169.715 37.4303C168.648 36.7852 167.878 36.4626 167.407 36.4626C167.01 36.4626 166.526 36.6983 165.956 37.1698C165.385 37.6288 165.1 38.0568 165.1 38.4538V45.0041C165.1 45.4135 165.379 45.8477 165.937 46.3067C166.508 46.7657 166.998 46.9952 167.407 46.9952C167.804 46.9952 168.282 46.7657 168.84 46.3067C169.411 45.8353 169.696 45.4011 169.696 45.0041V42.1011H168.207C168.034 42.1011 167.947 42.0143 167.947 41.8406Z" fill="white"/>
</svg>
