<svg width="122" height="21" viewBox="0 0 122 21" fill="none" xmlns="http://www.w3.org/2000/svg">
<path fill-rule="evenodd" clip-rule="evenodd" d="M19.0119 20.9671C14.5558 20.9064 10.5609 17.9553 9.25654 13.6036C8.89818 13.4592 8.61761 13.1426 8.53654 12.7352C8.40882 12.0932 8.82595 11.4695 9.46802 11.3416C10.1099 11.2139 10.7341 11.631 10.8616 12.273C10.9343 12.6391 10.8302 12.9989 10.6081 13.2646C11.7542 16.99 15.1847 19.5139 19.0119 19.5747C19.5387 19.5653 20.0722 19.5091 20.6071 19.4027C24.3863 18.6513 27.1327 15.6234 27.7046 12.0286C27.7166 11.9533 27.7275 11.8775 27.7378 11.8015C27.8682 10.8096 29.2378 10.9926 29.1359 11.8505C28.6199 16.1767 25.384 19.8723 20.8787 20.7682C20.2524 20.8926 19.6285 20.9574 19.0119 20.9671ZM28.6684 17.0409C29.9416 16.3676 31.1858 15.5574 32.3889 14.608C33.6734 13.5944 34.7128 12.6443 35.8004 11.4214C36.4745 10.6632 36.4745 10.4664 35.8004 9.70804C34.713 8.48508 33.6734 7.53503 32.3889 6.52143C31.1486 5.54267 29.8646 4.71181 28.5501 4.02646C27.9009 3.07088 27.114 2.21639 26.2189 1.49036C28.6575 2.35502 31.0269 3.66546 33.2552 5.42394C34.5263 6.42707 35.632 7.46565 36.6685 8.60411C38.4761 10.5891 38.4761 10.5401 36.6685 12.525C35.6319 13.6634 34.5263 14.7019 33.2552 15.7052C31.1021 17.4041 28.8174 18.6849 26.4658 19.5496C27.3132 18.8233 28.0558 17.9785 28.6684 17.0409ZM9.3557 17.0409C8.08262 16.3676 6.83826 15.5574 5.63518 14.608C4.35074 13.5944 3.31128 12.6443 2.22366 11.4214C1.54958 10.6632 1.54958 10.4664 2.22366 9.70804C3.31113 8.48508 4.35059 7.53503 5.63518 6.52143C6.8755 5.54267 8.15949 4.71181 9.474 4.02646C10.1233 3.07088 10.9101 2.21639 11.8052 1.49036C9.36661 2.35502 6.99724 3.66546 4.76906 5.42394C3.49778 6.42707 2.39222 7.46565 1.3556 8.60411C-0.451866 10.5891 -0.451866 10.5401 1.3556 12.525C2.39236 13.6634 3.49778 14.7019 4.76906 15.7052C6.92201 17.4041 9.20673 18.6849 11.5583 19.5496C10.7107 18.8233 9.96815 17.9785 9.3557 17.0409ZM19.0119 15.3754C16.6789 15.3754 16.7761 15.5472 16.9816 14.4865L17.7207 10.6697C16.9796 10.212 16.4858 9.39235 16.4858 8.45741C16.4858 7.04648 17.6104 5.89829 19.0121 5.85971C20.4139 5.89829 21.5383 7.04648 21.5383 8.45741C21.5383 9.39235 21.0445 10.212 20.3034 10.6697L21.0424 14.4865C21.2479 15.5472 21.3449 15.3754 19.0119 15.3754ZM19.0119 3.41677C22.9922 3.41677 26.2189 6.64286 26.2189 10.6226C26.2189 14.6024 22.9924 17.8287 19.0119 17.8287C15.0316 17.8287 11.8049 14.6024 11.8049 10.6226C11.8049 6.64286 15.0317 3.41677 19.0119 3.41677ZM19.0119 0.27832C23.4681 0.339035 27.4629 3.28996 28.7674 7.64166C29.1258 7.78612 29.4063 8.1027 29.4873 8.51005C29.615 9.15204 29.1979 9.77593 28.5558 9.90349C27.9137 10.0312 27.2897 9.61428 27.1622 8.97229C27.0895 8.60636 27.1937 8.24641 27.4155 7.98067C26.2696 4.25526 22.8389 1.73143 19.0119 1.67056C18.4851 1.67998 17.9518 1.73621 17.4167 1.84269C13.6375 2.59399 10.8913 5.62208 10.3192 9.21679C10.3071 9.29216 10.2961 9.36798 10.286 9.44395C10.1554 10.4359 8.78586 10.2528 8.88771 9.3949C9.40385 5.06877 12.6396 1.37312 17.1449 0.477362C17.7714 0.352793 18.3956 0.288041 19.0119 0.27832Z" fill="#333333"/>
<path fill-rule="evenodd" clip-rule="evenodd" d="M77.0586 5.85878C76.3653 6.61066 75.5549 7.06959 74.2855 7.06959C72.2935 7.06959 70.8092 5.51702 70.8092 3.55433V3.5348C70.8092 1.59163 72.2642 0 74.3245 0C75.5939 0 76.3556 0.439408 77.0098 1.06434L76.2384 1.95293C75.6818 1.44517 75.1057 1.11317 74.3147 1.11317C73.0258 1.11317 72.0689 2.17751 72.0689 3.51527V3.5348C72.0689 4.87255 73.0161 5.95643 74.3245 5.95643C75.1545 5.95643 75.7013 5.62443 76.2872 5.07761L77.0586 5.85878ZM46.4788 6.95242H47.7091L48.3034 5.55743H48.2978L48.8737 4.17527H48.8784L50.0233 1.50375L51.2048 4.23785H51.2033L51.7532 5.55743H51.7515L52.3375 6.95242H53.6069L50.5994 0.0683521H49.4863L46.4788 6.95242ZM59.4173 6.95242H60.6183V4.56985H62.1221L63.8016 6.95242H65.2272L63.3817 4.36479C64.3289 4.09138 65.0026 3.41762 65.0026 2.29469V2.27516C65.0026 1.67952 64.7976 1.18152 64.4363 0.800699C63.9969 0.371056 63.3231 0.117175 62.4638 0.117175H59.4173V6.95242ZM60.6183 3.5055V1.21081H62.3662C63.2645 1.21081 63.7821 1.6014 63.7821 2.34351V2.36304C63.7821 3.06609 63.2352 3.5055 62.376 3.5055H60.6183ZM82.3733 6.95242H83.6037L84.3067 5.30219H87.5388L88.2321 6.95242H89.5015L86.494 0.0683521H85.3808L82.3733 6.95242ZM84.7461 4.23785L85.9179 1.50375L87.0994 4.23785H84.7461ZM97.8604 6.95242H95.3118V0.117175H97.8604C100.009 0.117175 101.493 1.59163 101.493 3.51527V3.5348C101.493 5.45843 100.009 6.95242 97.8604 6.95242ZM100.233 3.5348C100.233 2.19704 99.2958 1.21081 97.8604 1.21081H96.5129V5.85878H97.8604C99.2958 5.85878 100.233 4.89208 100.233 3.55433V3.5348ZM107.657 6.95242H108.858V0.117175H107.657V6.95242ZM115.97 6.95242H114.74L117.747 0.0683521H118.86L121.868 6.95242H120.598L119.905 5.30219H118.289H116.673L115.97 6.95242ZM118.284 1.50375L117.112 4.23785H119.466L118.284 1.50375Z" fill="#333333"/>
<path d="M49.9229 18.6982C51.3978 18.6982 52.4313 17.9257 52.4313 16.6013V16.5812C52.4313 15.4073 51.6587 14.9056 50.1838 14.5243C48.8293 14.2033 48.5082 13.9625 48.5082 13.4207V13.4006C48.5082 12.929 48.9296 12.5678 49.652 12.5678C50.2942 12.5678 50.9162 12.8186 51.5584 13.2902L52.2206 12.3571C51.4982 11.7852 50.7055 11.4742 49.6721 11.4742C48.2774 11.4742 47.2741 12.3069 47.2741 13.511V13.531C47.2741 14.8153 48.1169 15.2768 49.6119 15.628C50.9162 15.919 51.1972 16.21 51.1972 16.7016V16.7217C51.1972 17.2434 50.7156 17.6046 49.953 17.6046C49.0801 17.6046 48.4179 17.2835 47.7356 16.6916L46.9932 17.5745C47.836 18.337 48.8393 18.6982 49.9229 18.6982Z" fill="#333333"/>
<path d="M60.4779 18.5979H61.712V12.7183H63.9494V11.5745H58.2404V12.7183H60.4779V18.5979Z" fill="#333333"/>
<path d="M68.7521 18.5979H70.0163L70.7387 16.9023H74.0598L74.7722 18.5979H76.0765L72.9862 11.5243H71.8424L68.7521 18.5979ZM71.1902 15.8086L72.3942 12.9993L73.6083 15.8086H71.1902Z" fill="#333333"/>
<path d="M82.2976 18.5979H83.5317V16.5611L84.6254 15.4374L87.0234 18.5979H88.5284L85.4682 14.5946L88.398 11.5745H86.8628L83.5317 15.1063V11.5745H82.2976V18.5979Z" fill="#333333"/>
<path d="M94.6647 18.5979H95.8988V11.5745H94.6647V18.5979Z" fill="#333333"/>
<path d="M102.796 18.5979H104.01V13.6013L107.883 18.5979H108.916V11.5745H107.702V16.4307L103.939 11.5745H102.796V18.5979Z" fill="#333333"/>
<path d="M119.07 18.7183C120.314 18.7183 121.298 18.2166 122 17.6247V14.6748H119.01V15.7584H120.806V17.0628C120.375 17.3839 119.783 17.5946 119.11 17.5946C117.676 17.5946 116.722 16.531 116.722 15.0862V15.0661C116.722 13.7217 117.716 12.5979 119 12.5979C119.883 12.5979 120.425 12.8788 120.967 13.3404L121.749 12.4073C121.027 11.7952 120.264 11.4541 119.05 11.4541C116.923 11.4541 115.428 13.1197 115.428 15.0862V15.1063C115.428 17.1531 116.873 18.7183 119.07 18.7183Z" fill="#333333"/>
</svg>
