<svg width="234" height="43" viewBox="0 0 234 43" fill="none" xmlns="http://www.w3.org/2000/svg">
<path d="M76.0991 20.5308H78.7909L72.9212 7.4292H70.2294L64.3604 20.5308H67.0335C68.5928 17.1005 70.0714 13.638 71.5759 10.1829C73.0783 13.6347 74.5626 17.094 76.0991 20.5308Z" fill="white"/>
<path d="M99.7551 20.5305H102.222V7.46631H99.3997L95.3063 13.0827L91.2126 7.46631H88.3711V20.5305H90.8385V11.0329L95.0072 16.7242H95.493L99.7551 11.0515V20.5305Z" fill="white"/>
<path d="M119.316 7.4292C117.241 7.4292 115.166 7.4292 113.11 7.4292V20.5308C115.185 20.5308 117.241 20.5308 119.316 20.5308C122.027 20.5308 124.214 19.5967 124.214 16.6806C124.214 15.8585 123.653 14.2325 122.12 13.7651C123.335 13.2231 123.821 12.2481 123.821 11.2325C123.821 8.58792 121.896 7.4292 119.316 7.4292ZM115.54 9.67197H119.316C120.886 9.67197 121.372 10.6873 121.372 11.2886C121.372 12.0425 120.868 12.6998 119.316 12.6998H115.54V9.67197ZM115.54 14.8676H119.316C120.326 14.8676 121.765 15.4843 121.765 16.6619C121.765 17.8956 120.326 18.232 119.316 18.232H115.54V14.8676Z" fill="white"/>
<path d="M140.841 9.72768C142.392 9.72768 143.084 10.7773 143.084 11.8306C143.084 12.8835 142.411 13.9332 140.841 13.9332H137.084V9.72798H140.841V9.72768ZM146.206 20.3624L142.243 15.8956C144.729 15.3912 145.551 13.5781 145.551 11.7746C145.551 9.50364 143.925 7.44757 140.841 7.4292C138.766 7.44787 136.691 7.4292 134.616 7.4292V20.5308H137.084V16.1576H139.458L143.271 20.5308H146.206V20.3624Z" fill="white"/>
<path d="M162.01 9.42861C165.094 9.42861 166.328 11.8957 166.29 14.1014C166.253 16.2506 165.094 18.568 162.01 18.568C158.926 18.568 157.767 16.2692 157.71 14.1198C157.654 11.9141 158.926 9.42861 162.01 9.42861ZM162.01 7.18555C157.486 7.18555 155.28 10.6433 155.28 14.0822C155.28 17.521 157.411 20.8294 162.01 20.8294C166.608 20.8294 168.683 17.4466 168.721 14.0635C168.758 10.6433 166.515 7.18555 162.01 7.18555Z" fill="white"/>
<path d="M189.59 9.59681C188.599 7.57838 186.487 6.99902 184.45 6.99902C182.039 7.01769 179.384 8.12011 179.384 10.8115C179.384 13.7457 181.851 14.4563 184.525 14.7737C186.263 14.9607 187.553 15.4654 187.553 16.6988C187.553 18.1192 186.095 18.6612 184.543 18.6612C182.955 18.6612 181.44 18.0256 180.861 16.5868L178.805 17.6522C179.777 20.0446 181.833 20.867 184.506 20.867C187.422 20.867 190.001 19.6146 190.001 16.6991C190.001 13.578 187.459 12.8676 184.73 12.5313C183.16 12.3446 181.814 12.0269 181.814 10.8868C181.814 9.91479 182.693 9.14844 184.525 9.14844C185.945 9.14844 187.179 9.85849 187.628 10.6065L189.59 9.59681Z" fill="white"/>
<path d="M209.582 7.46631V14.961C209.582 17.2037 208.423 18.5681 206.386 18.5681C204.348 18.5681 203.002 17.316 203.002 14.961V7.46631H200.554V14.961C200.554 18.9048 203.227 20.8109 206.367 20.8109C209.657 20.8109 212.031 18.8298 212.031 14.961V7.46631H209.582Z" fill="white"/>
<path d="M233.125 9.59681C232.135 7.57838 230.022 6.99902 227.985 6.99902C225.573 7.01769 222.919 8.12011 222.919 10.8115C222.919 13.7457 225.386 14.4563 228.06 14.7737C229.798 14.9607 231.088 15.4654 231.088 16.6988C231.088 18.1192 229.63 18.6612 228.079 18.6612C226.49 18.6612 224.975 18.0256 224.396 16.5868L222.34 17.6522C223.311 20.0446 225.368 20.867 228.041 20.867C230.957 20.867 233.536 19.6146 233.536 16.6991C233.536 13.578 230.994 12.8676 228.265 12.5313C226.695 12.3446 225.349 12.0269 225.349 10.8868C225.349 9.91479 226.228 9.14844 228.06 9.14844C229.48 9.14844 230.714 9.85849 231.163 10.6065L233.125 9.59681Z" fill="white"/>
<path fill-rule="evenodd" clip-rule="evenodd" d="M24.8123 27.0008C18.9967 26.9216 13.7829 23.0701 12.0806 17.3908C11.613 17.2022 11.2468 16.7891 11.141 16.2574C10.9743 15.4196 11.5187 14.6055 12.3566 14.4387C13.1944 14.272 14.009 14.8163 14.1755 15.6542C14.2703 16.1319 14.1345 16.6015 13.8446 16.9483C15.3404 21.8103 19.8175 25.1042 24.8123 25.1836C25.4998 25.1713 26.196 25.0979 26.8942 24.9592C31.8264 23.9784 35.4107 20.0267 36.1571 15.3353C36.1727 15.2369 36.187 15.1379 36.2004 15.0388C36.3707 13.7443 38.158 13.9831 38.0251 15.1028C37.3517 20.7488 33.1285 25.572 27.2487 26.7412C26.4312 26.9036 25.6171 26.9881 24.8123 27.0008ZM37.4149 21.8767C39.0766 20.998 40.7004 19.9406 42.2706 18.7015C43.9469 17.3787 45.3035 16.1388 46.7229 14.5427C47.6026 13.5532 47.6026 13.2963 46.7229 12.3067C45.3037 10.7106 43.9469 9.47068 42.2706 8.14784C40.6518 6.87047 38.9761 5.78612 37.2605 4.89167C36.4132 3.64455 35.3863 2.52937 34.2181 1.58183C37.4007 2.71029 40.4929 4.42054 43.4011 6.71551C45.0601 8.02469 46.5031 9.38013 47.8558 10.8659C50.2149 13.4566 50.2149 13.3926 47.8558 15.983C46.5029 17.4688 45.0601 18.8241 43.4011 20.1334C40.5911 22.3507 37.6094 24.0223 34.5403 25.1508C35.6463 24.2029 36.6154 23.1004 37.4149 21.8767ZM12.2101 21.8767C10.5486 20.998 8.92457 19.9406 7.35443 18.7015C5.67812 17.3787 4.32152 16.1388 2.90208 14.5427C2.02235 13.5532 2.02235 13.2963 2.90208 12.3067C4.32133 10.7106 5.67792 9.47068 7.35443 8.14784C8.97317 6.87047 10.6489 5.78612 12.3645 4.89167C13.2118 3.64455 14.2387 2.52937 15.4069 1.58183C12.2243 2.71029 9.13206 4.42054 6.22407 6.71551C4.56493 8.02469 3.12206 9.38013 1.76918 10.8659C-0.589727 13.4566 -0.589727 13.3926 1.76918 15.983C3.12226 17.4688 4.56493 18.8241 6.22407 20.1334C9.03387 22.3507 12.0156 24.0223 15.0847 25.1508C13.9785 24.2029 13.0094 23.1004 12.2101 21.8767ZM24.8123 19.7031C21.7675 19.7031 21.8944 19.9274 22.1626 18.543L23.1272 13.5618C22.16 12.9644 21.5155 11.8947 21.5155 10.6745C21.5155 8.83307 22.9831 7.33458 24.8125 7.28422C26.642 7.33458 28.1095 8.83307 28.1095 10.6745C28.1095 11.8947 27.465 12.9644 26.4978 13.5618L27.4622 18.543C27.7304 19.9274 27.8571 19.7031 24.8123 19.7031ZM24.8123 4.09597C30.007 4.09597 34.2181 8.30631 34.2181 13.5003C34.2181 18.6943 30.0072 22.9048 24.8123 22.9048C19.6176 22.9048 15.4065 18.6943 15.4065 13.5003C15.4065 8.30631 19.6178 4.09597 24.8123 4.09597ZM24.8123 0C30.6281 0.0792379 35.8417 3.93047 37.5442 9.60984C38.0118 9.79837 38.378 10.2115 38.4836 10.7432C38.6503 11.581 38.1059 12.3953 37.268 12.5617C36.43 12.7284 35.6157 12.1843 35.4492 11.3464C35.3543 10.8689 35.4903 10.3991 35.7798 10.0523C34.2842 5.19028 29.8069 1.89644 24.8123 1.81701C24.1248 1.8293 23.4288 1.90268 22.7304 2.04164C17.7982 3.02216 14.2141 6.9741 13.4675 11.6655C13.4517 11.7639 13.4374 11.8628 13.4242 11.962C13.2537 13.2565 11.4664 13.0177 11.5993 11.898C12.2729 6.25199 16.4959 1.42882 22.3757 0.259768C23.1934 0.0971933 24.0079 0.0126859 24.8123 0Z" fill="white"/>
<path d="M123.274 39.7945V40H121.876L120.808 37.7261H115.74L114.671 40H113.274V39.7945L117.52 31.014H119.027L123.274 39.7945ZM120.219 36.4933L118.274 32.3702L116.329 36.4933H120.219ZM129.582 33.2194V34.3701H128.075C127.582 34.3701 127.144 34.4523 126.76 34.6166C126.386 34.781 126.094 35.0139 125.884 35.3152V40H124.568V33.2194H125.801L125.842 34.0002C126.144 33.7445 126.5 33.5528 126.911 33.4249C127.322 33.2879 127.769 33.2194 128.253 33.2194H129.582ZM133.898 40.1644C133.086 40.1644 132.373 40.0274 131.761 39.7534C131.15 39.4703 130.679 39.0731 130.35 38.5617C130.022 38.0412 129.857 37.4385 129.857 36.7535V36.507C129.857 35.8038 130.022 35.192 130.35 34.6714C130.679 34.1509 131.145 33.7537 131.748 33.4797C132.36 33.1966 133.076 33.0551 133.898 33.0551C134.638 33.0551 135.305 33.1829 135.898 33.4386C136.492 33.6852 136.953 34.0322 137.282 34.4797C137.62 34.918 137.789 35.4157 137.789 35.9728V36.0275H136.432V35.9728C136.432 35.644 136.323 35.3518 136.104 35.0961C135.894 34.8312 135.592 34.6258 135.2 34.4797C134.816 34.3335 134.382 34.2605 133.898 34.2605C133.058 34.2605 132.401 34.4614 131.926 34.8632C131.451 35.2559 131.213 35.8084 131.213 36.5207V36.7398C131.213 37.4339 131.451 37.9772 131.926 38.3699C132.401 38.7626 133.058 38.9589 133.898 38.9589C134.391 38.9589 134.83 38.8859 135.213 38.7398C135.597 38.5937 135.894 38.3928 136.104 38.1371C136.323 37.8814 136.432 37.5891 136.432 37.2604V37.2056H137.789V37.2604C137.789 37.8266 137.624 38.3288 137.295 38.7672C136.967 39.2055 136.505 39.548 135.912 39.7945C135.327 40.0411 134.656 40.1644 133.898 40.1644ZM147.856 38.8357V40H146.952C146.504 40 146.13 39.9132 145.828 39.7397C145.527 39.5662 145.317 39.3197 145.198 39C144.833 39.3927 144.395 39.6849 143.883 39.8767C143.372 40.0685 142.769 40.1644 142.075 40.1644C141.098 40.1644 140.344 39.9954 139.815 39.6575C139.285 39.3105 139.02 38.8174 139.02 38.1782C139.02 37.6302 139.226 37.1919 139.637 36.8631C140.048 36.5344 140.65 36.3289 141.445 36.2467L145.102 35.8632C145.075 35.3518 144.86 34.9637 144.458 34.6988C144.057 34.434 143.481 34.3016 142.733 34.3016C142.011 34.3016 141.436 34.4249 141.007 34.6714C140.577 34.918 140.363 35.2468 140.363 35.6577V35.7125H139.061V35.6577C139.061 35.1463 139.212 34.6943 139.513 34.3016C139.824 33.8998 140.258 33.5938 140.815 33.3838C141.372 33.1646 142.016 33.0551 142.746 33.0551C143.906 33.0551 144.805 33.3108 145.445 33.8222C146.084 34.3335 146.404 35.0504 146.404 35.9728V38.0823C146.404 38.3197 146.477 38.5069 146.623 38.6439C146.769 38.7717 146.979 38.8357 147.253 38.8357H147.856ZM142.048 39C142.787 39 143.422 38.8859 143.952 38.6576C144.481 38.4202 144.865 38.0868 145.102 37.6576V36.9316L141.733 37.2878C141.258 37.3334 140.902 37.4293 140.664 37.5754C140.436 37.7215 140.322 37.9225 140.322 38.1782C140.322 38.7261 140.897 39 142.048 39ZM156.209 30.4661V40H154.99L154.949 39.2192C154.246 39.8493 153.342 40.1644 152.237 40.1644C151.433 40.1644 150.734 40.0274 150.141 39.7534C149.547 39.4703 149.091 39.0685 148.771 38.548C148.451 38.0275 148.291 37.4156 148.291 36.7125V36.4933C148.291 35.7901 148.451 35.1828 148.771 34.6714C149.091 34.1509 149.547 33.7537 150.141 33.4797C150.734 33.1966 151.433 33.0551 152.237 33.0551C152.757 33.0551 153.241 33.1327 153.689 33.2879C154.145 33.4432 154.547 33.6669 154.894 33.9591V30.4661H156.209ZM152.36 38.9589C152.899 38.9589 153.392 38.8631 153.839 38.6713C154.287 38.4704 154.638 38.201 154.894 37.8631V35.3426C154.638 35.0139 154.287 34.7536 153.839 34.5618C153.392 34.3609 152.899 34.2605 152.36 34.2605C151.511 34.2605 150.844 34.4568 150.36 34.8495C149.885 35.2422 149.648 35.7901 149.648 36.4933V36.7125C149.648 37.4065 149.89 37.9544 150.374 38.3562C150.858 38.758 151.52 38.9589 152.36 38.9589ZM159.715 33.2194V40H158.4V33.2194H159.715ZM159.058 32.1373C158.793 32.1373 158.578 32.0597 158.414 31.9044C158.249 31.74 158.167 31.53 158.167 31.2743C158.167 31.0277 158.249 30.8268 158.414 30.6716C158.578 30.5163 158.793 30.4387 159.058 30.4387C159.322 30.4387 159.537 30.5163 159.701 30.6716C159.866 30.8268 159.948 31.0277 159.948 31.2743C159.948 31.53 159.866 31.74 159.701 31.9044C159.537 32.0597 159.322 32.1373 159.058 32.1373ZM170.296 38.8357V40H169.392C168.945 40 168.57 39.9132 168.269 39.7397C167.968 39.5662 167.758 39.3197 167.639 39C167.274 39.3927 166.835 39.6849 166.324 39.8767C165.813 40.0685 165.21 40.1644 164.516 40.1644C163.539 40.1644 162.785 39.9954 162.256 39.6575C161.726 39.3105 161.461 38.8174 161.461 38.1782C161.461 37.6302 161.667 37.1919 162.078 36.8631C162.489 36.5344 163.091 36.3289 163.886 36.2467L167.543 35.8632C167.516 35.3518 167.301 34.9637 166.899 34.6988C166.497 34.434 165.922 34.3016 165.173 34.3016C164.452 34.3016 163.877 34.4249 163.447 34.6714C163.018 34.918 162.804 35.2468 162.804 35.6577V35.7125H161.502V35.6577C161.502 35.1463 161.653 34.6943 161.954 34.3016C162.265 33.8998 162.699 33.5938 163.256 33.3838C163.813 33.1646 164.456 33.0551 165.187 33.0551C166.347 33.0551 167.246 33.3108 167.886 33.8222C168.525 34.3335 168.844 35.0504 168.844 35.9728V38.0823C168.844 38.3197 168.917 38.5069 169.064 38.6439C169.21 38.7717 169.42 38.8357 169.694 38.8357H170.296ZM164.488 39C165.228 39 165.863 38.8859 166.392 38.6576C166.922 38.4202 167.306 38.0868 167.543 37.6576V36.9316L164.173 37.2878C163.699 37.3334 163.342 37.4293 163.105 37.5754C162.877 37.7215 162.762 37.9225 162.762 38.1782C162.762 38.7261 163.338 39 164.488 39ZM180.641 40.1644C179.189 40.1644 178.089 39.9132 177.34 39.411C176.6 38.8996 176.231 38.1553 176.231 37.1782V37.0412H177.6V37.1782C177.6 38.3471 178.637 38.9315 180.71 38.9315C181.632 38.9315 182.335 38.8174 182.819 38.5891C183.303 38.3608 183.545 38.0229 183.545 37.5754V37.4658C183.545 37.0823 183.39 36.7946 183.08 36.6029C182.778 36.4111 182.24 36.265 181.463 36.1645L179.422 35.8906C178.427 35.7627 177.678 35.507 177.176 35.1235C176.683 34.7308 176.436 34.2057 176.436 33.5482V33.4112C176.436 32.6076 176.792 31.982 177.505 31.5346C178.217 31.078 179.221 30.8497 180.518 30.8497C181.897 30.8497 182.943 31.0962 183.655 31.5894C184.376 32.0825 184.737 32.7994 184.737 33.74V33.8769H183.381V33.74C183.381 32.635 182.427 32.0825 180.518 32.0825C179.641 32.0825 178.97 32.1966 178.504 32.4249C178.048 32.6441 177.82 32.9637 177.82 33.3838V33.4934C177.82 33.8313 177.966 34.0915 178.258 34.2742C178.55 34.4568 179.039 34.5938 179.724 34.6851L181.778 34.9454C182.865 35.0824 183.66 35.3472 184.162 35.7399C184.673 36.1326 184.929 36.6896 184.929 37.4111V37.548C184.929 38.3791 184.559 39.0229 183.819 39.4795C183.08 39.9361 182.02 40.1644 180.641 40.1644ZM189.429 34.3701V37.7946C189.429 38.1325 189.524 38.3928 189.716 38.5754C189.908 38.7489 190.177 38.8357 190.524 38.8357H192.141V40H190.415C189.702 40 189.141 39.8082 188.73 39.4247C188.328 39.0411 188.127 38.5115 188.127 37.8357V34.3701H185.593V33.2194H187.757C187.913 33.2194 188.018 33.192 188.072 33.1372C188.127 33.0733 188.155 32.9683 188.155 32.8222V31.3976H189.429V33.2194H192.552V34.3701H189.429ZM202.175 38.8357V40H201.271C200.823 40 200.449 39.9132 200.148 39.7397C199.846 39.5662 199.636 39.3197 199.518 39C199.152 39.3927 198.714 39.6849 198.203 39.8767C197.691 40.0685 197.088 40.1644 196.394 40.1644C195.417 40.1644 194.664 39.9954 194.134 39.6575C193.605 39.3105 193.34 38.8174 193.34 38.1782C193.34 37.6302 193.545 37.1919 193.956 36.8631C194.367 36.5344 194.97 36.3289 195.764 36.2467L199.422 35.8632C199.394 35.3518 199.18 34.9637 198.778 34.6988C198.376 34.434 197.801 34.3016 197.052 34.3016C196.331 34.3016 195.755 34.4249 195.326 34.6714C194.897 34.918 194.682 35.2468 194.682 35.6577V35.7125H193.381V35.6577C193.381 35.1463 193.532 34.6943 193.833 34.3016C194.143 33.8998 194.577 33.5938 195.134 33.3838C195.691 33.1646 196.335 33.0551 197.066 33.0551C198.225 33.0551 199.125 33.3108 199.764 33.8222C200.403 34.3335 200.723 35.0504 200.723 35.9728V38.0823C200.723 38.3197 200.796 38.5069 200.942 38.6439C201.088 38.7717 201.298 38.8357 201.572 38.8357H202.175ZM196.367 39C197.107 39 197.741 38.8859 198.271 38.6576C198.801 38.4202 199.184 38.0868 199.422 37.6576V36.9316L196.052 37.2878C195.577 37.3334 195.221 37.4293 194.984 37.5754C194.755 37.7215 194.641 37.9225 194.641 38.1782C194.641 38.7261 195.216 39 196.367 39ZM210.939 39.8082V40H209.309L206.282 36.9453L204.446 38.3836V40H203.131V30.4661H204.446V36.7809L209.049 33.2194H210.761V33.4112L207.296 36.1508L210.939 39.8082ZM213.633 33.2194V40H212.318V33.2194H213.633ZM212.976 32.1373C212.711 32.1373 212.496 32.0597 212.332 31.9044C212.168 31.74 212.085 31.53 212.085 31.2743C212.085 31.0277 212.168 30.8268 212.332 30.6716C212.496 30.5163 212.711 30.4387 212.976 30.4387C213.241 30.4387 213.455 30.5163 213.62 30.6716C213.784 30.8268 213.866 31.0277 213.866 31.2743C213.866 31.53 213.784 31.74 213.62 31.9044C213.455 32.0597 213.241 32.1373 212.976 32.1373ZM219.731 33.0551C220.918 33.0551 221.813 33.3518 222.416 33.9454C223.027 34.5299 223.333 35.3929 223.333 36.5344V40H222.032V36.5344C222.032 35.7947 221.822 35.2331 221.402 34.8495C220.991 34.4568 220.393 34.2605 219.607 34.2605C219.069 34.2605 218.576 34.3838 218.128 34.6303C217.69 34.8769 217.361 35.2057 217.142 35.6166V40H215.827V33.2194H217.046L217.101 34.0961C217.777 33.4203 218.653 33.0733 219.731 33.0551ZM232.675 33.2194V39.4247C232.675 40.4292 232.341 41.1917 231.675 41.7123C231.017 42.2328 230.054 42.4931 228.784 42.4931C227.962 42.4931 227.25 42.388 226.647 42.178C226.054 41.9771 225.593 41.6803 225.264 41.2876C224.944 40.9041 224.785 40.452 224.785 39.9315V39.8219H226.127V39.9315C226.127 40.3333 226.369 40.6575 226.853 40.9041C227.337 41.1598 227.962 41.2876 228.73 41.2876C229.57 41.2876 230.218 41.1278 230.675 40.8082C231.131 40.4977 231.36 40.0502 231.36 39.4658V38.7946C231.003 39.0777 230.597 39.3014 230.14 39.4658C229.693 39.621 229.227 39.6986 228.743 39.6986C227.474 39.6986 226.492 39.4247 225.798 38.8768C225.104 38.3197 224.757 37.5343 224.757 36.5207V36.3015C224.757 35.2787 225.109 34.4842 225.812 33.918C226.515 33.3427 227.492 33.0551 228.743 33.0551C229.821 33.0551 230.711 33.3655 231.414 33.9865L231.456 33.2194H232.675ZM228.771 38.5069C229.319 38.5069 229.821 38.411 230.277 38.2192C230.743 38.0183 231.104 37.7535 231.36 37.4248V35.3563C231.104 35.0276 230.743 34.7628 230.277 34.5618C229.812 34.3518 229.309 34.2468 228.771 34.2468C227.912 34.2468 227.255 34.4249 226.798 34.781C226.342 35.128 226.113 35.6349 226.113 36.3015V36.5207C226.113 37.8448 226.999 38.5069 228.771 38.5069Z" fill="#15D378"/>
</svg>
