<svg width="24" height="25" viewBox="0 0 24 25" fill="none" xmlns="http://www.w3.org/2000/svg">
<path d="M5.25 16.892V10.9265C5.25 10.3495 5.51642 9.80474 5.97193 9.45046L10.8519 5.65491C11.5272 5.12969 12.4728 5.12969 13.1481 5.6549L18.0281 9.45046C18.4836 9.80474 18.75 10.3495 18.75 10.9265V16.892C18.75 17.9247 17.9128 18.762 16.88 18.762H14.75C14.4739 18.762 14.25 18.5381 14.25 18.262V15.6606C14.25 15.3974 14.207 15.1312 14.0677 14.9079C13.8854 14.6158 13.6423 14.3643 13.353 14.1715C12.9525 13.9045 12.4817 13.762 12 13.762C11.5183 13.762 11.0475 13.9045 10.647 14.1715C10.3577 14.3643 10.1146 14.6158 9.93234 14.9079C9.79305 15.1312 9.75 15.3974 9.75 15.6606V18.262C9.75 18.5381 9.52614 18.762 9.25 18.762H7.12C6.08723 18.762 5.25 17.9247 5.25 16.892Z" stroke="#A2B2D8" stroke-width="1.5" stroke-linecap="round" stroke-linejoin="round"/>
</svg>
