<svg width="20" height="20" viewBox="0 0 20 20" fill="none" xmlns="http://www.w3.org/2000/svg">
<path d="M10 14.1668C9.54171 14.1668 9.16671 13.7918 9.16671 13.3335L9.16671 10.0002C9.16671 9.54183 9.54171 9.16683 10 9.16683C10.4584 9.16683 10.8334 9.54183 10.8334 10.0002L10.8334 13.3335C10.8334 13.7918 10.4584 14.1668 10 14.1668ZM10.0084 18.3335C14.6084 18.3335 18.3334 14.6002 18.3334 10.0002C18.3334 5.40016 14.6084 1.66683 10.0084 1.66683C5.40004 1.66683 1.66671 5.40016 1.66671 10.0002C1.66671 14.6002 5.40004 18.3335 10.0084 18.3335ZM10 3.33349C13.6834 3.33349 16.6667 6.31683 16.6667 10.0002C16.6667 13.6835 13.6834 16.6668 10 16.6668C6.31671 16.6668 3.33337 13.6835 3.33337 10.0002C3.33337 6.31683 6.31671 3.33349 10 3.33349ZM9.16671 6.66683C9.16671 6.20659 9.5398 5.83349 10 5.83349C10.4603 5.83349 10.8334 6.20659 10.8334 6.66683C10.8334 7.12707 10.4603 7.50016 10 7.50016C9.5398 7.50016 9.16671 7.12707 9.16671 6.66683Z" fill="#BFC9E0"/>
</svg>
