<svg width="16" height="16" viewBox="0 0 16 16" fill="#fff" xmlns="http://www.w3.org/2000/svg">
<path d="M7.16667 5.29146V8.35813C7.16667 8.6498 7.325 8.9248 7.575 9.0748L10.175 10.6165C10.475 10.7915 10.8583 10.6915 11.0333 10.3998C11.2083 10.0998 11.1167 9.71646 10.8167 9.54146L8.425 8.11646V5.28313C8.41667 4.9498 8.13333 4.66646 7.79167 4.66646C7.45 4.66646 7.16667 4.9498 7.16667 5.29146ZM15.5 5.91646V1.50813C15.5 1.13313 15.05 0.949795 14.7917 1.21646L13.3083 2.6998C11.8 1.19146 9.65 0.324795 7.3 0.533129C3.80833 0.849795 0.933334 3.65813 0.550001 7.1498C0.0500009 11.6665 3.575 15.4998 8 15.4998C11.825 15.4998 14.9833 12.6331 15.4417 8.93313C15.5 8.43313 15.1083 7.9998 14.6083 7.9998C14.1917 7.9998 13.8417 8.30813 13.7917 8.71646C13.4333 11.6248 10.925 13.8748 7.91667 13.8331C4.825 13.7915 2.21667 11.1831 2.16667 8.08313C2.11667 4.83313 4.75833 2.16646 8 2.16646C9.60833 2.16646 11.0667 2.8248 12.125 3.8748L10.3833 5.61646C10.1167 5.88313 10.3 6.33313 10.675 6.33313H15.0833C15.3167 6.33313 15.5 6.1498 15.5 5.91646Z" fill="#fff"/>
</svg>
