<svg width="17" height="16" viewBox="0 0 17 16" fill="none" xmlns="http://www.w3.org/2000/svg">
<path fill-rule="evenodd" clip-rule="evenodd" d="M0.563268 0.528573C0.938896 0.176305 1.42922 0 2.03436 0C2.63954 0 3.12462 0.176153 3.48906 0.528573C3.85354 0.880916 4.03961 1.32578 4.04689 1.86348C4.05413 2.39384 3.87005 2.83699 3.49458 3.19289C3.1191 3.54897 2.62502 3.72688 2.01245 3.72688H1.99058C1.39267 3.72688 0.911351 3.54882 0.546872 3.19289C0.182278 2.83699 0 2.39369 0 1.86348C0 1.32574 0.18768 0.880916 0.563268 0.528573ZM15.6623 6.18621C14.9041 5.36159 13.9013 4.94921 12.6545 4.94921C12.1951 4.94921 11.7776 5.00551 11.402 5.11819C11.0265 5.23079 10.7094 5.38877 10.4504 5.59221C10.1917 5.79566 9.98555 5.98452 9.83254 6.1588C9.68704 6.32434 9.54476 6.51718 9.40593 6.73532V5.19968H5.8073L5.81833 5.72283C5.82573 6.07166 5.82937 7.14682 5.82937 8.94847C5.82937 10.7503 5.82209 13.1004 5.80745 15.9992H9.40593V9.97275C9.40593 9.60231 9.44581 9.30814 9.52618 9.09C9.67942 8.7193 9.9107 8.40894 10.2208 8.15839C10.5308 7.90754 10.9153 7.78223 11.3749 7.78223C12.0018 7.78223 12.4631 7.99835 12.7585 8.43062C13.0537 8.86285 13.2014 9.46044 13.2014 10.2233V15.9989H16.7999V9.80946C16.7996 8.21824 16.4207 7.01056 15.6623 6.18621ZM3.81601 5.20062H0.206616V16H3.81601V5.20062Z" fill="#9198BB"/>
</svg>
