<svg width="20" height="20" viewBox="0 0 20 20" fill="none" xmlns="http://www.w3.org/2000/svg">
<path d="M8.58332 13.5833C8.25832 13.2583 8.25832 12.7417 8.58332 12.4167L10.1667 10.8333H2.49999C2.04166 10.8333 1.66666 10.4583 1.66666 10C1.66666 9.54167 2.04166 9.16667 2.49999 9.16667H10.1667L8.58332 7.58333C8.25832 7.25833 8.25832 6.74167 8.58332 6.41667C8.90832 6.09167 9.42499 6.09167 9.74999 6.41667L12.7417 9.40833C13.0667 9.73333 13.0667 10.2583 12.7417 10.5833L9.74999 13.5833C9.42499 13.9083 8.90832 13.9083 8.58332 13.5833ZM16.6667 4.16667H10.8333C10.375 4.16667 9.99999 3.79167 9.99999 3.33333C9.99999 2.875 10.375 2.5 10.8333 2.5H16.6667C17.5833 2.5 18.3333 3.25 18.3333 4.16667V15.8333C18.3333 16.75 17.5833 17.5 16.6667 17.5H10.8333C10.375 17.5 9.99999 17.125 9.99999 16.6667C9.99999 16.2083 10.375 15.8333 10.8333 15.8333H16.6667V4.16667Z" fill="#BFC9E0"/>
</svg>
