<svg width="234" height="28" viewBox="0 0 234 28" fill="none" xmlns="http://www.w3.org/2000/svg">
    <path d="M76.0991 20.5334H78.7909L72.9212 7.43005H70.2294L64.3604 20.5334H67.0335C68.5928 17.1027 70.0714 13.6397 71.5759 10.1841C73.0783 13.6364 74.5626 17.0962 76.0991 20.5334Z" fill="white"/>
    <path d="M99.7546 20.5334H102.222V7.46741H99.3992L95.3058 13.0845L91.2121 7.46741H88.3706V20.5334H90.838V11.0344L95.0067 16.7266H95.4925L99.7546 11.0531V20.5334Z" fill="white"/>
    <path d="M119.316 7.43005C117.241 7.43005 115.166 7.43005 113.11 7.43005V20.5334C115.185 20.5334 117.241 20.5334 119.316 20.5334C122.027 20.5334 124.214 19.5991 124.214 16.6827C124.214 15.8605 123.653 14.2342 122.12 13.7668C123.335 13.2247 123.821 12.2496 123.821 11.2339C123.821 8.58893 121.896 7.43005 119.316 7.43005ZM115.54 9.67312H119.316C120.886 9.67312 121.372 10.6885 121.372 11.2899C121.372 12.0439 120.868 12.7013 119.316 12.7013H115.54V9.67312ZM115.54 14.8694H119.316C120.326 14.8694 121.765 15.4862 121.765 16.664C121.765 17.8979 120.326 18.2343 119.316 18.2343H115.54V14.8694Z" fill="white"/>
    <path d="M140.841 9.72884C142.392 9.72884 143.084 10.7786 143.084 11.832C143.084 12.8851 142.411 13.9349 140.841 13.9349H137.084V9.72914H140.841V9.72884ZM146.206 20.365L142.243 15.8976C144.729 15.3931 145.551 13.5798 145.551 11.776C145.551 9.50477 143.925 7.44843 140.841 7.43005C138.766 7.44873 136.691 7.43005 134.616 7.43005V20.5334H137.084V16.1596H139.458L143.271 20.5334H146.206V20.365Z" fill="white"/>
    <path d="M162.01 9.43007C165.094 9.43007 166.328 11.8975 166.29 14.1035C166.253 16.2529 165.094 18.5707 162.01 18.5707C158.926 18.5707 157.767 16.2716 157.71 14.1219C157.654 11.9159 158.926 9.43007 162.01 9.43007ZM162.01 7.18671C157.486 7.18671 155.28 10.645 155.28 14.0842C155.28 17.5235 157.411 20.8324 162.01 20.8324C166.608 20.8324 168.683 17.4491 168.721 14.0656C168.758 10.645 166.515 7.18671 162.01 7.18671Z" fill="white"/>
    <path d="M189.59 9.59813C188.599 7.57944 186.487 7 184.45 7C182.039 7.01867 179.384 8.12123 179.384 10.813C179.384 13.7476 181.851 14.4583 184.525 14.7757C186.263 14.9628 187.553 15.4675 187.553 16.7011C187.553 18.1217 186.095 18.6637 184.543 18.6637C182.955 18.6637 181.44 18.028 180.861 16.589L178.805 17.6545C179.777 20.0473 181.833 20.8698 184.506 20.8698C187.422 20.8698 190.001 19.6172 190.001 16.7014C190.001 13.5798 187.459 12.8694 184.73 12.533C183.16 12.3462 181.814 12.0285 181.814 10.8883C181.814 9.91616 182.693 9.1497 184.525 9.1497C185.945 9.1497 187.179 9.85984 187.628 10.6079L189.59 9.59813Z" fill="white"/>
    <path d="M209.582 7.46741V14.9631C209.582 17.2061 208.423 18.5707 206.386 18.5707C204.348 18.5707 203.002 17.3184 203.002 14.9631V7.46741H200.554V14.9631C200.554 18.9074 203.227 20.8138 206.367 20.8138C209.657 20.8138 212.031 18.8324 212.031 14.9631V7.46741H209.582Z" fill="white"/>
    <path d="M233.125 9.59813C232.135 7.57944 230.022 7 227.985 7C225.573 7.01867 222.919 8.12123 222.919 10.813C222.919 13.7476 225.386 14.4583 228.06 14.7757C229.798 14.9628 231.088 15.4675 231.088 16.7011C231.088 18.1217 229.63 18.6637 228.079 18.6637C226.49 18.6637 224.975 18.028 224.396 16.589L222.34 17.6545C223.311 20.0473 225.368 20.8698 228.041 20.8698C230.957 20.8698 233.536 19.6172 233.536 16.7014C233.536 13.5798 230.994 12.8694 228.265 12.533C226.695 12.3462 225.349 12.0285 225.349 10.8883C225.349 9.91616 226.228 9.1497 228.06 9.1497C229.48 9.1497 230.714 9.85984 231.163 10.6079L233.125 9.59813Z" fill="white"/>
    <path fill-rule="evenodd" clip-rule="evenodd" d="M24.8123 27.0044C18.9967 26.9251 13.7829 23.0732 12.0806 17.3931C11.613 17.2045 11.2468 16.7913 11.141 16.2596C10.9743 15.4216 11.5187 14.6075 12.3566 14.4406C13.1944 14.2739 14.009 14.8183 14.1755 15.6562C14.2703 16.1341 14.1345 16.6037 13.8446 16.9506C15.3404 21.8132 19.8175 25.1075 24.8123 25.1869C25.4998 25.1746 26.196 25.1012 26.8942 24.9625C31.8264 23.9816 35.4107 20.0293 36.1571 15.3373C36.1727 15.2389 36.187 15.14 36.2004 15.0408C36.3707 13.7461 38.158 13.985 38.0251 15.1048C37.3517 20.7516 33.1285 25.5754 27.2487 26.7448C26.4312 26.9072 25.6171 26.9917 24.8123 27.0044ZM37.4149 21.8796C39.0766 21.0008 40.7004 19.9433 42.2706 18.704C43.9469 17.381 45.3035 16.1409 46.7229 14.5446C47.6026 13.555 47.6026 13.2981 46.7229 12.3083C45.3037 10.712 43.9469 9.47194 42.2706 8.14892C40.6518 6.87138 38.9761 5.78689 37.2605 4.89232C36.4132 3.64503 35.3863 2.5297 34.2181 1.58204C37.4007 2.71065 40.4929 4.42112 43.4011 6.7164C45.0601 8.02575 46.5031 9.38137 47.8558 10.8674C50.2149 13.4584 50.2149 13.3943 47.8558 15.9851C46.5029 17.4711 45.0601 18.8266 43.4011 20.1361C40.5911 22.3537 37.6093 24.0255 34.5403 25.1541C35.6463 24.2061 36.6154 23.1034 37.4149 21.8796ZM12.2101 21.8796C10.5486 21.0008 8.92457 19.9433 7.35443 18.704C5.67812 17.381 4.32152 16.1409 2.90208 14.5446C2.02235 13.555 2.02235 13.2981 2.90208 12.3083C4.32133 10.712 5.67792 9.47194 7.35443 8.14892C8.97317 6.87138 10.6489 5.78689 12.3644 4.89232C13.2118 3.64503 14.2387 2.5297 15.4069 1.58204C12.2243 2.71065 9.13205 4.42112 6.22407 6.7164C4.56493 8.02575 3.12206 9.38137 1.76918 10.8674C-0.589727 13.4584 -0.589727 13.3943 1.76918 15.9851C3.12226 17.4711 4.56493 18.8266 6.22407 20.1361C9.03387 22.3537 12.0156 24.0255 15.0847 25.1541C13.9785 24.2061 13.0094 23.1034 12.2101 21.8796ZM24.8123 19.7057C21.7675 19.7057 21.8944 19.93 22.1626 18.5455L23.1272 13.5636C22.16 12.9661 21.5155 11.8962 21.5155 10.6759C21.5155 8.83424 22.9831 7.33555 24.8125 7.28519C26.642 7.33555 28.1095 8.83424 28.1095 10.6759C28.1095 11.8962 27.465 12.9661 26.4978 13.5636L27.4622 18.5455C27.7304 19.93 27.8571 19.7057 24.8123 19.7057ZM24.8123 4.09652C30.007 4.09652 34.2181 8.30741 34.2181 13.5021C34.2181 18.6968 30.0072 22.9079 24.8123 22.9079C19.6176 22.9079 15.4065 18.6968 15.4065 13.5021C15.4065 8.30741 19.6178 4.09652 24.8123 4.09652ZM24.8123 0C30.6281 0.0792484 35.8417 3.93099 37.5441 9.61111C38.0118 9.79966 38.378 10.2129 38.4836 10.7446C38.6503 11.5826 38.1059 12.3969 37.268 12.5634C36.43 12.7301 35.6156 12.1859 35.4492 11.3479C35.3543 10.8703 35.4903 10.4005 35.7798 10.0536C34.2842 5.19096 29.8069 1.89669 24.8123 1.81725C24.1248 1.82954 23.4288 1.90294 22.7304 2.04191C17.7982 3.02256 14.2141 6.97503 13.4675 11.6671C13.4517 11.7655 13.4374 11.8644 13.4242 11.9636C13.2537 13.2583 11.4664 13.0194 11.5993 11.8996C12.2729 6.25281 16.4959 1.42901 22.3757 0.259802C23.1934 0.0972061 24.0079 0.0126875 24.8123 0Z" fill="white"/>
</svg>
