<svg width="255" height="56" viewBox="0 0 255 56" fill="none" xmlns="http://www.w3.org/2000/svg">
<path d="M94.1882 42.6203C94.2202 42.6845 94.2368 42.7552 94.2368 42.8269C94.2368 43.0831 94.0291 43.2908 93.773 43.2908H91.7279C90.9738 43.2908 90.2855 42.861 89.9545 42.1834L86.8154 35.7571C86.4844 35.0794 85.7961 34.6497 85.042 34.6497H68.8001C68.046 34.6497 67.3577 35.0794 67.0267 35.7571L63.8876 42.1834C63.5566 42.861 62.8683 43.2908 62.1142 43.2908H60.0691C59.813 43.2908 59.6053 43.0831 59.6053 42.8269C59.6053 42.7552 59.6219 42.6845 59.6539 42.6203L74.3619 13.067C74.6955 12.3965 75.3799 11.9727 76.1288 11.9727H77.7133C78.4622 11.9727 79.1466 12.3965 79.4802 13.067L94.1882 42.6203ZM81.4665 31.2732C82.9297 31.2732 83.8842 29.7367 83.2358 28.425L78.6904 19.2285C77.966 17.763 75.876 17.763 75.1517 19.2285L70.6063 28.425C69.9579 29.7367 70.9124 31.2732 72.3756 31.2732H81.4665Z" fill="#3568DD"/>
<path d="M101.577 11.9727C102.597 11.9727 103.424 12.7995 103.424 13.8194V41.4441C103.424 42.464 102.597 43.2908 101.577 43.2908C100.557 43.2908 99.7304 42.464 99.7304 41.4441V13.8194C99.7304 12.7995 100.557 11.9727 101.577 11.9727Z" fill="#3568DD"/>
<path d="M142.748 21.6164C142.748 24.258 141.756 26.3745 139.774 27.9659C137.791 29.5254 135.974 30.3052 129.211 30.3052C129.118 30.3052 129.07 30.4146 129.132 30.4831L140.088 42.5997C140.157 42.6758 140.195 42.7746 140.195 42.8772C140.195 43.1056 140.01 43.2908 139.781 43.2908H136.847C136.291 43.2908 135.761 43.0561 135.386 42.6444L124.761 30.9516C124.387 30.5399 123.857 30.3052 123.301 30.3052H118.148C117.058 30.3052 116.175 31.1889 116.175 32.2789V41.4681C116.175 42.4747 115.358 43.2908 114.352 43.2908C113.345 43.2908 112.529 42.4747 112.529 41.4681V13.9463C112.529 12.8563 113.413 11.9727 114.503 11.9727L131.668 11.9727C135.121 11.9727 137.823 12.7843 139.774 14.4075C141.756 15.9988 142.748 18.1949 142.748 20.9957V21.6164ZM131.572 27.0588C133.906 27.0588 135.729 26.5655 137.04 25.5789C138.383 24.5922 139.054 23.2236 139.054 21.4731V20.8525C139.054 19.102 138.399 17.7334 137.088 16.7468C135.777 15.7601 133.938 15.2668 131.572 15.2668L118.148 15.2668C117.058 15.2668 116.175 16.1504 116.175 17.2405V25.0851C116.175 26.1752 117.058 27.0588 118.148 27.0588L131.572 27.0588Z" fill="#3568DD"/>
<path d="M164.508 11.9727C170.072 11.9727 174.325 13.2776 177.267 15.8874C180.209 18.4973 181.68 22.2847 181.68 27.2498V28.0614C181.68 33.0265 180.209 36.8139 177.267 39.4238C174.357 42.0018 170.104 43.2908 164.508 43.2908H152.188C151.098 43.2908 150.214 42.4071 150.214 41.3171V13.9463C150.214 12.8563 151.098 11.9727 152.188 11.9727L164.508 11.9727ZM164.508 39.9966C168.953 39.9966 172.295 39.01 174.533 37.0367C176.804 35.0316 177.939 32.0557 177.939 28.1091V27.2021C177.939 23.2873 176.804 20.3273 174.533 18.3222C172.263 16.2853 168.905 15.2668 164.46 15.2668L155.833 15.2668C154.743 15.2668 153.86 16.1504 153.86 17.2405V38.023C153.86 39.113 154.743 39.9966 155.833 39.9966H164.508Z" fill="#3568DD"/>
<path d="M217.995 42.6203C218.027 42.6845 218.044 42.7552 218.044 42.8269C218.044 43.0831 217.836 43.2908 217.58 43.2908H215.535C214.781 43.2908 214.092 42.861 213.761 42.1834L210.622 35.7571C210.291 35.0794 209.603 34.6497 208.849 34.6497H192.607C191.853 34.6497 191.165 35.0794 190.834 35.7571L187.694 42.1834C187.363 42.861 186.675 43.2908 185.921 43.2908H183.876C183.62 43.2908 183.412 43.0831 183.412 42.8269C183.412 42.7552 183.429 42.6845 183.461 42.6203L198.169 13.067C198.502 12.3965 199.187 11.9727 199.936 11.9727H201.52C202.269 11.9727 202.953 12.3965 203.287 13.067L217.995 42.6203ZM205.273 31.2732C206.737 31.2732 207.691 29.7367 207.043 28.425L202.497 19.2285C201.773 17.763 199.683 17.763 198.959 19.2285L194.413 28.425C193.765 29.7367 194.719 31.2732 196.182 31.2732H205.273Z" fill="#3568DD"/>
<path d="M237.396 43.8159C233.815 43.8159 230.697 43.1794 228.043 41.9063C225.389 40.6014 223.342 38.7554 221.903 36.3683C220.464 33.9813 219.745 31.1964 219.745 28.0136V27.2975C219.745 24.083 220.464 21.2822 221.903 18.8951C223.342 16.5081 225.389 14.678 228.043 13.4049C230.697 12.1 233.815 11.4475 237.396 11.4475C240.946 11.4475 244.048 12.1 246.702 13.4049C249.356 14.7098 251.403 16.5558 252.842 18.9429C254.281 21.3299 255 24.1148 255 27.2975V28.0136C255 31.1964 254.281 33.9813 252.842 36.3683C251.403 38.7554 249.356 40.6014 246.702 41.9063C244.048 43.1794 240.946 43.8159 237.396 43.8159ZM237.396 40.4263C241.745 40.4263 245.135 39.3283 247.565 37.1322C250.028 34.9361 251.259 31.9125 251.259 28.0614V27.2498C251.259 23.3987 250.028 20.3751 247.565 18.179C245.103 15.9511 241.713 14.8371 237.396 14.8371C233.048 14.8371 229.626 15.9511 227.132 18.179C224.669 20.3751 223.438 23.3987 223.438 27.2498V28.0614C223.438 31.9125 224.669 34.9361 227.132 37.1322C229.626 39.3283 233.048 40.4263 237.396 40.4263Z" fill="#3568DD"/>
<path fill-rule="evenodd" clip-rule="evenodd" d="M2.10597 55.1451C1.74639 55.3643 1.27805 55.2627 1.04167 54.9141L0.136253 53.5792C-0.10013 53.2306 -0.0207549 52.7586 0.310909 52.4991C3.29302 50.1657 5.74427 47.5356 7.67204 44.7187C14.8501 34.2299 14.8501 21.0307 7.67204 10.5418C5.74427 7.72492 3.29302 5.09486 0.310911 2.76146C-0.0207531 2.50195 -0.100129 2.02992 0.136254 1.68139L1.04167 0.346419C1.27805 -0.00211083 1.74639 -0.103741 2.10597 0.11546L42.3244 24.6324C44.569 26.0007 44.569 29.2598 42.3244 30.6281L2.10597 55.1451Z" fill="url(#paint0_linear_551_2884)"/>
<defs>
<linearGradient id="paint0_linear_551_2884" x1="49.1443" y1="28.1198" x2="-16.1846" y2="28.1198" gradientUnits="userSpaceOnUse">
<stop stop-color="#3568DD"/>
<stop offset="1" stop-color="#3568DD" stop-opacity="0.6"/>
</linearGradient>
</defs>
</svg>
