<svg width="21" height="16" viewBox="0 0 21 16" fill="none" xmlns="http://www.w3.org/2000/svg">
<path d="M18.6814 14.3571L20.2105 15.772V15.8189H12.4543V15.772L14.0111 14.3571C14.1771 14.2261 14.2566 14.0181 14.2186 13.8139V4.76781C14.2186 4.38558 14.2186 3.86924 14.2878 3.42666L9.05703 16H8.99476L3.57715 4.43252C3.45952 4.14417 3.42493 4.12406 3.34882 3.92959V11.5138C3.28396 12.0214 3.37291 12.5364 3.60482 12.9958L5.78432 15.772V15.8189H0V15.772L2.1795 12.9891C2.4097 12.5315 2.4986 12.0192 2.4355 11.5138V3.1316C2.47094 2.71888 2.34222 2.30864 2.07571 1.98491L0.532766 0.0469405V0H6.068L10.7038 9.79715L14.786 0H20.2036V0.0469405L18.6814 1.68986C18.499 1.8191 18.4079 2.03732 18.4462 2.25314V13.8139C18.4058 14.0242 18.4983 14.2377 18.6814 14.3571Z" fill="#9198BB"/>
</svg>
