<svg width="24" height="25" viewBox="0 0 24 25" fill="none" xmlns="http://www.w3.org/2000/svg">
<path d="M14 11.012C14.4142 11.012 14.75 10.6762 14.75 10.262C14.75 9.84775 14.4142 9.51196 14 9.51196V11.012ZM10 9.51196C9.58579 9.51196 9.25 9.84775 9.25 10.262C9.25 10.6762 9.58579 11.012 10 11.012V9.51196ZM14 9.51196H10V11.012H14V9.51196Z" fill="#A2B2D8"/>
<path d="M11.25 12.262C11.25 12.6762 11.5858 13.012 12 13.012C12.4142 13.012 12.75 12.6762 12.75 12.262H11.25ZM12.75 8.26196C12.75 7.84775 12.4142 7.51196 12 7.51196C11.5858 7.51196 11.25 7.84775 11.25 8.26196H12.75ZM12.75 12.262V8.26196H11.25V12.262H12.75Z" fill="#A2B2D8"/>
<path d="M5.25 13.887V7.26196C5.25 6.15739 6.14543 5.26196 7.25 5.26196H16.75C17.8546 5.26196 18.75 6.15739 18.75 7.26196V13.262C18.75 14.3665 17.8546 15.262 16.75 15.262H12.7515C12.267 15.262 11.799 15.4378 11.4345 15.7568L8 18.762V16.637C8 15.8776 7.38439 15.262 6.625 15.262C5.86561 15.262 5.25 14.6464 5.25 13.887Z" stroke="#A2B2D8" stroke-width="1.5" stroke-linejoin="round"/>
</svg>
