<svg width="22" height="20" viewBox="0 0 22 20" fill="none" xmlns="http://www.w3.org/2000/svg">
<path d="M19.5369 1.20001L11.979 6.88781L13.3846 3.53108L19.5369 1.20001Z" fill="#E27625" stroke="#E27625" stroke-width="0.995984" stroke-linecap="round" stroke-linejoin="round"/>
<path d="M2.07129 1.20001L9.58308 6.93444L8.24663 3.53108L2.07129 1.20001Z" fill="#E27625" stroke="#E27625" stroke-width="0.995984" stroke-linecap="round" stroke-linejoin="round"/>
<path d="M16.8178 14.3701L14.79 17.4937L19.122 18.7059L20.3432 14.44L16.8178 14.3701Z" fill="#E27625" stroke="#E27625" stroke-width="0.995984" stroke-linecap="round" stroke-linejoin="round"/>
<path d="M1.28735 14.44L2.5086 18.7059L6.8175 17.4937L4.81283 14.3701L1.28735 14.44Z" fill="#E27625" stroke="#E27625" stroke-width="0.995984" stroke-linecap="round" stroke-linejoin="round"/>
<path d="M6.58736 9.10225L5.38916 10.9438L9.65199 11.1303L9.51374 6.46814L6.58736 9.10225Z" fill="#E27625" stroke="#E27625" stroke-width="0.995984" stroke-linecap="round" stroke-linejoin="round"/>
<path d="M15.0436 9.10272L12.0712 6.422L11.979 11.1308L16.2418 10.9443L15.0436 9.10272Z" fill="#E27625" stroke="#E27625" stroke-width="0.995984" stroke-linecap="round" stroke-linejoin="round"/>
<path d="M6.81787 17.4944L9.39861 16.2356L7.16351 14.464L6.81787 17.4944Z" fill="#E27625" stroke="#E27625" stroke-width="0.995984" stroke-linecap="round" stroke-linejoin="round"/>
<path d="M12.2327 16.2356L14.7904 17.4944L14.4447 14.464L12.2327 16.2356Z" fill="#E27625" stroke="#E27625" stroke-width="0.995984" stroke-linecap="round" stroke-linejoin="round"/>
<path d="M14.7904 17.4939L12.2327 16.2352L12.44 17.9135L12.417 18.6362L14.7904 17.4939Z" fill="#D5BFB2" stroke="#D5BFB2" stroke-width="0.995984" stroke-linecap="round" stroke-linejoin="round"/>
<path d="M6.81787 17.4939L9.21427 18.6362L9.19123 17.9135L9.39861 16.2352L6.81787 17.4939Z" fill="#D5BFB2" stroke="#D5BFB2" stroke-width="0.995984" stroke-linecap="round" stroke-linejoin="round"/>
<path d="M9.25988 13.3446L7.11694 12.7153L8.61469 12.0159L9.25988 13.3446Z" fill="#233447" stroke="#233447" stroke-width="0.995984" stroke-linecap="round" stroke-linejoin="round"/>
<path d="M12.3706 13.3446L12.9927 12.0159L14.5135 12.7153L12.3706 13.3446Z" fill="#233447" stroke="#233447" stroke-width="0.995984" stroke-linecap="round" stroke-linejoin="round"/>
<path d="M6.81767 17.4942L7.18634 14.3705L4.81299 14.4405L6.81767 17.4942Z" fill="#CC6228" stroke="#CC6228" stroke-width="0.995984" stroke-linecap="round" stroke-linejoin="round"/>
<path d="M14.4448 14.3705L14.7905 17.4942L16.8182 14.4405L14.4448 14.3705Z" fill="#CC6228" stroke="#CC6228" stroke-width="0.995984" stroke-linecap="round" stroke-linejoin="round"/>
<path d="M16.2418 10.9442L11.979 11.1307L12.3707 13.3452L12.9929 12.0165L14.5137 12.7158L16.2418 10.9442Z" fill="#CC6228" stroke="#CC6228" stroke-width="0.995984" stroke-linecap="round" stroke-linejoin="round"/>
<path d="M7.11709 12.7158L8.61484 12.0165L9.26002 13.3452L9.65174 11.1307L5.38892 10.9442L7.11709 12.7158Z" fill="#CC6228" stroke="#CC6228" stroke-width="0.995984" stroke-linecap="round" stroke-linejoin="round"/>
<path d="M5.38916 10.9442L7.16342 14.4641L7.11733 12.7158L5.38916 10.9442Z" fill="#E27525" stroke="#E27525" stroke-width="0.995984" stroke-linecap="round" stroke-linejoin="round"/>
<path d="M14.5135 12.7158L14.4443 14.4641L16.2416 10.9442L14.5135 12.7158Z" fill="#E27525" stroke="#E27525" stroke-width="0.995984" stroke-linecap="round" stroke-linejoin="round"/>
<path d="M9.65246 11.1304L9.26074 13.3449L9.74463 15.9791L9.85984 12.5058L9.65246 11.1304Z" fill="#E27525" stroke="#E27525" stroke-width="0.995984" stroke-linecap="round" stroke-linejoin="round"/>
<path d="M11.9798 11.1304L11.7725 12.5058L11.8646 15.9791L12.3716 13.3449L11.9798 11.1304Z" fill="#E27525" stroke="#E27525" stroke-width="0.995984" stroke-linecap="round" stroke-linejoin="round"/>
<path d="M12.3705 13.3447L11.8635 15.9788L12.2322 16.2352L14.4443 14.4636L14.5134 12.7153L12.3705 13.3447Z" fill="#F5841F" stroke="#F5841F" stroke-width="0.995984" stroke-linecap="round" stroke-linejoin="round"/>
<path d="M7.11694 12.7153L7.16303 14.4636L9.39813 16.2352L9.74377 15.9788L9.25988 13.3447L7.11694 12.7153Z" fill="#F5841F" stroke="#F5841F" stroke-width="0.995984" stroke-linecap="round" stroke-linejoin="round"/>
<path d="M12.4171 18.6365L12.4402 17.9139L12.2328 17.7507H9.37556L9.19123 17.9139L9.21427 18.6365L6.81787 17.4943L7.64739 18.1936L9.35252 19.3825H12.2559L13.961 18.1936L14.7905 17.4943L12.4171 18.6365Z" fill="#C0AC9D" stroke="#C0AC9D" stroke-width="0.995984" stroke-linecap="round" stroke-linejoin="round"/>
<path d="M12.2323 16.2347L11.8636 15.9783H9.74369L9.39805 16.2347L9.19067 17.9131L9.37501 17.7499H12.2323L12.4396 17.9131L12.2323 16.2347Z" fill="#161616" stroke="#161616" stroke-width="0.995984" stroke-linecap="round" stroke-linejoin="round"/>
<path d="M19.8597 7.26078L20.5049 4.11384L19.5371 1.20001L12.2327 6.70133L15.0438 9.10233L19.0071 10.2679L19.8827 9.24219L19.514 8.96246L20.1131 8.40301L19.6523 8.03004L20.2514 7.56382L19.8597 7.26078Z" fill="#763E1A" stroke="#763E1A" stroke-width="0.995984" stroke-linecap="round" stroke-linejoin="round"/>
<path d="M1.12622 4.11384L1.7714 7.26078L1.35664 7.56382L1.95574 8.03004L1.4949 8.40301L2.11704 8.96246L1.72532 9.24219L2.60093 10.2679L6.58724 9.10233L9.39841 6.70133L2.07095 1.20001L1.12622 4.11384Z" fill="#763E1A" stroke="#763E1A" stroke-width="0.995984" stroke-linecap="round" stroke-linejoin="round"/>
<path d="M19.0067 10.268L15.0434 9.10242L16.2416 10.944L14.4443 14.4639L16.8177 14.4406H20.3432L19.0067 10.268Z" fill="#F5841F" stroke="#F5841F" stroke-width="0.995984" stroke-linecap="round" stroke-linejoin="round"/>
<path d="M6.58708 9.10242L2.60077 10.268L1.28735 14.4406H4.81282L7.16314 14.4639L5.38888 10.944L6.58708 9.10242Z" fill="#F5841F" stroke="#F5841F" stroke-width="0.995984" stroke-linecap="round" stroke-linejoin="round"/>
<path d="M11.9794 11.1306L12.2329 6.70156L13.385 3.53131H8.24658L9.3987 6.70156L9.65216 11.1306L9.74433 12.5292V15.9792H11.8642V12.5292L11.9794 11.1306Z" fill="#F5841F" stroke="#F5841F" stroke-width="0.995984" stroke-linecap="round" stroke-linejoin="round"/>
</svg>
