<svg width="19" height="18" viewBox="0 0 19 18" fill="none" xmlns="http://www.w3.org/2000/svg">
<path d="M17.201 1L10.5503 6.00511L11.7872 3.05127L17.201 1Z" fill="#E27625" stroke="#E27625" stroke-width="0.995984" stroke-linecap="round" stroke-linejoin="round"/>
<path d="M1.83154 1L8.44171 6.04613L7.26567 3.05127L1.83154 1Z" fill="#E27625" stroke="#E27625" stroke-width="0.995984" stroke-linecap="round" stroke-linejoin="round"/>
<path d="M14.808 12.5894L13.0237 15.3381L16.8357 16.4047L17.9103 12.6509L14.808 12.5894Z" fill="#E27625" stroke="#E27625" stroke-width="0.995984" stroke-linecap="round" stroke-linejoin="round"/>
<path d="M1.14185 12.6509L2.2165 16.4047L6.00822 15.3381L4.24416 12.5894L1.14185 12.6509Z" fill="#E27625" stroke="#E27625" stroke-width="0.995984" stroke-linecap="round" stroke-linejoin="round"/>
<path d="M5.8056 7.95368L4.75122 9.57419L8.50239 9.73829L8.38073 5.63574L5.8056 7.95368Z" fill="#E27625" stroke="#E27625" stroke-width="0.995984" stroke-linecap="round" stroke-linejoin="round"/>
<path d="M13.2471 7.95418L10.6314 5.59521L10.5503 9.73879L14.3015 9.57469L13.2471 7.95418Z" fill="#E27625" stroke="#E27625" stroke-width="0.995984" stroke-linecap="round" stroke-linejoin="round"/>
<path d="M6.0083 15.3385L8.27928 14.2308L6.31245 12.6719L6.0083 15.3385Z" fill="#E27625" stroke="#E27625" stroke-width="0.995984" stroke-linecap="round" stroke-linejoin="round"/>
<path d="M10.7732 14.2308L13.0239 15.3385L12.7197 12.6719L10.7732 14.2308Z" fill="#E27625" stroke="#E27625" stroke-width="0.995984" stroke-linecap="round" stroke-linejoin="round"/>
<path d="M13.0241 15.3382L10.7734 14.2305L10.9559 15.7074L10.9357 16.3433L13.0241 15.3382Z" fill="#D5BFB2" stroke="#D5BFB2" stroke-width="0.995984" stroke-linecap="round" stroke-linejoin="round"/>
<path d="M6.00854 15.3382L8.11731 16.3433L8.09703 15.7074L8.27952 14.2305L6.00854 15.3382Z" fill="#D5BFB2" stroke="#D5BFB2" stroke-width="0.995984" stroke-linecap="round" stroke-linejoin="round"/>
<path d="M8.15745 11.687L6.27173 11.1332L7.58971 10.5178L8.15745 11.687Z" fill="#233447" stroke="#233447" stroke-width="0.995984" stroke-linecap="round" stroke-linejoin="round"/>
<path d="M10.8948 11.687L11.4422 10.5178L12.7805 11.1332L10.8948 11.687Z" fill="#233447" stroke="#233447" stroke-width="0.995984" stroke-linecap="round" stroke-linejoin="round"/>
<path d="M6.00844 15.3383L6.33287 12.5896L4.24438 12.6511L6.00844 15.3383Z" fill="#CC6228" stroke="#CC6228" stroke-width="0.995984" stroke-linecap="round" stroke-linejoin="round"/>
<path d="M12.7202 12.5896L13.0244 15.3383L14.8087 12.6511L12.7202 12.5896Z" fill="#CC6228" stroke="#CC6228" stroke-width="0.995984" stroke-linecap="round" stroke-linejoin="round"/>
<path d="M14.3015 9.57471L10.5503 9.73881L10.895 11.6875L11.4425 10.5183L12.7807 11.1337L14.3015 9.57471Z" fill="#CC6228" stroke="#CC6228" stroke-width="0.995984" stroke-linecap="round" stroke-linejoin="round"/>
<path d="M6.27196 11.1337L7.58994 10.5183L8.15769 11.6875L8.50239 9.73881L4.75122 9.57471L6.27196 11.1337Z" fill="#CC6228" stroke="#CC6228" stroke-width="0.995984" stroke-linecap="round" stroke-linejoin="round"/>
<path d="M4.75122 9.57471L6.31252 12.6721L6.27197 11.1337L4.75122 9.57471Z" fill="#E27525" stroke="#E27525" stroke-width="0.995984" stroke-linecap="round" stroke-linejoin="round"/>
<path d="M12.7803 11.1337L12.7195 12.6721L14.3011 9.57471L12.7803 11.1337Z" fill="#E27525" stroke="#E27525" stroke-width="0.995984" stroke-linecap="round" stroke-linejoin="round"/>
<path d="M8.50266 9.73853L8.15796 11.6872L8.58377 14.0052L8.68515 10.9488L8.50266 9.73853Z" fill="#E27525" stroke="#E27525" stroke-width="0.995984" stroke-linecap="round" stroke-linejoin="round"/>
<path d="M10.5507 9.73853L10.3682 10.9488L10.4493 14.0052L10.8954 11.6872L10.5507 9.73853Z" fill="#E27525" stroke="#E27525" stroke-width="0.995984" stroke-linecap="round" stroke-linejoin="round"/>
<path d="M10.8946 11.6869L10.4485 14.0048L10.7729 14.2305L12.7195 12.6715L12.7803 11.1331L10.8946 11.6869Z" fill="#F5841F" stroke="#F5841F" stroke-width="0.995984" stroke-linecap="round" stroke-linejoin="round"/>
<path d="M6.27173 11.1331L6.31228 12.6715L8.27911 14.2305L8.58326 14.0048L8.15745 11.6869L6.27173 11.1331Z" fill="#F5841F" stroke="#F5841F" stroke-width="0.995984" stroke-linecap="round" stroke-linejoin="round"/>
<path d="M10.9358 16.3437L10.956 15.7079L10.7735 15.5643H8.25924L8.09703 15.7079L8.11731 16.3437L6.00854 15.3386L6.7385 15.954L8.23897 17.0001H10.7938L12.2943 15.954L13.0242 15.3386L10.9358 16.3437Z" fill="#C0AC9D" stroke="#C0AC9D" stroke-width="0.995984" stroke-linecap="round" stroke-linejoin="round"/>
<path d="M10.7729 14.2303L10.4485 14.0046H8.58307L8.27893 14.2303L8.09644 15.7072L8.25865 15.5636H10.7729L10.9554 15.7072L10.7729 14.2303Z" fill="#161616" stroke="#161616" stroke-width="0.995984" stroke-linecap="round" stroke-linejoin="round"/>
<path d="M17.4847 6.33331L18.0525 3.56409L17.2009 1L10.7732 5.841L13.2469 7.95382L16.7345 8.97945L17.505 8.07689L17.1806 7.83074L17.7078 7.33843L17.3023 7.01023L17.8294 6.59997L17.4847 6.33331Z" fill="#763E1A" stroke="#763E1A" stroke-width="0.995984" stroke-linecap="round" stroke-linejoin="round"/>
<path d="M1 3.56409L1.56774 6.33331L1.20277 6.59997L1.72996 7.01023L1.32442 7.33843L1.87189 7.83074L1.52719 8.07689L2.2977 8.97945L5.80555 7.95382L8.27929 5.841L1.83134 1L1 3.56409Z" fill="#763E1A" stroke="#763E1A" stroke-width="0.995984" stroke-linecap="round" stroke-linejoin="round"/>
<path d="M16.7342 8.97949L13.2467 7.95386L14.3011 9.57436L12.7195 12.6718L14.808 12.6513H17.9103L16.7342 8.97949Z" fill="#F5841F" stroke="#F5841F" stroke-width="0.995984" stroke-linecap="round" stroke-linejoin="round"/>
<path d="M5.80546 7.95386L2.29761 8.97949L1.14185 12.6513H4.24416L6.31237 12.6718L4.75108 9.57436L5.80546 7.95386Z" fill="#F5841F" stroke="#F5841F" stroke-width="0.995984" stroke-linecap="round" stroke-linejoin="round"/>
<path d="M10.5504 9.73866L10.7735 5.84125L11.7873 3.05151H7.26562L8.27945 5.84125L8.5025 9.73866L8.5836 10.9694V14.0053H10.449V10.9694L10.5504 9.73866Z" fill="#F5841F" stroke="#F5841F" stroke-width="0.995984" stroke-linecap="round" stroke-linejoin="round"/>
</svg>
