<svg width="20" height="20" viewBox="0 0 20 20" fill="#fff" xmlns="http://www.w3.org/2000/svg">
<path d="M10 1.6665C5.41667 1.6665 1.66667 5.4165 1.66667 9.99984C1.66667 14.5832 5.41667 18.3332 10 18.3332C14.5833 18.3332 18.3333 14.5832 18.3333 9.99984C18.3333 5.4165 14.5833 1.6665 10 1.6665ZM10.8333 3.3915C13.8417 3.7665 16.2333 6.1665 16.6083 9.1665H11.6667C11.2083 9.1665 10.8333 8.7915 10.8333 8.33317V3.3915ZM3.33333 9.99984C3.33333 6.6165 5.89167 3.79984 9.16667 3.3915V16.6165C5.89167 16.1998 3.33333 13.3832 3.33333 9.99984ZM10.8333 16.6082V11.6665C10.8333 11.2082 11.2083 10.8332 11.6667 10.8332H16.6083C16.2333 13.8415 13.8417 16.2332 10.8333 16.6082Z" fill="#fff"/>
</svg>
