<svg width="20" height="19" viewBox="0 0 20 19" fill="none" xmlns="http://www.w3.org/2000/svg">
<path d="M5.74375 10.5517C5.59435 10.7781 5.51461 11.0443 5.51461 11.3167C5.51461 11.4975 5.54977 11.6766 5.6181 11.8436C5.68643 12.0107 5.78658 12.1625 5.91283 12.2904C6.03909 12.4182 6.18897 12.5197 6.35393 12.5889C6.51888 12.6581 6.69568 12.6937 6.87423 12.6937C7.14314 12.6937 7.40601 12.6129 7.6296 12.4616C7.85319 12.3103 8.02746 12.0953 8.13036 11.8436C8.23327 11.592 8.2602 11.3152 8.20774 11.048C8.15527 10.7809 8.02578 10.5356 7.83564 10.343C7.64549 10.1504 7.40322 10.0193 7.13948 9.96613C6.87574 9.91299 6.60237 9.94026 6.35393 10.0445C6.10549 10.1487 5.89314 10.3252 5.74375 10.5517Z" stroke="#1D1D1D" stroke-width="1.5" stroke-linejoin="round"/>
<path d="M12.4139 12.5167C12.6375 12.668 12.9004 12.7488 13.1693 12.7488L13.1557 12.8039C13.3401 12.8059 13.5229 12.7699 13.6931 12.6981C13.8633 12.6263 14.0173 12.5202 14.1458 12.3863C14.2742 12.2523 14.3744 12.0933 14.4403 11.9189C14.5062 11.7445 14.5363 11.5583 14.5289 11.3718C14.5289 11.0994 14.4492 10.8332 14.2998 10.6067C14.1504 10.3803 13.938 10.2038 13.6896 10.0996C13.4412 9.99534 13.1678 9.96807 12.9041 10.0212C12.6403 10.0743 12.3981 10.2055 12.2079 10.3981C12.0178 10.5906 11.8883 10.836 11.8358 11.1031C11.7833 11.3702 11.8103 11.6471 11.9132 11.8987C12.0161 12.1503 12.1903 12.3654 12.4139 12.5167Z" stroke="#1D1D1D" stroke-width="1.5" stroke-linejoin="round"/>
<path fill-rule="evenodd" clip-rule="evenodd" d="M18.7527 8.85922C18.9725 9.17683 19.0969 9.55206 19.1109 9.93967C19.1167 10.3191 19.0163 10.6924 18.8214 11.0165C18.6266 11.3406 18.3451 11.6022 18.0096 11.7711C18.0249 11.9728 18.0249 12.1753 18.0096 12.377C18.0096 15.4615 14.461 17.9677 10.083 17.9677C5.70495 17.9677 2.15633 15.4615 2.15633 12.377C2.14102 12.1753 2.14102 11.9728 2.15633 11.7711C1.89482 11.6494 1.66256 11.4716 1.47565 11.25C1.28873 11.0283 1.15164 10.7682 1.07386 10.4876C0.996088 10.2069 0.979491 9.91254 1.02522 9.62477C1.07095 9.337 1.17792 9.06275 1.33871 8.82101C1.4995 8.57927 1.71026 8.37583 1.9564 8.22479C2.20253 8.07375 2.47815 7.97872 2.76415 7.94628C3.05016 7.91385 3.33971 7.94478 3.61273 8.03695C3.88576 8.12911 4.13573 8.2803 4.34533 8.48003C5.91199 7.40393 7.75511 6.8152 9.64787 6.7863L10.654 2.00806C10.6653 1.95275 10.6873 1.90025 10.7188 1.85362C10.7503 1.80699 10.7906 1.76715 10.8374 1.73641C10.8842 1.70567 10.9365 1.68464 10.9914 1.67454C11.0463 1.66444 11.1026 1.66547 11.1571 1.67758L14.4881 2.35232C14.6508 2.06925 14.9078 1.85418 15.2129 1.74571C15.518 1.63724 15.8514 1.64247 16.153 1.76046C16.4547 1.87845 16.705 2.10147 16.8589 2.3895C17.0129 2.67753 17.0604 3.0117 16.993 3.33203C16.9256 3.65235 16.7476 3.93786 16.4911 4.13729C16.2346 4.33673 15.9163 4.43703 15.5934 4.4202C15.2704 4.40338 14.9639 4.27052 14.729 4.04547C14.494 3.82043 14.346 3.51794 14.3114 3.1923L11.4018 2.57264L10.518 6.86892C12.3878 6.90955 14.2059 7.49783 15.7526 8.56265C16.0289 8.29408 16.376 8.11218 16.7521 8.03889C17.1281 7.96561 17.5171 8.00406 17.8721 8.14961C18.227 8.29516 18.5329 8.5416 18.7527 8.85922Z" stroke="#1D1D1D" stroke-width="1.5" stroke-linejoin="round"/>
<path fill-rule="evenodd" clip-rule="evenodd" d="M6.9985 14.8463C6.99328 14.842 6.98666 14.8398 6.97992 14.8401C6.97317 14.8404 6.96679 14.8433 6.96202 14.8481C6.95725 14.853 6.95442 14.8594 6.95409 14.8662L6.95406 14.8677C7.84635 15.5301 8.93503 15.8663 10.0417 15.8198C10.0511 15.8194 10.0605 15.8194 10.0698 15.8198C11.1843 15.8666 12.2804 15.5254 13.1762 14.8537C13.1728 14.8505 13.1689 14.8479 13.1646 14.846C13.1598 14.8439 13.1546 14.8428 13.1494 14.8428C13.1388 14.8426 13.1286 14.8468 13.1211 14.8542C13.1089 14.8663 13.0958 14.8774 13.0819 14.8875C12.1984 15.5294 11.1261 15.8483 10.0405 15.7924C8.95611 15.8376 7.88852 15.5081 7.0131 14.8578L6.9985 14.8463Z" stroke="#1D1D1D" stroke-width="1.5" stroke-linejoin="round"/>
</svg>
