<svg width="19" height="16" viewBox="0 0 19 16" fill="none" xmlns="http://www.w3.org/2000/svg">
<path d="M18.0049 8.11976C17.991 7.73929 17.8673 7.37097 17.6488 7.0592C17.4303 6.74743 17.1262 6.50552 16.7733 6.36265C16.4205 6.21977 16.0338 6.18203 15.6599 6.25397C15.286 6.32591 14.941 6.50446 14.6663 6.76809C13.1286 5.72286 11.3212 5.14541 9.46234 5.10553L10.3409 0.888319L13.2335 1.49657C13.2679 1.81622 13.4151 2.11314 13.6487 2.33404C13.8822 2.55495 14.1869 2.68536 14.508 2.70188C14.829 2.7184 15.1455 2.61994 15.4005 2.42418C15.6555 2.22841 15.8324 1.94816 15.8994 1.63373C15.9664 1.3193 15.9192 0.991282 15.7661 0.708554C15.6131 0.425827 15.3643 0.206905 15.0644 0.0910854C14.7645 -0.0247338 14.4331 -0.0298657 14.1297 0.0766106C13.8264 0.183087 13.5709 0.394199 13.4092 0.672052L10.0976 0.00973322C10.0435 -0.00214835 9.98748 -0.00316264 9.93293 0.0067497C9.87837 0.016662 9.82633 0.0373039 9.77981 0.0674783C9.73329 0.0976527 9.69322 0.13676 9.66193 0.182533C9.63064 0.228307 9.60874 0.279835 9.5975 0.334134L8.59727 5.02443C6.71558 5.0528 4.88324 5.63069 3.32575 6.68699C3.11738 6.49093 2.86887 6.34253 2.59744 6.25206C2.32601 6.16159 2.03816 6.13123 1.75383 6.16306C1.4695 6.1949 1.19549 6.28819 0.950799 6.43645C0.706104 6.58471 0.496573 6.7844 0.336725 7.02169C0.176878 7.25898 0.0705381 7.52819 0.0250745 7.81066C-0.020389 8.09313 -0.00388864 8.38211 0.0734321 8.65757C0.150753 8.93303 0.287045 9.18839 0.472863 9.40594C0.658681 9.62349 0.889581 9.79804 1.14956 9.91748C1.13434 10.1154 1.13434 10.3143 1.14956 10.5122C1.14956 13.54 4.67742 16 9.0298 16C13.3822 16 16.91 13.54 16.91 10.5122C16.9253 10.3143 16.9253 10.1154 16.91 9.91748C17.2436 9.7517 17.5234 9.4949 17.7172 9.17677C17.9109 8.85865 18.0107 8.49219 18.0049 8.11976ZM4.48819 9.47143C4.48819 9.11294 4.6306 8.76914 4.88408 8.51565C5.13757 8.26217 5.48137 8.11976 5.83986 8.11976C6.19835 8.11976 6.54215 8.26217 6.79564 8.51565C7.04912 8.76914 7.19153 9.11294 7.19153 9.47143C7.19153 9.82991 7.04912 10.1737 6.79564 10.4272C6.54215 10.6807 6.19835 10.8231 5.83986 10.8231C5.48137 10.8231 5.13757 10.6807 4.88408 10.4272C4.6306 10.1737 4.48819 9.82991 4.48819 9.47143ZM12.3414 13.1885C11.3824 13.9112 10.2025 14.279 9.00277 14.2293C7.80301 14.279 6.62312 13.9112 5.66414 13.1885C5.60667 13.1185 5.57729 13.0296 5.58174 12.9391C5.58618 12.8486 5.62413 12.763 5.68819 12.6989C5.75225 12.6349 5.83785 12.5969 5.92834 12.5925C6.01884 12.588 6.10775 12.6174 6.17778 12.6749C6.99044 13.271 7.98242 13.5714 8.98925 13.5264C9.99733 13.5813 10.9939 13.2904 11.8142 12.7019C11.8488 12.6632 11.891 12.632 11.9381 12.6103C11.9853 12.5885 12.0364 12.5767 12.0883 12.5756C12.1401 12.5745 12.1917 12.584 12.2398 12.6037C12.2878 12.6233 12.3313 12.6526 12.3675 12.6898C12.4038 12.7269 12.432 12.7712 12.4504 12.8197C12.4688 12.8682 12.4771 12.92 12.4746 12.9719C12.4722 13.0237 12.4591 13.0745 12.4361 13.1211C12.4132 13.1677 12.381 13.209 12.3414 13.2426V13.1885ZM12.0981 10.8772C11.8308 10.8772 11.5694 10.7979 11.3471 10.6494C11.1249 10.5008 10.9516 10.2897 10.8493 10.0428C10.747 9.79577 10.7202 9.524 10.7724 9.2618C10.8246 8.9996 10.9533 8.75875 11.1423 8.56972C11.3314 8.38069 11.5722 8.25195 11.8344 8.1998C12.0966 8.14764 12.3684 8.17441 12.6154 8.27671C12.8623 8.37902 13.0734 8.55227 13.222 8.77455C13.3705 8.99683 13.4498 9.25816 13.4498 9.5255C13.4571 9.70864 13.4271 9.89137 13.3616 10.0626C13.2962 10.2338 13.1965 10.3898 13.0688 10.5213C12.9411 10.6528 12.788 10.757 12.6188 10.8274C12.4496 10.8979 12.2679 10.9332 12.0846 10.9312L12.0981 10.8772Z" fill="#9198BB"/>
</svg>
