<svg width="24" height="24" viewBox="0 0 24 24" fill="none" xmlns="http://www.w3.org/2000/svg">
<path d="M9.25 18.75V19.5H10V18.75H9.25ZM6.25 15H8.25V13.5H6.25V15ZM8.5 15.25V18.75H10V15.25H8.5ZM9.25 18H6.25V19.5H9.25V18ZM6 17.75V15.25H4.5V17.75H6ZM6.25 18C6.11193 18 6 17.8881 6 17.75H4.5C4.5 18.7165 5.2835 19.5 6.25 19.5V18ZM8.25 15C8.38807 15 8.5 15.1119 8.5 15.25H10C10 14.2835 9.2165 13.5 8.25 13.5V15ZM6.25 13.5C5.2835 13.5 4.5 14.2835 4.5 15.25H6C6 15.1119 6.11193 15 6.25 15V13.5Z" fill="#A2B2D8"/>
<path d="M13.25 18.75V19.5H14V18.75H13.25ZM9.25 18.75H8.5V19.5H9.25V18.75ZM10.25 10.5H12.25V9H10.25V10.5ZM12.5 10.75V18.75H14V10.75H12.5ZM13.25 18H9.25V19.5H13.25V18ZM10 18.75V10.75H8.5V18.75H10ZM12.25 10.5C12.3881 10.5 12.5 10.6119 12.5 10.75H14C14 9.7835 13.2165 9 12.25 9V10.5ZM10.25 9C9.2835 9 8.5 9.7835 8.5 10.75H10C10 10.6119 10.1119 10.5 10.25 10.5V9Z" fill="#A2B2D8"/>
<path d="M13.25 18.75H12.5V19.5H13.25V18.75ZM14.25 6H16.25V4.5H14.25V6ZM16.5 6.25V17.75H18V6.25H16.5ZM16.25 18H13.25V19.5H16.25V18ZM14 18.75V6.25H12.5V18.75H14ZM16.5 17.75C16.5 17.8881 16.3881 18 16.25 18V19.5C17.2165 19.5 18 18.7165 18 17.75H16.5ZM16.25 6C16.3881 6 16.5 6.11193 16.5 6.25H18C18 5.2835 17.2165 4.5 16.25 4.5V6ZM14.25 4.5C13.2835 4.5 12.5 5.2835 12.5 6.25H14C14 6.11193 14.1119 6 14.25 6V4.5Z" fill="#A2B2D8"/>
</svg>
