<svg width="16" height="16" viewBox="0 0 16 16" fill="none" xmlns="http://www.w3.org/2000/svg">
<path d="M0.282608 7.67194L3.96933 9.25234L5.39632 14.5232C5.48763 14.8608 5.84704 14.9856 6.0856 14.7616L8.14064 12.8374C8.35606 12.6358 8.66288 12.6258 8.88801 12.8134L12.5946 15.9042C12.8498 16.1173 13.2113 15.9567 13.2753 15.6025L15.9906 0.601498C16.0604 0.214607 15.7295 -0.108149 15.4087 0.0343316L0.278288 6.73822C-0.0950996 6.90361 -0.0918463 7.51078 0.282608 7.67194ZM5.16635 8.41105L12.3716 3.31415C12.5011 3.22282 12.6343 3.42392 12.5231 3.54239L6.5767 9.89093C6.36768 10.1144 6.23286 10.4134 6.19467 10.738L5.99211 12.4621C5.96528 12.6923 5.68373 12.7152 5.62843 12.4924L4.84939 9.34845C4.76016 8.98986 4.89019 8.60683 5.16635 8.41105Z" fill="#9198BB"/>
</svg>
