<svg width="16" height="15" viewBox="0 0 16 15" fill="none" xmlns="http://www.w3.org/2000/svg">
<path fill-rule="evenodd" clip-rule="evenodd" d="M9.48037 3.55161C8.2265 4.111 5.72052 5.26878 1.96243 7.02497C1.35217 7.28526 1.03249 7.5399 1.00339 7.78889C0.954209 8.20969 1.44551 8.37539 2.11453 8.60103C2.20553 8.63172 2.29982 8.66352 2.39648 8.69722C3.05469 8.92671 3.9401 9.19519 4.40039 9.20585C4.81791 9.21553 5.28392 9.0309 5.79841 8.65197C9.3097 6.1097 11.1223 4.82472 11.236 4.79702C11.3163 4.77747 11.4276 4.7529 11.503 4.82476C11.5783 4.89662 11.5709 5.03271 11.5629 5.06922C11.5143 5.29176 9.58574 7.21484 8.58773 8.21002C8.27662 8.52026 8.05593 8.74033 8.01081 8.79058C7.90975 8.90317 7.80675 9.00967 7.70776 9.11203C7.09627 9.7443 6.63771 10.2184 7.73315 10.9927C8.25957 11.3648 8.68082 11.6725 9.10107 11.9795C9.56002 12.3147 10.0178 12.6491 10.6101 13.0655C10.761 13.1716 10.9051 13.2818 11.0454 13.3891C11.5796 13.7975 12.0594 14.1645 12.6522 14.1059C12.9967 14.0719 13.3525 13.7245 13.5332 12.6883C13.9603 10.2396 14.7998 4.93377 14.9938 2.74739C15.0108 2.55583 14.9894 2.31068 14.9722 2.20306C14.9551 2.09545 14.9192 1.94211 14.7887 1.82861C14.6343 1.69418 14.3958 1.66584 14.2892 1.66775C13.8043 1.67701 13.0604 1.95445 9.48037 3.55161Z" stroke="#1D1D1D" stroke-width="1.5" stroke-linejoin="round"/>
</svg>
