<svg width="18" height="16" viewBox="0 0 18 16" fill="none" xmlns="http://www.w3.org/2000/svg">
<path d="M17 3.20734C16.4116 3.46807 15.7795 3.64423 15.115 3.72386C15.7929 3.31798 16.313 2.67392 16.5582 1.90725C15.924 2.28354 15.2214 2.55694 14.4738 2.70351C13.8748 2.0665 13.0222 1.66766 12.078 1.66766C10.2656 1.66766 8.79565 3.13758 8.79565 4.95138C8.79565 5.20787 8.82524 5.45732 8.88021 5.69832C6.15106 5.56091 3.73337 4.25376 2.11407 2.26803C1.8322 2.75425 1.67013 3.31798 1.67013 3.91835C1.67013 5.05708 2.25007 6.06263 3.13019 6.65102C2.59183 6.6334 2.08588 6.48613 1.64335 6.2402V6.28248C1.64335 7.8729 2.77433 9.19977 4.27667 9.50136C4.00044 9.57606 3.71083 9.61552 3.41205 9.61552C3.20065 9.61552 2.99419 9.59579 2.79406 9.55774C3.21193 10.8614 4.42394 11.8112 5.86074 11.8366C4.73681 12.7174 3.32115 13.2424 1.78358 13.2424C1.51863 13.2424 1.2572 13.2269 1 13.1966C2.45301 14.1289 4.17801 14.6715 6.03127 14.6715C12.0702 14.6715 15.3715 9.66978 15.3715 5.33189C15.3715 5.19096 15.368 5.04862 15.3617 4.90769C16.0029 4.44402 16.5596 3.86691 16.9986 3.20946L17 3.20734Z" stroke="#1D1D1D" stroke-width="1.5" stroke-linejoin="round"/>
</svg>
