<svg width="20" height="16" viewBox="0 0 20 16" fill="none" xmlns="http://www.w3.org/2000/svg">
<path d="M19.2 1.89416C18.4938 2.21527 17.7341 2.43246 16.9374 2.52945C17.7509 2.02971 18.3751 1.23897 18.6698 0.295208C17.9086 0.758204 17.0652 1.09408 16.1683 1.27512C15.4498 0.490408 14.426 0 13.2924 0C11.1173 0 9.35324 1.80891 9.35324 4.03924C9.35324 4.35583 9.38819 4.66399 9.45576 4.9598C6.18202 4.79142 3.27932 3.18343 1.33634 0.738925C0.997338 1.33537 0.802864 2.02971 0.802864 2.76984C0.802864 4.17087 1.4988 5.40774 2.55518 6.1319C1.90978 6.11112 1.30197 5.92947 0.771137 5.62613C0.770844 5.6433 0.770843 5.66047 0.770843 5.67734C0.770843 7.63445 2.12922 9.26684 3.93089 9.63766C3.6007 9.73044 3.252 9.77953 2.89331 9.77953C2.63891 9.77953 2.39244 9.75453 2.15213 9.70754C2.6533 11.3119 4.10774 12.4798 5.83186 12.5126C4.48347 13.5962 2.7852 14.2417 0.939172 14.2417C0.621904 14.2417 0.307574 14.2227 0 14.1851C1.74233 15.3316 3.81338 16 6.03779 16C13.2832 16 17.2456 9.84521 17.2456 4.50705C17.2456 4.33204 17.2418 4.15762 17.2341 3.98471C18.0044 3.41538 18.6721 2.70417 19.2 1.89416Z" fill="#9198BB"/>
</svg>
