<svg width="77" height="78" viewBox="0 0 77 78" fill="none" xmlns="http://www.w3.org/2000/svg">
<g clip-path="url(#clip0_981_382)">
<path d="M23.5542 32.8545L38.509 17.9057L53.4699 32.8666L62.1667 24.1638L38.509 0.5L14.8513 24.1577L23.5542 32.8545Z" fill="#A2A2A2"/>
<path d="M0 39.0032L8.69679 30.3003L17.3997 39.0032L8.69679 47.6999L0 39.0032Z" fill="#A2A2A2"/>
<path d="M23.5542 45.1455L38.509 60.1003L53.4699 45.1394L62.1728 53.8301L38.5151 77.4939L14.8513 53.8484L23.5542 45.1455Z" fill="#A2A2A2"/>
<path d="M59.6002 39.0032L68.297 30.3003L76.9999 38.9971L68.297 47.706L59.6002 39.0032Z" fill="#A2A2A2"/>
<path d="M47.3336 38.9968L38.5091 30.1663L31.9834 36.6919L31.2293 37.4399L29.6846 38.9847L38.5091 47.8031L47.3336 39.0029V38.9968Z" fill="#A2A2A2"/>
</g>
<defs>
<clipPath id="clip0_981_382">
<rect width="77" height="77" fill="white" transform="translate(0 0.5)"/>
</clipPath>
</defs>
</svg>
