<svg width="70" height="76" viewBox="0 0 70 76" fill="none" xmlns="http://www.w3.org/2000/svg">
<g clip-path="url(#clip0_3414_6856)">
<path d="M6.90488 6.41797C10.4426 6.41797 13.3163 9.31356 13.3163 12.8782V63.0794C13.3163 66.644 10.4426 69.5396 6.90488 69.5396C3.36714 69.5396 0.493408 66.644 0.493408 63.0794V12.8782C0.504294 9.31356 3.36714 6.41797 6.90488 6.41797Z" fill="#0093DD"/>
<path d="M48.3022 2.51321C50.7949 5.04685 50.7731 9.13796 48.2586 11.6387L12.8377 46.9561C10.3232 49.4678 6.26294 49.4459 3.78108 46.9122C1.28834 44.3786 1.31011 40.2875 3.82462 37.7867L39.2455 2.48031C41.7601 -0.0423654 45.8203 -0.0204289 48.3022 2.51321Z" fill="#0093DD"/>
<path d="M48.3022 73.3997C50.7949 70.8661 50.7731 66.775 48.2586 64.2742L12.8377 28.9678C10.3232 26.4561 6.26294 26.478 3.78108 29.0117C1.28834 31.5453 1.31011 35.6364 3.82462 38.1372L39.2455 73.4436C41.7601 75.9663 45.8203 75.9443 48.3022 73.3997Z" fill="#0093DD"/>
<path d="M67.6241 46.2973C70.1169 48.831 70.106 52.9221 67.6024 55.4338L48.9666 74.1235C46.4521 76.6352 42.3919 76.6242 39.8992 74.1015C37.4064 71.5679 37.4173 67.4768 39.9209 64.9651L58.5566 46.2754C61.0603 43.7637 65.1205 43.7746 67.6241 46.2973Z" fill="#0093DD"/>
<path d="M67.6241 29.7031C70.1169 27.1695 70.106 23.0784 67.6024 20.5666L48.9666 1.87694C46.4521 -0.634761 42.3919 -0.623793 39.8992 1.89888C37.4064 4.43252 37.4173 8.52363 39.9209 11.0353L58.5566 29.725C61.0712 32.2367 65.1314 32.2367 67.6241 29.7031Z" fill="#0093DD"/>
<path d="M44.4808 44.5204C48.0518 44.5204 50.9467 41.6035 50.9467 38.0053C50.9467 34.4071 48.0518 31.4902 44.4808 31.4902C40.9098 31.4902 38.0149 34.4071 38.0149 38.0053C38.0149 41.6035 40.9098 44.5204 44.4808 44.5204Z" fill="#0093DD"/>
</g>
<defs>
<clipPath id="clip0_3414_6856">
<rect width="69" height="76" fill="white" transform="translate(0.495361)"/>
</clipPath>
</defs>
</svg>
