<svg width="74" height="82" viewBox="0 0 74 82" fill="none" xmlns="http://www.w3.org/2000/svg">
<path d="M45.0696 23.7865L38.3875 19.9019C37.7624 19.5882 37.0722 19.4248 36.3723 19.4248C35.6724 19.4248 34.9822 19.5882 34.3571 19.9019L27.6749 23.7865C26.2431 24.6321 26.2165 26.0063 27.6749 26.8255L34.3571 30.763C34.9783 31.0893 35.67 31.2598 36.3723 31.2598C37.0746 31.2598 37.7663 31.0893 38.3875 30.763L45.0696 26.8255C45.3848 26.7143 45.6576 26.5084 45.8506 26.2363C46.0435 25.9642 46.1471 25.6392 46.1471 25.306C46.1471 24.9728 46.0435 24.6478 45.8506 24.3757C45.6576 24.1036 45.3848 23.8977 45.0696 23.7865Z" fill="#4330C8"/>
<path d="M71.1348 18.9753L38.838 0.477069C38.2128 0.163387 37.5226 0 36.8227 0C36.1228 0 35.4326 0.163387 34.8075 0.477069L2.5106 18.9753C1.92707 19.362 1.44141 19.8782 1.09175 20.4835C0.742093 21.0887 0.537955 21.7665 0.495361 22.4635L0.495361 59.46C0.537955 60.1571 0.742093 60.8349 1.09175 61.4401C1.44141 62.0453 1.92707 62.5616 2.5106 62.9483L34.8075 81.4465C35.4326 81.7602 36.1228 81.9236 36.8227 81.9236C37.5226 81.9236 38.2128 81.7602 38.838 81.4465L71.1348 62.9483C71.7184 62.5616 72.204 62.0453 72.5537 61.4401C72.9033 60.8349 73.1075 60.1571 73.1501 59.46V22.4635C73.1075 21.7665 72.9033 21.0887 72.5537 20.4835C72.204 19.8782 71.7184 19.362 71.1348 18.9753ZM56.763 27.5638L38.3872 38.3456C37.7659 38.6719 37.0742 38.8425 36.3719 38.8425C35.6697 38.8425 34.978 38.6719 34.3567 38.3456L22.6895 31.5277C21.2576 30.6556 20.0379 31.3427 20.0379 33.0075V53.6463C20.0881 53.973 20.0397 54.3072 19.8987 54.6064C19.7577 54.9055 19.5305 55.1561 19.2461 55.3261C18.9617 55.4962 18.633 55.578 18.3018 55.5612C17.9706 55.5444 17.6519 55.4298 17.3863 55.2318L15.3975 54.2012C14.7978 53.8401 14.2958 53.3383 13.9353 52.7395C13.5748 52.1407 13.3667 51.4632 13.3293 50.7658V28.3566C13.3719 27.6595 13.576 26.9817 13.9256 26.3765C14.2753 25.7712 14.761 25.255 15.3445 24.8683L34.3302 13.8751C34.9553 13.5614 35.6455 13.398 36.3454 13.398C37.0453 13.398 37.7355 13.5614 38.3607 13.8751L56.7365 24.4455C57.083 24.533 57.3907 24.7325 57.6115 25.0127C57.8322 25.2929 57.9536 25.6382 57.9566 25.9944C57.9596 26.3507 57.8442 26.6979 57.6282 26.9819C57.4122 27.2658 57.108 27.4704 56.763 27.5638Z" fill="#4330C8"/>
</svg>
