<svg width="114" height="58" viewBox="0 0 114 58" fill="none" xmlns="http://www.w3.org/2000/svg">
<path d="M70.8277 1.03225H73.4675V1.43192L71.663 5.08123L71.0166 4.76149L72.525 1.725H70.8277V1.03225ZM73.8982 1.03225H76.538V1.43192L74.7331 5.10788L74.0872 4.78814L75.5684 1.725H73.8982V1.03225ZM78.2349 0.926167L78.8812 1.2459L78.1811 2.60428C78.5309 2.60428 78.8003 2.73701 79.0431 2.97681C79.2849 3.21661 79.3929 3.5097 79.3929 3.88272C79.3929 4.2291 79.2582 4.52219 79.0159 4.76149C78.7732 5.00129 78.4771 5.13502 78.1268 5.13502C77.7765 5.13502 77.4533 5.00129 77.211 4.76149C76.9687 4.52219 76.8612 4.22861 76.8612 3.90937C76.8612 3.77614 76.8878 3.66957 76.915 3.53635C76.9416 3.40312 77.0497 3.21661 77.1844 2.95065L78.2349 0.926167ZM78.1539 3.29654C78.0192 3.29654 77.8845 3.35032 77.8036 3.45641C77.696 3.56298 77.6689 3.69621 77.6689 3.82943C77.6689 3.98929 77.7232 4.12252 77.8307 4.20246C77.9383 4.30904 78.0459 4.36182 78.1811 4.36182C78.3153 4.36182 78.45 4.30904 78.558 4.20246C78.6656 4.09588 78.7194 3.96266 78.7194 3.80279C78.7194 3.64292 78.6656 3.50969 78.558 3.42976C78.4233 3.35032 78.2881 3.29654 78.1539 3.29654ZM82.086 2.84408C82.275 2.95065 82.4092 3.11052 82.5172 3.29654C82.6248 3.48305 82.6786 3.66956 82.6786 3.88272C82.6786 4.12252 82.6248 4.33567 82.5172 4.52219C82.4092 4.70821 82.2478 4.86808 82.0593 4.94801C81.8708 5.05508 81.6286 5.10788 81.3049 5.10788C80.9817 5.10788 80.7128 5.05508 80.5238 4.97466C80.3353 4.86808 80.174 4.73535 80.0659 4.54834C79.9584 4.36183 79.9046 4.14867 79.9046 3.90937C79.9046 3.69621 79.9584 3.50969 80.0393 3.35032C80.1202 3.18996 80.2815 3.03058 80.4434 2.89687C80.3353 2.76414 80.2278 2.65707 80.174 2.52434C80.1202 2.39112 80.0931 2.2579 80.0931 2.09803C80.0931 1.88488 80.1469 1.69836 80.2544 1.5385C80.3625 1.37912 80.4972 1.2459 80.6857 1.13932C80.7937 0.979454 81.0089 0.926167 81.2511 0.926167C81.4934 0.926167 81.6824 0.979458 81.8708 1.05939C82.0593 1.16547 82.194 1.29919 82.3016 1.45906C82.4092 1.64508 82.4634 1.83158 82.4634 2.04474C82.4634 2.17796 82.4363 2.31119 82.3825 2.44441C82.3282 2.55099 82.2207 2.68421 82.086 2.84408ZM81.224 1.64507C81.0898 1.64507 80.9817 1.69836 80.9279 1.77879C80.847 1.85872 80.7937 1.96481 80.7937 2.09803C80.7937 2.23125 80.847 2.33733 80.9279 2.41776C81.0089 2.4977 81.1169 2.55098 81.2511 2.55098C81.3858 2.55098 81.4934 2.4977 81.5743 2.41776C81.6552 2.33733 81.709 2.23125 81.709 2.09803C81.709 1.96481 81.6552 1.85872 81.5743 1.77879C81.4667 1.69836 81.3592 1.64507 81.224 1.64507ZM81.2511 3.24325C81.0626 3.24325 80.9008 3.29654 80.7937 3.40312C80.6585 3.5097 80.6047 3.64292 80.6047 3.80279C80.6047 3.96266 80.6585 4.09588 80.7937 4.20246C80.9008 4.30904 81.0626 4.36182 81.2511 4.36182C81.4401 4.36182 81.6014 4.30904 81.709 4.20246C81.8166 4.09588 81.8708 3.96266 81.8708 3.80279C81.8708 3.64292 81.8166 3.5097 81.6824 3.40312C81.6014 3.29654 81.4401 3.24325 81.2511 3.24325ZM84.3754 0.926167L85.0218 1.2459L84.3216 2.60428C84.672 2.60428 84.9409 2.73701 85.1837 2.97681C85.4259 3.21661 85.5335 3.5097 85.5335 3.88272C85.5335 4.2291 85.3993 4.52219 85.1565 4.76149C84.9142 5.00129 84.6177 5.13502 84.2679 5.13502C83.9175 5.13502 83.5944 5.00129 83.3521 4.76149C83.1098 4.52219 83.0018 4.2291 83.0018 3.90937C83.0018 3.77614 83.0289 3.66957 83.0555 3.53635C83.0827 3.40312 83.1902 3.21661 83.3249 2.95065L84.3754 0.926167ZM84.2679 3.29654C84.1332 3.29654 83.9985 3.35032 83.9175 3.45641C83.8095 3.56298 83.7828 3.69621 83.7828 3.82943C83.7828 3.98929 83.8366 4.12252 83.9447 4.20246C84.0523 4.30904 84.1603 4.36182 84.2945 4.36182C84.4292 4.36182 84.5639 4.30904 84.672 4.20246C84.7795 4.09588 84.8333 3.96266 84.8333 3.80279C84.8333 3.64292 84.7795 3.50969 84.672 3.42976C84.5639 3.35032 84.4292 3.29654 84.2679 3.29654ZM87.3379 5.08123L86.6915 4.76149L87.3922 3.40312C87.0419 3.42977 86.7458 3.29654 86.5031 3.05674C86.2608 2.81743 86.1532 2.52434 86.1532 2.15132C86.1532 1.80494 86.2879 1.51185 86.5302 1.27205C86.7725 1.05939 87.069 0.926167 87.4188 0.926167C87.7692 0.926167 88.0923 1.05939 88.3346 1.29919C88.5774 1.5385 88.6845 1.83158 88.6845 2.15132C88.6845 2.28454 88.6578 2.39112 88.6312 2.52434C88.604 2.65707 88.4965 2.84358 88.3613 3.08387L87.3379 5.08123ZM87.4188 2.71085C87.5535 2.71085 87.6882 2.65707 87.7692 2.55098C87.8767 2.44441 87.9039 2.31119 87.9039 2.17796C87.9039 2.0181 87.8496 1.88487 87.742 1.77829C87.6345 1.67172 87.5264 1.61843 87.3922 1.61843C87.2575 1.61843 87.1228 1.67172 87.0147 1.77829C86.9072 1.88487 86.8534 2.0181 86.8534 2.17796C86.8534 2.33734 86.9072 2.47105 87.0147 2.55098C87.1499 2.65707 87.2841 2.71085 87.4188 2.71085ZM89.2238 1.03225H91.863V1.43192L90.0586 5.10788L89.4122 4.78814L90.8935 1.725H89.2238V1.03225ZM93.8022 0.926167H94.5561V3.48305H94.9064V4.17581H94.5561V4.97466H93.8022V4.17581H92.0515V3.48305L93.8022 0.926167ZM93.8293 3.48305V2.15132L92.9135 3.48305H93.8293ZM96.6304 0.926167L97.2763 1.2459L96.5762 2.60428C96.9265 2.60428 97.1959 2.73701 97.4382 2.97681C97.6804 3.21661 97.7885 3.5097 97.7885 3.88272C97.7885 4.2291 97.6533 4.52219 97.411 4.76149C97.1688 5.00129 96.8722 5.13502 96.5224 5.13502C96.1721 5.13502 95.8489 5.00129 95.6066 4.76149C95.3643 4.52219 95.2568 4.22861 95.2568 3.90937C95.2568 3.77614 95.2834 3.66957 95.3106 3.53635C95.3372 3.40312 95.4453 3.21661 95.58 2.95065L96.6304 0.926167ZM96.5495 3.29654C96.4148 3.29654 96.2801 3.35032 96.1992 3.45641C96.0916 3.56298 96.0645 3.69621 96.0645 3.82943C96.0645 3.98929 96.1183 4.12252 96.2263 4.20246C96.3339 4.30904 96.4415 4.36182 96.5762 4.36182C96.7114 4.36182 96.8456 4.30904 96.9531 4.20246C97.0612 4.09588 97.115 3.96266 97.115 3.80279C97.115 3.64292 97.0612 3.50969 96.9531 3.42976C96.8184 3.35032 96.6842 3.29654 96.5495 3.29654ZM99.0003 1.03225H100.886V1.725H99.5658L99.4311 2.44441C99.4849 2.44441 99.512 2.41776 99.5658 2.41776H99.7005C100.051 2.41776 100.374 2.55098 100.616 2.79078C100.859 3.03058 100.967 3.35032 100.967 3.72285C100.967 4.12252 100.831 4.44176 100.562 4.70821C100.293 4.97466 99.9699 5.10788 99.5929 5.10788C99.2426 5.10788 98.9465 5.0013 98.7043 4.81528C98.4615 4.62827 98.3002 4.36183 98.2192 4.01594H99.0275C99.0808 4.14867 99.1617 4.22861 99.2697 4.30854C99.3773 4.36183 99.4849 4.41561 99.5929 4.41561C99.7543 4.41561 99.9161 4.36182 100.024 4.2286C100.132 4.12252 100.212 3.96265 100.212 3.77614C100.212 3.58963 100.158 3.45641 100.051 3.32318C99.9432 3.21661 99.8085 3.13668 99.6467 3.13668C99.5658 3.13668 99.4849 3.16331 99.4039 3.18996C99.3235 3.24325 99.2426 3.29654 99.1617 3.37648L98.5424 3.24325L99.0003 1.03225ZM95.9836 7.53203H95.2296C95.2568 7.10572 95.3915 6.75934 95.6332 6.51954C95.876 6.28024 96.1992 6.14652 96.6033 6.14652C96.8456 6.14652 97.0612 6.2003 97.2497 6.30688C97.4382 6.41297 97.5729 6.54618 97.7076 6.75934C97.8151 6.94585 97.8694 7.15901 97.8694 7.34552C97.8694 7.58533 97.7885 7.82463 97.6533 8.11772C97.5191 8.38417 97.2763 8.7039 96.8994 9.07692L96.4415 9.55653H97.8694V10.2488H95.1216V9.87626L96.361 8.62397C96.6571 8.33137 96.8722 8.09156 96.9531 7.90505C97.0612 7.71854 97.115 7.55867 97.115 7.39881C97.115 7.23894 97.0612 7.13237 96.9531 7.02579C96.8456 6.91921 96.7114 6.86592 96.5495 6.86592C96.3882 6.86592 96.253 6.91921 96.1454 7.05243C96.0645 7.15901 95.9836 7.31887 95.9836 7.53203ZM99.6201 6.14652C99.9161 6.14652 100.158 6.22694 100.374 6.36016C100.59 6.49289 100.751 6.70605 100.859 6.99914C100.967 7.29223 101.02 7.6919 101.02 8.2243C101.02 8.75719 100.967 9.15685 100.831 9.44945C100.724 9.74254 100.562 9.9557 100.347 10.0889C100.158 10.2221 99.889 10.3021 99.5929 10.3021C99.2969 10.3021 99.0275 10.2221 98.8385 10.0889C98.6234 9.9557 98.4615 9.74254 98.3539 9.44945C98.2459 9.15685 98.1921 8.75719 98.1921 8.25095C98.1921 7.53204 98.3002 6.99915 98.5424 6.67941C98.8385 6.33303 99.1888 6.14652 99.6201 6.14652ZM99.6467 6.86592C99.512 6.86592 99.4039 6.89256 99.2969 6.99914C99.1888 7.07907 99.1079 7.2123 99.0541 7.42545C99.0003 7.61197 98.9737 7.90506 98.9737 8.30423C98.9737 8.81047 99.0275 9.15685 99.1617 9.34336C99.2697 9.52938 99.4311 9.63646 99.6201 9.63646C99.8085 9.63646 99.9432 9.55652 100.051 9.37001C100.186 9.15685 100.239 8.78383 100.239 8.27758C100.239 7.77183 100.186 7.39882 100.051 7.2123C99.9965 6.9725 99.8352 6.86592 99.6467 6.86592ZM101.478 6.2531H104.118V6.65277L102.313 10.3287L101.667 10.009L103.175 6.94586H101.505V6.2531H101.478ZM104.548 6.2531H107.188V6.65277L105.357 10.3287L104.71 10.009L106.219 6.94586H104.548V6.2531ZM81.1973 15.5496L80.551 15.2298L81.2511 13.8715C80.9008 13.8715 80.6319 13.7382 80.3891 13.4984C80.1468 13.2586 80.0393 12.9655 80.0393 12.593C80.0393 12.2466 80.174 11.9535 80.4163 11.7137C80.6585 11.4744 80.9551 11.3412 81.3049 11.3412C81.6552 11.3412 81.9784 11.4744 82.2207 11.7137C82.4634 11.9535 82.571 12.2466 82.571 12.5664C82.571 12.6991 82.5439 12.8057 82.5172 12.9394C82.4901 13.0726 82.3825 13.2586 82.2478 13.4984L81.1973 15.5496ZM81.3049 13.1525C81.4401 13.1525 81.5743 13.0988 81.6552 12.9927C81.7628 12.8861 81.7899 12.7529 81.7899 12.6197C81.7899 12.4598 81.7361 12.3266 81.6286 12.22C81.5205 12.1134 81.413 12.0601 81.2783 12.0601C81.1436 12.0601 81.0089 12.1134 80.9008 12.22C80.7937 12.3266 80.7394 12.4598 80.7394 12.6197C80.7394 12.7795 80.7937 12.9128 80.9008 12.9927C81.036 13.0988 81.1436 13.1525 81.3049 13.1525ZM103.929 21.8357C104.226 21.8357 104.468 21.9156 104.683 22.0489C104.899 22.1821 105.06 22.3952 105.168 22.6883C105.276 22.9814 105.33 23.3806 105.33 23.9135C105.33 24.4464 105.276 24.846 105.141 25.1391C105.033 25.4317 104.872 25.6449 104.656 25.7781C104.468 25.9113 104.198 25.9913 103.902 25.9913C103.606 25.9913 103.336 25.9113 103.148 25.7781C102.932 25.6449 102.771 25.4317 102.663 25.1391C102.555 24.846 102.502 24.4464 102.502 23.9401C102.502 23.2212 102.609 22.6883 102.852 22.3686C103.121 21.9956 103.471 21.8357 103.929 21.8357ZM103.956 22.5551C103.822 22.5551 103.713 22.5818 103.606 22.6883C103.498 22.7683 103.417 22.9015 103.39 23.1146C103.336 23.3007 103.309 23.5938 103.309 23.9934C103.309 24.4997 103.364 24.846 103.498 25.0321C103.606 25.2186 103.767 25.3251 103.956 25.3251C104.145 25.3251 104.279 25.2457 104.387 25.0592C104.522 24.846 104.575 24.473 104.575 23.9668C104.575 23.4605 104.522 23.0875 104.387 22.9015C104.279 22.635 104.145 22.5551 103.956 22.5551ZM73.8982 27.1365H76.538V27.5362L74.7331 31.2121L74.0872 30.8924L75.5956 27.8292H73.9253V27.1365H73.8982ZM90.4085 31.2121L89.7621 30.8924L90.4622 29.534C90.1124 29.534 89.8425 29.4008 89.6002 29.161C89.358 28.9212 89.2504 28.6281 89.2504 28.2556C89.2504 27.9087 89.3851 27.6161 89.6274 27.3763C89.8701 27.1365 90.1662 27.0033 90.5165 27.0033C90.8663 27.0033 91.19 27.1365 91.4323 27.3763C91.6746 27.6161 91.7821 27.9087 91.7821 28.2284C91.7821 28.3616 91.7555 28.4682 91.7283 28.6014C91.7012 28.7352 91.5936 28.9212 91.4589 29.161L90.4085 31.2121ZM90.4894 28.8412C90.6241 28.8412 90.7583 28.788 90.8392 28.6814C90.9473 28.5748 90.9739 28.4416 90.9739 28.3084C90.9739 28.1485 90.9201 28.0158 90.8126 27.9087C90.705 27.8026 90.5969 27.7493 90.4622 27.7493C90.3275 27.7493 90.1933 27.8026 90.0853 27.9087C89.9777 28.0158 89.9234 28.1485 89.9234 28.3084C89.9234 28.4682 89.9777 28.6014 90.0853 28.6814C90.22 28.788 90.3547 28.8412 90.4894 28.8412ZM102.07 27.1365H103.956V27.8292H102.636L102.474 28.5482C102.529 28.5482 102.555 28.522 102.609 28.522H102.744C103.094 28.522 103.417 28.6552 103.66 28.8945C103.902 29.1343 104.01 29.4541 104.01 29.8271C104.01 30.2268 103.875 30.546 103.606 30.8124C103.336 31.0789 103.013 31.2121 102.636 31.2121C102.286 31.2121 101.989 31.1055 101.748 30.919C101.505 30.7325 101.344 30.4661 101.263 30.1202H102.07C102.125 30.2529 102.206 30.3328 102.313 30.4128C102.421 30.4661 102.529 30.5194 102.636 30.5194C102.798 30.5194 102.96 30.4661 103.068 30.3328C103.175 30.2268 103.256 30.0664 103.256 29.8804C103.256 29.6939 103.202 29.5606 103.094 29.4274C102.987 29.3208 102.852 29.2409 102.69 29.2409C102.609 29.2409 102.529 29.2676 102.448 29.2942C102.367 29.3475 102.286 29.4008 102.206 29.4807L101.586 29.3475L102.07 27.1365ZM81.5477 32.2774H82.3016V34.8348H82.6514V35.527H82.3016V36.3264H81.5477V35.527H79.797V34.8348L81.5477 32.2774ZM81.5477 34.8348V33.503L80.6319 34.8348H81.5477ZM107.053 33.6624H106.299C106.326 33.2366 106.461 32.8897 106.703 32.6504C106.945 32.4106 107.269 32.2774 107.673 32.2774C107.915 32.2774 108.131 32.3312 108.319 32.4373C108.507 32.5438 108.642 32.6771 108.777 32.8636C108.885 33.0501 108.939 33.2632 108.939 33.4493C108.939 33.6891 108.858 33.9289 108.723 34.222C108.588 34.4884 108.346 34.8081 107.969 35.1812L107.511 35.6603H108.939V36.353H106.165V35.98L107.404 34.7282C107.7 34.4351 107.915 34.1953 107.996 34.0088C108.104 33.8223 108.158 33.6624 108.158 33.503C108.158 33.3427 108.104 33.2366 107.996 33.1295C107.888 33.0234 107.754 32.9702 107.592 32.9702C107.43 32.9702 107.296 33.0234 107.188 33.1567C107.134 33.2894 107.053 33.4493 107.053 33.6624ZM110.716 32.2774C111.013 32.2774 111.255 32.3573 111.47 32.4906C111.686 32.6238 111.847 32.8369 111.955 33.1295C112.063 33.4226 112.117 33.8223 112.117 34.3552C112.117 34.8881 112.063 35.2877 111.928 35.5803C111.821 35.8734 111.659 36.0866 111.443 36.2198C111.255 36.353 110.985 36.433 110.689 36.433C110.393 36.433 110.124 36.353 109.935 36.2198C109.72 36.0866 109.558 35.8734 109.45 35.5803C109.343 35.2877 109.289 34.8881 109.289 34.3818C109.289 33.6624 109.397 33.1295 109.639 32.8103C109.908 32.4639 110.259 32.2774 110.716 32.2774ZM110.716 32.9968C110.582 32.9968 110.474 33.0234 110.366 33.1295C110.259 33.2095 110.178 33.3427 110.124 33.5563C110.07 33.7424 110.043 34.0359 110.043 34.4351C110.043 34.9414 110.097 35.2877 110.231 35.4738C110.34 35.6603 110.501 35.7668 110.689 35.7668C110.878 35.7668 111.013 35.6869 111.12 35.5004C111.255 35.2877 111.309 34.9142 111.309 34.4085C111.309 33.9022 111.255 33.5292 111.12 33.3427C111.066 33.1034 110.905 32.9968 110.716 32.9968ZM70.8277 37.6048H73.4675V38.0045L71.663 41.68L71.0166 41.3607L72.525 38.2976H70.8277V37.6048ZM73.8982 37.6048H76.538V38.0045L74.7331 41.68L74.0872 41.3607L75.5956 38.2976H73.9253V37.6048H73.8982ZM78.2349 37.4982L78.8812 37.818L78.1811 39.1764C78.5309 39.1764 78.8003 39.3096 79.0431 39.5494C79.2849 39.7892 79.3929 40.0823 79.3929 40.4553C79.3929 40.8012 79.2582 41.0943 79.0159 41.3341C78.7732 41.5739 78.4771 41.7066 78.1268 41.7066C77.7765 41.7066 77.4533 41.5739 77.211 41.3341C76.9687 41.0943 76.8612 40.8012 76.8612 40.4814C76.8612 40.3487 76.8878 40.2421 76.915 40.1089C76.9416 39.9752 77.0497 39.7892 77.1844 39.5227L78.2349 37.4982ZM78.1539 39.8691C78.0192 39.8691 77.8845 39.9224 77.8036 40.029C77.696 40.1356 77.6689 40.2688 77.6689 40.4015C77.6689 40.5614 77.7232 40.6946 77.8307 40.7745C77.9383 40.8811 78.0459 40.9344 78.1811 40.9344C78.3153 40.9344 78.45 40.8811 78.558 40.7745C78.6656 40.6684 78.7194 40.5347 78.7194 40.3749C78.7194 40.215 78.6656 40.0823 78.558 40.0023C78.4233 39.9224 78.2881 39.8691 78.1539 39.8691ZM82.086 39.4162C82.275 39.5227 82.4092 39.6826 82.5172 39.8691C82.6248 40.0556 82.6786 40.2421 82.6786 40.4553C82.6786 40.6946 82.6248 40.9078 82.5172 41.0943C82.4092 41.2808 82.2478 41.4406 82.0593 41.5206C81.8708 41.6272 81.6286 41.68 81.3049 41.68C80.9817 41.68 80.7128 41.6272 80.5238 41.5472C80.3353 41.4406 80.174 41.3074 80.0659 41.1209C79.9584 40.9344 79.9046 40.7212 79.9046 40.4814C79.9046 40.2688 79.9584 40.0823 80.0393 39.9224C80.1202 39.7625 80.2815 39.6027 80.4434 39.4694C80.3353 39.3362 80.2278 39.2296 80.174 39.0964C80.1202 38.9632 80.0931 38.83 80.0931 38.6701C80.0931 38.4574 80.1469 38.2704 80.2544 38.1111C80.3625 37.9512 80.4972 37.818 80.6857 37.7114C80.8741 37.6048 81.0898 37.5782 81.3049 37.5782C81.5477 37.5782 81.7361 37.6315 81.9246 37.7114C82.1131 37.818 82.2478 37.9512 82.3554 38.1111C82.4634 38.2976 82.5172 38.4841 82.5172 38.6701C82.5172 38.8033 82.4901 38.9366 82.4363 39.0698C82.3282 39.1231 82.2207 39.2563 82.086 39.4162ZM81.224 38.2176C81.0898 38.2176 80.9817 38.2704 80.9279 38.3509C80.847 38.4303 80.7937 38.5374 80.7937 38.6701C80.7937 38.8033 80.847 38.9099 80.9279 38.9898C81.0089 39.0698 81.1169 39.1231 81.2511 39.1231C81.3858 39.1231 81.4934 39.0698 81.5743 38.9898C81.6552 38.9099 81.709 38.8033 81.709 38.6701C81.709 38.5374 81.6552 38.4303 81.5743 38.3509C81.4667 38.2704 81.3592 38.2176 81.224 38.2176ZM81.2511 39.8158C81.0626 39.8158 80.9008 39.8691 80.7937 39.9752C80.6585 40.0823 80.6047 40.215 80.6047 40.3749C80.6047 40.5347 80.6585 40.6684 80.7937 40.7745C80.9008 40.8811 81.0626 40.9344 81.2511 40.9344C81.4401 40.9344 81.6014 40.8811 81.709 40.7745C81.8166 40.6684 81.8708 40.5347 81.8708 40.3749C81.8708 40.215 81.8166 40.0823 81.6824 39.9752C81.6014 39.8691 81.4401 39.8158 81.2511 39.8158ZM100.077 37.4982L100.724 37.818L100.024 39.1764C100.374 39.1764 100.643 39.3096 100.886 39.5494C101.128 39.7892 101.236 40.0823 101.236 40.4553C101.236 40.8012 101.101 41.0943 100.859 41.3341C100.616 41.5739 100.32 41.7066 99.9699 41.7066C99.6201 41.7066 99.2969 41.5739 99.0541 41.3341C98.8118 41.0943 98.7043 40.8012 98.7043 40.4814C98.7043 40.3487 98.7309 40.2421 98.7576 40.1089C98.7847 39.9752 98.8928 39.7892 99.0275 39.5227L100.077 37.4982ZM99.9699 39.8691C99.8352 39.8691 99.7005 39.9224 99.6201 40.029C99.512 40.1356 99.4849 40.2688 99.4849 40.4015C99.4849 40.5614 99.5391 40.6946 99.6467 40.7745C99.7543 40.8811 99.8623 40.9344 99.9965 40.9344C100.132 40.9344 100.266 40.8811 100.374 40.7745C100.482 40.6684 100.535 40.5347 100.535 40.3749C100.535 40.215 100.482 40.0823 100.374 40.0023C100.266 39.9224 100.132 39.8691 99.9699 39.8691ZM103.04 41.6538L102.394 41.3341L103.094 39.9752C102.744 39.9752 102.474 39.8425 102.232 39.6027C101.989 39.3629 101.882 39.0698 101.882 38.6972C101.882 38.3509 102.017 38.0578 102.259 37.818C102.502 37.5782 102.798 37.445 103.148 37.445C103.498 37.445 103.822 37.5782 104.064 37.818C104.306 38.0578 104.414 38.3509 104.414 38.6701C104.414 38.8033 104.387 38.9099 104.36 39.0431C104.333 39.1764 104.226 39.3629 104.091 39.6027L103.04 41.6538ZM103.121 39.2829C103.256 39.2829 103.39 39.2296 103.471 39.1231C103.579 39.017 103.606 38.8838 103.606 38.75C103.606 38.5902 103.552 38.4574 103.444 38.3509C103.336 38.2443 103.229 38.1905 103.094 38.1905C102.96 38.1905 102.825 38.2443 102.717 38.3509C102.609 38.4574 102.555 38.5902 102.555 38.75C102.555 38.9099 102.609 39.0431 102.717 39.1231C102.852 39.2296 102.987 39.2829 103.121 39.2829ZM104.926 37.6048H107.565V38.0045L105.761 41.68L105.114 41.3607L106.623 38.2976H104.952V37.6048H104.926ZM109.504 37.4982H110.259V40.0556H110.608V40.7479H110.259V41.5472H109.504V40.7479H107.754V40.0556L109.504 37.4982ZM109.504 40.0556V38.7234L108.588 40.0556H109.504ZM112.332 37.4982L112.979 37.818L112.279 39.1764C112.629 39.1764 112.898 39.3096 113.141 39.5494C113.382 39.7892 113.491 40.0823 113.491 40.4553C113.491 40.8012 113.356 41.0943 113.114 41.3341C112.871 41.5739 112.575 41.7066 112.224 41.7066C111.875 41.7066 111.551 41.5739 111.309 41.3341C111.066 41.0943 110.959 40.8012 110.959 40.4814C110.959 40.3487 110.985 40.2421 111.013 40.1089C111.04 39.9752 111.147 39.7892 111.282 39.5227L112.332 37.4982ZM112.252 39.8691C112.117 39.8691 111.982 39.9224 111.901 40.029C111.794 40.1356 111.767 40.2688 111.767 40.4015C111.767 40.5614 111.821 40.6946 111.928 40.7745C112.036 40.8811 112.143 40.9344 112.279 40.9344C112.413 40.9344 112.548 40.8811 112.656 40.7745C112.763 40.6684 112.817 40.5347 112.817 40.3749C112.817 40.215 112.763 40.0823 112.656 40.0023C112.521 39.9224 112.386 39.8691 112.252 39.8691ZM71.4203 42.8257H73.3061V43.5184H71.9862L71.8244 44.2373C71.8787 44.2373 71.9053 44.2107 71.9591 44.2107H72.0938C72.4441 44.2107 72.7673 44.3439 73.0096 44.5837C73.2518 44.8235 73.3599 45.1433 73.3599 45.5158C73.3599 45.9154 73.2252 46.2352 72.9558 46.5016C72.6864 46.7676 72.3632 46.9013 71.9862 46.9013C71.6359 46.9013 71.3398 46.7947 71.0971 46.6082C70.8548 46.4217 70.6935 46.1552 70.6125 45.8089H71.4203C71.4745 45.9421 71.5555 46.022 71.663 46.102C71.7706 46.1552 71.8787 46.2085 71.9862 46.2085C72.1476 46.2085 72.3094 46.1552 72.417 46.022C72.525 45.9154 72.6055 45.7556 72.6055 45.5696C72.6055 45.3826 72.5517 45.2498 72.4441 45.1166C72.3361 45.01 72.2018 44.9301 72.04 44.9301C71.9591 44.9301 71.8787 44.9562 71.7977 44.9834C71.7168 45.0367 71.6359 45.09 71.5555 45.1699L70.9357 45.0367L71.4203 42.8257ZM74.5446 44.1041H73.7906C73.8178 43.6783 73.9525 43.3319 74.1948 43.0921C74.437 42.8523 74.7602 42.7191 75.1643 42.7191C75.4066 42.7191 75.6222 42.7724 75.8107 42.879C75.9992 42.9855 76.1339 43.1188 76.2686 43.3053C76.3762 43.4913 76.4304 43.7044 76.4304 43.891C76.4304 44.1308 76.3495 44.3706 76.2148 44.6636C76.0801 44.9301 75.8378 45.2498 75.4604 45.6224L75.003 46.102H76.4304V46.7947H73.6831V46.4217L74.922 45.1699C75.2181 44.8768 75.4337 44.637 75.5147 44.4505C75.6222 44.264 75.676 44.1041 75.676 43.9447C75.676 43.7844 75.6222 43.6783 75.5147 43.5712C75.4066 43.4651 75.2719 43.4118 75.1105 43.4118C74.9487 43.4118 74.814 43.4651 74.7064 43.5984C74.5989 43.7316 74.5446 43.891 74.5446 44.1041ZM78.1811 42.7191C78.4771 42.7191 78.7194 42.799 78.935 42.9322C79.1506 43.0655 79.312 43.2786 79.4195 43.5712C79.5271 43.8648 79.5814 44.264 79.5814 44.7969C79.5814 45.3298 79.5271 45.7289 79.3929 46.022C79.2849 46.3151 79.1235 46.5283 78.9079 46.6615C78.7194 46.7947 78.45 46.8746 78.1539 46.8746C77.8579 46.8746 77.5885 46.7947 77.4 46.6615C77.1844 46.5283 77.0225 46.3151 76.915 46.022C76.8069 45.7289 76.7536 45.3298 76.7536 44.8235C76.7536 44.1041 76.8612 43.5712 77.1035 43.2515C77.3729 42.9056 77.7232 42.7191 78.1811 42.7191ZM78.2077 43.4385C78.073 43.4385 77.965 43.4651 77.8579 43.5712C77.7498 43.6512 77.6689 43.7844 77.6423 43.998C77.5885 44.184 77.5613 44.4771 77.5613 44.8768C77.5613 45.3826 77.6151 45.7289 77.7498 45.9154C77.8579 46.102 78.0192 46.2085 78.2077 46.2085C78.3962 46.2085 78.5309 46.1286 78.6385 45.9421C78.7732 45.7289 78.8274 45.3559 78.8274 44.8502C78.8274 44.3439 78.7732 43.9709 78.6385 43.7844C78.5309 43.5451 78.3962 43.4385 78.2077 43.4385ZM81.3049 42.7191L81.9518 43.0388L81.2511 44.3972C81.6014 44.3972 81.8708 44.5304 82.1131 44.7702C82.3554 45.01 82.4634 45.3031 82.4634 45.6756C82.4634 46.022 82.3282 46.3151 82.086 46.5549C81.8437 46.7947 81.5477 46.9274 81.1973 46.9274C80.847 46.9274 80.5238 46.7947 80.2816 46.5549C80.0393 46.3151 79.9312 46.022 79.9312 45.7023C79.9312 45.5696 79.9584 45.4625 79.9855 45.3298C80.0121 45.1965 80.1202 45.01 80.2544 44.7436L81.3049 42.7191ZM81.224 45.1166C81.0898 45.1166 80.9551 45.1699 80.8741 45.276C80.7666 45.3826 80.7394 45.5158 80.7394 45.6495C80.7394 45.8089 80.7937 45.9421 80.9008 46.022C81.0089 46.1286 81.1169 46.1819 81.2511 46.1819C81.3858 46.1819 81.5205 46.1286 81.6286 46.022C81.7361 45.9154 81.7899 45.7822 81.7899 45.6224C81.7899 45.4625 81.7361 45.3298 81.6286 45.2498C81.4934 45.1432 81.3592 45.1166 81.224 45.1166ZM98.4077 46.8746L97.7614 46.5549L98.4615 45.1965C98.1112 45.1965 97.8423 45.0633 97.5995 44.8235C97.3572 44.5837 97.2497 44.2906 97.2497 43.9176C97.2497 43.5712 97.3844 43.2786 97.6266 43.0388C97.8694 42.799 98.1655 42.6658 98.5153 42.6658C98.8656 42.6658 99.1888 42.799 99.4311 43.0388C99.6733 43.2786 99.7814 43.5712 99.7814 43.891C99.7814 44.0242 99.7543 44.1308 99.7276 44.264C99.7005 44.3972 99.5929 44.5837 99.4582 44.8235L98.4077 46.8746ZM98.4887 44.5038C98.6234 44.5038 98.7576 44.4505 98.8385 44.3439C98.9465 44.2373 98.9737 44.1041 98.9737 43.9709C98.9737 43.811 98.9194 43.6783 98.8118 43.5712C98.7043 43.4651 98.5962 43.4118 98.4615 43.4118C98.3268 43.4118 98.1921 43.4651 98.0845 43.5712C97.977 43.6783 97.9227 43.811 97.9227 43.9709C97.9227 44.1308 97.977 44.264 98.0845 44.3439C98.2192 44.4505 98.354 44.5038 98.4887 44.5038ZM100.293 42.8257H102.932V43.2253L101.128 46.9013L100.482 46.5816L101.989 43.5184H100.32V42.8257H100.293ZM104.091 43.811H103.364C103.39 43.5184 103.498 43.2786 103.687 43.1188C103.929 42.879 104.226 42.7457 104.602 42.7457C104.926 42.7457 105.195 42.8523 105.437 43.0655C105.653 43.2786 105.761 43.5184 105.761 43.811C105.761 43.998 105.706 44.1574 105.626 44.2906C105.518 44.4239 105.384 44.5571 105.195 44.637C105.437 44.7169 105.626 44.8235 105.761 45.01C105.895 45.1965 105.976 45.4097 105.976 45.6495C105.976 45.9954 105.842 46.3151 105.572 46.5549C105.303 46.7947 104.98 46.9274 104.548 46.9274C104.172 46.9274 103.848 46.8214 103.606 46.5816C103.364 46.3418 103.229 46.022 103.202 45.6224H103.956C103.983 45.8355 104.064 45.9692 104.172 46.0753C104.279 46.1819 104.414 46.2352 104.602 46.2352C104.791 46.2352 104.926 46.1819 105.033 46.0753C105.141 45.9692 105.222 45.8355 105.222 45.6495C105.222 45.4625 105.141 45.3298 104.98 45.1965C104.818 45.0633 104.602 45.01 104.306 45.01V44.3706C104.495 44.3439 104.629 44.3173 104.71 44.2906C104.791 44.2373 104.871 44.184 104.926 44.1041C104.98 44.0242 105.007 43.9447 105.007 43.8648C105.007 43.7582 104.98 43.6783 104.899 43.5984C104.818 43.5184 104.71 43.4913 104.602 43.4913C104.495 43.4913 104.387 43.5184 104.306 43.5984C104.172 43.5984 104.118 43.7044 104.091 43.811ZM107.053 44.1041H106.299C106.326 43.6783 106.461 43.3319 106.703 43.0921C106.945 42.8523 107.269 42.7191 107.673 42.7191C107.915 42.7191 108.131 42.7724 108.319 42.879C108.507 42.9855 108.642 43.1188 108.777 43.3053C108.885 43.4913 108.939 43.7044 108.939 43.891C108.939 44.1308 108.858 44.3706 108.723 44.6636C108.588 44.9301 108.346 45.2498 107.969 45.6224L107.511 46.102H108.939V46.7947H106.165V46.4217L107.404 45.1699C107.7 44.8768 107.915 44.637 107.996 44.4505C108.104 44.264 108.158 44.1041 108.158 43.9447C108.158 43.7844 108.104 43.6783 107.996 43.5712C107.888 43.4651 107.754 43.4118 107.592 43.4118C107.43 43.4118 107.296 43.4651 107.188 43.5984C107.134 43.7316 107.053 43.891 107.053 44.1041ZM110.716 42.7191C111.013 42.7191 111.255 42.799 111.47 42.9322C111.686 43.0655 111.847 43.2786 111.955 43.5712C112.063 43.8648 112.117 44.264 112.117 44.7969C112.117 45.3298 112.063 45.7289 111.928 46.022C111.821 46.3151 111.659 46.5283 111.443 46.6615C111.255 46.7947 110.985 46.8746 110.689 46.8746C110.393 46.8746 110.124 46.7947 109.935 46.6615C109.72 46.5283 109.558 46.3151 109.45 46.022C109.343 45.7289 109.289 45.3298 109.289 44.8235C109.289 44.1041 109.397 43.5712 109.639 43.2515C109.908 42.9056 110.259 42.7191 110.716 42.7191ZM110.716 43.4385C110.582 43.4385 110.474 43.4651 110.366 43.5712C110.259 43.6512 110.178 43.7844 110.124 43.998C110.07 44.184 110.043 44.4771 110.043 44.8768C110.043 45.3826 110.097 45.7289 110.231 45.9154C110.34 46.102 110.501 46.2085 110.689 46.2085C110.878 46.2085 111.013 46.1286 111.12 45.9421C111.255 45.7289 111.309 45.3559 111.309 44.8502C111.309 44.3439 111.255 43.9709 111.12 43.7844C111.066 43.5451 110.905 43.4385 110.716 43.4385ZM72.1209 47.9399L72.7673 48.2597L72.0671 49.618C72.417 49.618 72.6864 49.7513 72.9286 49.9906C73.1709 50.2304 73.279 50.5235 73.279 50.8965C73.279 51.2429 73.1443 51.536 72.902 51.7753C72.6597 52.0151 72.3632 52.1483 72.0129 52.1483C71.663 52.1483 71.3398 52.0151 71.0971 51.7753C70.8548 51.536 70.7472 51.2429 70.7472 50.9231C70.7472 50.7899 70.7739 50.6833 70.801 50.5501C70.8277 50.4169 70.9357 50.2304 71.0704 49.9644L72.1209 47.9399ZM72.0129 50.337C71.8787 50.337 71.7435 50.3902 71.663 50.4968C71.5555 50.6034 71.5283 50.7366 71.5283 50.8698C71.5283 51.0297 71.5821 51.1629 71.6897 51.2429C71.7977 51.3495 71.9053 51.4027 72.04 51.4027C72.1747 51.4027 72.3094 51.3495 72.417 51.2429C72.525 51.1363 72.5783 51.0031 72.5783 50.8432C72.5783 50.6833 72.525 50.5501 72.417 50.4702C72.2823 50.3902 72.1747 50.337 72.0129 50.337ZM74.6255 49.0319H73.8982C73.9253 48.7388 74.0329 48.499 74.2214 48.3391C74.4642 48.0993 74.7602 47.9661 75.1372 47.9661C75.4604 47.9661 75.7298 48.0732 75.972 48.2858C76.1877 48.499 76.2952 48.7388 76.2952 49.0319C76.2952 49.2184 76.2419 49.3783 76.161 49.511C76.053 49.6447 75.9188 49.7779 75.7298 49.8579C75.972 49.9378 76.161 50.0439 76.2952 50.2304C76.4304 50.4169 76.5109 50.63 76.5109 50.8698C76.5109 51.2162 76.3762 51.536 76.1068 51.7753C75.8378 52.0151 75.5146 52.1483 75.0834 52.1483C74.7064 52.1483 74.3832 52.0417 74.141 51.8019C73.8982 51.5621 73.764 51.2429 73.7369 50.8432H74.4908C74.5179 51.0564 74.5989 51.1896 74.7064 51.2957C74.814 51.4027 74.9487 51.456 75.1372 51.456C75.3262 51.456 75.4604 51.4027 75.5684 51.2957C75.676 51.1896 75.7569 51.0297 75.7569 50.8698C75.7569 50.6833 75.676 50.5501 75.5147 50.4169C75.3528 50.2842 75.1372 50.2304 74.8411 50.2304V49.5909C75.0296 49.5648 75.1643 49.5381 75.2452 49.511C75.3262 49.4582 75.4066 49.4049 75.4604 49.325C75.5147 49.245 75.5413 49.1651 75.5413 49.0852C75.5413 48.9786 75.5146 48.8986 75.4337 48.8187C75.3528 48.7388 75.2452 48.7126 75.1372 48.7126C75.0296 48.7126 74.9221 48.7388 74.8411 48.8187C74.7064 48.8454 74.6526 48.9253 74.6255 49.0319ZM78.2349 47.9399L78.8812 48.2597L78.1811 49.618C78.5309 49.618 78.8003 49.7513 79.0431 49.9906C79.2849 50.2304 79.3929 50.5235 79.3929 50.8965C79.3929 51.2429 79.2582 51.536 79.0159 51.7753C78.7732 52.0151 78.4771 52.1483 78.1268 52.1483C77.7765 52.1483 77.4533 52.0151 77.211 51.7753C76.9687 51.536 76.8612 51.2429 76.8612 50.9231C76.8612 50.7899 76.8878 50.6833 76.915 50.5501C76.9416 50.4169 77.0497 50.2304 77.1844 49.9644L78.2349 47.9399ZM78.1539 50.337C78.0192 50.337 77.8845 50.3902 77.8036 50.4968C77.696 50.6034 77.6689 50.7366 77.6689 50.8698C77.6689 51.0297 77.7232 51.1629 77.8307 51.2429C77.9383 51.3495 78.0459 51.4027 78.1811 51.4027C78.3153 51.4027 78.45 51.3495 78.558 51.2429C78.6656 51.1363 78.7194 51.0031 78.7194 50.8432C78.7194 50.6833 78.6656 50.5501 78.558 50.4702C78.4233 50.3902 78.2881 50.337 78.1539 50.337ZM83.8366 48.7388L83.2983 49.245C82.9213 48.872 82.5172 48.6855 82.0593 48.6855C81.6824 48.6855 81.3592 48.8187 81.0898 49.0852C80.8204 49.3516 80.6857 49.6708 80.6857 50.0439C80.6857 50.3103 80.7394 50.5501 80.8741 50.7366C80.9817 50.9498 81.1436 51.1097 81.3592 51.2162C81.5743 51.3228 81.8166 51.4027 82.0593 51.4027C82.275 51.4027 82.4901 51.3495 82.6786 51.2695C82.8671 51.1896 83.0555 51.0297 83.2712 50.8166L83.7828 51.3495C83.4863 51.642 83.2174 51.8286 82.948 51.9351C82.6786 52.0417 82.3825 52.095 82.0322 52.095C81.413 52.095 80.9008 51.9085 80.4972 51.5088C80.0931 51.1096 79.9046 50.6034 79.9046 50.0177C79.9046 49.618 79.9855 49.2712 80.174 48.9519C80.3625 48.6322 80.6047 48.3929 80.9551 48.2059C81.2783 48.0194 81.6552 47.9133 82.0322 47.9133C82.3554 47.9133 82.6786 47.9932 82.9746 48.126C83.3521 48.2858 83.6215 48.499 83.8366 48.7388ZM85.6144 47.9399L86.2608 48.2597L85.5601 49.618C85.9109 49.618 86.1799 49.7513 86.4221 49.9906C86.6649 50.2304 86.7725 50.5235 86.7725 50.8965C86.7725 51.2429 86.6382 51.536 86.3955 51.7753C86.1532 52.0151 85.8567 52.1483 85.5068 52.1483C85.1565 52.1483 84.8333 52.0151 84.5911 51.7753C84.3488 51.536 84.2407 51.2429 84.2407 50.9231C84.2407 50.7899 84.2679 50.6833 84.2945 50.5501C84.3216 50.4169 84.4292 50.2304 84.5639 49.9644L85.6144 47.9399ZM85.5068 50.337C85.3721 50.337 85.2374 50.3902 85.1565 50.4968C85.049 50.6034 85.0218 50.7366 85.0218 50.8698C85.0218 51.0297 85.0761 51.1629 85.1837 51.2429C85.2912 51.3495 85.3993 51.4027 85.5335 51.4027C85.6682 51.4027 85.8029 51.3495 85.911 51.2429C86.0185 51.1363 86.0723 51.0031 86.0723 50.8432C86.0723 50.6833 86.0185 50.5501 85.911 50.4702C85.7758 50.3902 85.6682 50.337 85.5068 50.337ZM87.9848 48.046H89.8701V48.7388H88.5502L88.3884 49.4582C88.4422 49.4582 88.4693 49.4315 88.5231 49.4315H88.6578C89.0076 49.4315 89.3313 49.5648 89.5736 49.8041C89.8159 50.0439 89.9234 50.3636 89.9234 50.7366C89.9234 51.1363 89.7892 51.456 89.5198 51.722C89.2504 51.9889 88.9272 52.1216 88.5502 52.1216C88.1999 52.1216 87.9039 52.0151 87.6616 51.8286C87.4188 51.642 87.2575 51.3756 87.1766 51.0297H87.9848C88.0381 51.1629 88.119 51.2429 88.227 51.3228C88.3346 51.3756 88.4422 51.4294 88.5502 51.4294C88.7116 51.4294 88.8734 51.3756 88.981 51.2429C89.0886 51.1363 89.1695 50.9764 89.1695 50.7899C89.1695 50.6034 89.1157 50.4702 89.0076 50.337C88.9006 50.2304 88.7654 50.1504 88.604 50.1504C88.5231 50.1504 88.4422 50.1776 88.3613 50.2037C88.2808 50.257 88.1999 50.3103 88.119 50.3902L87.4998 50.257L87.9848 48.046ZM91.7283 47.9399L92.3747 48.2597L91.6746 49.618C92.0249 49.618 92.2938 49.7513 92.5361 49.9906C92.7788 50.2304 92.8864 50.5235 92.8864 50.8965C92.8864 51.2429 92.7517 51.536 92.5094 51.7753C92.2672 52.0151 91.9706 52.1483 91.6203 52.1483C91.2705 52.1483 90.9473 52.0151 90.705 51.7753C90.4622 51.536 90.3547 51.2429 90.3547 50.9231C90.3547 50.7899 90.3818 50.6833 90.4085 50.5501C90.4356 50.4169 90.5432 50.2304 90.6779 49.9644L91.7283 47.9399ZM91.6474 50.337C91.5132 50.337 91.378 50.3902 91.2971 50.4968C91.19 50.6034 91.1629 50.7366 91.1629 50.8698C91.1629 51.0297 91.2167 51.1629 91.3242 51.2429C91.4323 51.3495 91.5399 51.4027 91.6746 51.4027C91.8093 51.4027 91.944 51.3495 92.0515 51.2429C92.1591 51.1363 92.2129 51.0031 92.2129 50.8432C92.2129 50.6833 92.1591 50.5501 92.0515 50.4702C91.9168 50.3902 91.7821 50.337 91.6474 50.337ZM94.0987 48.046H95.2568V52.0151H94.5023V48.7654H93.6675L94.0987 48.046ZM96.5762 48.046H99.216V48.4457L97.411 52.1216L96.7647 51.8019L98.273 48.7388H96.6033V48.046H96.5762ZM100.293 49.325H99.5391C99.5658 48.8986 99.7005 48.5523 99.9432 48.313C100.186 48.0732 100.509 47.9399 100.912 47.9399C101.155 47.9399 101.37 47.9932 101.559 48.0993C101.748 48.2059 101.882 48.3391 102.017 48.5523C102.125 48.7388 102.178 48.9519 102.178 49.1385C102.178 49.3783 102.098 49.6181 101.963 49.9106C101.829 50.1776 101.586 50.4968 101.209 50.8698L100.751 51.3495H102.178V52.0417H99.4311V51.6692L100.67 50.4169C100.967 50.1238 101.182 49.8845 101.263 49.698C101.37 49.511 101.424 49.3516 101.424 49.1917C101.424 49.0319 101.37 48.9253 101.263 48.8187C101.155 48.7126 101.02 48.6588 100.859 48.6588C100.697 48.6588 100.562 48.7126 100.455 48.8454C100.347 48.9519 100.293 49.1118 100.293 49.325ZM103.336 49.325H102.583C102.609 48.8986 102.744 48.5523 102.987 48.313C103.229 48.0732 103.552 47.9399 103.956 47.9399C104.198 47.9399 104.414 47.9932 104.602 48.0993C104.791 48.2059 104.926 48.3391 105.06 48.5523C105.168 48.7388 105.222 48.9519 105.222 49.1385C105.222 49.3783 105.141 49.6181 105.007 49.9106C104.872 50.1776 104.629 50.4968 104.252 50.8698L103.794 51.3495H105.222V52.0417H102.448V51.6692L103.687 50.4169C103.983 50.1238 104.198 49.8845 104.279 49.698C104.387 49.511 104.441 49.3516 104.441 49.1917C104.441 49.0319 104.387 48.9253 104.279 48.8187C104.172 48.7126 104.037 48.6588 103.875 48.6588C103.713 48.6588 103.579 48.7126 103.471 48.8454C103.417 48.9519 103.364 49.1118 103.336 49.325ZM107 47.9399C107.296 47.9399 107.538 48.0194 107.754 48.1531C107.969 48.2858 108.131 48.499 108.239 48.7921C108.346 49.0852 108.4 49.4848 108.4 50.0177C108.4 50.5501 108.346 50.9498 108.211 51.2429C108.104 51.536 107.943 51.7491 107.727 51.8819C107.538 52.0151 107.269 52.095 106.972 52.095C106.676 52.095 106.407 52.0151 106.219 51.8819C106.003 51.7491 105.842 51.536 105.733 51.2429C105.626 50.9498 105.572 50.5501 105.572 50.0439C105.572 49.325 105.68 48.7921 105.922 48.4728C106.191 48.126 106.542 47.9399 107 47.9399ZM107.026 48.6588C106.892 48.6588 106.784 48.6855 106.676 48.7921C106.568 48.872 106.488 49.0052 106.434 49.2184C106.38 49.4049 106.353 49.698 106.353 50.0977C106.353 50.6034 106.407 50.9498 106.542 51.1363C106.649 51.3228 106.811 51.4294 107 51.4294C107.188 51.4294 107.323 51.3495 107.43 51.1629C107.565 50.9498 107.619 50.5768 107.619 50.0705C107.619 49.5648 107.565 49.1917 107.43 49.0052C107.349 48.7654 107.215 48.6588 107.026 48.6588ZM102.125 54.5458H101.37C101.397 54.1195 101.532 53.7736 101.774 53.5333C102.017 53.294 102.34 53.1608 102.744 53.1608C102.987 53.1608 103.202 53.2141 103.39 53.3202C103.579 53.4267 103.713 53.5605 103.848 53.7465C103.956 53.933 104.01 54.1461 104.01 54.3326C104.01 54.572 103.929 54.8123 103.794 55.1048C103.66 55.3713 103.417 55.691 103.04 56.0641L102.583 56.5437H104.01V57.2359H101.236V56.8629L102.474 55.6111C102.771 55.318 102.987 55.0787 103.068 54.8917C103.175 54.7057 103.229 54.5458 103.229 54.3859C103.229 54.2261 103.175 54.1195 103.068 54.0129C102.96 53.9063 102.825 53.8531 102.663 53.8531C102.502 53.8531 102.367 53.9063 102.259 54.0396C102.178 54.1728 102.125 54.3327 102.125 54.5458ZM71.4745 7.53154H70.7206C70.7472 7.10572 70.882 6.75934 71.1242 6.51954C71.367 6.27974 71.6897 6.14652 72.0938 6.14652C72.3361 6.14652 72.5517 6.1998 72.7402 6.30638C72.9286 6.41296 73.0634 6.54618 73.1981 6.75934C73.3061 6.94585 73.3599 7.15901 73.3599 7.34552C73.3599 7.58483 73.279 7.82463 73.1443 8.11772C73.0096 8.38417 72.7673 8.7039 72.3903 9.07643L71.9591 9.52939H73.3865V10.2221H70.6125V9.84912L71.8515 8.59732C72.1476 8.30423 72.3632 8.06443 72.4441 7.87791C72.5517 7.6914 72.6055 7.53154 72.6055 7.37167C72.6055 7.2118 72.5517 7.10572 72.4441 6.99914C72.3361 6.89256 72.2018 6.83927 72.04 6.83927C71.8787 6.83927 71.7435 6.89256 71.6359 7.02579C71.5283 7.15901 71.4745 7.31888 71.4745 7.53154ZM75.1105 6.14652C75.4066 6.14652 75.6489 6.22645 75.8645 6.35967C76.0801 6.4929 76.2419 6.70605 76.3495 6.99914C76.4571 7.29174 76.5109 7.69141 76.5109 8.2243C76.5109 8.75669 76.4571 9.15636 76.3224 9.44945C76.2148 9.74254 76.053 9.9557 75.8378 10.0889C75.6489 10.2221 75.3795 10.3021 75.0834 10.3021C74.7874 10.3021 74.5179 10.2221 74.3295 10.0889C74.1138 9.9557 73.9525 9.74254 73.8449 9.44945C73.7369 9.15636 73.6831 8.7567 73.6831 8.25095C73.6831 7.53154 73.7906 6.99915 74.0329 6.67941C74.3023 6.33303 74.6526 6.14652 75.1105 6.14652ZM75.1372 6.86592C75.003 6.86592 74.8949 6.89256 74.7874 6.99914C74.6798 7.07907 74.5989 7.21181 74.5446 7.42496C74.4908 7.61148 74.4642 7.90456 74.4642 8.30423C74.4642 8.81047 74.5179 9.15636 74.6526 9.34287C74.7602 9.52938 74.9221 9.63596 75.1105 9.63596C75.299 9.63596 75.4337 9.55603 75.5413 9.37001C75.676 9.15636 75.7298 8.78383 75.7298 8.27758C75.7298 7.77134 75.676 7.39881 75.5413 7.2118C75.4875 6.972 75.3262 6.86592 75.1372 6.86592ZM78.4771 6.14652H79.2311V8.7039H79.5814V9.39616H79.2311V10.1955H78.4771V9.39616H76.7265V8.7039L78.4771 6.14652ZM78.5043 8.7039V7.37167L77.5885 8.7039H78.5043ZM80.6585 7.53154H79.9046C79.9312 7.10572 80.0659 6.75934 80.3087 6.51954C80.551 6.27974 80.8741 6.14652 81.2783 6.14652C81.5205 6.14652 81.7361 6.1998 81.9246 6.30638C82.1131 6.41296 82.2478 6.54618 82.3825 6.75934C82.4901 6.94585 82.5439 7.15901 82.5439 7.34552C82.5439 7.58483 82.4634 7.82463 82.3282 8.11772C82.194 8.38417 81.9518 8.7039 81.5743 9.07643L81.1169 9.55603H82.5439V10.2488H79.797V9.87576L81.036 8.62397C81.332 8.33088 81.5477 8.09107 81.6286 7.90456C81.7361 7.71854 81.7899 7.55867 81.7899 7.39881C81.7899 7.23894 81.7361 7.13237 81.6286 7.02579C81.5205 6.91921 81.3858 6.86592 81.224 6.86592C81.0626 6.86592 80.9279 6.91921 80.8204 7.05243C80.7394 7.15901 80.6585 7.31888 80.6585 7.53154ZM84.6177 6.14652H85.3721V8.7039H85.722V9.39616H85.3721V10.1955H84.6177V9.39616H82.8671V8.7039L84.6177 6.14652ZM84.6177 8.7039V7.37167L83.7024 8.7039H84.6177ZM87.3379 10.3287L86.6915 10.009L87.3922 8.65061C87.0419 8.65061 86.7725 8.51738 86.5302 8.27758C86.2879 8.03778 86.1799 7.74469 86.1799 7.37167C86.1799 7.02578 86.3151 6.7327 86.5573 6.4929C86.7996 6.2531 87.0956 6.11988 87.446 6.11988C87.7963 6.11988 88.119 6.2531 88.3613 6.4929C88.604 6.7327 88.7116 7.02579 88.7116 7.34552C88.7116 7.47875 88.6844 7.58483 88.6578 7.71855C88.6312 7.85128 88.5231 8.03778 88.3884 8.27758L87.3379 10.3287ZM87.4188 7.93121C87.5535 7.93121 87.6882 7.87841 87.7692 7.77134C87.8767 7.66525 87.9039 7.53154 87.9039 7.39881C87.9039 7.23894 87.8496 7.10572 87.742 6.99914C87.6345 6.89256 87.5264 6.83927 87.3922 6.83927C87.2575 6.83927 87.1228 6.89256 87.0147 6.99914C86.9072 7.10572 86.8534 7.23894 86.8534 7.39881C86.8534 7.55867 86.9072 7.69141 87.0147 7.77134C87.1499 7.87841 87.2841 7.93121 87.4188 7.93121ZM89.8159 6.2531H91.7012V6.94586H90.3818L90.22 7.66525C90.2742 7.66525 90.3009 7.63811 90.3547 7.63811H90.4894C90.8392 7.63811 91.1629 7.77134 91.4052 8.01114C91.6474 8.25094 91.7555 8.57067 91.7555 8.9437C91.7555 9.34336 91.6203 9.66261 91.3514 9.92905C91.082 10.1955 90.7583 10.3287 90.3818 10.3287C90.0315 10.3287 89.7354 10.2221 89.4927 10.0356C89.2504 9.84912 89.0886 9.58268 89.0076 9.2363H89.8159C89.8701 9.37001 89.9506 9.44946 90.0586 9.52939C90.1662 9.58268 90.2742 9.63596 90.3818 9.63596C90.5432 9.63596 90.705 9.58267 90.8126 9.44945C90.9201 9.34287 91.001 9.1835 91.001 8.9965C91.001 8.81048 90.9473 8.67676 90.8392 8.54403C90.7316 8.43745 90.5969 8.35752 90.4356 8.35752C90.3547 8.35752 90.2742 8.38416 90.1933 8.4108C90.1124 8.46409 90.0315 8.51739 89.9506 8.59732L89.3313 8.4641L89.8159 6.2531ZM93.8022 6.14652H94.5561V8.7039H94.9064V9.39616H94.5561V10.1955H93.8022V9.39616H92.0515V8.7039L93.8022 6.14652ZM93.8293 8.7039V7.37167L92.9135 8.7039H93.8293ZM72.1209 11.3674L72.7673 11.6871L72.0671 13.0455C72.417 13.0455 72.6864 13.1787 72.9286 13.4185C73.1709 13.6583 73.279 13.9514 73.279 14.3244C73.279 14.6703 73.1443 14.9634 72.902 15.2032C72.6597 15.4425 72.3632 15.5762 72.0129 15.5762C71.663 15.5762 71.3398 15.4425 71.0971 15.2032C70.8548 14.9634 70.7472 14.6703 70.7472 14.3511C70.7472 14.2178 70.7739 14.1113 70.801 13.9775C70.8277 13.8448 70.9357 13.6583 71.0704 13.3918L72.1209 11.3674ZM72.0129 13.7649C71.8787 13.7649 71.7435 13.8182 71.663 13.9247C71.5555 14.0313 71.5283 14.1641 71.5283 14.2973C71.5283 14.4571 71.5821 14.5904 71.6897 14.6703C71.7977 14.7769 71.9053 14.8302 72.04 14.8302C72.1747 14.8302 72.3094 14.7769 72.417 14.6703C72.525 14.5637 72.5783 14.431 72.5783 14.2706C72.5783 14.1113 72.525 13.9775 72.417 13.8981C72.2823 13.8182 72.1747 13.7649 72.0129 13.7649ZM75.9454 13.2853C76.1339 13.3919 76.2686 13.5517 76.3762 13.7377C76.4842 13.9248 76.538 14.1113 76.538 14.3244C76.538 14.5637 76.4842 14.7769 76.3762 14.9634C76.2686 15.1499 76.1067 15.3098 75.9188 15.3897C75.7298 15.4963 75.4875 15.5496 75.1643 15.5496C74.8411 15.5496 74.5717 15.4963 74.3832 15.4163C74.1948 15.3098 74.0329 15.1765 73.9253 14.99C73.8178 14.8035 73.764 14.5904 73.764 14.3511C73.764 14.1374 73.8178 13.9514 73.8982 13.7915C73.9791 13.6317 74.141 13.4718 74.3023 13.3386C74.1948 13.2053 74.0872 13.0988 74.0329 12.9655C73.9791 12.8323 73.9525 12.6991 73.9525 12.5397C73.9525 12.3266 74.0063 12.1401 74.1138 11.9802C74.2214 11.8203 74.3561 11.6871 74.5446 11.5805C74.7331 11.4744 74.9487 11.4473 75.1643 11.4473C75.4066 11.4473 75.5956 11.5006 75.7836 11.5805C75.972 11.6871 76.1067 11.8203 76.2148 11.9802C76.3224 12.1662 76.3762 12.3527 76.3762 12.5397C76.3762 12.6725 76.3495 12.8057 76.2952 12.9394C76.1877 12.9922 76.0801 13.1521 75.9454 13.2853ZM75.0834 12.1134C74.9487 12.1134 74.8678 12.1662 74.7874 12.2466C74.7064 12.3266 74.6526 12.4327 74.6526 12.5659C74.6526 12.6991 74.7064 12.8057 74.7874 12.8856C74.8678 12.9655 74.9758 13.0188 75.1105 13.0188C75.2452 13.0188 75.3528 12.9655 75.4337 12.8856C75.5146 12.8057 75.5684 12.6991 75.5684 12.5659C75.5684 12.4327 75.5146 12.3266 75.4337 12.2466C75.3528 12.1401 75.2181 12.1134 75.0834 12.1134ZM75.1372 13.6849C74.9487 13.6849 74.7873 13.7377 74.6798 13.8448C74.5446 13.9514 74.4908 14.0841 74.4908 14.244C74.4908 14.4039 74.5446 14.5371 74.6798 14.6437C74.7873 14.7507 74.9487 14.8035 75.1372 14.8035C75.3262 14.8035 75.4875 14.7507 75.5956 14.6437C75.7026 14.5371 75.7569 14.4039 75.7569 14.244C75.7569 14.0841 75.7026 13.9514 75.5684 13.8448C75.4604 13.7377 75.299 13.6849 75.1372 13.6849ZM78.2349 11.3674L78.8812 11.6871L78.1811 13.0455C78.5309 13.0455 78.8003 13.1787 79.0431 13.4185C79.2849 13.6583 79.3929 13.9514 79.3929 14.3244C79.3929 14.6703 79.2582 14.9634 79.0159 15.2032C78.7732 15.4425 78.4771 15.5762 78.1268 15.5762C77.7765 15.5762 77.4533 15.4425 77.211 15.2032C76.9687 14.9634 76.8612 14.6703 76.8612 14.3511C76.8612 14.2178 76.8878 14.1113 76.915 13.9775C76.9416 13.8448 77.0497 13.6583 77.1844 13.3918L78.2349 11.3674ZM78.1539 13.7649C78.0192 13.7649 77.8845 13.8182 77.8036 13.9247C77.696 14.0313 77.6689 14.1641 77.6689 14.2973C77.6689 14.4571 77.7232 14.5904 77.8307 14.6703C77.9383 14.7769 78.0459 14.8302 78.1811 14.8302C78.3153 14.8302 78.45 14.7769 78.558 14.6703C78.6656 14.5637 78.7194 14.431 78.7194 14.2706C78.7194 14.1113 78.6656 13.9775 78.558 13.8981C78.4233 13.8182 78.2881 13.7649 78.1539 13.7649ZM95.6604 11.4744H98.3002V11.8736L96.4952 15.5491L95.8489 15.2298L97.3572 12.1662H95.6604V11.4744ZM100.239 11.3674H100.993V13.9247H101.344V14.617H100.993V15.4163H100.239V14.617H98.4887V13.9247L100.239 11.3674ZM100.266 13.9247V12.5925L99.3502 13.9247H100.266ZM103.068 11.3674L103.713 11.6871L103.013 13.0455C103.364 13.0455 103.633 13.1787 103.875 13.4185C104.118 13.6583 104.226 13.9514 104.226 14.3244C104.226 14.6703 104.091 14.9634 103.848 15.2032C103.606 15.4425 103.309 15.5762 102.96 15.5762C102.609 15.5762 102.286 15.4425 102.044 15.2032C101.801 14.9634 101.693 14.6703 101.693 14.3511C101.693 14.2178 101.721 14.1113 101.748 13.9775C101.774 13.8448 101.882 13.6583 102.017 13.3918L103.068 11.3674ZM102.987 13.7649C102.852 13.7649 102.717 13.8182 102.636 13.9247C102.529 14.0313 102.502 14.1641 102.502 14.2973C102.502 14.4571 102.555 14.5904 102.663 14.6703C102.771 14.7769 102.879 14.8302 103.013 14.8302C103.148 14.8302 103.283 14.7769 103.39 14.6703C103.498 14.5637 103.552 14.431 103.552 14.2706C103.552 14.1113 103.498 13.9775 103.39 13.8981C103.256 13.8182 103.121 13.7649 102.987 13.7649ZM105.465 11.4744H107.349V12.1662H106.03L105.868 12.8856C105.922 12.8856 105.949 12.859 106.003 12.859H106.138C106.488 12.859 106.811 12.9922 107.053 13.232C107.296 13.4718 107.404 13.7915 107.404 14.1641C107.404 14.5637 107.269 14.8835 107 15.1499C106.73 15.4163 106.407 15.5491 106.03 15.5491C105.68 15.5491 105.384 15.4425 105.141 15.2565C104.899 15.07 104.737 14.8035 104.656 14.4571H105.465C105.518 14.5904 105.599 14.6703 105.706 14.7507C105.814 14.8035 105.922 14.8568 106.03 14.8568C106.191 14.8568 106.353 14.8035 106.461 14.6703C106.568 14.5637 106.649 14.4039 106.649 14.2178C106.649 14.0313 106.595 13.8981 106.488 13.7649C106.38 13.6583 106.245 13.5784 106.084 13.5784C106.003 13.5784 105.922 13.605 105.842 13.6317C105.761 13.6849 105.68 13.7377 105.599 13.8182L104.98 13.6849L105.465 11.4744ZM108.562 12.7524H107.807C107.834 12.3266 107.969 11.9802 108.211 11.7404C108.454 11.5006 108.777 11.3674 109.181 11.3674C109.423 11.3674 109.639 11.4207 109.827 11.5272C110.016 11.6338 110.151 11.767 110.285 11.953C110.393 12.1401 110.447 12.3527 110.447 12.5397C110.447 12.779 110.366 13.0188 110.231 13.3119C110.097 13.5784 109.855 13.8981 109.477 14.2706L109.02 14.7507H110.447V15.4425H107.673V15.07L108.912 13.8182C109.208 13.5251 109.423 13.2853 109.504 13.0988C109.612 12.9123 109.666 12.7524 109.666 12.5925C109.666 12.4326 109.612 12.3266 109.504 12.22C109.397 12.1134 109.262 12.0601 109.101 12.0601C108.939 12.0601 108.804 12.1134 108.696 12.2466C108.616 12.3799 108.562 12.5397 108.562 12.7524ZM72.04 16.5882C72.336 16.5882 72.5783 16.6681 72.7939 16.8014C73.0096 16.9346 73.1709 17.1478 73.279 17.4408C73.3865 17.7334 73.4403 18.1331 73.4403 18.666C73.4403 19.1989 73.3865 19.5981 73.2518 19.8911C73.1443 20.1842 72.9829 20.3974 72.7673 20.5306C72.5783 20.6638 72.3094 20.7438 72.0129 20.7438C71.7168 20.7438 71.4474 20.6638 71.2589 20.5306C71.0438 20.3974 70.882 20.1842 70.7739 19.8911C70.6663 19.5981 70.6125 19.1989 70.6125 18.6926C70.6125 17.9732 70.7206 17.4408 70.9629 17.1211C71.2323 16.7747 71.6092 16.5882 72.04 16.5882ZM72.0671 17.3076C71.9319 17.3076 71.8244 17.3338 71.7168 17.4408C71.6092 17.5208 71.5283 17.6535 71.4745 17.8667C71.4474 18.0532 71.4203 18.3463 71.4203 18.7459C71.4203 19.2517 71.4745 19.5981 71.6093 19.7846C71.7168 19.9711 71.8787 20.0777 72.0671 20.0777C72.2551 20.0777 72.3903 19.9977 72.4979 19.8112C72.6326 19.5981 72.6864 19.2255 72.6864 18.7193C72.6864 18.213 72.6326 17.84 72.4979 17.6535C72.417 17.4137 72.2551 17.3076 72.0671 17.3076ZM75.191 16.5882L75.8378 16.908L75.1372 18.2663C75.4875 18.2663 75.7569 18.3995 75.9992 18.6393C76.2419 18.8791 76.3495 19.1722 76.3495 19.5448C76.3495 19.8911 76.2148 20.1842 75.972 20.424C75.7298 20.6638 75.4337 20.7971 75.0834 20.7971C74.7331 20.7971 74.4099 20.6638 74.1676 20.424C73.9254 20.1842 73.8178 19.8911 73.8178 19.5714C73.8178 19.4382 73.8449 19.3321 73.8716 19.1989C73.8982 19.0652 74.0063 18.8792 74.141 18.6127L75.191 16.5882ZM75.0834 18.9857C74.9487 18.9857 74.814 19.0385 74.7331 19.1451C74.6255 19.2517 74.5989 19.3849 74.5989 19.5181C74.5989 19.678 74.6526 19.8112 74.7602 19.8911C74.8678 19.9977 74.9758 20.051 75.1105 20.051C75.2452 20.051 75.3795 19.9977 75.4875 19.8911C75.5956 19.7846 75.6489 19.6513 75.6489 19.492C75.6489 19.3321 75.5956 19.1989 75.4875 19.1185C75.3528 19.0385 75.2452 18.9857 75.0834 18.9857ZM78.1268 20.7704L77.4804 20.4507L78.1811 19.0923C77.8307 19.0923 77.5613 18.9591 77.3191 18.7193C77.0768 18.4795 76.9687 18.1864 76.9687 17.8134C76.9687 17.4675 77.1035 17.1744 77.3457 16.9346C77.5885 16.6948 77.8845 16.5616 78.2349 16.5616C78.5847 16.5616 78.9079 16.6948 79.1506 16.9346C79.3929 17.1744 79.5005 17.4675 79.5005 17.7867C79.5005 17.9204 79.4738 18.027 79.4462 18.1597C79.4195 18.293 79.312 18.4795 79.1773 18.7193L78.1268 20.7704ZM78.2349 18.3729C78.3691 18.3729 78.5043 18.3196 78.5847 18.213C78.6923 18.1065 78.7194 17.9732 78.7194 17.8405C78.7194 17.6806 78.6656 17.5469 78.558 17.4408C78.45 17.3338 78.3424 17.281 78.2077 17.281C78.073 17.281 77.9383 17.3338 77.8307 17.4408C77.7232 17.5469 77.6689 17.6806 77.6689 17.8405C77.6689 17.9999 77.7232 18.1331 77.8307 18.213C77.965 18.3196 78.073 18.3729 78.2349 18.3729ZM80.0393 16.6948H82.6786V17.0945L80.847 20.7704L80.2011 20.4507L81.709 17.3875H80.0393V16.6948ZM96.3882 17.6806H95.6604C95.6875 17.3876 95.7951 17.1477 95.9836 16.9879C96.2263 16.7481 96.5224 16.6149 96.8994 16.6149C97.223 16.6149 97.4919 16.7214 97.7342 16.9346C97.9498 17.1477 98.0579 17.3876 98.0579 17.6806C98.0579 17.8667 98.0036 18.027 97.9227 18.1597C97.8151 18.293 97.6804 18.4262 97.492 18.5061C97.7342 18.5861 97.9227 18.6926 98.0579 18.8792C98.1921 19.0657 98.273 19.2788 98.273 19.5181C98.273 19.8645 98.1383 20.1842 97.8694 20.424C97.5995 20.6638 97.2763 20.7971 96.8456 20.7971C96.4686 20.7971 96.1454 20.69 95.9031 20.4507C95.6604 20.2109 95.5257 19.8911 95.499 19.492H96.253C96.2801 19.7046 96.361 19.8379 96.4686 19.9444C96.5762 20.051 96.7114 20.1043 96.8994 20.1043C97.0878 20.1043 97.223 20.051 97.3306 19.9444C97.4382 19.8379 97.5191 19.7046 97.5191 19.5181C97.5191 19.3321 97.4382 19.1989 97.2763 19.0657C97.115 18.9324 96.8994 18.8792 96.6033 18.8792V18.2397C96.7918 18.213 96.9265 18.1864 97.0074 18.1597C97.0878 18.1065 97.1688 18.0532 97.223 17.9732C97.2763 17.8933 97.3035 17.8134 97.3035 17.7334C97.3035 17.6273 97.2763 17.5469 97.1959 17.4675C97.115 17.3875 97.0074 17.3609 96.8994 17.3609C96.7918 17.3609 96.6842 17.3875 96.6033 17.4675C96.4952 17.4941 96.4148 17.5736 96.3882 17.6806ZM99.3773 17.9732H98.6234C98.65 17.5469 98.7847 17.201 99.0275 16.9612C99.2697 16.7214 99.5929 16.5882 99.9965 16.5882C100.239 16.5882 100.455 16.6415 100.643 16.7481C100.831 16.8547 100.967 16.9879 101.101 17.1744C101.209 17.3609 101.263 17.5736 101.263 17.7601C101.263 17.9999 101.182 18.2397 101.047 18.5328C100.912 18.7992 100.67 19.1185 100.293 19.492L99.8352 19.9711H101.263V20.6638H98.4887V20.2903L99.7276 19.0385C100.024 18.7459 100.239 18.5061 100.32 18.3196C100.428 18.1331 100.482 17.9732 100.482 17.8134C100.482 17.6535 100.428 17.5469 100.32 17.4408C100.212 17.3338 100.077 17.281 99.9161 17.281C99.7543 17.281 99.6201 17.3338 99.512 17.4675C99.4311 17.6007 99.3773 17.7867 99.3773 17.9732ZM103.013 16.5882C103.309 16.5882 103.552 16.6681 103.767 16.8014C103.983 16.9346 104.145 17.1478 104.252 17.4408C104.36 17.7334 104.414 18.1331 104.414 18.666C104.414 19.1989 104.36 19.5981 104.226 19.8911C104.118 20.1842 103.956 20.3974 103.741 20.5306C103.552 20.6638 103.283 20.7438 102.987 20.7438C102.69 20.7438 102.421 20.6638 102.232 20.5306C102.017 20.3974 101.855 20.1842 101.748 19.8911C101.64 19.5981 101.586 19.1989 101.586 18.6926C101.586 17.9732 101.693 17.4408 101.936 17.1211C102.206 16.7747 102.555 16.5882 103.013 16.5882ZM103.04 17.3076C102.906 17.3076 102.798 17.3338 102.69 17.4408C102.583 17.5208 102.502 17.6535 102.474 17.8667C102.421 18.0532 102.394 18.3463 102.394 18.7459C102.394 19.2517 102.448 19.5981 102.583 19.7846C102.69 19.9711 102.852 20.0777 103.04 20.0777C103.229 20.0777 103.364 19.9977 103.471 19.8112C103.606 19.5981 103.66 19.2255 103.66 18.7193C103.66 18.213 103.606 17.8405 103.471 17.6535C103.364 17.4137 103.229 17.3076 103.04 17.3076ZM106.138 16.5882L106.784 16.908L106.084 18.2663C106.434 18.2663 106.703 18.3995 106.945 18.6393C107.188 18.8791 107.296 19.1722 107.296 19.5453C107.296 19.8912 107.161 20.1842 106.919 20.424C106.676 20.6638 106.38 20.7971 106.03 20.7971C105.68 20.7971 105.357 20.6638 105.114 20.424C104.871 20.1842 104.764 19.8911 104.764 19.5714C104.764 19.4382 104.791 19.3321 104.818 19.1989C104.845 19.0657 104.952 18.8792 105.087 18.6127L106.138 16.5882ZM106.057 18.9857C105.922 18.9857 105.787 19.039 105.706 19.1456C105.599 19.2517 105.572 19.3854 105.572 19.5181C105.572 19.678 105.626 19.8112 105.733 19.8911C105.842 19.9977 105.949 20.051 106.084 20.051C106.219 20.051 106.353 19.9977 106.461 19.8911C106.568 19.7846 106.623 19.6513 106.623 19.492C106.623 19.3321 106.568 19.1989 106.461 19.1185C106.326 19.039 106.191 18.9857 106.057 18.9857ZM71.5555 22.9015H70.8277C70.8548 22.6084 70.9629 22.3686 71.1514 22.2087C71.3936 21.9689 71.6897 21.8357 72.0671 21.8357C72.3903 21.8357 72.6597 21.9423 72.902 22.1554C73.1171 22.3686 73.2252 22.6084 73.2252 22.9015C73.2252 23.0875 73.1709 23.2474 73.09 23.3806C72.9829 23.5138 72.8482 23.647 72.6597 23.727C72.902 23.8069 73.09 23.9135 73.2252 24.0995C73.3599 24.2865 73.4403 24.4992 73.4403 24.739C73.4403 25.0854 73.3061 25.4051 73.0367 25.6449C72.7673 25.8847 72.4441 26.0179 72.0129 26.0179C71.6359 26.0179 71.3127 25.9113 71.0704 25.6715C70.8277 25.4317 70.6935 25.112 70.6663 24.7128H71.4203C71.4474 24.926 71.5283 25.0587 71.6359 25.1653C71.7435 25.2719 71.8787 25.3251 72.0671 25.3251C72.2551 25.3251 72.3903 25.2719 72.4979 25.1653C72.6055 25.0587 72.6864 24.9255 72.6864 24.739C72.6864 24.5525 72.6055 24.4192 72.4441 24.2865C72.2823 24.1533 72.0671 24.0995 71.7706 24.0995V23.4605C71.9591 23.4339 72.0938 23.4072 72.1747 23.3806C72.2551 23.3273 72.336 23.274 72.3903 23.1941C72.4441 23.1142 72.4708 23.0342 72.4708 22.9543C72.4708 22.8477 72.4441 22.7683 72.3632 22.6883C72.2823 22.6084 72.1747 22.5817 72.0671 22.5817C71.9591 22.5817 71.8515 22.6084 71.7706 22.6883C71.663 22.7145 71.5821 22.7944 71.5555 22.9015ZM75.191 21.8357L75.8378 22.1554L75.1372 23.5138C75.4875 23.5138 75.7569 23.647 75.9992 23.8868C76.2419 24.1266 76.3495 24.4192 76.3495 24.7928C76.3495 25.1386 76.2148 25.4317 75.972 25.6715C75.7298 25.9113 75.4337 26.0446 75.0834 26.0446C74.7331 26.0446 74.4099 25.9113 74.1681 25.6715C73.9254 25.4317 73.8178 25.1386 73.8178 24.8189C73.8178 24.6862 73.8449 24.5796 73.8716 24.4464C73.8982 24.3131 74.0063 24.1266 74.141 23.8602L75.191 21.8357ZM75.0834 24.2066C74.9487 24.2066 74.814 24.2599 74.7331 24.3664C74.6255 24.473 74.5989 24.6062 74.5989 24.739C74.5989 24.8988 74.6526 25.0321 74.7602 25.112C74.8678 25.2186 74.9758 25.2719 75.1105 25.2719C75.2452 25.2719 75.3795 25.2186 75.4875 25.112C75.5956 25.0054 75.6489 24.8722 75.6489 24.7128C75.6489 24.5525 75.5956 24.4192 75.4875 24.3393C75.3528 24.2599 75.2452 24.2066 75.0834 24.2066ZM80.7666 22.6084L80.2278 23.1141C79.8508 22.7416 79.4462 22.5551 78.9888 22.5551C78.6113 22.5551 78.2881 22.6883 78.0192 22.9543C77.7498 23.2212 77.6151 23.541 77.6151 23.9135C77.6151 24.1799 77.6689 24.4192 77.8036 24.6062C77.9117 24.8189 78.073 24.9788 78.2881 25.0853C78.5043 25.1919 78.7465 25.2719 78.9888 25.2719C79.2044 25.2719 79.4196 25.2186 79.608 25.1386C79.797 25.0587 79.9855 24.8988 80.2011 24.6862L80.7128 25.2186C80.4163 25.5117 80.1468 25.6982 79.8779 25.8043C79.608 25.9113 79.312 25.9646 78.9888 25.9646C78.3691 25.9646 77.8579 25.7781 77.4533 25.3784C77.0497 24.9788 76.8612 24.473 76.8612 23.8868C76.8612 23.4872 76.9416 23.1413 77.1301 22.8216C77.3191 22.5018 77.5613 22.262 77.9117 22.0755C78.2349 21.889 78.6113 21.7824 79.0159 21.7824C79.3391 21.7824 79.6623 21.8624 79.9584 21.9956C80.2816 22.1821 80.551 22.3686 80.7666 22.6084ZM82.5439 21.8357L83.1902 22.1554L82.4901 23.5138C82.8404 23.5138 83.1098 23.647 83.3521 23.8868C83.5944 24.1266 83.7024 24.4192 83.7024 24.7928C83.7024 25.1386 83.5672 25.4317 83.3249 25.6715C83.0827 25.9113 82.7866 26.0446 82.4363 26.0446C82.086 26.0446 81.7628 25.9113 81.5205 25.6715C81.2783 25.4317 81.1702 25.1386 81.1702 24.8189C81.1702 24.6862 81.1973 24.5796 81.224 24.4464C81.2511 24.3131 81.3592 24.1266 81.4934 23.8602L82.5439 21.8357ZM82.4363 24.2066C82.3016 24.2066 82.1669 24.2599 82.086 24.3664C81.9784 24.473 81.9518 24.6062 81.9518 24.739C81.9518 24.8988 82.0051 25.0321 82.1131 25.112C82.2207 25.2186 82.3282 25.2719 82.4634 25.2719C82.5981 25.2719 82.7324 25.2186 82.8404 25.112C82.948 25.0054 83.0018 24.8722 83.0018 24.7128C83.0018 24.5525 82.948 24.4192 82.8404 24.3393C82.7057 24.2599 82.5981 24.2066 82.4363 24.2066ZM84.9143 21.9156H86.7996V22.6084H85.4797L85.3184 23.3273C85.3721 23.3007 85.3993 23.3007 85.4526 23.3007H85.5873C85.9376 23.3007 86.2608 23.4339 86.5031 23.6737C86.7458 23.9135 86.8534 24.2332 86.8534 24.6062C86.8534 25.0059 86.7187 25.3251 86.4493 25.5916C86.1799 25.858 85.8567 25.9913 85.4797 25.9913C85.1294 25.9913 84.8333 25.8847 84.5911 25.6982C84.3488 25.5117 84.1869 25.2457 84.106 24.8988H84.9143C84.968 25.0321 85.049 25.112 85.1565 25.1919C85.2641 25.2457 85.3721 25.2985 85.4797 25.2985C85.6415 25.2985 85.8029 25.2457 85.911 25.112C86.0185 25.0059 86.0989 24.846 86.0989 24.659C86.0989 24.473 86.0452 24.3393 85.9376 24.2066C85.83 24.0995 85.6953 24.0201 85.5335 24.0201C85.4526 24.0201 85.3721 24.0467 85.2912 24.0733C85.2103 24.1266 85.1294 24.1799 85.0489 24.2599L84.4292 24.1266L84.9143 21.9156ZM88.6578 21.8357L89.3042 22.1554L88.604 23.5138C88.9543 23.5138 89.2238 23.647 89.466 23.8868C89.7083 24.1266 89.8159 24.4192 89.8159 24.7928C89.8159 25.1386 89.6812 25.4317 89.4389 25.6715C89.1966 25.9113 88.9006 26.0446 88.5502 26.0446C88.1999 26.0446 87.8767 25.9113 87.6345 25.6715C87.3922 25.4317 87.2841 25.1386 87.2841 24.8189C87.2841 24.6862 87.3113 24.5796 87.3379 24.4464C87.3651 24.3131 87.4731 24.1266 87.6073 23.8602L88.6578 21.8357ZM88.5774 24.2066C88.4422 24.2066 88.308 24.2599 88.227 24.3664C88.119 24.473 88.0924 24.6062 88.0924 24.739C88.0924 24.8988 88.1461 25.0321 88.2537 25.112C88.3613 25.2186 88.4693 25.2719 88.604 25.2719C88.7387 25.2719 88.8734 25.2186 88.981 25.112C89.0886 25.0054 89.1428 24.8722 89.1428 24.7128C89.1428 24.5525 89.0886 24.4192 88.981 24.3393C88.8463 24.2599 88.7116 24.2066 88.5774 24.2066ZM91.0282 21.9156H92.1591V25.8847H91.4052V22.635H90.5703L91.0282 21.9156ZM93.5061 21.9156H96.1454V22.3153L94.341 25.9913L93.6946 25.6715L95.2025 22.6084H93.5061V21.9156ZM97.223 23.1941H96.4686C96.4952 22.7683 96.6304 22.4219 96.8722 22.1821C97.115 21.9423 97.4382 21.8091 97.8423 21.8091C98.0845 21.8091 98.3002 21.8623 98.4887 21.9689C98.6771 22.0755 98.8118 22.2087 98.9465 22.3952C99.0541 22.5818 99.1079 22.7944 99.1079 22.9814C99.1079 23.2212 99.0275 23.4605 98.8928 23.7536C98.7576 24.0201 98.5153 24.3393 98.1383 24.7128L97.6804 25.1919H99.1079V25.8847H96.361V25.5117L97.5995 24.2599C97.8961 23.9668 98.1117 23.727 98.1921 23.541C98.3002 23.3539 98.3539 23.1941 98.3539 23.0342C98.3539 22.8743 98.3002 22.7683 98.1921 22.6617C98.0845 22.5551 97.9498 22.5018 97.7885 22.5018C97.6267 22.5018 97.4919 22.5551 97.3844 22.6883C97.2763 22.8216 97.223 23.0081 97.223 23.1941ZM100.293 23.1941H99.5391C99.5658 22.7683 99.7005 22.4219 99.9432 22.1821C100.186 21.9423 100.509 21.8091 100.912 21.8091C101.155 21.8091 101.37 21.8623 101.559 21.9689C101.748 22.0755 101.882 22.2087 102.017 22.3952C102.125 22.5818 102.178 22.7944 102.178 22.9814C102.178 23.2212 102.098 23.4605 101.963 23.7536C101.829 24.0201 101.586 24.3393 101.209 24.7128L100.751 25.1919H102.178V25.8847H99.4311V25.5117L100.67 24.2599C100.967 23.9668 101.182 23.727 101.263 23.541C101.37 23.3539 101.424 23.1941 101.424 23.0342C101.424 22.8743 101.37 22.7683 101.263 22.6617C101.155 22.5551 101.02 22.5018 100.859 22.5018C100.697 22.5018 100.562 22.5551 100.455 22.6883C100.347 22.8216 100.293 23.0081 100.293 23.1941ZM72.04 27.0565C72.336 27.0565 72.5783 27.1365 72.7939 27.2697C73.0096 27.4029 73.1709 27.6156 73.279 27.9087C73.3865 28.2023 73.4403 28.6014 73.4403 29.1343C73.4403 29.6672 73.3865 30.0664 73.2518 30.3595C73.1443 30.6526 72.9829 30.8657 72.7673 30.999C72.5783 31.1322 72.3094 31.2121 72.0129 31.2121C71.7168 31.2121 71.4474 31.1322 71.2589 30.999C71.0438 30.8657 70.882 30.6526 70.7739 30.3595C70.6663 30.0664 70.6125 29.6672 70.6125 29.161C70.6125 28.4416 70.7206 27.9087 70.9629 27.5894C71.2323 27.2164 71.6092 27.0565 72.04 27.0565ZM72.0671 27.7755C71.9319 27.7755 71.8244 27.8026 71.7168 27.9087C71.6092 27.9891 71.5283 28.1223 71.4745 28.335C71.4203 28.522 71.3936 28.8146 71.3936 29.2143C71.3936 29.72 71.4474 30.0664 71.5821 30.2529C71.6897 30.4394 71.8515 30.546 72.04 30.546C72.2285 30.546 72.3632 30.4661 72.4708 30.2796C72.6055 30.0664 72.6597 29.6939 72.6597 29.1876C72.6597 28.6814 72.6055 28.3083 72.4708 28.1223C72.417 27.8559 72.2551 27.7755 72.0671 27.7755ZM76.9687 27.1365H79.608V27.5362L77.8036 31.2121L77.1572 30.8924L78.6656 27.8287H76.9687V27.1365ZM81.3049 27.0565L81.9518 27.3763L81.2511 28.7347C81.6014 28.7347 81.8708 28.8679 82.1131 29.1077C82.3554 29.3475 82.4634 29.6401 82.4634 30.0131C82.4634 30.3595 82.3282 30.6526 82.086 30.8924C81.8437 31.1322 81.5477 31.2654 81.1973 31.2654C80.847 31.2654 80.5238 31.1322 80.2816 30.8924C80.0393 30.6526 79.9312 30.3595 79.9312 30.0397C79.9312 29.907 79.9584 29.7999 79.9855 29.6672C80.0121 29.534 80.1202 29.3475 80.2544 29.0806L81.3049 27.0565ZM81.224 29.4274C81.0898 29.4274 80.9551 29.4802 80.8741 29.5873C80.7666 29.6939 80.7394 29.8271 80.7394 29.9598C80.7394 30.1197 80.7937 30.2529 80.9008 30.3328C81.0089 30.4394 81.1169 30.4927 81.2511 30.4927C81.3858 30.4927 81.5205 30.4394 81.6286 30.3328C81.7361 30.2263 81.7899 30.0935 81.7899 29.9332C81.7899 29.7738 81.7361 29.6401 81.6286 29.5606C81.4934 29.4802 81.3592 29.4274 81.224 29.4274ZM85.1294 28.9745C85.3184 29.0806 85.4526 29.2409 85.5601 29.4274C85.6682 29.6134 85.722 29.8 85.722 30.0131C85.722 30.2529 85.6682 30.4661 85.5601 30.6526C85.4526 30.8391 85.2912 30.999 85.1027 31.0789C84.9142 31.185 84.672 31.2388 84.3488 31.2388C84.0256 31.2388 83.7562 31.185 83.5672 31.105C83.3792 30.999 83.2174 30.8657 83.1098 30.6792C83.0018 30.4927 82.948 30.2795 82.948 30.0397C82.948 29.8271 83.0018 29.6401 83.0827 29.4802C83.1631 29.3208 83.325 29.161 83.4863 29.0278C83.3792 28.8945 83.2712 28.788 83.2174 28.6547C83.1631 28.522 83.1365 28.3883 83.1365 28.2284C83.1365 28.0153 83.1903 27.8288 83.2983 27.6694C83.4059 27.5095 83.5406 27.3763 83.7291 27.2697C83.9175 27.1631 84.1332 27.1365 84.3488 27.1365C84.5911 27.1365 84.7795 27.1898 84.968 27.2697C85.1565 27.3763 85.2912 27.5095 85.3993 27.6694C85.5068 27.8559 85.5601 28.0419 85.5601 28.2284C85.5601 28.3616 85.5335 28.4949 85.4797 28.6281C85.3721 28.6814 85.2912 28.8146 85.1294 28.9745ZM84.2945 27.7755C84.1603 27.7755 84.0794 27.8288 83.9985 27.9087C83.9175 27.9891 83.8638 28.0952 83.8638 28.2284C83.8638 28.3616 83.9175 28.4682 83.9985 28.5482C84.0794 28.6281 84.1869 28.6814 84.3216 28.6814C84.4564 28.6814 84.5639 28.6281 84.6448 28.5482C84.7253 28.4682 84.7795 28.3616 84.7795 28.2284C84.7795 28.0952 84.7253 27.9891 84.6448 27.9087C84.5373 27.8288 84.4292 27.7755 84.2945 27.7755ZM84.3216 29.3741C84.1332 29.3741 83.9713 29.4274 83.8638 29.534C83.7291 29.6401 83.6753 29.7738 83.6753 29.9332C83.6753 30.0935 83.7291 30.2263 83.8638 30.3328C83.9713 30.4394 84.1332 30.4927 84.3216 30.4927C84.5101 30.4927 84.672 30.4394 84.7795 30.3328C84.8871 30.2263 84.9409 30.0935 84.9409 29.9332C84.9409 29.7738 84.8871 29.6401 84.7524 29.534C84.6448 29.4274 84.5101 29.3741 84.3216 29.3741ZM87.446 27.0565L88.0924 27.3763L87.3922 28.7347C87.742 28.7347 88.0114 28.8679 88.2537 29.1077C88.4965 29.3475 88.604 29.6401 88.604 30.0131C88.604 30.3595 88.4693 30.6526 88.227 30.8924C87.9848 31.1322 87.6882 31.2654 87.3379 31.2654C86.9881 31.2654 86.6649 31.1322 86.4221 30.8924C86.1799 30.6526 86.0723 30.3595 86.0723 30.0397C86.0723 29.907 86.0989 29.7999 86.1261 29.6672C86.1532 29.534 86.2608 29.3475 86.3955 29.0806L87.446 27.0565ZM87.3379 29.4274C87.2032 29.4274 87.069 29.4802 86.9881 29.5873C86.88 29.6939 86.8534 29.8271 86.8534 29.9598C86.8534 30.1197 86.9072 30.2529 87.0147 30.3328C87.1228 30.4394 87.2303 30.4927 87.3651 30.4927C87.4998 30.4927 87.6345 30.4394 87.742 30.3328C87.8496 30.2263 87.9039 30.0935 87.9039 29.9332C87.9039 29.7738 87.8496 29.6401 87.742 29.5606C87.6073 29.4802 87.4998 29.4274 87.3379 29.4274ZM92.2938 27.1365H94.9336V27.5362L93.1287 31.2121L92.4823 30.8924L93.9907 27.8287H92.3209V27.1365H92.2938ZM96.8722 27.0565H97.6266V29.6134H97.977V30.3062H97.6266V31.105H96.8722V30.3062H95.1216V29.6134L96.8722 27.0565ZM96.8722 29.6134V28.2822L95.9564 29.6134H96.8722ZM99.7005 27.0565L100.347 27.3763L99.6467 28.7347C99.9965 28.7347 100.266 28.8679 100.509 29.1077C100.751 29.3475 100.859 29.6401 100.859 30.0131C100.859 30.3595 100.724 30.6526 100.482 30.8924C100.239 31.1322 99.9432 31.2654 99.5929 31.2654C99.2426 31.2654 98.9194 31.1322 98.6771 30.8924C98.4344 30.6526 98.3268 30.3595 98.3268 30.0397C98.3268 29.907 98.3539 29.7999 98.3811 29.6672C98.4077 29.534 98.5153 29.3475 98.65 29.0806L99.7005 27.0565ZM99.5929 29.4274C99.4582 29.4274 99.3235 29.4802 99.2426 29.5873C99.135 29.6939 99.1079 29.8271 99.1079 29.9598C99.1079 30.1197 99.1617 30.2529 99.2697 30.3328C99.3773 30.4394 99.4849 30.4927 99.6201 30.4927C99.7543 30.4927 99.889 30.4394 99.9965 30.3328C100.105 30.2263 100.158 30.0935 100.158 29.9332C100.158 29.7738 100.105 29.6401 99.9965 29.5606C99.889 29.4802 99.7543 29.4274 99.5929 29.4274ZM105.195 28.4416H104.441C104.468 28.0153 104.602 27.6694 104.845 27.4296C105.087 27.1898 105.41 27.0565 105.814 27.0565C106.057 27.0565 106.272 27.1098 106.461 27.2164C106.649 27.323 106.784 27.4562 106.919 27.6427C107.026 27.8288 107.081 28.0419 107.081 28.2284C107.081 28.4682 107 28.708 106.865 29.0011C106.73 29.2675 106.488 29.5873 106.11 29.9598L105.653 30.4394H107.081V31.1322H104.306V30.7592L105.545 29.5074C105.842 29.2143 106.057 28.9745 106.138 28.788C106.245 28.6014 106.299 28.4416 106.299 28.2822C106.299 28.1223 106.245 28.0153 106.138 27.9087C106.03 27.8026 105.895 27.7493 105.733 27.7493C105.572 27.7493 105.437 27.8026 105.33 27.9353C105.249 28.069 105.195 28.2284 105.195 28.4416ZM72.04 32.2774C72.336 32.2774 72.5783 32.3573 72.7939 32.4906C73.0096 32.6238 73.1709 32.8369 73.279 33.1295C73.3865 33.4226 73.4403 33.8223 73.4403 34.3552C73.4403 34.8881 73.3865 35.2872 73.2518 35.5803C73.1443 35.8734 72.9829 36.0866 72.7673 36.2198C72.5783 36.3525 72.3094 36.4325 72.0129 36.4325C71.7168 36.4325 71.4474 36.3525 71.2589 36.2198C71.0438 36.0866 70.882 35.8734 70.7739 35.5803C70.6663 35.2872 70.6125 34.8881 70.6125 34.3813C70.6125 33.6624 70.7206 33.1295 70.9629 32.8103C71.2323 32.4639 71.6092 32.2774 72.04 32.2774ZM72.0671 32.9963C71.9319 32.9963 71.8244 33.0234 71.7168 33.1295C71.6092 33.2095 71.5283 33.3427 71.4745 33.5558C71.4203 33.7424 71.3936 34.0354 71.3936 34.4351C71.3936 34.9409 71.4474 35.2872 71.5821 35.4738C71.6897 35.6603 71.8515 35.7668 72.04 35.7668C72.2285 35.7668 72.3632 35.6869 72.4708 35.5004C72.6055 35.2872 72.6597 34.9142 72.6597 34.4085C72.6597 33.9022 72.6055 33.5292 72.4708 33.3427C72.417 33.1034 72.2551 32.9963 72.0671 32.9963ZM75.4066 32.2774H76.161V34.8348H76.538V35.527H76.1877V36.3264H75.4337V35.527H73.6831V34.8348L75.4066 32.2774ZM75.4337 34.8348V33.503L74.5179 34.8348H75.4337ZM77.5885 33.6624H76.834C76.8612 33.2361 76.9959 32.8897 77.2382 32.6504C77.4804 32.4106 77.8036 32.2774 78.2077 32.2774C78.45 32.2774 78.6656 32.3307 78.8541 32.4373C79.0431 32.5438 79.1773 32.6766 79.312 32.8636C79.4196 33.0501 79.4738 33.2632 79.4738 33.4493C79.4738 33.6891 79.3929 33.9289 79.2582 34.222C79.1235 34.4884 78.8812 34.8081 78.5043 35.1807L78.0459 35.6603H79.4738V36.3525H76.7536V35.98L77.9921 34.7282C78.2881 34.4351 78.5043 34.1953 78.5847 34.0088C78.6923 33.8223 78.7465 33.6624 78.7465 33.503C78.7465 33.3427 78.6923 33.2361 78.5847 33.1295C78.4771 33.0234 78.3424 32.9702 78.1811 32.9702C78.0192 32.9702 77.8845 33.0234 77.7765 33.1562C77.6689 33.2894 77.6151 33.4493 77.5885 33.6624ZM98.4077 36.4325L97.7614 36.1132L98.4615 34.7548C98.1117 34.7548 97.8423 34.6216 97.5995 34.3813C97.3572 34.142 97.2497 33.8489 97.2497 33.4759C97.2497 33.1295 97.3844 32.8369 97.6266 32.5971C97.8694 32.3573 98.1655 32.2241 98.5153 32.2241C98.8656 32.2241 99.1888 32.3573 99.4311 32.5971C99.6733 32.8369 99.7814 33.1295 99.7814 33.4493C99.7814 33.583 99.7543 33.6891 99.7276 33.8223C99.7005 33.9555 99.5929 34.142 99.4582 34.3813L98.4077 36.4325ZM98.4887 34.0621C98.6234 34.0621 98.7576 34.0088 98.8385 33.9022C98.9465 33.7956 98.9737 33.6624 98.9737 33.5292C98.9737 33.3698 98.9194 33.2361 98.8118 33.1295C98.7043 33.0234 98.5962 32.9702 98.4615 32.9702C98.3268 32.9702 98.1921 33.0234 98.0845 33.1295C97.977 33.2361 97.9227 33.3698 97.9227 33.5292C97.9227 33.6891 97.977 33.8223 98.0845 33.9022C98.2192 34.0088 98.354 34.0621 98.4887 34.0621ZM100.886 32.384H102.771V33.0762H101.451L101.29 33.7956C101.344 33.7956 101.37 33.769 101.424 33.769H101.559C101.909 33.769 102.232 33.9022 102.474 34.142C102.717 34.3813 102.825 34.7011 102.825 35.0746C102.825 35.4738 102.69 35.7935 102.421 36.0599C102.151 36.3264 101.829 36.4596 101.451 36.4596C101.101 36.4596 100.805 36.3525 100.562 36.166C100.32 35.98 100.158 35.7136 100.077 35.3672H100.886C100.939 35.5004 101.02 35.5803 101.128 35.6603C101.236 35.7136 101.344 35.7668 101.451 35.7668C101.613 35.7668 101.774 35.7136 101.882 35.5803C101.989 35.4738 102.07 35.3139 102.07 35.1274C102.07 34.9409 102.017 34.8081 101.909 34.6749C101.801 34.5683 101.667 34.4884 101.505 34.4884C101.424 34.4884 101.344 34.515 101.263 34.5417C101.182 34.5945 101.101 34.6483 101.02 34.7282L100.401 34.5945L100.886 32.384ZM104.871 32.2774H105.626V34.8348H105.976V35.527H105.626V36.3264H104.871V35.527H103.121V34.8348L104.871 32.2774ZM104.899 34.8348V33.503L103.983 34.8348H104.899ZM70.8277 53.2674H73.4675V53.667L71.663 57.3425L71.0166 57.0228L72.525 53.9596H70.8277V53.2674ZM73.8982 53.2674H76.538V53.667L74.7331 57.3425L74.0872 57.0228L75.5956 53.9596H73.9253V53.2674H73.8982ZM78.2349 53.1608L78.8812 53.48L78.1811 54.8389C78.5309 54.8389 78.8003 54.9721 79.0431 55.2114C79.2849 55.4512 79.3929 55.7443 79.3929 56.1173C79.3929 56.4637 79.2582 56.7563 79.0159 56.9961C78.7732 57.2359 78.4771 57.3691 78.1268 57.3691C77.7765 57.3691 77.4533 57.2359 77.211 56.9961C76.9687 56.7563 76.8612 56.4637 76.8612 56.144C76.8612 56.0108 76.8878 55.9042 76.915 55.771C76.9416 55.6377 77.0497 55.4512 77.1844 55.1848L78.2349 53.1608ZM78.1539 55.5578C78.0192 55.5578 77.8845 55.6111 77.8036 55.7177C77.696 55.8243 77.6689 55.9575 77.6689 56.0907C77.6689 56.2506 77.7232 56.3838 77.8307 56.4637C77.9383 56.5703 78.0459 56.6236 78.1811 56.6236C78.3153 56.6236 78.45 56.5703 78.558 56.4637C78.6656 56.3566 78.7194 56.2239 78.7194 56.0641C78.7194 55.9042 78.6656 55.771 78.558 55.691C78.4233 55.6111 78.2881 55.5578 78.1539 55.5578ZM82.086 55.0787C82.275 55.1848 82.4092 55.3447 82.5172 55.5312C82.6248 55.7177 82.6786 55.9042 82.6786 56.1173C82.6786 56.3566 82.6248 56.5703 82.5172 56.7563C82.4092 56.9433 82.2478 57.1032 82.0593 57.1831C81.8708 57.2892 81.6286 57.3425 81.3049 57.3425C80.9817 57.3425 80.7128 57.2892 80.5238 57.2093C80.3353 57.1032 80.174 56.97 80.0659 56.7835C79.9584 56.5964 79.9046 56.3838 79.9046 56.144C79.9046 55.9308 79.9584 55.7443 80.0393 55.5844C80.1202 55.4246 80.2815 55.2652 80.4434 55.1315C80.3353 54.9988 80.2278 54.8922 80.174 54.759C80.1202 54.6257 80.0931 54.4925 80.0931 54.3326C80.0931 54.1195 80.1469 53.933 80.2544 53.7736C80.3625 53.6132 80.4972 53.48 80.6857 53.3739C80.8741 53.2674 81.0898 53.2407 81.3049 53.2407C81.5477 53.2407 81.7361 53.294 81.9246 53.3739C82.1131 53.48 82.2478 53.6132 82.3554 53.7736C82.4634 53.9596 82.5172 54.1461 82.5172 54.3326C82.5172 54.4659 82.4901 54.5991 82.4363 54.7323C82.3282 54.8123 82.2207 54.9455 82.086 55.0787ZM81.224 53.9063C81.0898 53.9063 80.9817 53.9596 80.9279 54.0396C80.847 54.1195 80.7937 54.2261 80.7937 54.3593C80.7937 54.4925 80.847 54.5991 80.9279 54.679C81.0089 54.759 81.1169 54.8123 81.2511 54.8123C81.3858 54.8123 81.4934 54.759 81.5743 54.679C81.6552 54.5991 81.709 54.4925 81.709 54.3593C81.709 54.2261 81.6552 54.1195 81.5743 54.0396C81.4667 53.933 81.3592 53.9063 81.224 53.9063ZM81.2511 55.4784C81.0626 55.4784 80.9008 55.5312 80.7937 55.6377C80.6585 55.7443 80.6047 55.8775 80.6047 56.0374C80.6047 56.1973 80.6585 56.3305 80.7937 56.4371C80.9008 56.5437 81.0626 56.5965 81.2511 56.5965C81.4401 56.5965 81.6014 56.5437 81.709 56.4371C81.8166 56.3305 81.8708 56.1973 81.8708 56.0374C81.8708 55.8775 81.8166 55.7443 81.6824 55.6377C81.6014 55.5578 81.4401 55.4784 81.2511 55.4784ZM84.3754 53.1608L85.0218 53.48L84.3216 54.8389C84.672 54.8389 84.9409 54.9721 85.1837 55.2114C85.4259 55.4512 85.5335 55.7443 85.5335 56.1173C85.5335 56.4637 85.3993 56.7563 85.1565 56.9961C84.9142 57.2359 84.6177 57.3691 84.2679 57.3691C83.9175 57.3691 83.5944 57.2359 83.3521 56.9961C83.1098 56.7563 83.0018 56.4637 83.0018 56.144C83.0018 56.0108 83.0289 55.9042 83.0555 55.771C83.0827 55.6377 83.1902 55.4512 83.3249 55.1848L84.3754 53.1608ZM84.2679 55.5578C84.1332 55.5578 83.9985 55.6111 83.9175 55.7177C83.8095 55.8243 83.7828 55.9575 83.7828 56.0907C83.7828 56.2506 83.8366 56.3838 83.9447 56.4637C84.0523 56.5703 84.1603 56.6236 84.2945 56.6236C84.4292 56.6236 84.5639 56.5703 84.672 56.4637C84.7795 56.3566 84.8333 56.2239 84.8333 56.0641C84.8333 55.9042 84.7795 55.771 84.672 55.691C84.5639 55.6111 84.4292 55.5578 84.2679 55.5578ZM87.3379 57.3425L86.6915 57.0228L87.3922 55.6644C87.0419 55.6644 86.7725 55.5312 86.5302 55.2914C86.2879 55.0516 86.1799 54.759 86.1799 54.3859C86.1799 54.0396 86.3151 53.7465 86.5573 53.5072C86.7996 53.2674 87.0956 53.1341 87.446 53.1341C87.7963 53.1341 88.119 53.2674 88.3613 53.5072C88.604 53.7465 88.7116 54.0396 88.7116 54.3593C88.7116 54.4925 88.6844 54.5991 88.6578 54.7323C88.6312 54.8655 88.5231 55.0516 88.3884 55.2914L87.3379 57.3425ZM87.4188 54.9455C87.5535 54.9455 87.6882 54.8922 87.7692 54.7851C87.8767 54.679 87.9039 54.5458 87.9039 54.4126C87.9039 54.2527 87.8496 54.1195 87.742 54.0129C87.6345 53.9063 87.5264 53.8531 87.3922 53.8531C87.2575 53.8531 87.1228 53.9063 87.0147 54.0129C86.9072 54.1195 86.8534 54.2527 86.8534 54.4126C86.8534 54.5725 86.9072 54.7057 87.0147 54.7851C87.1499 54.8922 87.2841 54.9455 87.4188 54.9455ZM89.2238 53.2674H91.863V53.667L90.0586 57.3425L89.4122 57.0228L90.9201 53.9596H89.2504V53.2674H89.2238ZM93.8022 53.1608H94.5561V55.7177H94.9064V56.4104H94.5561V57.2093H93.8022V56.4104H92.0515V55.7177L93.8022 53.1608ZM93.8293 55.7177V54.3859L92.9135 55.7177H93.8293ZM96.6304 53.1608L97.2763 53.48L96.5762 54.8389C96.9265 54.8389 97.1959 54.9721 97.4382 55.2114C97.6804 55.4512 97.7885 55.7443 97.7885 56.1173C97.7885 56.4637 97.6533 56.7563 97.411 56.9961C97.1688 57.2359 96.8722 57.3691 96.5224 57.3691C96.1721 57.3691 95.8489 57.2359 95.6066 56.9961C95.3643 56.7563 95.2568 56.4637 95.2568 56.144C95.2568 56.0108 95.2834 55.9042 95.3106 55.771C95.3372 55.6377 95.4453 55.4512 95.58 55.1848L96.6304 53.1608ZM96.5495 55.5578C96.4148 55.5578 96.2801 55.6111 96.1992 55.7177C96.0916 55.8243 96.0645 55.9575 96.0645 56.0907C96.0645 56.2506 96.1183 56.3838 96.2263 56.4637C96.3339 56.5703 96.4415 56.6236 96.5762 56.6236C96.7114 56.6236 96.8456 56.5703 96.9531 56.4637C97.0612 56.3566 97.115 56.2239 97.115 56.0641C97.115 55.9042 97.0612 55.771 96.9531 55.691C96.8184 55.6111 96.6842 55.5578 96.5495 55.5578ZM99.0003 53.2674H100.886V53.9596H99.5658L99.4039 54.679C99.4582 54.679 99.4849 54.6524 99.5391 54.6524H99.6733C100.024 54.6524 100.347 54.7851 100.59 55.0254C100.831 55.2652 100.939 55.5845 100.939 55.9575C100.939 56.3567 100.805 56.6764 100.535 56.9433C100.266 57.2093 99.9432 57.3425 99.5658 57.3425C99.2159 57.3425 98.9194 57.2359 98.6771 57.0499C98.4344 56.8634 98.273 56.5964 98.1921 56.2506H99.0003C99.0541 56.3838 99.135 56.4637 99.2426 56.5437C99.3506 56.5965 99.4582 56.6502 99.5658 56.6502C99.7276 56.6502 99.889 56.5964 99.9965 56.4637C100.105 56.3566 100.186 56.1973 100.186 56.0108C100.186 55.8243 100.132 55.691 100.024 55.5578C99.9161 55.4512 99.7814 55.3713 99.6201 55.3713C99.5391 55.3713 99.4582 55.3984 99.3773 55.4246C99.2969 55.4784 99.216 55.5312 99.135 55.6111L98.5153 55.4784L99.0003 53.2674Z" fill="#C8B159"/>
<path d="M51.5289 57.3711L64.3928 0.924168H52.2059L45.0123 40.1913L36.8872 0.924168H28.0008L19.9609 40.1913L12.6824 0.924168H0.495361L13.3594 57.3711H25.208L32.4021 19.7959L39.68 57.3711H51.5289Z" fill="#151515"/>
</svg>
