<svg width="78" height="77" viewBox="0 0 78 77" fill="none" xmlns="http://www.w3.org/2000/svg">
<g clip-path="url(#clip0_3414_6836)">
<path d="M53.9488 32.3554L38.9954 17.402L24.0327 32.3616L15.3317 23.6606L38.9954 0L62.6498 23.6544L53.9488 32.3554ZM77.4954 38.5L68.7944 29.799L60.0934 38.5L68.7944 47.201L77.4954 38.5ZM53.9488 44.6446L38.9954 59.598L24.0358 44.6384L15.3286 53.3333L15.3317 53.3394L38.9954 77L62.6498 53.3456L62.6621 53.3333L53.9488 44.6446ZM17.8974 38.5031L9.19637 29.8021L0.495361 38.5031L9.19637 47.2041L17.8974 38.5031Z" fill="#F3BA2F"/>
<path d="M29.1717 38.4974H29.1686L37.9959 29.667L44.5224 36.1904L45.2709 36.9389L46.817 38.485L46.8293 38.4974L46.817 38.5097L37.9959 47.3339L29.1655 38.5035L29.1625 38.4974H29.1717Z" fill="#F3BA2F"/>
</g>
<defs>
<clipPath id="clip0_3414_6836">
<rect width="77" height="77" fill="white" transform="matrix(-1 0 0 1 77.4954 0)"/>
</clipPath>
</defs>
</svg>
