<svg width="69" height="76" viewBox="0 0 69 76" fill="none" xmlns="http://www.w3.org/2000/svg">
<g clip-path="url(#clip0_981_391)">
<path d="M6.40854 6.41724C9.94628 6.41724 12.82 9.31282 12.82 12.8775V63.0786C12.82 66.6433 9.94628 69.5389 6.40854 69.5389C2.8708 69.5389 -0.00292969 66.6433 -0.00292969 63.0786V12.8775C0.00795566 9.31282 2.8708 6.41724 6.40854 6.41724Z" fill="#A2A2A2"/>
<path d="M47.8054 2.51272C50.2982 5.04636 50.2764 9.13748 47.7619 11.6382L12.341 46.9556C9.82647 49.4673 5.76624 49.4454 3.28438 46.9117C0.791632 44.3781 0.813402 40.287 3.32792 37.7862L38.7488 2.47982C41.2634 -0.0428537 45.3236 -0.0209172 47.8054 2.51272Z" fill="#A2A2A2"/>
<path d="M47.8054 73.3997C50.2982 70.8661 50.2764 66.775 47.7619 64.2742L12.341 28.9678C9.82647 26.4561 5.76624 26.478 3.28438 29.0117C0.791632 31.5453 0.813402 35.6364 3.32792 38.1372L38.7488 73.4436C41.2634 75.9663 45.3236 75.9443 47.8054 73.3997Z" fill="#A2A2A2"/>
<path d="M67.1272 46.2973C69.6199 48.831 69.609 52.9221 67.1054 55.4338L48.4697 74.1235C45.9552 76.6352 41.8949 76.6242 39.4022 74.1015C36.9095 71.5679 36.9203 67.4768 39.424 64.9651L58.0597 46.2754C60.5633 43.7637 64.6236 43.7746 67.1272 46.2973Z" fill="#A2A2A2"/>
<path d="M67.1272 29.7026C69.6199 27.169 69.609 23.0779 67.1054 20.5662L48.4697 1.87645C45.9552 -0.635249 41.8949 -0.624281 39.4022 1.89839C36.9095 4.43203 36.9203 8.52315 39.424 11.0348L58.0597 29.7246C60.5742 32.2363 64.6344 32.2363 67.1272 29.7026Z" fill="#A2A2A2"/>
<path d="M43.9848 44.5204C47.5558 44.5204 50.4507 41.6035 50.4507 38.0053C50.4507 34.4071 47.5558 31.4902 43.9848 31.4902C40.4138 31.4902 37.5189 34.4071 37.5189 38.0053C37.5189 41.6035 40.4138 44.5204 43.9848 44.5204Z" fill="#A2A2A2"/>
</g>
<defs>
<clipPath id="clip0_981_391">
<rect width="69" height="76" fill="white"/>
</clipPath>
</defs>
</svg>
