<svg width="74" height="82" viewBox="0 0 74 82" fill="none" xmlns="http://www.w3.org/2000/svg">
    <path d="M45.0696 23.7875L38.3875 19.9029C37.7624 19.5892 37.0722 19.4258 36.3723 19.4258C35.6724 19.4258 34.9822 19.5892 34.3571 19.9029L27.6749 23.7875C26.2431 24.6331 26.2165 26.0073 27.6749 26.8265L34.3571 30.764C34.9783 31.0903 35.67 31.2608 36.3723 31.2608C37.0746 31.2608 37.7663 31.0903 38.3875 30.764L45.0696 26.8265C45.3848 26.7152 45.6576 26.5094 45.8506 26.2373C46.0435 25.9652 46.1471 25.6402 46.1471 25.307C46.1471 24.9738 46.0435 24.6488 45.8506 24.3767C45.6576 24.1046 45.3848 23.8987 45.0696 23.7875V23.7875Z" fill="#A2A2A2"/>
    <path d="M71.1348 18.9763L38.838 0.478046C38.2128 0.164364 37.5226 0.000976562 36.8227 0.000976562C36.1228 0.000976563 35.4326 0.164364 34.8075 0.478046L2.5106 18.9763C1.92707 19.363 1.44141 19.8792 1.09175 20.4844C0.742093 21.0897 0.537955 21.7674 0.495361 22.4645L0.495361 59.461C0.537955 60.1581 0.742093 60.8358 1.09175 61.4411C1.44141 62.0463 1.92707 62.5625 2.5106 62.9492L34.8075 81.4475C35.4326 81.7611 36.1228 81.9245 36.8227 81.9245C37.5226 81.9245 38.2128 81.7611 38.838 81.4475L71.1348 62.9492C71.7184 62.5625 72.204 62.0463 72.5537 61.4411C72.9033 60.8358 73.1075 60.1581 73.1501 59.461V22.4645C73.1075 21.7674 72.9033 21.0897 72.5537 20.4844C72.204 19.8792 71.7184 19.363 71.1348 18.9763V18.9763ZM56.763 27.5647L38.3872 38.3466C37.7659 38.6729 37.0742 38.8434 36.3719 38.8434C35.6697 38.8434 34.978 38.6729 34.3567 38.3466L22.6895 31.5287C21.2576 30.6566 20.0379 31.3437 20.0379 33.0085V53.6473C20.0881 53.974 20.0397 54.3082 19.8987 54.6073C19.7577 54.9065 19.5305 55.1571 19.2461 55.3271C18.9617 55.4972 18.633 55.579 18.3018 55.5622C17.9706 55.5454 17.6519 55.4308 17.3863 55.2328L15.3975 54.2022C14.7978 53.8411 14.2958 53.3393 13.9353 52.7405C13.5748 52.1417 13.3667 51.4641 13.3293 50.7668V28.3575C13.3719 27.6604 13.576 26.9827 13.9256 26.3774C14.2753 25.7722 14.761 25.256 15.3445 24.8693L34.3302 13.8761C34.9553 13.5624 35.6455 13.399 36.3454 13.399C37.0453 13.399 37.7355 13.5624 38.3607 13.8761L56.7365 24.4465C57.083 24.534 57.3907 24.7334 57.6115 25.0137C57.8322 25.2939 57.9536 25.6392 57.9566 25.9954C57.9596 26.3517 57.8442 26.6989 57.6282 26.9828C57.4122 27.2668 57.108 27.4714 56.763 27.5647V27.5647Z" fill="#A2A2A2"/>
</svg>
