<svg width="113" height="57" viewBox="0 0 113 57" fill="none" xmlns="http://www.w3.org/2000/svg">
<path d="M70.3331 0.385281H72.9729V0.784946L71.1685 4.43426L70.5221 4.11452L72.0305 1.07803H70.3331V0.385281ZM73.4036 0.385281H76.0434V0.784946L74.2385 4.46091L73.5926 4.14117L75.0739 1.07803H73.4036V0.385281ZM77.7403 0.279194L78.3867 0.598923L77.6865 1.95731C78.0363 1.95731 78.3057 2.09003 78.5485 2.32983C78.7903 2.56964 78.8983 2.86272 78.8983 3.23575C78.8983 3.58213 78.7636 3.87521 78.5214 4.11452C78.2786 4.35432 77.9826 4.48804 77.6322 4.48804C77.2819 4.48804 76.9587 4.35432 76.7164 4.11452C76.4742 3.87521 76.3666 3.58163 76.3666 3.26239C76.3666 3.12917 76.3933 3.02259 76.4204 2.88937C76.447 2.75615 76.5551 2.56963 76.6898 2.30368L77.7403 0.279194ZM77.6594 2.64956C77.5247 2.64956 77.39 2.70335 77.309 2.80943C77.2015 2.91601 77.1743 3.04923 77.1743 3.18245C77.1743 3.34232 77.2286 3.47555 77.3362 3.55548C77.4437 3.66206 77.5513 3.71485 77.6865 3.71485C77.8207 3.71485 77.9554 3.66206 78.0635 3.55548C78.171 3.44891 78.2248 3.31569 78.2248 3.15582C78.2248 2.99595 78.171 2.86272 78.0635 2.78279C77.9288 2.70335 77.7936 2.64956 77.6594 2.64956ZM81.5914 2.19711C81.7804 2.30368 81.9146 2.46355 82.0227 2.64956C82.1302 2.83607 82.184 3.02259 82.184 3.23575C82.184 3.47555 82.1302 3.6887 82.0227 3.87521C81.9146 4.06123 81.7532 4.2211 81.5648 4.30104C81.3763 4.40811 81.134 4.46091 80.8103 4.46091C80.4871 4.46091 80.2182 4.40811 80.0293 4.32768C79.8408 4.2211 79.6794 4.08838 79.5714 3.90137C79.4638 3.71486 79.41 3.5017 79.41 3.26239C79.41 3.04924 79.4638 2.86272 79.5447 2.70335C79.6256 2.54299 79.787 2.38361 79.9488 2.2499C79.8408 2.11716 79.7332 2.01009 79.6794 1.87737C79.6256 1.74414 79.5985 1.61093 79.5985 1.45106C79.5985 1.2379 79.6523 1.05139 79.7598 0.891525C79.8679 0.732151 80.0026 0.598927 80.1911 0.492348C80.2992 0.332481 80.5143 0.279194 80.7566 0.279194C80.9988 0.279194 81.1878 0.332485 81.3763 0.412418C81.5648 0.518501 81.6995 0.652218 81.807 0.812084C81.9146 0.998104 81.9689 1.18461 81.9689 1.39777C81.9689 1.53099 81.9417 1.66422 81.888 1.79744C81.8337 1.90401 81.7261 2.03724 81.5914 2.19711ZM80.7294 0.9981C80.5952 0.9981 80.4871 1.05139 80.4334 1.13181C80.3524 1.21175 80.2991 1.31784 80.2991 1.45106C80.2991 1.58428 80.3524 1.69036 80.4334 1.77079C80.5143 1.85072 80.6223 1.90401 80.7566 1.90401C80.8913 1.90401 80.9988 1.85072 81.0797 1.77079C81.1607 1.69036 81.2144 1.58428 81.2144 1.45106C81.2144 1.31784 81.1607 1.21175 81.0797 1.13181C80.9722 1.05139 80.8646 0.9981 80.7294 0.9981ZM80.7566 2.59628C80.5681 2.59628 80.4062 2.64957 80.2991 2.75615C80.164 2.86273 80.1102 2.99595 80.1102 3.15582C80.1102 3.31569 80.164 3.44891 80.2991 3.55548C80.4062 3.66206 80.5681 3.71485 80.7566 3.71485C80.9455 3.71485 81.1069 3.66206 81.2144 3.55548C81.322 3.44891 81.3763 3.31569 81.3763 3.15582C81.3763 2.99595 81.322 2.86273 81.1878 2.75615C81.1069 2.64957 80.9455 2.59628 80.7566 2.59628ZM83.8809 0.279194L84.5272 0.598923L83.8271 1.95731C84.1774 1.95731 84.4463 2.09003 84.6891 2.32983C84.9314 2.56964 85.0389 2.86272 85.0389 3.23575C85.0389 3.58213 84.9047 3.87521 84.6619 4.11452C84.4197 4.35432 84.1231 4.48804 83.7733 4.48804C83.423 4.48804 83.0998 4.35432 82.8575 4.11452C82.6152 3.87521 82.5072 3.58213 82.5072 3.26239C82.5072 3.12917 82.5343 3.02259 82.561 2.88937C82.5881 2.75615 82.6957 2.56963 82.8304 2.30368L83.8809 0.279194ZM83.7733 2.64956C83.6386 2.64956 83.5039 2.70335 83.423 2.80943C83.3149 2.91601 83.2883 3.04923 83.2883 3.18245C83.2883 3.34232 83.3421 3.47555 83.4501 3.55548C83.5577 3.66206 83.6657 3.71485 83.7999 3.71485C83.9346 3.71485 84.0693 3.66206 84.1774 3.55548C84.285 3.44891 84.3388 3.31569 84.3388 3.15582C84.3388 2.99595 84.285 2.86272 84.1774 2.78279C84.0693 2.70335 83.9347 2.64956 83.7733 2.64956ZM86.8433 4.43426L86.197 4.11452L86.8976 2.75615C86.5473 2.78279 86.2512 2.64957 86.0085 2.40976C85.7662 2.17046 85.6587 1.87737 85.6587 1.50434C85.6587 1.15797 85.7934 0.86488 86.0356 0.62508C86.2779 0.412415 86.5744 0.279194 86.9243 0.279194C87.2746 0.279194 87.5978 0.412415 87.84 0.652218C88.0828 0.891525 88.1899 1.18461 88.1899 1.50434C88.1899 1.63757 88.1632 1.74414 88.1366 1.87737C88.1095 2.01009 88.0019 2.19661 87.8667 2.4369L86.8433 4.43426ZM86.9243 2.06388C87.059 2.06388 87.1937 2.0101 87.2746 1.90401C87.3822 1.79744 87.4093 1.66422 87.4093 1.53099C87.4093 1.37112 87.355 1.2379 87.2475 1.13132C87.1399 1.02475 87.0318 0.971455 86.8976 0.971455C86.7629 0.971455 86.6282 1.02475 86.5202 1.13132C86.4126 1.2379 86.3588 1.37112 86.3588 1.53099C86.3588 1.69036 86.4126 1.82408 86.5202 1.90401C86.6554 2.0101 86.7896 2.06388 86.9243 2.06388ZM88.7292 0.385281H91.3685V0.784946L89.5641 4.46091L88.9177 4.14117L90.3989 1.07803H88.7292V0.385281ZM93.3076 0.279194H94.0616V2.83608H94.4119V3.52884H94.0616V4.32768H93.3076V3.52884H91.557V2.83608L93.3076 0.279194ZM93.3347 2.83608V1.50434L92.419 2.83608H93.3347ZM96.1359 0.279194L96.7818 0.598923L96.0816 1.95731C96.4319 1.95731 96.7013 2.09003 96.9436 2.32983C97.1859 2.56964 97.2939 2.86272 97.2939 3.23575C97.2939 3.58213 97.1587 3.87521 96.9165 4.11452C96.6742 4.35432 96.3777 4.48804 96.0278 4.48804C95.6775 4.48804 95.3543 4.35432 95.112 4.11452C94.8698 3.87521 94.7622 3.58163 94.7622 3.26239C94.7622 3.12917 94.7888 3.02259 94.816 2.88937C94.8426 2.75615 94.9507 2.56963 95.0854 2.30368L96.1359 0.279194ZM96.055 2.64956C95.9203 2.64956 95.7855 2.70335 95.7046 2.80943C95.5971 2.91601 95.5699 3.04923 95.5699 3.18245C95.5699 3.34232 95.6237 3.47555 95.7318 3.55548C95.8393 3.66206 95.9469 3.71485 96.0816 3.71485C96.2168 3.71485 96.351 3.66206 96.4586 3.55548C96.5666 3.44891 96.6204 3.31569 96.6204 3.15582C96.6204 2.99595 96.5666 2.86272 96.4586 2.78279C96.3239 2.70335 96.1897 2.64956 96.055 2.64956ZM98.5058 0.385281H100.391V1.07803H99.0712L98.9365 1.79744C98.9903 1.79744 99.0174 1.77079 99.0712 1.77079H99.2059C99.5562 1.77079 99.8794 1.90401 100.122 2.14381C100.364 2.38361 100.472 2.70335 100.472 3.07588C100.472 3.47554 100.337 3.79479 100.068 4.06124C99.7985 4.32768 99.4753 4.46091 99.0983 4.46091C98.748 4.46091 98.452 4.35432 98.2097 4.1683C97.9669 3.9813 97.8056 3.71486 97.7247 3.36897H98.5329C98.5862 3.5017 98.6671 3.58163 98.7752 3.66157C98.8827 3.71486 98.9903 3.76864 99.0983 3.76864C99.2597 3.76864 99.4215 3.71485 99.5291 3.58163C99.6372 3.47554 99.7176 3.31568 99.7176 3.12917C99.7176 2.94266 99.6638 2.80943 99.5562 2.67621C99.4487 2.56963 99.314 2.4897 99.1521 2.4897C99.0712 2.4897 98.9903 2.51634 98.9094 2.54299C98.8289 2.59628 98.748 2.64957 98.6671 2.7295L98.0479 2.59628L98.5058 0.385281ZM95.489 6.88506H94.7351C94.7622 6.45875 94.8969 6.11237 95.1387 5.87257C95.3814 5.63326 95.7046 5.49955 96.1087 5.49955C96.351 5.49955 96.5666 5.55333 96.7551 5.65991C96.9436 5.766 97.0783 5.89921 97.213 6.11237C97.3206 6.29888 97.3748 6.51204 97.3748 6.69855C97.3748 6.93835 97.2939 7.17766 97.1587 7.47075C97.0245 7.73719 96.7818 8.05692 96.4048 8.42995L95.9469 8.90955H97.3748V9.60181H94.627V9.22928L95.8665 7.97699C96.1625 7.6844 96.3776 7.44459 96.4586 7.25808C96.5666 7.07157 96.6204 6.9117 96.6204 6.75183C96.6204 6.59197 96.5666 6.48539 96.4586 6.37881C96.351 6.27224 96.2168 6.21894 96.055 6.21894C95.8936 6.21894 95.7584 6.27224 95.6508 6.40546C95.5699 6.51204 95.489 6.6719 95.489 6.88506ZM99.1255 5.49955C99.4215 5.49955 99.6638 5.57997 99.8794 5.71319C100.095 5.84592 100.256 6.05908 100.364 6.35217C100.472 6.64526 100.526 7.04493 100.526 7.57733C100.526 8.11022 100.472 8.50988 100.337 8.80247C100.229 9.09557 100.068 9.30873 99.8523 9.44195C99.6638 9.57518 99.3944 9.65511 99.0983 9.65511C98.8023 9.65511 98.5329 9.57518 98.3439 9.44195C98.1288 9.30873 97.9669 9.09557 97.8594 8.80247C97.7513 8.50988 97.6975 8.11022 97.6975 7.60397C97.6975 6.88506 97.8056 6.35217 98.0479 6.03244C98.3439 5.68606 98.6942 5.49955 99.1255 5.49955ZM99.1521 6.21894C99.0174 6.21894 98.9094 6.24559 98.8023 6.35217C98.6942 6.4321 98.6133 6.56533 98.5595 6.77848C98.5058 6.96499 98.4791 7.25808 98.4791 7.65726C98.4791 8.1635 98.5329 8.50988 98.6671 8.69639C98.7752 8.88241 98.9365 8.98948 99.1255 8.98948C99.314 8.98948 99.4487 8.90955 99.5562 8.72304C99.6909 8.50988 99.7447 8.13686 99.7447 7.63061C99.7447 7.12486 99.6909 6.75184 99.5562 6.56533C99.502 6.32553 99.3406 6.21894 99.1521 6.21894ZM100.984 5.60612H103.623V6.00579L101.819 9.68175L101.172 9.36201L102.681 6.29889H101.011V5.60612H100.984ZM104.054 5.60612H106.693V6.00579L104.862 9.68175L104.216 9.36201L105.724 6.29889H104.054V5.60612ZM80.7028 14.9026L80.0564 14.5829L80.7566 13.2245C80.4062 13.2245 80.1373 13.0913 79.8945 12.8515C79.6523 12.6117 79.5447 12.3186 79.5447 11.946C79.5447 11.5997 79.6794 11.3066 79.9217 11.0668C80.164 10.8275 80.4605 10.6942 80.8103 10.6942C81.1607 10.6942 81.4838 10.8275 81.7261 11.0668C81.9689 11.3066 82.0764 11.5997 82.0764 11.9194C82.0764 12.0521 82.0493 12.1587 82.0227 12.2924C81.9955 12.4256 81.888 12.6117 81.7533 12.8515L80.7028 14.9026ZM80.8103 12.5056C80.9455 12.5056 81.0797 12.4518 81.1607 12.3457C81.2682 12.2391 81.2954 12.1059 81.2954 11.9727C81.2954 11.8128 81.2416 11.6796 81.134 11.573C81.026 11.4664 80.9184 11.4132 80.7837 11.4132C80.649 11.4132 80.5143 11.4664 80.4062 11.573C80.2992 11.6796 80.2449 11.8128 80.2449 11.9727C80.2449 12.1325 80.2992 12.2658 80.4062 12.3457C80.5414 12.4518 80.649 12.5056 80.8103 12.5056ZM103.435 21.1887C103.731 21.1887 103.973 21.2687 104.188 21.4019C104.404 21.5351 104.566 21.7483 104.673 22.0414C104.781 22.3344 104.835 22.7336 104.835 23.2665C104.835 23.7994 104.781 24.1991 104.647 24.4922C104.539 24.7848 104.377 24.9979 104.162 25.1311C103.973 25.2644 103.704 25.3443 103.408 25.3443C103.111 25.3443 102.842 25.2644 102.653 25.1311C102.438 24.9979 102.276 24.7848 102.169 24.4922C102.061 24.1991 102.007 23.7994 102.007 23.2932C102.007 22.5742 102.115 22.0414 102.357 21.7216C102.626 21.3486 102.977 21.1887 103.435 21.1887ZM103.461 21.9081C103.327 21.9081 103.219 21.9348 103.111 22.0414C103.004 22.1213 102.923 22.2545 102.896 22.4677C102.842 22.6537 102.815 22.9468 102.815 23.3464C102.815 23.8527 102.869 24.1991 103.004 24.3851C103.111 24.5716 103.273 24.6782 103.461 24.6782C103.65 24.6782 103.784 24.5987 103.892 24.4122C104.027 24.1991 104.081 23.826 104.081 23.3198C104.081 22.8136 104.027 22.4405 103.892 22.2545C103.784 21.9881 103.65 21.9081 103.461 21.9081ZM73.4036 26.4895H76.0434V26.8892L74.2385 30.5651L73.5926 30.2454L75.101 27.1823H73.4308V26.4895H73.4036ZM89.9139 30.5651L89.2675 30.2454L89.9677 28.887C89.6178 28.887 89.3479 28.7538 89.1057 28.514C88.8634 28.2742 88.7558 27.9811 88.7558 27.6086C88.7558 27.2617 88.8905 26.9691 89.1328 26.7293C89.3756 26.4895 89.6716 26.3563 90.0219 26.3563C90.3718 26.3563 90.6955 26.4895 90.9377 26.7293C91.18 26.9691 91.2876 27.2617 91.2876 27.5814C91.2876 27.7147 91.2609 27.8212 91.2338 27.9545C91.2066 28.0882 91.0991 28.2742 90.9644 28.514L89.9139 30.5651ZM89.9948 28.1943C90.1295 28.1943 90.2637 28.141 90.3446 28.0344C90.4527 27.9278 90.4793 27.7946 90.4793 27.6614C90.4793 27.5015 90.4256 27.3688 90.318 27.2617C90.2104 27.1556 90.1024 27.1023 89.9677 27.1023C89.833 27.1023 89.6988 27.1556 89.5907 27.2617C89.4831 27.3688 89.4289 27.5015 89.4289 27.6614C89.4289 27.8212 89.4831 27.9545 89.5907 28.0344C89.7254 28.141 89.8601 28.1943 89.9948 28.1943ZM101.576 26.4895H103.461V27.1823H102.142L101.98 27.9012C102.034 27.9012 102.061 27.875 102.115 27.875H102.25C102.6 27.875 102.923 28.0082 103.165 28.2476C103.408 28.4874 103.515 28.8071 103.515 29.1801C103.515 29.5798 103.381 29.899 103.111 30.1655C102.842 30.4319 102.519 30.5651 102.142 30.5651C101.791 30.5651 101.495 30.4586 101.253 30.272C101.011 30.0855 100.849 29.8191 100.768 29.4732H101.576C101.63 29.6059 101.711 29.6859 101.819 29.7658C101.927 29.8191 102.034 29.8724 102.142 29.8724C102.303 29.8724 102.465 29.8191 102.573 29.6859C102.681 29.5798 102.761 29.4194 102.761 29.2334C102.761 29.0469 102.707 28.9137 102.6 28.7804C102.492 28.6739 102.357 28.5939 102.196 28.5939C102.115 28.5939 102.034 28.6206 101.953 28.6472C101.872 28.7005 101.791 28.7538 101.711 28.8337L101.091 28.7005L101.576 26.4895ZM81.0531 31.6304H81.807V34.1878H82.1569V34.8801H81.807V35.6794H81.0531V34.8801H79.3024V34.1878L81.0531 31.6304ZM81.0531 34.1878V32.8561L80.1373 34.1878H81.0531ZM106.559 33.0154H105.805C105.832 32.5896 105.966 32.2428 106.208 32.0035C106.451 31.7637 106.774 31.6304 107.178 31.6304C107.421 31.6304 107.636 31.6842 107.824 31.7903C108.013 31.8969 108.148 32.0301 108.283 32.2166C108.39 32.4031 108.444 32.6163 108.444 32.8023C108.444 33.0421 108.363 33.2819 108.229 33.575C108.094 33.8414 107.852 34.1612 107.475 34.5342L107.017 35.0133H108.444V35.7061H105.67V35.333L106.909 34.0812C107.205 33.7881 107.421 33.5483 107.501 33.3618C107.609 33.1753 107.663 33.0154 107.663 32.8561C107.663 32.6957 107.609 32.5896 107.501 32.4826C107.394 32.3765 107.259 32.3232 107.098 32.3232C106.936 32.3232 106.801 32.3765 106.693 32.5097C106.64 32.6424 106.559 32.8023 106.559 33.0154ZM110.221 31.6304C110.518 31.6304 110.76 31.7104 110.976 31.8436C111.192 31.9768 111.353 32.19 111.461 32.4826C111.568 32.7756 111.622 33.1753 111.622 33.7082C111.622 34.2411 111.568 34.6408 111.434 34.9334C111.326 35.2264 111.164 35.4396 110.949 35.5728C110.76 35.7061 110.491 35.786 110.195 35.786C109.898 35.786 109.629 35.7061 109.441 35.5728C109.225 35.4396 109.063 35.2264 108.956 34.9334C108.848 34.6408 108.794 34.2411 108.794 33.7348C108.794 33.0154 108.902 32.4826 109.144 32.1633C109.414 31.8169 109.764 31.6304 110.221 31.6304ZM110.221 32.3498C110.087 32.3498 109.979 32.3765 109.872 32.4826C109.764 32.5625 109.683 32.6957 109.629 32.9094C109.575 33.0954 109.548 33.389 109.548 33.7881C109.548 34.2944 109.602 34.6408 109.737 34.8268C109.845 35.0133 110.006 35.1199 110.195 35.1199C110.383 35.1199 110.518 35.0399 110.626 34.8534C110.76 34.6408 110.814 34.2672 110.814 33.7615C110.814 33.2552 110.76 32.8822 110.626 32.6957C110.572 32.4564 110.41 32.3498 110.221 32.3498ZM70.3331 36.9579H72.9729V37.3575L71.1685 41.033L70.5221 40.7137L72.0305 37.6506H70.3331V36.9579ZM73.4036 36.9579H76.0434V37.3575L74.2385 41.033L73.5926 40.7137L75.101 37.6506H73.4308V36.9579H73.4036ZM77.7403 36.8513L78.3867 37.171L77.6865 38.5294C78.0363 38.5294 78.3057 38.6626 78.5485 38.9024C78.7903 39.1422 78.8983 39.4353 78.8983 39.8083C78.8983 40.1542 78.7636 40.4473 78.5214 40.6871C78.2786 40.9269 77.9826 41.0596 77.6322 41.0596C77.2819 41.0596 76.9587 40.9269 76.7164 40.6871C76.4742 40.4473 76.3666 40.1542 76.3666 39.8345C76.3666 39.7017 76.3933 39.5952 76.4204 39.4619C76.447 39.3282 76.5551 39.1422 76.6898 38.8758L77.7403 36.8513ZM77.6594 39.2221C77.5247 39.2221 77.39 39.2754 77.309 39.382C77.2015 39.4886 77.1743 39.6218 77.1743 39.7545C77.1743 39.9144 77.2286 40.0476 77.3362 40.1276C77.4437 40.2341 77.5513 40.2874 77.6865 40.2874C77.8207 40.2874 77.9554 40.2341 78.0635 40.1276C78.171 40.0215 78.2248 39.8878 78.2248 39.7279C78.2248 39.568 78.171 39.4353 78.0635 39.3554C77.9288 39.2754 77.7936 39.2221 77.6594 39.2221ZM81.5914 38.7692C81.7804 38.8758 81.9146 39.0356 82.0227 39.2221C82.1302 39.4087 82.184 39.5952 82.184 39.8083C82.184 40.0476 82.1302 40.2608 82.0227 40.4473C81.9146 40.6338 81.7532 40.7937 81.5648 40.8736C81.3763 40.9802 81.134 41.033 80.8103 41.033C80.4871 41.033 80.2182 40.9802 80.0293 40.9003C79.8408 40.7937 79.6794 40.6605 79.5714 40.4739C79.4638 40.2874 79.41 40.0743 79.41 39.8345C79.41 39.6218 79.4638 39.4353 79.5447 39.2754C79.6256 39.1156 79.787 38.9557 79.9488 38.8225C79.8408 38.6892 79.7332 38.5827 79.6794 38.4495C79.6256 38.3162 79.5985 38.183 79.5985 38.0231C79.5985 37.8105 79.6523 37.6235 79.7598 37.4641C79.8679 37.3042 80.0026 37.171 80.1911 37.0644C80.3796 36.9578 80.5952 36.9312 80.8103 36.9312C81.0531 36.9312 81.2416 36.9845 81.4301 37.0644C81.6186 37.171 81.7532 37.3042 81.8608 37.4641C81.9689 37.6506 82.0227 37.8371 82.0227 38.0231C82.0227 38.1564 81.9955 38.2896 81.9417 38.4228C81.8337 38.4761 81.7261 38.6093 81.5914 38.7692ZM80.7294 37.5707C80.5952 37.5707 80.4871 37.6235 80.4334 37.7039C80.3524 37.7833 80.2991 37.8904 80.2991 38.0231C80.2991 38.1564 80.3524 38.2629 80.4334 38.3429C80.5143 38.4228 80.6223 38.4761 80.7566 38.4761C80.8913 38.4761 80.9988 38.4228 81.0797 38.3429C81.1607 38.2629 81.2144 38.1564 81.2144 38.0231C81.2144 37.8904 81.1607 37.7833 81.0797 37.7039C80.9722 37.6235 80.8646 37.5707 80.7294 37.5707ZM80.7566 39.1689C80.5681 39.1689 80.4062 39.2221 80.2991 39.3282C80.164 39.4353 80.1102 39.568 80.1102 39.7279C80.1102 39.8878 80.164 40.0215 80.2991 40.1276C80.4062 40.2341 80.5681 40.2874 80.7566 40.2874C80.9455 40.2874 81.1069 40.2341 81.2144 40.1276C81.322 40.0215 81.3763 39.8878 81.3763 39.7279C81.3763 39.568 81.322 39.4353 81.1878 39.3282C81.1069 39.2221 80.9455 39.1689 80.7566 39.1689ZM99.5829 36.8513L100.229 37.171L99.5291 38.5294C99.8794 38.5294 100.149 38.6626 100.391 38.9024C100.633 39.1422 100.741 39.4353 100.741 39.8083C100.741 40.1542 100.607 40.4473 100.364 40.6871C100.122 40.9269 99.8252 41.0596 99.4753 41.0596C99.1255 41.0596 98.8023 40.9269 98.5595 40.6871C98.3173 40.4473 98.2097 40.1542 98.2097 39.8345C98.2097 39.7017 98.2364 39.5952 98.263 39.4619C98.2901 39.3282 98.3982 39.1422 98.5329 38.8758L99.5829 36.8513ZM99.4753 39.2221C99.3406 39.2221 99.2059 39.2754 99.1255 39.382C99.0174 39.4886 98.9903 39.6218 98.9903 39.7545C98.9903 39.9144 99.0446 40.0476 99.1521 40.1276C99.2597 40.2341 99.3678 40.2874 99.502 40.2874C99.6372 40.2874 99.7719 40.2341 99.8794 40.1276C99.987 40.0215 100.041 39.8878 100.041 39.7279C100.041 39.568 99.987 39.4353 99.8794 39.3554C99.7719 39.2754 99.6372 39.2221 99.4753 39.2221ZM102.546 41.0068L101.899 40.6871L102.6 39.3282C102.25 39.3282 101.98 39.1955 101.738 38.9557C101.495 38.7159 101.387 38.4228 101.387 38.0503C101.387 37.7039 101.522 37.4108 101.765 37.171C102.007 36.9312 102.303 36.798 102.653 36.798C103.004 36.798 103.327 36.9312 103.569 37.171C103.811 37.4108 103.92 37.7039 103.92 38.0231C103.92 38.1564 103.892 38.2629 103.865 38.3962C103.839 38.5294 103.731 38.7159 103.596 38.9557L102.546 41.0068ZM102.626 38.636C102.761 38.636 102.896 38.5827 102.977 38.4761C103.085 38.37 103.111 38.2368 103.111 38.1031C103.111 37.9432 103.058 37.8105 102.949 37.7039C102.842 37.5973 102.734 37.5435 102.6 37.5435C102.465 37.5435 102.33 37.5973 102.223 37.7039C102.115 37.8105 102.061 37.9432 102.061 38.1031C102.061 38.2629 102.115 38.3962 102.223 38.4761C102.357 38.5827 102.492 38.636 102.626 38.636ZM104.431 36.9579H107.07V37.3575L105.266 41.033L104.62 40.7137L106.128 37.6506H104.458V36.9579H104.431ZM109.01 36.8513H109.764V39.4087H110.114V40.1009H109.764V40.9003H109.01V40.1009H107.259V39.4087L109.01 36.8513ZM109.01 39.4087V38.0764L108.094 39.4087H109.01ZM111.838 36.8513L112.484 37.171L111.784 38.5294C112.134 38.5294 112.403 38.6626 112.646 38.9024C112.888 39.1422 112.996 39.4353 112.996 39.8083C112.996 40.1542 112.861 40.4473 112.619 40.6871C112.376 40.9269 112.08 41.0596 111.73 41.0596C111.38 41.0596 111.056 40.9269 110.814 40.6871C110.572 40.4473 110.464 40.1542 110.464 39.8345C110.464 39.7017 110.491 39.5952 110.518 39.4619C110.545 39.3282 110.653 39.1422 110.787 38.8758L111.838 36.8513ZM111.757 39.2221C111.622 39.2221 111.488 39.2754 111.407 39.382C111.299 39.4886 111.272 39.6218 111.272 39.7545C111.272 39.9144 111.326 40.0476 111.434 40.1276C111.541 40.2341 111.649 40.2874 111.784 40.2874C111.918 40.2874 112.053 40.2341 112.161 40.1276C112.269 40.0215 112.323 39.8878 112.323 39.7279C112.323 39.568 112.269 39.4353 112.161 39.3554C112.026 39.2754 111.891 39.2221 111.757 39.2221ZM70.9257 42.1787H72.8115V42.8715H71.4916L71.3298 43.5904C71.3841 43.5904 71.4107 43.5637 71.4645 43.5637H71.5992C71.9495 43.5637 72.2727 43.6969 72.515 43.9367C72.7573 44.1765 72.8653 44.4963 72.8653 44.8688C72.8653 45.2685 72.7306 45.5882 72.4612 45.8547C72.1918 46.1206 71.8686 46.2543 71.4916 46.2543C71.1413 46.2543 70.8453 46.1477 70.6025 45.9612C70.3602 45.7747 70.1989 45.5083 70.118 45.1619H70.9257C70.98 45.2951 71.0609 45.3751 71.1685 45.455C71.276 45.5083 71.3841 45.5616 71.4916 45.5616C71.653 45.5616 71.8148 45.5083 71.9224 45.3751C72.0305 45.2685 72.1109 45.1086 72.1109 44.9226C72.1109 44.7356 72.0571 44.6029 71.9495 44.4696C71.8415 44.3631 71.7073 44.2831 71.5454 44.2831C71.4645 44.2831 71.3841 44.3093 71.3032 44.3364C71.2222 44.3897 71.1413 44.443 71.0609 44.5229L70.4412 44.3897L70.9257 42.1787ZM74.05 43.4571H73.2961C73.3232 43.0313 73.4579 42.6849 73.7002 42.4451C73.9425 42.2053 74.2656 42.0721 74.6698 42.0721C74.912 42.0721 75.1276 42.1254 75.3161 42.232C75.5046 42.3386 75.6393 42.4718 75.774 42.6583C75.8816 42.8443 75.9359 43.0575 75.9359 43.244C75.9359 43.4838 75.8549 43.7236 75.7202 44.0167C75.5855 44.2831 75.3433 44.6029 74.9658 44.9754L74.5084 45.455H75.9359V46.1477H73.1885V45.7747L74.4275 44.5229C74.7235 44.2298 74.9392 43.99 75.0201 43.8035C75.1276 43.617 75.1814 43.4571 75.1814 43.2978C75.1814 43.1374 75.1276 43.0313 75.0201 42.9242C74.912 42.8182 74.7773 42.7649 74.616 42.7649C74.4541 42.7649 74.3194 42.8182 74.2119 42.9514C74.1043 43.0846 74.05 43.244 74.05 43.4571ZM77.6865 42.0721C77.9826 42.0721 78.2248 42.1521 78.4404 42.2853C78.6561 42.4185 78.8174 42.6317 78.925 42.9242C79.0325 43.2178 79.0868 43.617 79.0868 44.1499C79.0868 44.6828 79.0326 45.082 78.8983 45.3751C78.7903 45.6681 78.6289 45.8813 78.4133 46.0145C78.2248 46.1477 77.9554 46.2277 77.6594 46.2277C77.3633 46.2277 77.0939 46.1477 76.9054 46.0145C76.6898 45.8813 76.528 45.6681 76.4204 45.3751C76.3123 45.082 76.2591 44.6828 76.2591 44.1765C76.2591 43.4571 76.3666 42.9242 76.6089 42.6045C76.8783 42.2586 77.2286 42.0721 77.6865 42.0721ZM77.7131 42.7915C77.5784 42.7915 77.4704 42.8182 77.3633 42.9242C77.2553 43.0042 77.1743 43.1374 77.1477 43.3511C77.0939 43.5371 77.0668 43.8302 77.0668 44.2298C77.0668 44.7356 77.1206 45.082 77.2553 45.2685C77.3633 45.455 77.5247 45.5616 77.7131 45.5616C77.9016 45.5616 78.0363 45.4816 78.1439 45.2951C78.2786 45.082 78.3329 44.7089 78.3329 44.2032C78.3329 43.6969 78.2786 43.3239 78.1439 43.1374C78.0363 42.8981 77.9016 42.7915 77.7131 42.7915ZM80.8103 42.0721L81.4572 42.3919L80.7566 43.7502C81.1069 43.7502 81.3763 43.8835 81.6185 44.1233C81.8608 44.3631 81.9689 44.6561 81.9689 45.0287C81.9689 45.3751 81.8337 45.6681 81.5914 45.9079C81.3491 46.1477 81.0531 46.2805 80.7028 46.2805C80.3524 46.2805 80.0293 46.1477 79.787 45.9079C79.5447 45.6681 79.4367 45.3751 79.4367 45.0553C79.4367 44.9226 79.4638 44.8155 79.4909 44.6828C79.5176 44.5496 79.6256 44.3631 79.7598 44.0966L80.8103 42.0721ZM80.7294 44.4696C80.5952 44.4696 80.4605 44.5229 80.3796 44.629C80.272 44.7356 80.2449 44.8688 80.2449 45.0025C80.2449 45.1619 80.2992 45.2951 80.4062 45.3751C80.5143 45.4816 80.6223 45.5349 80.7566 45.5349C80.8913 45.5349 81.026 45.4816 81.134 45.3751C81.2416 45.2685 81.2954 45.1353 81.2954 44.9754C81.2954 44.8155 81.2416 44.6828 81.134 44.6029C80.9988 44.4963 80.8646 44.4696 80.7294 44.4696ZM97.9132 46.2277L97.2668 45.9079L97.9669 44.5496C97.6166 44.5496 97.3477 44.4163 97.1049 44.1765C96.8627 43.9367 96.7551 43.6437 96.7551 43.2706C96.7551 42.9242 96.8898 42.6317 97.1321 42.3919C97.3748 42.1521 97.6709 42.0188 98.0207 42.0188C98.3711 42.0188 98.6942 42.1521 98.9365 42.3919C99.1788 42.6317 99.2868 42.9243 99.2868 43.244C99.2868 43.3772 99.2597 43.4838 99.2331 43.617C99.2059 43.7502 99.0984 43.9367 98.9637 44.1765L97.9132 46.2277ZM97.9941 43.8568C98.1288 43.8568 98.263 43.8035 98.3439 43.6969C98.452 43.5904 98.4791 43.4571 98.4791 43.3239C98.4791 43.164 98.4248 43.0313 98.3173 42.9242C98.2097 42.8182 98.1017 42.7649 97.9669 42.7649C97.8322 42.7649 97.6975 42.8182 97.59 42.9242C97.4824 43.0313 97.4281 43.164 97.4281 43.3239C97.4281 43.4838 97.4824 43.617 97.59 43.6969C97.7247 43.8035 97.8594 43.8568 97.9941 43.8568ZM99.7985 42.1787H102.438V42.5784L100.633 46.2543L99.987 45.9346L101.495 42.8715H99.8252V42.1787H99.7985ZM103.596 43.1641H102.869C102.896 42.8715 103.004 42.6317 103.192 42.4718C103.435 42.232 103.731 42.0988 104.108 42.0988C104.431 42.0988 104.7 42.2053 104.943 42.4185C105.159 42.6317 105.266 42.8715 105.266 43.1641C105.266 43.3511 105.212 43.5104 105.131 43.6437C105.023 43.7769 104.889 43.9101 104.7 43.99C104.943 44.07 105.131 44.1765 105.266 44.3631C105.401 44.5496 105.482 44.7627 105.482 45.0025C105.482 45.3484 105.347 45.6681 105.078 45.9079C104.808 46.1477 104.485 46.2805 104.054 46.2805C103.677 46.2805 103.354 46.1744 103.111 45.9346C102.869 45.6948 102.734 45.3751 102.707 44.9754H103.461C103.488 45.1885 103.569 45.3223 103.677 45.4283C103.784 45.5349 103.92 45.5882 104.108 45.5882C104.297 45.5882 104.431 45.5349 104.539 45.4283C104.647 45.3223 104.727 45.1885 104.727 45.0025C104.727 44.8155 104.647 44.6828 104.485 44.5496C104.324 44.4163 104.108 44.3631 103.811 44.3631V43.7236C104 43.6969 104.135 43.6703 104.216 43.6437C104.297 43.5904 104.377 43.5371 104.431 43.4571C104.485 43.3772 104.512 43.2978 104.512 43.2178C104.512 43.1113 104.485 43.0313 104.404 42.9514C104.324 42.8715 104.216 42.8443 104.108 42.8443C104 42.8443 103.892 42.8715 103.811 42.9514C103.677 42.9514 103.623 43.0575 103.596 43.1641ZM106.559 43.4571H105.805C105.832 43.0313 105.966 42.6849 106.208 42.4451C106.451 42.2053 106.774 42.0721 107.178 42.0721C107.421 42.0721 107.636 42.1254 107.824 42.232C108.013 42.3386 108.148 42.4718 108.283 42.6583C108.39 42.8443 108.444 43.0575 108.444 43.244C108.444 43.4838 108.363 43.7236 108.229 44.0167C108.094 44.2831 107.852 44.6029 107.475 44.9754L107.017 45.455H108.444V46.1477H105.67V45.7747L106.909 44.5229C107.205 44.2298 107.421 43.99 107.501 43.8035C107.609 43.617 107.663 43.4571 107.663 43.2978C107.663 43.1374 107.609 43.0313 107.501 42.9242C107.394 42.8182 107.259 42.7649 107.098 42.7649C106.936 42.7649 106.801 42.8182 106.693 42.9514C106.64 43.0846 106.559 43.244 106.559 43.4571ZM110.221 42.0721C110.518 42.0721 110.76 42.1521 110.976 42.2853C111.192 42.4185 111.353 42.6317 111.461 42.9242C111.568 43.2178 111.622 43.617 111.622 44.1499C111.622 44.6828 111.568 45.082 111.434 45.3751C111.326 45.6681 111.164 45.8813 110.949 46.0145C110.76 46.1477 110.491 46.2277 110.195 46.2277C109.898 46.2277 109.629 46.1477 109.441 46.0145C109.225 45.8813 109.063 45.6681 108.956 45.3751C108.848 45.082 108.794 44.6828 108.794 44.1765C108.794 43.4571 108.902 42.9242 109.144 42.6045C109.414 42.2586 109.764 42.0721 110.221 42.0721ZM110.221 42.7915C110.087 42.7915 109.979 42.8182 109.872 42.9242C109.764 43.0042 109.683 43.1374 109.629 43.3511C109.575 43.5371 109.548 43.8302 109.548 44.2298C109.548 44.7356 109.602 45.082 109.737 45.2685C109.845 45.455 110.006 45.5616 110.195 45.5616C110.383 45.5616 110.518 45.4816 110.626 45.2951C110.76 45.082 110.814 44.7089 110.814 44.2032C110.814 43.6969 110.76 43.3239 110.626 43.1374C110.572 42.8981 110.41 42.7915 110.221 42.7915ZM71.6264 47.293L72.2727 47.6127L71.5726 48.9711C71.9224 48.9711 72.1918 49.1043 72.4341 49.3436C72.6763 49.5834 72.7844 49.8765 72.7844 50.2495C72.7844 50.5959 72.6497 50.889 72.4074 51.1283C72.1652 51.3681 71.8686 51.5013 71.5183 51.5013C71.1685 51.5013 70.8453 51.3681 70.6025 51.1283C70.3602 50.889 70.2527 50.5959 70.2527 50.2762C70.2527 50.1429 70.2793 50.0364 70.3065 49.9031C70.3331 49.7699 70.4412 49.5834 70.5759 49.3175L71.6264 47.293ZM71.5183 49.69C71.3841 49.69 71.2489 49.7433 71.1685 49.8499C71.0609 49.9564 71.0338 50.0897 71.0338 50.2229C71.0338 50.3827 71.0875 50.516 71.1951 50.5959C71.3032 50.7025 71.4107 50.7558 71.5454 50.7558C71.6801 50.7558 71.8148 50.7025 71.9224 50.5959C72.0305 50.4893 72.0837 50.3561 72.0837 50.1962C72.0837 50.0364 72.0305 49.9031 71.9224 49.8232C71.7877 49.7433 71.6801 49.69 71.5183 49.69ZM74.1309 48.3849H73.4036C73.4308 48.0918 73.5383 47.852 73.7268 47.6921C73.9696 47.4523 74.2656 47.3191 74.6426 47.3191C74.9658 47.3191 75.2352 47.4262 75.4775 47.6388C75.6931 47.852 75.8007 48.0918 75.8007 48.3849C75.8007 48.5714 75.7474 48.7313 75.6665 48.864C75.5584 48.9977 75.4242 49.1309 75.2352 49.2109C75.4775 49.2908 75.6665 49.3969 75.8007 49.5834C75.9359 49.7699 76.0163 49.9831 76.0163 50.2229C76.0163 50.5693 75.8816 50.889 75.6122 51.1283C75.3433 51.3681 75.0201 51.5013 74.5888 51.5013C74.2119 51.5013 73.8887 51.3947 73.6464 51.1549C73.4036 50.9151 73.2694 50.5959 73.2423 50.1962H73.9962C74.0234 50.4094 74.1043 50.5426 74.2119 50.6487C74.3194 50.7558 74.4541 50.8091 74.6426 50.8091C74.8316 50.8091 74.9658 50.7558 75.0739 50.6487C75.1814 50.5426 75.2623 50.3827 75.2623 50.2229C75.2623 50.0364 75.1814 49.9031 75.0201 49.7699C74.8582 49.6372 74.6426 49.5834 74.3466 49.5834V48.9439C74.5351 48.9178 74.6697 48.8911 74.7507 48.864C74.8316 48.8112 74.912 48.7579 74.9658 48.678C75.0201 48.5981 75.0467 48.5181 75.0467 48.4382C75.0467 48.3316 75.0201 48.2517 74.9392 48.1717C74.8582 48.0918 74.7507 48.0657 74.6426 48.0657C74.5351 48.0657 74.4275 48.0918 74.3466 48.1717C74.2119 48.1984 74.1581 48.2783 74.1309 48.3849ZM77.7403 47.293L78.3867 47.6127L77.6865 48.9711C78.0363 48.9711 78.3057 49.1043 78.5485 49.3436C78.7903 49.5834 78.8983 49.8765 78.8983 50.2495C78.8983 50.5959 78.7636 50.889 78.5214 51.1283C78.2786 51.3681 77.9826 51.5013 77.6322 51.5013C77.2819 51.5013 76.9587 51.3681 76.7164 51.1283C76.4742 50.889 76.3666 50.5959 76.3666 50.2762C76.3666 50.1429 76.3933 50.0364 76.4204 49.9031C76.447 49.7699 76.5551 49.5834 76.6898 49.3175L77.7403 47.293ZM77.6594 49.69C77.5247 49.69 77.39 49.7433 77.309 49.8499C77.2015 49.9564 77.1743 50.0897 77.1743 50.2229C77.1743 50.3827 77.2286 50.516 77.3362 50.5959C77.4437 50.7025 77.5513 50.7558 77.6865 50.7558C77.8207 50.7558 77.9554 50.7025 78.0635 50.5959C78.171 50.4893 78.2248 50.3561 78.2248 50.1962C78.2248 50.0364 78.171 49.9031 78.0635 49.8232C77.9288 49.7433 77.7936 49.69 77.6594 49.69ZM83.3421 48.0918L82.8037 48.5981C82.4268 48.225 82.0227 48.0385 81.5648 48.0385C81.1878 48.0385 80.8646 48.1717 80.5952 48.4382C80.3258 48.7046 80.1911 49.0239 80.1911 49.3969C80.1911 49.6633 80.2449 49.9031 80.3796 50.0897C80.4871 50.3028 80.649 50.4627 80.8646 50.5693C81.0797 50.6758 81.322 50.7558 81.5648 50.7558C81.7804 50.7558 81.9955 50.7025 82.184 50.6225C82.3725 50.5426 82.561 50.3827 82.7766 50.1696L83.2883 50.7025C82.9917 50.9951 82.7228 51.1816 82.4534 51.2882C82.184 51.3947 81.888 51.448 81.5376 51.448C80.9184 51.448 80.4062 51.2615 80.0026 50.8619C79.5985 50.4627 79.41 49.9564 79.41 49.3707C79.41 48.9711 79.4909 48.6242 79.6794 48.305C79.8679 47.9852 80.1102 47.7459 80.4605 47.5589C80.7837 47.3724 81.1607 47.2663 81.5376 47.2663C81.8608 47.2663 82.184 47.3463 82.4801 47.479C82.8575 47.6389 83.1269 47.852 83.3421 48.0918ZM85.1198 47.293L85.7662 47.6127L85.0656 48.9711C85.4164 48.9711 85.6853 49.1043 85.9276 49.3436C86.1703 49.5834 86.2779 49.8765 86.2779 50.2495C86.2779 50.5959 86.1437 50.889 85.9009 51.1283C85.6587 51.3681 85.3621 51.5013 85.0123 51.5013C84.6619 51.5013 84.3388 51.3681 84.0965 51.1283C83.8542 50.889 83.7462 50.5959 83.7462 50.2762C83.7462 50.1429 83.7733 50.0364 83.7999 49.9031C83.8271 49.7699 83.9347 49.5834 84.0694 49.3175L85.1198 47.293ZM85.0123 49.69C84.8776 49.69 84.7429 49.7433 84.6619 49.8499C84.5544 49.9564 84.5272 50.0897 84.5272 50.2229C84.5272 50.3827 84.5815 50.516 84.6891 50.5959C84.7967 50.7025 84.9047 50.7558 85.0389 50.7558C85.1736 50.7558 85.3083 50.7025 85.4164 50.5959C85.524 50.4893 85.5777 50.3561 85.5777 50.1962C85.5777 50.0364 85.524 49.9031 85.4164 49.8232C85.2812 49.7433 85.1736 49.69 85.0123 49.69ZM87.4902 47.3991H89.3756V48.0918H88.0557L87.8938 48.8112C87.9476 48.8112 87.9747 48.7846 88.0285 48.7846H88.1632C88.5131 48.7846 88.8368 48.9178 89.079 49.1571C89.3213 49.3969 89.4289 49.7166 89.4289 50.0897C89.4289 50.4893 89.2946 50.8091 89.0252 51.075C88.7558 51.3419 88.4326 51.4747 88.0557 51.4747C87.7053 51.4747 87.4093 51.3681 87.167 51.1816C86.9243 50.9951 86.7629 50.7286 86.682 50.3827H87.4902C87.5435 50.516 87.6244 50.5959 87.7325 50.6758C87.84 50.7286 87.9476 50.7824 88.0557 50.7824C88.217 50.7824 88.3789 50.7286 88.4864 50.5959C88.594 50.4893 88.6749 50.3295 88.6749 50.1429C88.6749 49.9564 88.6211 49.8232 88.5131 49.69C88.406 49.5834 88.2708 49.5035 88.1095 49.5035C88.0285 49.5035 87.9476 49.5306 87.8667 49.5568C87.7863 49.6101 87.7053 49.6633 87.6244 49.7433L87.0052 49.6101L87.4902 47.3991ZM91.2338 47.293L91.8802 47.6127L91.18 48.9711C91.5303 48.9711 91.7992 49.1043 92.0415 49.3436C92.2843 49.5834 92.3918 49.8765 92.3918 50.2495C92.3918 50.5959 92.2571 50.889 92.0149 51.1283C91.7726 51.3681 91.476 51.5013 91.1257 51.5013C90.7759 51.5013 90.4527 51.3681 90.2104 51.1283C89.9677 50.889 89.8601 50.5959 89.8601 50.2762C89.8601 50.1429 89.8872 50.0364 89.9139 49.9031C89.941 49.7699 90.0486 49.5834 90.1833 49.3175L91.2338 47.293ZM91.1529 49.69C91.0186 49.69 90.8834 49.7433 90.8025 49.8499C90.6955 49.9564 90.6683 50.0897 90.6683 50.2229C90.6683 50.3827 90.7221 50.516 90.8297 50.5959C90.9377 50.7025 91.0453 50.7558 91.18 50.7558C91.3147 50.7558 91.4494 50.7025 91.557 50.5959C91.6645 50.4893 91.7183 50.3561 91.7183 50.1962C91.7183 50.0364 91.6645 49.9031 91.557 49.8232C91.4223 49.7433 91.2876 49.69 91.1529 49.69ZM93.6041 47.3991H94.7622V51.3681H94.0078V48.1185H93.1729L93.6041 47.3991ZM96.0816 47.3991H98.7214V47.7987L96.9165 51.4747L96.2701 51.1549L97.7785 48.0918H96.1087V47.3991H96.0816ZM99.7985 48.678H99.0446C99.0712 48.2517 99.2059 47.9053 99.4487 47.666C99.6909 47.4262 100.014 47.293 100.418 47.293C100.66 47.293 100.876 47.3463 101.065 47.4523C101.253 47.5589 101.387 47.6921 101.522 47.9053C101.63 48.0918 101.684 48.305 101.684 48.4915C101.684 48.7313 101.603 48.9711 101.468 49.2637C101.334 49.5306 101.091 49.8499 100.714 50.2229L100.256 50.7025H101.684V51.3947H98.9365V51.0222L100.175 49.7699C100.472 49.4768 100.687 49.2375 100.768 49.051C100.876 48.864 100.93 48.7046 100.93 48.5448C100.93 48.3849 100.876 48.2783 100.768 48.1717C100.66 48.0657 100.526 48.0119 100.364 48.0119C100.203 48.0119 100.068 48.0657 99.9604 48.1984C99.8523 48.305 99.7985 48.4648 99.7985 48.678ZM102.842 48.678H102.088C102.115 48.2517 102.25 47.9053 102.492 47.666C102.734 47.4262 103.058 47.293 103.461 47.293C103.704 47.293 103.92 47.3463 104.108 47.4523C104.297 47.5589 104.431 47.6921 104.566 47.9053C104.673 48.0918 104.727 48.305 104.727 48.4915C104.727 48.7313 104.647 48.9711 104.512 49.2637C104.377 49.5306 104.135 49.8499 103.758 50.2229L103.3 50.7025H104.727V51.3947H101.953V51.0222L103.192 49.7699C103.488 49.4768 103.704 49.2375 103.784 49.051C103.892 48.864 103.946 48.7046 103.946 48.5448C103.946 48.3849 103.892 48.2783 103.784 48.1717C103.677 48.0657 103.542 48.0119 103.381 48.0119C103.219 48.0119 103.085 48.0657 102.977 48.1984C102.923 48.305 102.869 48.4648 102.842 48.678ZM106.505 47.293C106.801 47.293 107.043 47.3724 107.259 47.5061C107.475 47.6389 107.636 47.852 107.744 48.1451C107.852 48.4382 107.905 48.8379 107.905 49.3707C107.905 49.9031 107.852 50.3028 107.717 50.5959C107.609 50.889 107.448 51.1021 107.232 51.2349C107.043 51.3681 106.774 51.448 106.478 51.448C106.182 51.448 105.912 51.3681 105.724 51.2349C105.508 51.1021 105.347 50.889 105.239 50.5959C105.131 50.3028 105.078 49.9031 105.078 49.3969C105.078 48.678 105.185 48.1451 105.427 47.8259C105.697 47.479 106.047 47.293 106.505 47.293ZM106.532 48.0119C106.397 48.0119 106.29 48.0385 106.182 48.1451C106.074 48.225 105.993 48.3583 105.939 48.5714C105.885 48.7579 105.858 49.051 105.858 49.4507C105.858 49.9564 105.912 50.3028 106.047 50.4893C106.155 50.6758 106.317 50.7824 106.505 50.7824C106.693 50.7824 106.828 50.7025 106.936 50.516C107.07 50.3028 107.125 49.9298 107.125 49.4235C107.125 48.9178 107.07 48.5448 106.936 48.3583C106.855 48.1185 106.72 48.0119 106.532 48.0119ZM101.63 53.8988H100.876C100.903 53.4725 101.037 53.1266 101.28 52.8863C101.522 52.647 101.846 52.5138 102.25 52.5138C102.492 52.5138 102.707 52.5671 102.896 52.6732C103.085 52.7798 103.219 52.9135 103.354 53.0995C103.461 53.286 103.515 53.4992 103.515 53.6857C103.515 53.925 103.435 54.1653 103.3 54.4579C103.165 54.7243 102.923 55.0441 102.546 55.4171L102.088 55.8967H103.515V56.5889H100.741V56.2159L101.98 54.9641C102.276 54.671 102.492 54.4317 102.573 54.2447C102.681 54.0587 102.734 53.8988 102.734 53.739C102.734 53.5791 102.681 53.4725 102.573 53.3659C102.465 53.2594 102.33 53.2061 102.169 53.2061C102.007 53.2061 101.872 53.2594 101.765 53.3926C101.684 53.5258 101.63 53.6857 101.63 53.8988ZM70.98 6.88457H70.226C70.2527 6.45875 70.3874 6.11237 70.6297 5.87257C70.8724 5.63277 71.1951 5.49955 71.5992 5.49955C71.8415 5.49955 72.0571 5.55283 72.2456 5.65941C72.4341 5.76599 72.5688 5.89921 72.7035 6.11237C72.8115 6.29888 72.8653 6.51204 72.8653 6.69855C72.8653 6.93786 72.7844 7.17766 72.6497 7.47075C72.515 7.73719 72.2727 8.05692 71.8958 8.42945L71.4645 8.88242H72.892V9.57518H70.118V9.20214L71.357 7.95035C71.653 7.65726 71.8686 7.41745 71.9495 7.23094C72.0571 7.04443 72.1109 6.88456 72.1109 6.7247C72.1109 6.56483 72.0571 6.45875 71.9495 6.35217C71.8415 6.24559 71.7073 6.1923 71.5454 6.1923C71.3841 6.1923 71.2489 6.24559 71.1413 6.37881C71.0338 6.51204 70.98 6.67191 70.98 6.88457ZM74.616 5.49955C74.912 5.49955 75.1543 5.57948 75.3699 5.7127C75.5855 5.84592 75.7474 6.05908 75.8549 6.35217C75.9625 6.64476 76.0163 7.04444 76.0163 7.57733C76.0163 8.10972 75.9625 8.50938 75.8278 8.80247C75.7202 9.09557 75.5584 9.30873 75.3433 9.44195C75.1543 9.57518 74.8849 9.65511 74.5888 9.65511C74.2928 9.65511 74.0234 9.57518 73.8349 9.44195C73.6193 9.30873 73.4579 9.09557 73.3504 8.80247C73.2423 8.50938 73.1885 8.10973 73.1885 7.60397C73.1885 6.88457 73.2961 6.35217 73.5383 6.03244C73.8078 5.68606 74.1581 5.49955 74.616 5.49955ZM74.6426 6.21894C74.5084 6.21894 74.4003 6.24559 74.2928 6.35217C74.1852 6.4321 74.1043 6.56483 74.05 6.77799C73.9962 6.9645 73.9696 7.25759 73.9696 7.65726C73.9696 8.1635 74.0234 8.50939 74.1581 8.6959C74.2656 8.88241 74.4275 8.98899 74.616 8.98899C74.8045 8.98899 74.9392 8.90905 75.0467 8.72304C75.1814 8.50939 75.2352 8.13686 75.2352 7.63061C75.2352 7.12436 75.1814 6.75183 75.0467 6.56483C74.9929 6.32503 74.8316 6.21894 74.6426 6.21894ZM77.9826 5.49955H78.7365V8.05692H79.0868V8.74919H78.7365V9.54853H77.9826V8.74919H76.2319V8.05692L77.9826 5.49955ZM78.0097 8.05692V6.7247L77.0939 8.05692H78.0097ZM80.164 6.88457H79.41C79.4367 6.45875 79.5714 6.11237 79.8141 5.87257C80.0564 5.63277 80.3796 5.49955 80.7837 5.49955C81.026 5.49955 81.2416 5.55283 81.4301 5.65941C81.6186 5.76599 81.7532 5.89921 81.888 6.11237C81.9955 6.29888 82.0493 6.51204 82.0493 6.69855C82.0493 6.93786 81.9689 7.17766 81.8337 7.47075C81.6995 7.73719 81.4572 8.05692 81.0797 8.42945L80.6223 8.90906H82.0493V9.60181H79.3024V9.22879L80.5414 7.97699C80.8375 7.6839 81.0531 7.4441 81.134 7.25759C81.2416 7.07157 81.2954 6.9117 81.2954 6.75183C81.2954 6.59197 81.2416 6.48539 81.134 6.37881C81.026 6.27224 80.8913 6.21894 80.7294 6.21894C80.5681 6.21894 80.4334 6.27224 80.3258 6.40546C80.2449 6.51204 80.164 6.67191 80.164 6.88457ZM84.1231 5.49955H84.8776V8.05692H85.2274V8.74919H84.8776V9.54853H84.1231V8.74919H82.3725V8.05692L84.1231 5.49955ZM84.1231 8.05692V6.7247L83.2078 8.05692H84.1231ZM86.8433 9.68175L86.197 9.36201L86.8976 8.00364C86.5473 8.00364 86.2779 7.87041 86.0356 7.63061C85.7934 7.39081 85.6853 7.09772 85.6853 6.7247C85.6853 6.37881 85.8205 6.08572 86.0628 5.84592C86.305 5.60612 86.6011 5.4729 86.9514 5.4729C87.3017 5.4729 87.6244 5.60612 87.8667 5.84592C88.1095 6.08572 88.217 6.37882 88.217 6.69855C88.217 6.83178 88.1899 6.93786 88.1632 7.07158C88.1366 7.2043 88.0285 7.39081 87.8938 7.63061L86.8433 9.68175ZM86.9243 7.28423C87.059 7.28423 87.1937 7.23144 87.2746 7.12437C87.3822 7.01828 87.4093 6.88456 87.4093 6.75183C87.4093 6.59197 87.355 6.45875 87.2475 6.35217C87.1399 6.24559 87.0318 6.1923 86.8976 6.1923C86.7629 6.1923 86.6282 6.24559 86.5202 6.35217C86.4126 6.45875 86.3588 6.59197 86.3588 6.75183C86.3588 6.9117 86.4126 7.04443 86.5202 7.12437C86.6554 7.23144 86.7896 7.28423 86.9243 7.28423ZM89.3213 5.60612H91.2066V6.29889H89.8872L89.7254 7.01828C89.7797 7.01828 89.8063 6.99114 89.8601 6.99114H89.9948C90.3446 6.99114 90.6683 7.12436 90.9106 7.36417C91.1529 7.60397 91.2609 7.9237 91.2609 8.29672C91.2609 8.69639 91.1257 9.01564 90.8568 9.28208C90.5874 9.54853 90.2637 9.68175 89.8872 9.68175C89.5369 9.68175 89.2409 9.57517 88.9981 9.38866C88.7558 9.20215 88.594 8.9357 88.5131 8.58932H89.3213C89.3756 8.72304 89.456 8.80248 89.5641 8.88242C89.6716 8.9357 89.7797 8.98899 89.8872 8.98899C90.0486 8.98899 90.2104 8.9357 90.318 8.80247C90.4256 8.6959 90.5065 8.53653 90.5065 8.34953C90.5065 8.16351 90.4527 8.02979 90.3446 7.89706C90.2371 7.79048 90.1024 7.71055 89.941 7.71055C89.8601 7.71055 89.7797 7.73719 89.6987 7.76383C89.6178 7.81712 89.5369 7.87041 89.456 7.95035L88.8368 7.81713L89.3213 5.60612ZM93.3076 5.49955H94.0616V8.05692H94.4119V8.74919H94.0616V9.54853H93.3076V8.74919H91.557V8.05692L93.3076 5.49955ZM93.3347 8.05692V6.7247L92.419 8.05692H93.3347ZM71.6264 10.7204L72.2727 11.0401L71.5726 12.3985C71.9224 12.3985 72.1918 12.5317 72.4341 12.7715C72.6763 13.0113 72.7844 13.3044 72.7844 13.6774C72.7844 14.0233 72.6497 14.3164 72.4074 14.5562C72.1652 14.7955 71.8686 14.9292 71.5183 14.9292C71.1685 14.9292 70.8453 14.7955 70.6025 14.5562C70.3602 14.3164 70.2527 14.0233 70.2527 13.7041C70.2527 13.5709 70.2793 13.4643 70.3065 13.3306C70.3331 13.1978 70.4412 13.0113 70.5759 12.7449L71.6264 10.7204ZM71.5183 13.1179C71.3841 13.1179 71.2489 13.1712 71.1685 13.2778C71.0609 13.3843 71.0338 13.5171 71.0338 13.6503C71.0338 13.8102 71.0875 13.9434 71.1951 14.0233C71.3032 14.1299 71.4107 14.1832 71.5454 14.1832C71.6801 14.1832 71.8148 14.1299 71.9224 14.0233C72.0305 13.9168 72.0837 13.784 72.0837 13.6237C72.0837 13.4643 72.0305 13.3306 71.9224 13.2511C71.7877 13.1712 71.6801 13.1179 71.5183 13.1179ZM75.4508 12.6383C75.6393 12.7449 75.774 12.9048 75.8816 13.0908C75.9896 13.2778 76.0434 13.4643 76.0434 13.6774C76.0434 13.9167 75.9896 14.1299 75.8816 14.3164C75.774 14.5029 75.6122 14.6628 75.4242 14.7427C75.2352 14.8493 74.9929 14.9026 74.6698 14.9026C74.3466 14.9026 74.0772 14.8493 73.8887 14.7694C73.7002 14.6628 73.5383 14.5296 73.4308 14.3431C73.3232 14.1565 73.2694 13.9434 73.2694 13.7041C73.2694 13.4904 73.3232 13.3044 73.4036 13.1445C73.4846 12.9847 73.6464 12.8248 73.8078 12.6916C73.7002 12.5584 73.5926 12.4518 73.5383 12.3186C73.4846 12.1854 73.4579 12.0521 73.4579 11.8927C73.4579 11.6796 73.5117 11.4931 73.6193 11.3332C73.7268 11.1733 73.8615 11.0401 74.05 10.9335C74.2385 10.8275 74.4541 10.8003 74.6698 10.8003C74.912 10.8003 75.101 10.8536 75.289 10.9335C75.4775 11.0401 75.6122 11.1733 75.7202 11.3332C75.8278 11.5192 75.8816 11.7057 75.8816 11.8927C75.8816 12.0255 75.8549 12.1587 75.8007 12.2924C75.6931 12.3452 75.5855 12.5051 75.4508 12.6383ZM74.5888 11.4664C74.4541 11.4664 74.3732 11.5192 74.2928 11.5997C74.2119 11.6796 74.1581 11.7857 74.1581 11.9189C74.1581 12.0521 74.2119 12.1587 74.2928 12.2386C74.3732 12.3186 74.4813 12.3719 74.616 12.3719C74.7507 12.3719 74.8582 12.3186 74.9392 12.2386C75.0201 12.1587 75.0739 12.0521 75.0739 11.9189C75.0739 11.7857 75.0201 11.6796 74.9392 11.5997C74.8582 11.4931 74.7235 11.4664 74.5888 11.4664ZM74.6426 13.038C74.4541 13.038 74.2928 13.0908 74.1852 13.1978C74.05 13.3044 73.9962 13.4371 73.9962 13.597C73.9962 13.7569 74.05 13.8901 74.1852 13.9967C74.2928 14.1038 74.4541 14.1566 74.6426 14.1566C74.8316 14.1566 74.9929 14.1038 75.101 13.9967C75.2081 13.8901 75.2623 13.7569 75.2623 13.597C75.2623 13.4371 75.2081 13.3044 75.0739 13.1978C74.9658 13.0908 74.8045 13.038 74.6426 13.038ZM77.7403 10.7204L78.3867 11.0401L77.6865 12.3985C78.0363 12.3985 78.3057 12.5317 78.5485 12.7715C78.7903 13.0113 78.8983 13.3044 78.8983 13.6774C78.8983 14.0233 78.7636 14.3164 78.5214 14.5562C78.2786 14.7955 77.9826 14.9292 77.6322 14.9292C77.2819 14.9292 76.9587 14.7955 76.7164 14.5562C76.4742 14.3164 76.3666 14.0233 76.3666 13.7041C76.3666 13.5709 76.3933 13.4643 76.4204 13.3306C76.447 13.1978 76.5551 13.0113 76.6898 12.7449L77.7403 10.7204ZM77.6594 13.1179C77.5247 13.1179 77.39 13.1712 77.309 13.2778C77.2015 13.3843 77.1743 13.5171 77.1743 13.6503C77.1743 13.8102 77.2286 13.9434 77.3362 14.0233C77.4437 14.1299 77.5513 14.1832 77.6865 14.1832C77.8207 14.1832 77.9554 14.1299 78.0635 14.0233C78.171 13.9168 78.2248 13.784 78.2248 13.6237C78.2248 13.4643 78.171 13.3306 78.0635 13.2511C77.9288 13.1712 77.7936 13.1179 77.6594 13.1179ZM95.1658 10.8275H97.8056V11.2266L96.0007 14.9021L95.3543 14.5829L96.8627 11.5192H95.1658V10.8275ZM99.7447 10.7204H100.499V13.2778H100.849V13.97H100.499V14.7694H99.7447V13.97H97.9941V13.2778L99.7447 10.7204ZM99.7719 13.2778V11.9455L98.8556 13.2778H99.7719ZM102.573 10.7204L103.219 11.0401L102.519 12.3985C102.869 12.3985 103.138 12.5317 103.381 12.7715C103.623 13.0113 103.731 13.3044 103.731 13.6774C103.731 14.0233 103.596 14.3164 103.354 14.5562C103.111 14.7955 102.815 14.9292 102.465 14.9292C102.115 14.9292 101.791 14.7955 101.549 14.5562C101.307 14.3164 101.199 14.0233 101.199 13.7041C101.199 13.5709 101.226 13.4643 101.253 13.3306C101.28 13.1978 101.387 13.0113 101.522 12.7449L102.573 10.7204ZM102.492 13.1179C102.357 13.1179 102.223 13.1712 102.142 13.2778C102.034 13.3843 102.007 13.5171 102.007 13.6503C102.007 13.8102 102.061 13.9434 102.169 14.0233C102.276 14.1299 102.384 14.1832 102.519 14.1832C102.653 14.1832 102.788 14.1299 102.896 14.0233C103.004 13.9168 103.058 13.784 103.058 13.6237C103.058 13.4643 103.004 13.3306 102.896 13.2511C102.761 13.1712 102.626 13.1179 102.492 13.1179ZM104.97 10.8275H106.855V11.5192H105.535L105.374 12.2386C105.427 12.2386 105.455 12.212 105.508 12.212H105.643C105.993 12.212 106.317 12.3452 106.559 12.585C106.801 12.8248 106.909 13.1445 106.909 13.5171C106.909 13.9167 106.774 14.2365 106.505 14.5029C106.236 14.7694 105.912 14.9021 105.535 14.9021C105.185 14.9021 104.889 14.7955 104.647 14.6095C104.404 14.423 104.243 14.1565 104.162 13.8102H104.97C105.023 13.9434 105.104 14.0233 105.212 14.1038C105.32 14.1565 105.427 14.2098 105.535 14.2098C105.697 14.2098 105.858 14.1566 105.966 14.0233C106.074 13.9168 106.155 13.7569 106.155 13.5709C106.155 13.3843 106.101 13.2511 105.993 13.1179C105.885 13.0113 105.751 12.9314 105.589 12.9314C105.508 12.9314 105.427 12.958 105.347 12.9847C105.266 13.038 105.185 13.0908 105.104 13.1712L104.485 13.038L104.97 10.8275ZM108.067 12.1054H107.313C107.34 11.6796 107.475 11.3332 107.717 11.0934C107.96 10.8536 108.283 10.7204 108.686 10.7204C108.929 10.7204 109.144 10.7737 109.333 10.8803C109.522 10.9868 109.656 11.1201 109.791 11.3061C109.898 11.4931 109.953 11.7057 109.953 11.8927C109.953 12.1321 109.872 12.3719 109.737 12.6649C109.602 12.9314 109.36 13.2511 108.982 13.6237L108.525 14.1038H109.953V14.7955H107.178V14.423L108.417 13.1712C108.714 12.8781 108.929 12.6383 109.01 12.4518C109.118 12.2653 109.171 12.1054 109.171 11.9455C109.171 11.7857 109.118 11.6796 109.01 11.573C108.902 11.4664 108.767 11.4132 108.606 11.4132C108.444 11.4132 108.309 11.4664 108.202 11.5997C108.121 11.7329 108.067 11.8927 108.067 12.1054ZM71.5454 15.9412C71.8415 15.9412 72.0838 16.0212 72.2994 16.1544C72.515 16.2876 72.6763 16.5008 72.7844 16.7939C72.892 17.0865 72.9458 17.4861 72.9458 18.019C72.9458 18.5519 72.892 18.9511 72.7573 19.2442C72.6497 19.5373 72.4884 19.7504 72.2727 19.8836C72.0838 20.0169 71.8148 20.0968 71.5183 20.0968C71.2222 20.0968 70.9528 20.0169 70.7644 19.8836C70.5492 19.7504 70.3874 19.5373 70.2793 19.2442C70.1718 18.9511 70.118 18.5519 70.118 18.0457C70.118 17.3263 70.226 16.7939 70.4683 16.4741C70.7377 16.1278 71.1147 15.9412 71.5454 15.9412ZM71.5726 16.6606C71.4374 16.6606 71.3298 16.6868 71.2222 16.7939C71.1147 16.8738 71.0338 17.0065 70.98 17.2197C70.9528 17.4062 70.9257 17.6993 70.9257 18.099C70.9257 18.6047 70.98 18.9511 71.1147 19.1376C71.2222 19.3241 71.3841 19.4307 71.5726 19.4307C71.7606 19.4307 71.8958 19.3507 72.0033 19.1642C72.138 18.9511 72.1918 18.5786 72.1918 18.0723C72.1918 17.5661 72.138 17.193 72.0033 17.0065C71.9224 16.7667 71.7606 16.6606 71.5726 16.6606ZM74.6964 15.9412L75.3433 16.261L74.6426 17.6194C74.9929 17.6194 75.2623 17.7526 75.5046 17.9924C75.7474 18.2322 75.8549 18.5253 75.8549 18.8978C75.8549 19.2442 75.7202 19.5373 75.4775 19.7771C75.2352 20.0169 74.9392 20.1501 74.5888 20.1501C74.2385 20.1501 73.9153 20.0169 73.6731 19.7771C73.4308 19.5373 73.3232 19.2442 73.3232 18.9244C73.3232 18.7912 73.3504 18.6851 73.377 18.5519C73.4036 18.4182 73.5117 18.2322 73.6464 17.9657L74.6964 15.9412ZM74.5888 18.3388C74.4541 18.3388 74.3194 18.3915 74.2385 18.4981C74.1309 18.6047 74.1043 18.7379 74.1043 18.8712C74.1043 19.031 74.1581 19.1642 74.2656 19.2442C74.3732 19.3508 74.4813 19.404 74.616 19.404C74.7507 19.404 74.8849 19.3508 74.9929 19.2442C75.101 19.1376 75.1543 19.0044 75.1543 18.845C75.1543 18.6851 75.101 18.5519 74.9929 18.4715C74.8582 18.3916 74.7507 18.3388 74.5888 18.3388ZM77.6322 20.1234L76.9858 19.8037L77.6865 18.4453C77.3362 18.4453 77.0668 18.3121 76.8245 18.0723C76.5822 17.8325 76.4742 17.5394 76.4742 17.1664C76.4742 16.8205 76.6089 16.5274 76.8512 16.2876C77.0939 16.0478 77.39 15.9146 77.7403 15.9146C78.0901 15.9146 78.4133 16.0478 78.6561 16.2876C78.8983 16.5274 79.0059 16.8205 79.0059 17.1398C79.0059 17.2735 78.9793 17.38 78.9516 17.5128C78.925 17.646 78.8174 17.8325 78.6827 18.0723L77.6322 20.1234ZM77.7403 17.7259C77.8745 17.7259 78.0097 17.6726 78.0901 17.5661C78.1977 17.4595 78.2248 17.3263 78.2248 17.1935C78.2248 17.0337 78.171 16.9 78.0635 16.7939C77.9554 16.6868 77.8479 16.634 77.7131 16.634C77.5784 16.634 77.4437 16.6868 77.3362 16.7939C77.2286 16.9 77.1743 17.0337 77.1743 17.1935C77.1743 17.3529 77.2286 17.4861 77.3362 17.5661C77.4704 17.6726 77.5784 17.7259 77.7403 17.7259ZM79.5447 16.0478H82.184V16.4475L80.3524 20.1234L79.7066 19.8037L81.2144 16.7406H79.5447V16.0478ZM95.8936 17.0337H95.1658C95.1929 16.7406 95.3005 16.5008 95.489 16.3409C95.7318 16.1011 96.0278 15.9679 96.4048 15.9679C96.7285 15.9679 96.9974 16.0745 97.2396 16.2876C97.4553 16.5008 97.5633 16.7406 97.5633 17.0337C97.5633 17.2197 97.5091 17.38 97.4281 17.5128C97.3206 17.646 97.1859 17.7792 96.9974 17.8591C97.2397 17.9391 97.4281 18.0457 97.5633 18.2322C97.6975 18.4187 97.7785 18.6318 97.7785 18.8712C97.7785 19.2175 97.6438 19.5373 97.3748 19.7771C97.1049 20.0169 96.7818 20.1501 96.351 20.1501C95.974 20.1501 95.6508 20.043 95.4086 19.8037C95.1658 19.5639 95.0311 19.2442 95.0045 18.845H95.7584C95.7856 19.0577 95.8665 19.1909 95.974 19.2975C96.0816 19.404 96.2168 19.4573 96.4048 19.4573C96.5933 19.4573 96.7285 19.404 96.836 19.2975C96.9436 19.1909 97.0245 19.0577 97.0245 18.8712C97.0245 18.6851 96.9436 18.5519 96.7818 18.4187C96.6204 18.2855 96.4048 18.2322 96.1087 18.2322V17.5927C96.2972 17.5661 96.4319 17.5394 96.5128 17.5128C96.5933 17.4595 96.6742 17.4062 96.7285 17.3263C96.7818 17.2463 96.8089 17.1664 96.8089 17.0865C96.8089 16.9804 96.7818 16.8999 96.7013 16.8205C96.6204 16.7406 96.5128 16.7139 96.4048 16.7139C96.2972 16.7139 96.1897 16.7406 96.1087 16.8205C96.0007 16.8471 95.9202 16.9266 95.8936 17.0337ZM98.8827 17.3263H98.1288C98.1554 16.8999 98.2901 16.5541 98.5329 16.3143C98.7752 16.0745 99.0984 15.9412 99.502 15.9412C99.7447 15.9412 99.9604 15.9945 100.149 16.1011C100.337 16.2077 100.472 16.3409 100.607 16.5274C100.714 16.7139 100.768 16.9266 100.768 17.1131C100.768 17.3529 100.687 17.5927 100.552 17.8858C100.418 18.1522 100.175 18.4715 99.7985 18.845L99.3406 19.3241H100.768V20.0169H97.9941V19.6434L99.2331 18.3915C99.5291 18.0989 99.7447 17.8592 99.8252 17.6726C99.9332 17.4861 99.987 17.3263 99.987 17.1664C99.987 17.0065 99.9332 16.9 99.8252 16.7939C99.7176 16.6868 99.5829 16.634 99.4215 16.634C99.2597 16.634 99.1255 16.6868 99.0174 16.8205C98.9365 16.9537 98.8827 17.1397 98.8827 17.3263ZM102.519 15.9412C102.815 15.9412 103.058 16.0212 103.273 16.1544C103.488 16.2876 103.65 16.5008 103.758 16.7939C103.865 17.0865 103.92 17.4861 103.92 18.019C103.92 18.5519 103.865 18.9511 103.731 19.2442C103.623 19.5373 103.461 19.7504 103.246 19.8836C103.058 20.0169 102.788 20.0968 102.492 20.0968C102.196 20.0968 101.927 20.0169 101.738 19.8836C101.522 19.7504 101.361 19.5373 101.253 19.2442C101.145 18.9511 101.091 18.5519 101.091 18.0457C101.091 17.3263 101.199 16.7939 101.442 16.4741C101.711 16.1278 102.061 15.9412 102.519 15.9412ZM102.546 16.6606C102.411 16.6606 102.303 16.6868 102.196 16.7939C102.088 16.8738 102.007 17.0065 101.98 17.2197C101.927 17.4062 101.899 17.6993 101.899 18.099C101.899 18.6047 101.953 18.9511 102.088 19.1376C102.196 19.3241 102.357 19.4307 102.546 19.4307C102.734 19.4307 102.869 19.3507 102.977 19.1642C103.111 18.9511 103.165 18.5786 103.165 18.0723C103.165 17.5661 103.111 17.1935 102.977 17.0065C102.869 16.7667 102.734 16.6606 102.546 16.6606ZM105.643 15.9412L106.29 16.261L105.589 17.6194C105.939 17.6194 106.208 17.7526 106.451 17.9924C106.693 18.2322 106.801 18.5253 106.801 18.8983C106.801 19.2442 106.666 19.5373 106.424 19.7771C106.182 20.0169 105.885 20.1501 105.535 20.1501C105.185 20.1501 104.862 20.0169 104.62 19.7771C104.377 19.5373 104.269 19.2442 104.269 18.9244C104.269 18.7912 104.297 18.6851 104.324 18.5519C104.35 18.4187 104.458 18.2322 104.593 17.9657L105.643 15.9412ZM105.562 18.3388C105.427 18.3388 105.293 18.392 105.212 18.4986C105.104 18.6047 105.078 18.7384 105.078 18.8712C105.078 19.031 105.131 19.1642 105.239 19.2442C105.347 19.3508 105.455 19.404 105.589 19.404C105.724 19.404 105.858 19.3508 105.966 19.2442C106.074 19.1376 106.128 19.0044 106.128 18.845C106.128 18.6851 106.074 18.5519 105.966 18.4715C105.832 18.392 105.697 18.3388 105.562 18.3388ZM71.0609 22.2545H70.3331C70.3602 21.9614 70.4683 21.7216 70.6568 21.5618C70.8991 21.322 71.1951 21.1887 71.5726 21.1887C71.8958 21.1887 72.1652 21.2953 72.4074 21.5085C72.6226 21.7216 72.7306 21.9614 72.7306 22.2545C72.7306 22.4405 72.6763 22.6004 72.5954 22.7336C72.4884 22.8668 72.3536 23.0001 72.1652 23.08C72.4074 23.1599 72.5954 23.2665 72.7306 23.4525C72.8653 23.6395 72.9458 23.8522 72.9458 24.092C72.9458 24.4384 72.8115 24.7581 72.5421 24.9979C72.2727 25.2377 71.9495 25.3709 71.5183 25.3709C71.1413 25.3709 70.8181 25.2644 70.5759 25.0246C70.3331 24.7848 70.1989 24.465 70.1718 24.0658H70.9257C70.9528 24.279 71.0338 24.4117 71.1413 24.5183C71.2489 24.6249 71.3841 24.6782 71.5726 24.6782C71.7606 24.6782 71.8958 24.6249 72.0033 24.5183C72.1109 24.4117 72.1918 24.2785 72.1918 24.092C72.1918 23.9055 72.1109 23.7723 71.9495 23.6395C71.7877 23.5063 71.5726 23.4525 71.276 23.4525V22.8136C71.4645 22.7869 71.5992 22.7603 71.6801 22.7336C71.7606 22.6803 71.8415 22.627 71.8958 22.5471C71.9495 22.4672 71.9762 22.3872 71.9762 22.3073C71.9762 22.2007 71.9495 22.1213 71.8686 22.0414C71.7877 21.9614 71.6801 21.9348 71.5726 21.9348C71.4645 21.9348 71.3569 21.9614 71.276 22.0414C71.1685 22.0675 71.0875 22.1474 71.0609 22.2545ZM74.6964 21.1887L75.3433 21.5085L74.6426 22.8668C74.9929 22.8668 75.2623 23.0001 75.5046 23.2399C75.7474 23.4797 75.8549 23.7723 75.8549 24.1458C75.8549 24.4917 75.7202 24.7848 75.4775 25.0246C75.2352 25.2644 74.9392 25.3976 74.5888 25.3976C74.2385 25.3976 73.9153 25.2644 73.6735 25.0246C73.4308 24.7848 73.3232 24.4917 73.3232 24.1719C73.3232 24.0392 73.3504 23.9326 73.377 23.7994C73.4036 23.6662 73.5117 23.4797 73.6464 23.2132L74.6964 21.1887ZM74.5888 23.5596C74.4541 23.5596 74.3194 23.6129 74.2385 23.7195C74.1309 23.826 74.1043 23.9593 74.1043 24.092C74.1043 24.2519 74.1581 24.3851 74.2656 24.465C74.3732 24.5716 74.4813 24.6249 74.616 24.6249C74.7507 24.6249 74.8849 24.5716 74.9929 24.465C75.101 24.3584 75.1543 24.2252 75.1543 24.0658C75.1543 23.9055 75.101 23.7723 74.9929 23.6923C74.8582 23.6129 74.7507 23.5596 74.5888 23.5596ZM80.272 21.9614L79.7332 22.4672C79.3562 22.0946 78.9516 21.9081 78.4942 21.9081C78.1168 21.9081 77.7936 22.0414 77.5247 22.3073C77.2553 22.5742 77.1206 22.894 77.1206 23.2665C77.1206 23.533 77.1743 23.7723 77.309 23.9593C77.4171 24.1719 77.5784 24.3318 77.7936 24.4384C78.0097 24.545 78.252 24.6249 78.4942 24.6249C78.7099 24.6249 78.925 24.5716 79.1135 24.4917C79.3024 24.4117 79.4909 24.2519 79.7066 24.0392L80.2182 24.5716C79.9217 24.8647 79.6523 25.0512 79.3834 25.1573C79.1135 25.2644 78.8174 25.3176 78.4942 25.3176C77.8745 25.3176 77.3633 25.1311 76.9587 24.7315C76.5551 24.3318 76.3666 23.826 76.3666 23.2399C76.3666 22.8402 76.447 22.4943 76.6355 22.1746C76.8245 21.8548 77.0668 21.615 77.4171 21.4285C77.7403 21.242 78.1168 21.1354 78.5214 21.1354C78.8446 21.1354 79.1677 21.2154 79.4638 21.3486C79.787 21.5351 80.0564 21.7216 80.272 21.9614ZM82.0493 21.1887L82.6957 21.5085L81.9955 22.8668C82.3458 22.8668 82.6152 23.0001 82.8575 23.2399C83.0998 23.4797 83.2078 23.7723 83.2078 24.1458C83.2078 24.4917 83.0726 24.7848 82.8304 25.0246C82.5881 25.2644 82.2921 25.3976 81.9417 25.3976C81.5914 25.3976 81.2682 25.2644 81.026 25.0246C80.7837 24.7848 80.6756 24.4917 80.6756 24.1719C80.6756 24.0392 80.7028 23.9326 80.7294 23.7994C80.7566 23.6662 80.8646 23.4797 80.9988 23.2132L82.0493 21.1887ZM81.9417 23.5596C81.807 23.5596 81.6723 23.6129 81.5914 23.7195C81.4838 23.826 81.4572 23.9593 81.4572 24.092C81.4572 24.2519 81.5105 24.3851 81.6185 24.465C81.7261 24.5716 81.8337 24.6249 81.9689 24.6249C82.1036 24.6249 82.2378 24.5716 82.3458 24.465C82.4534 24.3584 82.5072 24.2252 82.5072 24.0658C82.5072 23.9055 82.4534 23.7723 82.3458 23.6923C82.2111 23.6129 82.1036 23.5596 81.9417 23.5596ZM84.4197 21.2687H86.305V21.9614H84.9851L84.8238 22.6803C84.8776 22.6537 84.9047 22.6537 84.958 22.6537H85.0927C85.443 22.6537 85.7662 22.7869 86.0085 23.0267C86.2512 23.2665 86.3588 23.5862 86.3588 23.9593C86.3588 24.3589 86.2241 24.6782 85.9547 24.9446C85.6853 25.2111 85.3621 25.3443 84.9851 25.3443C84.6348 25.3443 84.3388 25.2377 84.0965 25.0512C83.8542 24.8647 83.6924 24.5987 83.6115 24.2519H84.4197C84.4735 24.3851 84.5544 24.465 84.6619 24.5449C84.7695 24.5987 84.8776 24.6515 84.9851 24.6515C85.147 24.6515 85.3083 24.5987 85.4164 24.465C85.524 24.3589 85.6044 24.1991 85.6044 24.0121C85.6044 23.826 85.5506 23.6923 85.443 23.5596C85.3355 23.4525 85.2008 23.3731 85.0389 23.3731C84.958 23.3731 84.8776 23.3997 84.7966 23.4264C84.7157 23.4797 84.6348 23.533 84.5544 23.6129L83.9346 23.4797L84.4197 21.2687ZM88.1632 21.1887L88.8096 21.5085L88.1095 22.8668C88.4598 22.8668 88.7292 23.0001 88.9715 23.2399C89.2137 23.4797 89.3213 23.7723 89.3213 24.1458C89.3213 24.4917 89.1866 24.7848 88.9443 25.0246C88.7021 25.2644 88.406 25.3976 88.0557 25.3976C87.7053 25.3976 87.3822 25.2644 87.1399 25.0246C86.8976 24.7848 86.7896 24.4917 86.7896 24.1719C86.7896 24.0392 86.8167 23.9326 86.8433 23.7994C86.8705 23.6662 86.9785 23.4797 87.1127 23.2132L88.1632 21.1887ZM88.0828 23.5596C87.9476 23.5596 87.8134 23.6129 87.7325 23.7195C87.6244 23.826 87.5978 23.9593 87.5978 24.092C87.5978 24.2519 87.6516 24.3851 87.7591 24.465C87.8667 24.5716 87.9747 24.6249 88.1095 24.6249C88.2442 24.6249 88.3789 24.5716 88.4864 24.465C88.594 24.3584 88.6483 24.2252 88.6483 24.0658C88.6483 23.9055 88.594 23.7723 88.4864 23.6923C88.3517 23.6129 88.217 23.5596 88.0828 23.5596ZM90.5336 21.2687H91.6645V25.2377H90.9106V21.9881H90.0757L90.5336 21.2687ZM93.0116 21.2687H95.6508V21.6683L93.8464 25.3443L93.2 25.0246L94.7079 21.9614H93.0116V21.2687ZM96.7285 22.5471H95.974C96.0007 22.1213 96.1359 21.7749 96.3777 21.5351C96.6204 21.2953 96.9436 21.1621 97.3477 21.1621C97.59 21.1621 97.8056 21.2154 97.9941 21.322C98.1826 21.4285 98.3173 21.5618 98.452 21.7483C98.5595 21.9348 98.6133 22.1474 98.6133 22.3344C98.6133 22.5742 98.5329 22.8135 98.3982 23.1066C98.263 23.3731 98.0207 23.6923 97.6438 24.0658L97.1859 24.5449H98.6133V25.2377H95.8665V24.8647L97.1049 23.6129C97.4015 23.3198 97.6171 23.08 97.6975 22.894C97.8056 22.707 97.8594 22.5471 97.8594 22.3872C97.8594 22.2274 97.8056 22.1213 97.6975 22.0147C97.59 21.9081 97.4553 21.8548 97.2939 21.8548C97.1321 21.8548 96.9974 21.9081 96.8898 22.0414C96.7818 22.1746 96.7285 22.3611 96.7285 22.5471ZM99.7985 22.5471H99.0446C99.0712 22.1213 99.2059 21.7749 99.4487 21.5351C99.6909 21.2953 100.014 21.1621 100.418 21.1621C100.66 21.1621 100.876 21.2154 101.065 21.322C101.253 21.4285 101.387 21.5618 101.522 21.7483C101.63 21.9348 101.684 22.1474 101.684 22.3344C101.684 22.5742 101.603 22.8135 101.468 23.1066C101.334 23.3731 101.091 23.6923 100.714 24.0658L100.256 24.5449H101.684V25.2377H98.9365V24.8647L100.175 23.6129C100.472 23.3198 100.687 23.08 100.768 22.894C100.876 22.707 100.93 22.5471 100.93 22.3872C100.93 22.2274 100.876 22.1213 100.768 22.0147C100.66 21.9081 100.526 21.8548 100.364 21.8548C100.203 21.8548 100.068 21.9081 99.9604 22.0414C99.8523 22.1746 99.7985 22.3611 99.7985 22.5471ZM71.5454 26.4096C71.8415 26.4096 72.0838 26.4895 72.2994 26.6227C72.515 26.756 72.6763 26.9686 72.7844 27.2617C72.892 27.5553 72.9458 27.9545 72.9458 28.4874C72.9458 29.0202 72.892 29.4194 72.7573 29.7125C72.6497 30.0056 72.4884 30.2188 72.2727 30.352C72.0838 30.4852 71.8148 30.5651 71.5183 30.5651C71.2222 30.5651 70.9528 30.4852 70.7644 30.352C70.5492 30.2188 70.3874 30.0056 70.2793 29.7125C70.1718 29.4194 70.118 29.0202 70.118 28.514C70.118 27.7946 70.226 27.2617 70.4683 26.9425C70.7377 26.5694 71.1147 26.4096 71.5454 26.4096ZM71.5726 27.1285C71.4374 27.1285 71.3298 27.1556 71.2222 27.2617C71.1147 27.3421 71.0338 27.4754 70.98 27.688C70.9257 27.875 70.8991 28.1676 70.8991 28.5673C70.8991 29.073 70.9528 29.4194 71.0875 29.6059C71.1951 29.7924 71.3569 29.899 71.5454 29.899C71.7339 29.899 71.8686 29.8191 71.9762 29.6326C72.1109 29.4194 72.1652 29.0469 72.1652 28.5406C72.1652 28.0344 72.1109 27.6614 71.9762 27.4754C71.9224 27.2089 71.7606 27.1285 71.5726 27.1285ZM76.4742 26.4895H79.1135V26.8892L77.309 30.5651L76.6627 30.2454L78.171 27.1818H76.4742V26.4895ZM80.8103 26.4096L81.4572 26.7293L80.7566 28.0877C81.1069 28.0877 81.3763 28.2209 81.6185 28.4607C81.8608 28.7005 81.9689 28.9931 81.9689 29.3661C81.9689 29.7125 81.8337 30.0056 81.5914 30.2454C81.3491 30.4852 81.0531 30.6184 80.7028 30.6184C80.3524 30.6184 80.0293 30.4852 79.787 30.2454C79.5447 30.0056 79.4367 29.7125 79.4367 29.3928C79.4367 29.26 79.4638 29.153 79.4909 29.0202C79.5176 28.887 79.6256 28.7005 79.7598 28.4336L80.8103 26.4096ZM80.7294 28.7804C80.5952 28.7804 80.4605 28.8332 80.3796 28.9403C80.272 29.0469 80.2449 29.1801 80.2449 29.3128C80.2449 29.4727 80.2992 29.6059 80.4062 29.6859C80.5143 29.7924 80.6223 29.8457 80.7566 29.8457C80.8913 29.8457 81.026 29.7924 81.134 29.6859C81.2416 29.5793 81.2954 29.4466 81.2954 29.2862C81.2954 29.1268 81.2416 28.9931 81.134 28.9137C80.9988 28.8332 80.8646 28.7804 80.7294 28.7804ZM84.6348 28.3275C84.8238 28.4336 84.958 28.5939 85.0656 28.7804C85.1736 28.9665 85.2274 29.153 85.2274 29.3661C85.2274 29.6059 85.1736 29.8191 85.0656 30.0056C84.958 30.1921 84.7966 30.352 84.6082 30.4319C84.4197 30.538 84.1774 30.5918 83.8542 30.5918C83.531 30.5918 83.2616 30.538 83.0727 30.4581C82.8847 30.352 82.7228 30.2188 82.6152 30.0322C82.5072 29.8457 82.4534 29.6326 82.4534 29.3928C82.4534 29.1801 82.5072 28.9931 82.5881 28.8332C82.6685 28.6739 82.8304 28.514 82.9917 28.3808C82.8847 28.2476 82.7766 28.141 82.7228 28.0078C82.6685 27.875 82.6419 27.7413 82.6419 27.5814C82.6419 27.3683 82.6957 27.1818 82.8037 27.0224C82.9113 26.8625 83.046 26.7293 83.2345 26.6227C83.423 26.5162 83.6386 26.4895 83.8542 26.4895C84.0965 26.4895 84.285 26.5428 84.4735 26.6227C84.6619 26.7293 84.7966 26.8625 84.9047 27.0224C85.0123 27.2089 85.0656 27.3949 85.0656 27.5814C85.0656 27.7147 85.0389 27.8479 84.9851 27.9811C84.8776 28.0344 84.7967 28.1676 84.6348 28.3275ZM83.7999 27.1285C83.6657 27.1285 83.5848 27.1818 83.5039 27.2617C83.423 27.3421 83.3692 27.4482 83.3692 27.5814C83.3692 27.7147 83.423 27.8212 83.5039 27.9012C83.5848 27.9811 83.6924 28.0344 83.8271 28.0344C83.9618 28.0344 84.0693 27.9811 84.1503 27.9012C84.2307 27.8212 84.285 27.7147 84.285 27.5814C84.285 27.4482 84.2307 27.3421 84.1503 27.2617C84.0427 27.1818 83.9346 27.1285 83.7999 27.1285ZM83.8271 28.7272C83.6386 28.7272 83.4768 28.7804 83.3692 28.887C83.2345 28.9931 83.1807 29.1268 83.1807 29.2862C83.1807 29.4466 83.2345 29.5793 83.3692 29.6859C83.4768 29.7924 83.6386 29.8457 83.8271 29.8457C84.0156 29.8457 84.1774 29.7924 84.285 29.6859C84.3925 29.5793 84.4463 29.4466 84.4463 29.2862C84.4463 29.1268 84.3925 28.9931 84.2578 28.887C84.1503 28.7804 84.0156 28.7272 83.8271 28.7272ZM86.9514 26.4096L87.5978 26.7293L86.8976 28.0877C87.2475 28.0877 87.5169 28.2209 87.7591 28.4607C88.0019 28.7005 88.1095 28.9931 88.1095 29.3661C88.1095 29.7125 87.9747 30.0056 87.7325 30.2454C87.4902 30.4852 87.1937 30.6184 86.8433 30.6184C86.4935 30.6184 86.1703 30.4852 85.9276 30.2454C85.6853 30.0056 85.5777 29.7125 85.5777 29.3928C85.5777 29.26 85.6044 29.153 85.6315 29.0202C85.6587 28.887 85.7662 28.7005 85.9009 28.4336L86.9514 26.4096ZM86.8433 28.7804C86.7086 28.7804 86.5744 28.8332 86.4935 28.9403C86.3855 29.0469 86.3588 29.1801 86.3588 29.3128C86.3588 29.4727 86.4126 29.6059 86.5202 29.6859C86.6282 29.7924 86.7358 29.8457 86.8705 29.8457C87.0052 29.8457 87.1399 29.7924 87.2475 29.6859C87.355 29.5793 87.4093 29.4466 87.4093 29.2862C87.4093 29.1268 87.355 28.9931 87.2475 28.9137C87.1128 28.8332 87.0052 28.7804 86.8433 28.7804ZM91.7992 26.4895H94.439V26.8892L92.6341 30.5651L91.9877 30.2454L93.4961 27.1818H91.8264V26.4895H91.7992ZM96.3777 26.4096H97.1321V28.9665H97.4824V29.6592H97.1321V30.4581H96.3777V29.6592H94.627V28.9665L96.3777 26.4096ZM96.3777 28.9665V27.6352L95.4619 28.9665H96.3777ZM99.2059 26.4096L99.8523 26.7293L99.1521 28.0877C99.502 28.0877 99.7719 28.2209 100.014 28.4607C100.256 28.7005 100.364 28.9931 100.364 29.3661C100.364 29.7125 100.229 30.0056 99.987 30.2454C99.7447 30.4852 99.4487 30.6184 99.0983 30.6184C98.748 30.6184 98.4248 30.4852 98.1826 30.2454C97.9398 30.0056 97.8322 29.7125 97.8322 29.3928C97.8322 29.26 97.8594 29.153 97.8865 29.0202C97.9132 28.887 98.0207 28.7005 98.1554 28.4336L99.2059 26.4096ZM99.0983 28.7804C98.9636 28.7804 98.8289 28.8332 98.748 28.9403C98.6405 29.0469 98.6133 29.1801 98.6133 29.3128C98.6133 29.4727 98.6671 29.6059 98.7752 29.6859C98.8827 29.7924 98.9903 29.8457 99.1255 29.8457C99.2597 29.8457 99.3944 29.7924 99.502 29.6859C99.61 29.5793 99.6638 29.4466 99.6638 29.2862C99.6638 29.1268 99.61 28.9931 99.502 28.9137C99.3944 28.8332 99.2597 28.7804 99.0983 28.7804ZM104.7 27.7946H103.946C103.973 27.3683 104.108 27.0224 104.35 26.7826C104.593 26.5428 104.916 26.4096 105.32 26.4096C105.562 26.4096 105.778 26.4629 105.966 26.5694C106.155 26.676 106.29 26.8092 106.424 26.9958C106.532 27.1818 106.586 27.3949 106.586 27.5814C106.586 27.8212 106.505 28.061 106.37 28.3541C106.236 28.6206 105.993 28.9403 105.616 29.3128L105.159 29.7924H106.586V30.4852H103.811V30.1122L105.05 28.8604C105.347 28.5673 105.562 28.3275 105.643 28.141C105.751 27.9545 105.805 27.7946 105.805 27.6352C105.805 27.4754 105.751 27.3683 105.643 27.2617C105.535 27.1556 105.401 27.1023 105.239 27.1023C105.078 27.1023 104.943 27.1556 104.835 27.2883C104.754 27.4221 104.7 27.5814 104.7 27.7946ZM71.5454 31.6304C71.8415 31.6304 72.0838 31.7104 72.2994 31.8436C72.515 31.9768 72.6763 32.19 72.7844 32.4826C72.892 32.7756 72.9458 33.1753 72.9458 33.7082C72.9458 34.2411 72.892 34.6403 72.7573 34.9334C72.6497 35.2264 72.4884 35.4396 72.2727 35.5728C72.0838 35.7056 71.8148 35.7855 71.5183 35.7855C71.2222 35.7855 70.9528 35.7056 70.7644 35.5728C70.5492 35.4396 70.3874 35.2264 70.2793 34.9334C70.1718 34.6403 70.118 34.2411 70.118 33.7344C70.118 33.0154 70.226 32.4826 70.4683 32.1633C70.7377 31.8169 71.1147 31.6304 71.5454 31.6304ZM71.5726 32.3493C71.4374 32.3493 71.3298 32.3765 71.2222 32.4826C71.1147 32.5625 71.0338 32.6957 70.98 32.9089C70.9257 33.0954 70.8991 33.3885 70.8991 33.7881C70.8991 34.2939 70.9528 34.6403 71.0875 34.8268C71.1951 35.0133 71.3569 35.1199 71.5454 35.1199C71.7339 35.1199 71.8686 35.0399 71.9762 34.8534C72.1109 34.6403 72.1652 34.2672 72.1652 33.7615C72.1652 33.2552 72.1109 32.8822 71.9762 32.6957C71.9224 32.4564 71.7606 32.3493 71.5726 32.3493ZM74.912 31.6304H75.6665V34.1878H76.0434V34.8801H75.6931V35.6794H74.9392V34.8801H73.1885V34.1878L74.912 31.6304ZM74.9392 34.1878V32.8561L74.0234 34.1878H74.9392ZM77.0939 33.0154H76.3395C76.3666 32.5891 76.5013 32.2428 76.7436 32.0035C76.9859 31.7637 77.309 31.6304 77.7131 31.6304C77.9554 31.6304 78.171 31.6837 78.3595 31.7903C78.5485 31.8969 78.6827 32.0296 78.8174 32.2166C78.925 32.4031 78.9793 32.6163 78.9793 32.8023C78.9793 33.0421 78.8983 33.2819 78.7636 33.575C78.6289 33.8414 78.3867 34.1612 78.0097 34.5337L77.5513 35.0133H78.9793V35.7056H76.2591V35.333L77.4975 34.0812C77.7936 33.7881 78.0097 33.5483 78.0901 33.3618C78.1977 33.1753 78.252 33.0154 78.252 32.8561C78.252 32.6957 78.1977 32.5891 78.0901 32.4826C77.9826 32.3765 77.8478 32.3232 77.6865 32.3232C77.5247 32.3232 77.39 32.3765 77.2819 32.5092C77.1743 32.6424 77.1206 32.8023 77.0939 33.0154ZM97.9132 35.7855L97.2668 35.4662L97.9669 34.1079C97.6171 34.1079 97.3477 33.9746 97.1049 33.7344C96.8627 33.495 96.7551 33.202 96.7551 32.8289C96.7551 32.4826 96.8898 32.19 97.1321 31.9502C97.3748 31.7104 97.6709 31.5771 98.0207 31.5771C98.3711 31.5771 98.6942 31.7104 98.9365 31.9502C99.1788 32.19 99.2868 32.4826 99.2868 32.8023C99.2868 32.936 99.2597 33.0421 99.2331 33.1753C99.2059 33.3085 99.0984 33.495 98.9637 33.7344L97.9132 35.7855ZM97.9941 33.4151C98.1288 33.4151 98.263 33.3618 98.3439 33.2552C98.452 33.1487 98.4791 33.0154 98.4791 32.8822C98.4791 32.7229 98.4248 32.5891 98.3173 32.4826C98.2097 32.3765 98.1017 32.3232 97.9669 32.3232C97.8322 32.3232 97.6975 32.3765 97.59 32.4826C97.4824 32.5891 97.4281 32.7229 97.4281 32.8822C97.4281 33.0421 97.4824 33.1753 97.59 33.2552C97.7247 33.3618 97.8594 33.4151 97.9941 33.4151ZM100.391 31.737H102.276V32.4293H100.957L100.795 33.1487C100.849 33.1487 100.876 33.122 100.93 33.122H101.065C101.414 33.122 101.738 33.2552 101.98 33.495C102.223 33.7344 102.33 34.0541 102.33 34.4276C102.33 34.8268 102.196 35.1465 101.927 35.413C101.657 35.6794 101.334 35.8126 100.957 35.8126C100.607 35.8126 100.31 35.7056 100.068 35.519C99.8252 35.333 99.6638 35.0666 99.5829 34.7202H100.391C100.445 34.8534 100.526 34.9334 100.633 35.0133C100.741 35.0666 100.849 35.1199 100.957 35.1199C101.118 35.1199 101.28 35.0666 101.387 34.9334C101.495 34.8268 101.576 34.6669 101.576 34.4804C101.576 34.2939 101.522 34.1612 101.414 34.0279C101.307 33.9214 101.172 33.8414 101.011 33.8414C100.93 33.8414 100.849 33.8681 100.768 33.8947C100.687 33.9475 100.607 34.0013 100.526 34.0812L99.9061 33.9475L100.391 31.737ZM104.377 31.6304H105.131V34.1878H105.482V34.8801H105.131V35.6794H104.377V34.8801H102.626V34.1878L104.377 31.6304ZM104.404 34.1878V32.8561L103.488 34.1878H104.404ZM70.3331 52.6204H72.9729V53.0201L71.1685 56.6955L70.5221 56.3758L72.0305 53.3127H70.3331V52.6204ZM73.4036 52.6204H76.0434V53.0201L74.2385 56.6955L73.5926 56.3758L75.101 53.3127H73.4308V52.6204H73.4036ZM77.7403 52.5138L78.3867 52.8331L77.6865 54.1919C78.0363 54.1919 78.3057 54.3251 78.5485 54.5645C78.7903 54.8043 78.8983 55.0973 78.8983 55.4704C78.8983 55.8167 78.7636 56.1093 78.5214 56.3491C78.2786 56.5889 77.9826 56.7222 77.6322 56.7222C77.2819 56.7222 76.9587 56.5889 76.7164 56.3491C76.4742 56.1093 76.3666 55.8167 76.3666 55.497C76.3666 55.3638 76.3933 55.2572 76.4204 55.124C76.447 54.9908 76.5551 54.8043 76.6898 54.5378L77.7403 52.5138ZM77.6594 54.9108C77.5247 54.9108 77.39 54.9641 77.309 55.0707C77.2015 55.1773 77.1743 55.3105 77.1743 55.4437C77.1743 55.6036 77.2286 55.7368 77.3362 55.8167C77.4437 55.9233 77.5513 55.9766 77.6865 55.9766C77.8207 55.9766 77.9554 55.9233 78.0635 55.8167C78.171 55.7097 78.2248 55.5769 78.2248 55.4171C78.2248 55.2572 78.171 55.124 78.0635 55.0441C77.9288 54.9641 77.7936 54.9108 77.6594 54.9108ZM81.5914 54.4317C81.7804 54.5378 81.9146 54.6977 82.0227 54.8842C82.1302 55.0707 82.184 55.2572 82.184 55.4704C82.184 55.7097 82.1302 55.9233 82.0227 56.1093C81.9146 56.2963 81.7532 56.4562 81.5648 56.5361C81.3763 56.6422 81.134 56.6955 80.8103 56.6955C80.4871 56.6955 80.2182 56.6422 80.0293 56.5623C79.8408 56.4562 79.6794 56.323 79.5714 56.1365C79.4638 55.9495 79.41 55.7368 79.41 55.497C79.41 55.2839 79.4638 55.0973 79.5447 54.9375C79.6256 54.7776 79.787 54.6182 79.9488 54.4845C79.8408 54.3518 79.7332 54.2452 79.6794 54.112C79.6256 53.9788 79.5985 53.8455 79.5985 53.6857C79.5985 53.4725 79.6523 53.286 79.7598 53.1266C79.8679 52.9663 80.0026 52.8331 80.1911 52.727C80.3796 52.6204 80.5952 52.5937 80.8103 52.5937C81.0531 52.5937 81.2416 52.647 81.4301 52.727C81.6186 52.8331 81.7532 52.9663 81.8608 53.1266C81.9689 53.3127 82.0227 53.4992 82.0227 53.6857C82.0227 53.8189 81.9955 53.9521 81.9417 54.0853C81.8337 54.1653 81.7261 54.2985 81.5914 54.4317ZM80.7294 53.2594C80.5952 53.2594 80.4871 53.3127 80.4334 53.3926C80.3524 53.4725 80.2991 53.5791 80.2991 53.7123C80.2991 53.8455 80.3524 53.9521 80.4334 54.0321C80.5143 54.112 80.6223 54.1653 80.7566 54.1653C80.8913 54.1653 80.9988 54.112 81.0797 54.0321C81.1607 53.9521 81.2144 53.8455 81.2144 53.7123C81.2144 53.5791 81.1607 53.4725 81.0797 53.3926C80.9722 53.286 80.8646 53.2594 80.7294 53.2594ZM80.7566 54.8314C80.5681 54.8314 80.4062 54.8842 80.2991 54.9908C80.164 55.0973 80.1102 55.2306 80.1102 55.3904C80.1102 55.5503 80.164 55.6835 80.2991 55.7901C80.4062 55.8967 80.5681 55.9495 80.7566 55.9495C80.9455 55.9495 81.1069 55.8967 81.2144 55.7901C81.322 55.6835 81.3763 55.5503 81.3763 55.3904C81.3763 55.2306 81.322 55.0973 81.1878 54.9908C81.1069 54.9108 80.9455 54.8314 80.7566 54.8314ZM83.8809 52.5138L84.5272 52.8331L83.8271 54.1919C84.1774 54.1919 84.4463 54.3251 84.6891 54.5645C84.9314 54.8043 85.0389 55.0973 85.0389 55.4704C85.0389 55.8167 84.9047 56.1093 84.6619 56.3491C84.4197 56.5889 84.1231 56.7222 83.7733 56.7222C83.423 56.7222 83.0998 56.5889 82.8575 56.3491C82.6152 56.1093 82.5072 55.8167 82.5072 55.497C82.5072 55.3638 82.5343 55.2572 82.561 55.124C82.5881 54.9908 82.6957 54.8043 82.8304 54.5378L83.8809 52.5138ZM83.7733 54.9108C83.6386 54.9108 83.5039 54.9641 83.423 55.0707C83.3149 55.1773 83.2883 55.3105 83.2883 55.4437C83.2883 55.6036 83.3421 55.7368 83.4501 55.8167C83.5577 55.9233 83.6657 55.9766 83.7999 55.9766C83.9346 55.9766 84.0693 55.9233 84.1774 55.8167C84.285 55.7097 84.3388 55.5769 84.3388 55.4171C84.3388 55.2572 84.285 55.124 84.1774 55.0441C84.0693 54.9641 83.9347 54.9108 83.7733 54.9108ZM86.8433 56.6955L86.197 56.3758L86.8976 55.0174C86.5473 55.0174 86.2779 54.8842 86.0356 54.6444C85.7934 54.4046 85.6853 54.112 85.6853 53.739C85.6853 53.3926 85.8205 53.0995 86.0628 52.8602C86.305 52.6204 86.6011 52.4872 86.9514 52.4872C87.3017 52.4872 87.6244 52.6204 87.8667 52.8602C88.1095 53.0995 88.217 53.3926 88.217 53.7123C88.217 53.8455 88.1899 53.9521 88.1632 54.0853C88.1366 54.2186 88.0285 54.4046 87.8938 54.6444L86.8433 56.6955ZM86.9243 54.2985C87.059 54.2985 87.1937 54.2452 87.2746 54.1381C87.3822 54.0321 87.4093 53.8988 87.4093 53.7656C87.4093 53.6057 87.355 53.4725 87.2475 53.3659C87.1399 53.2594 87.0318 53.2061 86.8976 53.2061C86.7629 53.2061 86.6282 53.2594 86.5202 53.3659C86.4126 53.4725 86.3588 53.6057 86.3588 53.7656C86.3588 53.9255 86.4126 54.0587 86.5202 54.1381C86.6554 54.2452 86.7896 54.2985 86.9243 54.2985ZM88.7292 52.6204H91.3685V53.0201L89.5641 56.6955L88.9177 56.3758L90.4256 53.3127H88.7558V52.6204H88.7292ZM93.3076 52.5138H94.0616V55.0707H94.4119V55.7635H94.0616V56.5623H93.3076V55.7635H91.557V55.0707L93.3076 52.5138ZM93.3347 55.0707V53.739L92.419 55.0707H93.3347ZM96.1359 52.5138L96.7818 52.8331L96.0816 54.1919C96.4319 54.1919 96.7013 54.3251 96.9436 54.5645C97.1859 54.8043 97.2939 55.0973 97.2939 55.4704C97.2939 55.8167 97.1587 56.1093 96.9165 56.3491C96.6742 56.5889 96.3777 56.7222 96.0278 56.7222C95.6775 56.7222 95.3543 56.5889 95.112 56.3491C94.8698 56.1093 94.7622 55.8167 94.7622 55.497C94.7622 55.3638 94.7888 55.2572 94.816 55.124C94.8426 54.9908 94.9507 54.8043 95.0854 54.5378L96.1359 52.5138ZM96.055 54.9108C95.9203 54.9108 95.7855 54.9641 95.7046 55.0707C95.5971 55.1773 95.5699 55.3105 95.5699 55.4437C95.5699 55.6036 95.6237 55.7368 95.7318 55.8167C95.8393 55.9233 95.9469 55.9766 96.0816 55.9766C96.2168 55.9766 96.351 55.9233 96.4586 55.8167C96.5666 55.7097 96.6204 55.5769 96.6204 55.4171C96.6204 55.2572 96.5666 55.124 96.4586 55.0441C96.3239 54.9641 96.1897 54.9108 96.055 54.9108ZM98.5058 52.6204H100.391V53.3127H99.0712L98.9094 54.0321C98.9637 54.0321 98.9903 54.0054 99.0446 54.0054H99.1788C99.5291 54.0054 99.8523 54.1381 100.095 54.3784C100.337 54.6182 100.445 54.9375 100.445 55.3105C100.445 55.7097 100.31 56.0294 100.041 56.2963C99.7719 56.5623 99.4487 56.6955 99.0712 56.6955C98.7214 56.6955 98.4248 56.5889 98.1826 56.4029C97.9398 56.2164 97.7785 55.9495 97.6975 55.6036H98.5058C98.5595 55.7368 98.6405 55.8167 98.748 55.8967C98.8561 55.9495 98.9636 56.0033 99.0712 56.0033C99.2331 56.0033 99.3944 55.9495 99.502 55.8167C99.61 55.7097 99.691 55.5503 99.691 55.3638C99.691 55.1773 99.6372 55.0441 99.5291 54.9108C99.4215 54.8043 99.2868 54.7243 99.1255 54.7243C99.0446 54.7243 98.9636 54.7515 98.8827 54.7776C98.8023 54.8314 98.7214 54.8842 98.6405 54.9641L98.0207 54.8314L98.5058 52.6204Z" fill="#C7C7C7"/>
<path d="M51.0353 56.7236L63.8992 0.276707H51.7123L44.5187 39.5438L36.3936 0.276707H27.5072L19.4673 39.5438L12.1888 0.276707H0.00177002L12.8658 56.7236H24.7144L31.9085 19.1484L39.1864 56.7236H51.0353Z" fill="#D8D8D8"/>
</svg>
